<svg width="509" height="42" viewBox="0 0 509 42" fill="none" xmlns="http://www.w3.org/2000/svg">
<path d="M39.8294 41.1636C40.1415 41.1114 41.4046 41.1962 41.9506 41.1657C41.3406 41.6613 38.7031 41.3529 39.8294 41.1636ZM95.2732 4.9786C94.8214 5.10675 94.3697 5.2349 93.9182 5.36306C95.2093 5.41564 96.9429 5.2945 98.1442 5.3847C98.3406 5.39995 97.8385 5.75536 98.3029 5.76185C98.7674 5.76824 98.6687 5.29765 99.343 5.23413C100.099 5.1643 103.577 5.42667 104.781 5.39568C109.261 5.27804 113.773 4.92249 118.279 5.03368C113.64 5.47088 118.327 5.73804 119.627 5.56208C119.913 5.52163 119.855 4.6442 124.519 4.77781C127.476 4.86274 124.769 6.16911 129.691 5.44801C125.881 4.64074 129.612 4.63248 132.588 4.54787C133.101 4.53312 137.25 4.58802 139.082 4.51524C139.709 4.4901 140.656 4.0125 141.488 3.98506C142.061 3.96651 142.496 4.21001 143.345 4.18155C147.299 4.05194 151.191 3.96097 155.158 3.97356C152.862 5.19782 156.986 4.44406 157.173 4.49721C158.124 4.80087 153.852 4.97019 155.546 5.14006C157.907 5.06033 160.269 4.9807 162.629 4.90122C160.689 4.79129 165.177 3.85934 166.013 4.23111C165.629 3.19313 176.79 4.94577 178.476 4.56686C178.828 4.48686 176.507 4.01208 181.872 4.15213C182.453 4.16798 182.239 4.48702 182.543 4.45219C182.725 4.43127 183.811 3.40999 184.996 3.94242C185.429 4.13677 182.696 4.8435 188.719 4.47154C186.305 3.49481 197.055 3.77091 199.049 3.99131C198.65 3.86138 198.252 3.73145 197.853 3.60153C199.82 3.93622 200.167 3.5834 200.609 3.59447C202.389 3.63885 204.839 3.94495 206.493 3.8839C208.428 3.81309 208.424 3.17902 210.683 3.38593C210.146 3.25546 209.608 3.12501 209.07 2.99456C210.629 3.00081 212.186 3.00711 213.742 3.01346C210.154 3.91597 214.521 3.03982 214.808 3.01671C215.268 2.97809 214.611 3.33328 215.383 3.27694C215.463 3.2685 215.342 2.947 216.533 2.88974C219.022 2.77125 218.635 3.18494 219.68 3.16203C219.776 3.15825 219.436 2.87265 221.238 2.77212C226.963 2.4524 221.214 2.99595 220.994 3.04011C220.706 3.09833 222.695 4.28184 217.815 3.93534C219.454 4.04414 219.627 4.58026 219.812 4.59041C219.976 4.59854 222.806 4.47305 222.962 4.45176C224.35 4.2444 223.119 3.89749 223.389 3.82674C223.61 3.76963 227.026 4.1901 227.804 3.06833C229.45 4.06181 226.885 4.01289 224.152 4.21777C223.757 4.43443 226.763 4.58588 226.92 4.58258C230.789 4.51321 228.632 3.71004 229.468 3.15798C229.907 2.8691 231.492 3.41512 230.025 2.68676C233.53 2.54609 231.411 3.0199 231.639 3.08059C231.982 3.16959 233.204 2.93224 233.359 2.95833C233.587 2.99697 232.802 3.27166 233.699 3.348C233.848 3.35877 235.281 2.88464 233.419 2.70236C235.903 2.72296 235.691 2.34365 236.547 3.10066C238.229 1.6111 237.801 3.94204 238.475 4.01215C240.266 4.19673 239.727 3.05956 239.82 3.00202C240.466 2.63252 245.41 2.94061 246.626 2.75434C246.16 3.58821 242.717 2.8311 241.951 3.00461C239.401 3.58183 245.564 3.35481 243.724 4.42432C244.498 4.12594 245.271 3.82758 246.044 3.52922C247.48 4.17148 245.465 4.49726 249.294 4.1872C249.91 3.6007 246.585 4.32502 247.247 3.86002C247.637 3.58705 249.858 3.49144 249.899 3.3504C249.94 3.18075 247.936 3.41565 248.248 3.15042C248.919 2.57805 256.292 2.98439 250.691 3.38724C252.247 3.35075 253.083 4.45159 254.433 4.08077C255.306 3.84013 250.344 2.38547 257.754 2.54C257.921 3.06375 254.797 2.74655 254.716 2.78803C254.603 2.84833 255.188 4.02664 255.287 4.08359C255.64 4.2706 263.177 3.50421 264.771 4.07387C264.134 3.39796 270.437 3.85376 271.146 3.63231C271.329 3.57137 270.632 3.16262 270.829 3.11471C272.056 2.82856 275.39 3.5223 276.926 3.51538C278.646 3.50789 278.422 3.14838 278.518 3.1474C279.274 3.15469 278.675 3.41133 279.137 3.4027C279.837 3.38949 284.621 3.35778 284.857 3.30233C284.927 3.28511 284.141 2.88351 285.18 2.78694C285.367 2.77009 285.23 3.26457 288.351 2.99848C292.1 2.67851 285.733 2.43135 287.284 1.88936C289.71 2.5816 289.617 1.856 290.272 1.90187C290.498 1.91879 292.192 2.50804 294.012 2.43773C292.707 2.56047 291.399 2.68324 290.089 2.80606C291.381 2.89232 293.877 2.71535 294.937 2.81968C295.454 2.87044 295.037 3.38549 296.157 3.35257C296.394 3.34284 297.318 2.08957 294.391 2.69496C294.149 2.25726 295.552 2.52095 296.197 2.38492C296.294 2.36377 296.668 1.6192 297.502 2.06368C297.701 2.17315 295.586 4.36264 301.116 2.70944C301.294 2.65615 300.668 2.39721 300.841 2.33833C300.96 2.29843 302.378 2.38324 302.534 2.34231C302.693 2.29854 302.004 2.01592 302.194 1.95475C303.165 1.63962 304.464 2.78501 302.452 2.73051C303.129 2.86321 303.793 2.99616 304.482 3.12868C303.736 2.26144 305.55 2.86278 306.492 2.81955C312.523 2.54308 308.473 2.04007 309.505 1.72627C311.161 1.22243 309.917 2.7497 312.376 2.25508C312.602 2.2089 309.618 1.62074 315.433 1.88187C314.577 1.92144 313.721 1.96101 312.863 2.00061C313.373 2.84304 315.957 1.88923 316.155 1.8739C318.426 1.71812 316.898 2.05114 320.257 1.55529C320.557 1.5108 321.213 1.70963 321.869 1.59361C324.558 1.11585 318.322 1.39242 318.161 1.05058C318.062 0.883438 324.774 0.810949 325.015 0.88699C326.004 1.22545 321.961 1.09587 322.738 1.52378C323.035 1.67538 332.601 1.18959 334.491 1.32881C336.689 1.49087 337.691 2.62768 337.683 1.33113C338.33 2.59283 338.876 1.71503 339.161 1.71891C342.61 1.77746 342.614 1.79022 345.549 1.61784C346.196 1.58021 346.748 1.95689 346.976 1.88776C347.108 1.8461 346.853 1.43722 347.502 1.29852C348.41 1.10846 353.821 1.44023 354.222 1.66175C354.625 1.88327 351.948 1.80007 352.433 2.16732C354.35 2.17222 356.284 2.04589 358.261 2.05129C359.085 2.05461 358.667 2.32475 359.023 2.32383C359.176 2.32442 362.007 2.04391 361.884 1.94907C361.614 1.7283 352.81 2.032 355.121 1.53196C355.569 1.43533 357.161 2.01365 356.896 1.28152C364.754 1.31277 372.5 1.34536 380.327 1.3755C375.904 2.00389 370.69 1.60186 366.099 1.73317C365.461 1.75061 363.292 1.71716 363.561 2.08483C367.528 2.11251 372.484 1.83239 376.354 2.0075C376.477 2.01337 376.031 2.3557 376.493 2.40065C377.358 2.48453 380.14 1.89637 380.608 2.02768C380.689 2.05877 379.112 2.52739 379.599 2.79914C380.849 3.49654 381.134 1.89852 382.194 1.89883C382.993 1.90017 388.571 2.57252 389.968 2.06122C391.443 1.51656 385.832 1.83284 386.235 1.40164C390.046 0.908507 393.873 1.29612 397.392 1.18066C397.454 1.17821 396.91 0.855509 397.695 0.795107C399.059 0.69 399.423 1.15495 400.086 1.21859C400.787 1.28643 403.413 1.17213 403.754 1.33793C403.798 1.35967 403.282 1.83647 403.202 1.85103C402.076 2.0638 401.661 1.46428 401.558 1.45834C401.172 1.44219 400.785 1.68152 400.445 1.67373C399.881 1.66067 399.566 1.45119 398.819 1.44547C398.304 1.4407 398.808 1.84474 398.311 1.83468C398.13 1.82929 396.139 0.921549 395.97 1.88713C395.842 2.19342 412.281 2.29018 413.802 2.01934C412.425 1.92841 411.04 1.83756 409.648 1.74679C412.485 1.97769 415.787 1.14891 416.096 2.28122C426.735 2.18195 437.099 2.08416 447.699 1.97564C449.58 2.03673 448.575 2.78726 451.634 2.51584C450.84 2.2981 450.043 2.08039 449.242 1.86273C450.825 1.99623 457.774 2.18135 458.97 2.00683C459.117 1.98418 459.316 1.31854 461.071 1.22724C462.624 1.14652 462.878 1.63734 463.703 1.71603C464.394 1.78073 465.161 1.63559 465.364 1.65892C465.52 1.67774 465.588 1.97961 465.963 2.02503C467.147 2.16491 466.162 1.3308 467.369 2.28708C467.064 2.33056 466.797 2.37324 466.509 2.41634C467.933 2.52985 470.035 2.93271 467.826 3.19661C467.447 3.24211 467.768 2.94234 467.484 2.94851C456.891 3.21315 465.292 3.61758 469.134 3.08466C470.157 3.49907 475.583 3.12321 475.743 3.20534C475.992 3.32427 475.085 3.69033 476.29 3.96552C476.461 4.02601 483.867 3.62781 481.215 4.261C480.655 4.39204 477.128 4.34017 476.34 4.37329C478.198 5.25661 483.018 3.83559 483.497 3.85905C485.609 3.95792 479.456 4.74295 484.213 4.74936C487.827 4.75447 484.427 4.21184 485.807 3.91977C486.578 3.75616 490.634 4.34591 490.556 3.46978C492.005 3.34431 491.166 3.82741 491.346 3.85689C491.528 3.88238 494.334 3.55757 495.223 3.7225C495.331 3.74306 495 4.20667 495.113 4.24146C495.341 4.30038 497.961 4.14993 498.057 4.10898C498.123 4.08063 497.495 3.69554 497.747 3.59294C497.999 3.47563 500.643 3.50884 500.792 3.39108C500.989 3.21407 497.736 3.40255 498.288 2.94321C499.722 3.02305 502.241 2.66643 503.178 2.28464C502.945 2.39298 501.506 2.44148 500.996 2.41705C501.231 1.75765 504.303 1.69424 503.266 2.2364C503.923 1.94283 503.467 1.80611 503.833 1.53502C503.93 1.46627 504.864 1.43037 505.038 1.31291C505.062 1.28979 504.095 1.06603 504.284 0.928667C504.639 0.680318 507.418 0.66734 507.632 0.724912C508.268 0.887948 506.038 1.15818 505.848 1.43854C505.827 1.4815 507.751 1.97554 507.776 2.02261C507.905 2.53191 505.77 2.21446 506.021 2.66965C506.554 2.75425 507.082 2.83888 507.606 2.92355C505.629 3.43933 501.713 3.29141 500.675 3.84657C503.895 3.614 507.032 3.55644 507.053 4.75256C507.065 5.25628 505.767 5.58307 505.819 5.70993C506.028 6.16347 507.818 5.62197 507.88 5.6446C507.934 5.6712 507.96 5.69778 507.96 5.72425C507.96 5.72426 507.96 5.72427 507.96 5.72428C507.976 5.99251 505.405 6.24805 505.268 6.37376C505.054 6.59663 506.236 7.46448 506.237 7.66266C506.203 7.70339 504.342 7.96 504.98 8.29067C505.632 8.62461 507.24 8.59342 507.294 8.62836C507.613 8.82979 504.792 9.08846 504.698 9.21396C504.657 9.27739 506.198 9.62392 506.242 9.73305C506.284 9.84268 505.131 10.1118 504.674 10.4718C504.336 10.7392 505.344 10.9141 505.168 10.9589C505.053 10.9888 502.305 11.0493 502.159 11.0982C501.957 11.1704 502.617 11.4649 502.523 11.5446C502.393 11.6592 501.486 11.5685 501.606 11.6804C501.711 11.7636 505.186 12.7504 505.156 13.0363C505.138 13.5238 501.476 12.4902 504.898 14.3305C504.923 14.3425 505.732 14.1866 505.754 14.1979C506.259 14.5393 503.688 15.1449 506.842 14.9739C500.945 15.7291 506.136 15.723 505.279 16.5633C504.955 16.8863 502.621 17.0714 502.605 17.1189C502.845 17.5131 503.586 17.1856 503.843 17.3755C503.989 17.4817 501.891 17.9536 502.371 18.2168C502.628 18.3523 504.846 18.2496 504.931 18.275C505.804 18.5144 504.748 18.8199 504.943 19.0001C505.075 19.1209 506.387 19.0993 506.419 19.1208C506.479 19.1658 504.708 19.7089 504.33 19.8938C504.048 20.036 505.125 20.2225 504.927 20.2863C503.744 20.6676 501.111 19.8288 503.645 21.031C503.8 21.1047 504.734 21.0513 504.761 21.0661C505.346 21.4099 503.63 21.4816 503.322 21.7815C502.802 22.2984 505.286 21.9584 503.222 22.3619C504.787 22.655 505.643 22.6209 507.394 22.4865C502.503 22.8608 500.704 24.2085 506.248 24.044C504.509 24.0653 504.71 24.7975 504.186 24.8229C503.866 24.8378 501.236 24.1664 502.473 25.782C502.631 25.9837 504.197 25.6858 503.715 26.1176C499.915 26.0994 503.648 26.3869 503.646 26.4424C503.571 27.4142 494.462 26.8295 492.852 26.974C491.008 27.1429 489.304 27.943 488.964 27.9514C487.696 27.9791 488.74 27.569 488.453 27.4327C488.174 27.2977 484.525 28.1182 484.327 28.0815C483.602 27.933 484.324 27.4585 484.249 27.437C483.388 27.1741 478.216 27.6418 476.937 27.5611C476.99 27.858 479.716 27.8252 478.024 28.3387C476.048 28.9373 475.896 27.6271 475.844 27.5704C466.442 27.7757 457.071 27.9711 447.85 28.1589C447.998 28.8549 454.049 28.2122 454.168 28.3017C455.02 28.8304 444.752 29.0165 443.396 28.7948C444.382 28.9272 445.362 29.0596 446.337 29.192C444.667 30.0269 441.031 29.0518 438.703 29.4499C437.945 29.579 439.41 29.8616 439.38 29.8834C438.534 30.2111 437.154 29.9965 438.174 29.5586C436.088 29.9988 436.385 29.5505 434.765 29.5473C434.681 29.5475 435.385 29.8586 434.102 30.0168C433.505 30.0905 430.267 30.1514 429.831 30.4429C429.655 30.5655 431.329 31.7916 431.51 30.7064C435.037 31.1686 432.626 30.1928 433.988 30.1925C434.193 30.1943 433.74 30.8067 437.128 30.4594C436.511 31.5599 432.562 30.8189 431.878 30.9634C430.486 31.2602 436.257 31.7158 437.267 30.848C436.796 31.7066 437.674 30.955 438.933 30.9664C440.309 30.9786 439.715 31.2427 440.457 31.2302C442.485 31.1985 441.613 30.615 443.315 31.1238C441.593 29.4822 446.281 30.847 447.614 31.26C445.459 31.386 443.173 31.5141 441.104 31.6378C441.227 31.7234 441.35 31.809 441.473 31.8946C440.914 31.8927 440.354 31.8907 439.791 31.8888C439.88 31.8029 439.968 31.717 440.057 31.6311C437.167 32.2329 436.428 31.6309 436.191 31.6285C433.125 31.6141 429.434 31.6874 426.419 31.7406C425.954 31.7488 426.295 32.2906 422.892 31.9237C421.803 31.807 422.822 31.3621 421.589 31.4485C420.065 32.6345 420.075 31.7105 419.613 31.7174C418.288 31.7416 417.477 32.0432 417.354 32.0484C415.668 32.1237 413.379 32.1171 411.599 32.1917C411.566 32.1967 412.492 32.5359 411.342 32.4513C410.939 32.4209 407.287 30.9674 404.068 31.5199C404.908 31.6075 405.746 31.6951 406.581 31.7827C405.603 31.657 398.708 32.1624 400.407 32.5388C401.4 32.7697 403.957 31.7451 404.24 32.6816C401.844 32.4429 389.492 33.0827 388.422 32.8824C388.285 32.8536 389.121 32.5334 388.931 32.4977C388.794 32.4703 385.849 32.5945 385.501 32.4832C385.275 32.4175 386.526 32.2083 386.429 32.0999C386.324 32.0233 382.786 31.9545 382.583 32.341C383.457 32.172 385.906 32.2632 384.628 32.6084C384.464 32.6514 383.603 32.4195 383.402 32.4739C381.552 32.9755 387.091 32.7658 388.02 32.7533C384.441 33.304 379.08 32.8228 374.934 33.213C373.261 32.9234 377.396 32.6825 375.506 32.4514C371.58 31.9725 374.472 32.9102 374.352 32.9528C373.391 33.2911 370.011 31.6266 370.06 32.9374C368.664 32.7642 369.114 32.591 367.144 32.7968C367.405 32.8831 367.666 32.9694 367.927 33.0557C365.757 33.8532 361.048 32.018 361.394 31.8657C362.333 31.4582 364.773 32.0263 364.979 32.008C365.283 31.981 366.115 30.6357 369.467 31.7675C370.82 30.8514 364.165 31.2571 367.187 30.5962C365.157 30.7313 356.626 30.2576 355.381 30.6709C355.241 30.7244 355.914 31.6022 353.826 31.1856C352.838 30.9871 355.209 30.9358 354.76 30.7409C353.431 30.1422 334.267 30.8697 330.707 30.9634C330.472 30.9684 330.554 30.691 330.323 30.6975C329.614 30.7174 327.031 31.1733 325.75 31.0682C328.404 31.5337 323.269 31.6614 321.951 31.6278C319.981 31.5759 320.102 31.0881 319.252 30.9993C315.985 30.6571 310.912 31.8973 308.325 30.8634C308.489 31.9307 303.86 30.4152 301.822 30.4407C300.209 30.4607 297.872 31.2089 300.063 31.6027C297.272 31.6012 294.325 31.8513 291.688 31.9615C291.252 31.9799 291.848 31.6533 291.104 31.6946C291.036 31.7007 290.948 32.0123 290.309 32.0555C285.027 32.4163 287.592 31.7134 286.604 31.5366C286.055 31.4376 285.651 31.3906 285.354 31.3779C288.387 31.2652 291.971 31.082 292.908 31.0572C292.094 30.3863 286.079 31.3057 284.355 31.1511C284.295 31.1454 284.499 30.7645 284.437 30.7629C284.436 30.7629 284.435 30.7629 284.433 30.7629C283.781 30.7452 279.613 30.956 280.479 31.3912C280.711 31.5074 282.633 31.4742 284.903 31.3944C284.29 31.4893 284.756 31.9041 284.648 31.924C283.337 32.1555 280.1 31.7984 278.949 31.7625C278.687 31.7548 278.71 32.0253 278.667 32.0267C277.621 31.9831 278.037 31.2025 276.977 32.0183C275.067 31.0872 280.523 31.8143 280.127 31.1951C279.846 30.7178 267.695 31.1856 267.781 31.9435C267.738 31.863 267.571 31.7651 267.229 31.6563C266.474 31.4145 263.122 31.552 262.544 31.7019C262.446 31.7311 262.498 32.4672 262.377 32.4761C262.075 32.4982 257.955 31.9914 256.422 32.4536C257.255 32.5425 258.087 32.6314 258.919 32.7204C253.905 32.8133 254.68 33.0193 256.358 33.2107C256.441 33.2112 256.523 33.2378 256.603 33.2394C257.902 33.3799 259.563 33.5082 259.589 33.5659C259.693 33.7859 251.175 34.0565 252.801 33.3447C253.029 33.2473 256.977 33.4835 255.017 33.0295C254.674 32.9499 252.142 33.1329 252.008 33.0815C251.111 32.7394 256.636 32.169 255.95 31.6728C254.619 32.1795 252.885 31.9547 251.354 32.106C250.66 32.1745 250.496 32.5468 250.41 32.5553C249.13 32.6739 249.843 32.2741 249.415 32.2912C249.186 32.3018 246.671 33.17 247.129 32.0253C238.797 33.006 244.843 32.9002 249.948 32.7479C248.343 33.1897 245.17 33.0444 243.748 33.1652C243.237 33.2089 243.547 33.5828 242.685 33.6737C240.917 33.8603 232.386 33.5729 230.197 33.5085C231.549 33.3509 231.146 32.9447 230.101 32.9915C229.055 33.0385 229.943 33.5745 229.74 33.6373C229.524 33.7024 224.608 33.5279 223.79 33.6137C227.487 33.3494 226.646 32.952 223.503 32.9639C223.955 32.8373 224.407 32.7107 224.859 32.5841C223.022 32.783 219.134 32.2225 218.07 32.4283C217.903 32.4613 218.51 32.7971 218.417 32.8156C217.482 32.9791 214.296 32.6818 214.154 32.8025C214.03 32.9031 215.387 33.1697 214.888 33.3214C214.784 33.3534 213.473 32.9081 212.19 33.0458C211.714 33.0965 212.007 33.419 211.887 33.4401C210.89 33.6153 211.471 33.0533 209.643 33.1741C208.303 33.2634 207.314 33.8202 205.456 33.6743C211.555 34.2543 206.435 34.0574 203.89 34.3107C203.483 34.3512 203.844 34.9396 201.398 34.6932C206.572 33.5263 199.908 34.1511 198.541 34.1637C198.465 34.1613 198.433 33.7697 197.763 33.7753C197.706 33.7766 197.791 34.0402 197.17 34.0715C191.286 34.3676 195.045 34.0014 193.922 33.7599C193.444 33.6571 190.585 34.0828 189.814 34.1056C189.636 34.1097 189.713 33.8329 189.026 33.8559C187.811 33.8973 186.728 34.2099 185.926 34.2475C185.832 34.2505 185.82 33.8161 184.302 33.9842C183.874 34.0312 183.397 34.1941 184.007 34.3081C186.029 34.6829 189.837 33.9037 192.118 34.2733C194.2 34.6098 187.658 34.7615 187.317 34.7699C187.192 34.7734 188.467 34.5349 187.167 34.5154C186.058 34.4996 184.044 35.2863 182.387 35.1525C182.26 35.1426 180.928 34.5301 180.988 34.4919C181.043 34.4638 183.07 34.2893 182.772 34.1105C182.736 34.0901 181.446 34.1175 181.275 33.9834C181.066 33.8203 180.481 32.1927 180.205 32.1566C179.496 32.0678 179.963 32.433 179.505 32.4153C178.524 32.378 175.119 31.9548 175.019 32.5244C175.581 32.548 176.142 32.5716 176.704 32.5952C173.583 32.7097 174.918 32.9274 174.478 33.0418C174.004 33.1656 174.129 32.6643 173.075 32.6364C172.846 32.6302 168.443 32.8138 168.527 33.0217C170.957 32.6445 170.065 33.2774 170.178 33.2864C170.605 33.3189 171.144 32.9632 171.716 32.9597C175.744 32.9413 171.693 33.5604 172.646 33.6836C172.974 33.7249 173.621 33.418 173.76 33.4306C174.212 33.4714 174.226 33.8578 174.527 33.8212C175.228 33.7359 174.398 33.2036 174.453 33.1742C175.074 32.8205 177.541 33.2023 176.021 33.825C176.943 34.023 177.038 33.2976 177.772 33.5738C179.23 34.1205 177.058 34.0123 176.472 34.118C174.369 34.499 173.738 34.2325 170.754 34.3815C169.679 34.4344 168.411 34.8089 167.912 34.8372C167.598 34.855 164.608 33.6861 164.555 35.6013C163.398 35.437 161.565 34.2089 160.377 34.2882C159.31 34.3602 159.662 35.031 159.563 35.059C159.411 35.103 158.119 35.0731 157.684 35.1768C157.175 35.2991 157.435 35.5529 156.625 35.673C154.61 35.9712 154.65 35.2793 154.442 35.2382C152.022 34.7632 153.096 35.7268 152.562 35.8154C152.066 35.8969 145.086 35.6466 143.624 35.9225C144.218 35.7731 144.813 35.6237 145.407 35.4743C144.331 35.0629 143.211 35.7868 143.177 35.0143C142.985 36.2661 140.759 35.4728 140.096 35.5174C139.835 35.5355 139.86 35.7477 139.532 35.763C138.254 35.8239 135.37 35.7081 134.679 35.8288C131.691 36.3487 139.369 36.9785 139.975 37.0141C138.765 37.0226 131.937 37.4291 135.089 37.9706C135.576 38.0541 136.426 37.4797 136.699 37.4528C138.542 37.2748 137.1 37.8021 137.245 37.847C137.493 37.9193 138.699 37.413 139.021 37.4647C139.128 37.4812 138.447 37.9471 140.209 37.924C139.35 38.3793 134.395 38.1132 133.749 38.2285C133.518 38.2696 134.984 39.1813 130.736 38.3483C130.786 38.4346 130.837 38.5208 130.888 38.607C128.532 38.6869 126.182 38.7668 123.827 38.8469C124.081 38.6413 125.395 38.2132 123.73 38.3301C122.769 38.3977 123.489 38.8315 123.402 38.8461C122.53 38.9851 107.301 39.1246 104.348 39.2318C103.34 39.2673 100.542 39.6806 100.329 39.6914C99.0496 39.7519 94.5249 39.6053 93.6265 39.6736C93.0648 39.717 93.6066 40.0805 93.104 40.0727C92.6369 40.0649 93.1134 39.6942 92.9745 39.6818C91.8323 39.5728 83.092 40.2175 81.0049 39.9179C82.2719 39.9952 88.6169 39.1489 88.4754 38.8968C88.4501 38.8624 86.9023 38.6176 86.5857 38.7579C86.053 38.4554 84.2657 39.4432 83.2811 39.2754C83.1698 39.2563 83.5958 38.7134 81.8435 38.6509C81.24 38.6296 79.6702 39.0771 78.0756 38.6416C75.7922 38.9106 63.7027 38.4588 62.8782 39.0501C62.8541 39.0809 64.5609 39.2443 63.4151 39.503C61.8927 39.847 63.2439 38.7645 61.4614 38.7095C61.1907 38.701 56.2497 38.9078 56.0916 38.9764C54.6088 39.5988 58.9269 39.7511 58.8692 39.8212C58.721 39.9975 55.1388 40.1751 54.9936 40.1372C54.8542 40.0975 57.7579 39.2537 54.2559 39.6226C54.6594 39.7081 55.0631 39.7937 55.467 39.8792C53.8208 40.0954 53.6534 39.5559 53.2534 39.5309C52.0202 39.4511 50.6619 40.3035 48.6371 39.3265C48.1008 39.0672 48.9758 38.7491 48.9086 38.71C48.2633 38.3594 47.4701 39.3489 46.4979 38.6431C46.4252 38.5904 48.6422 38.1098 44.751 38.189C45.0201 38.253 45.2892 38.3171 45.5584 38.3811C45.0113 38.5477 41.0819 38.7214 40.555 38.6957C39.0115 38.6205 40.3448 38.0931 38.7979 38.185C39.8032 38.8487 35.1049 39.0362 35.3645 38.4414C34.7355 39.1948 30.6682 38.7092 28.7824 38.7316C27.588 38.7463 25.1672 39.1209 24.7894 39.0911C24.3284 39.0547 24.4572 38.5469 23.6248 38.4522C23.3872 38.4252 20.9256 38.848 18.7573 38.3719C18.3369 38.2802 17.441 37.4429 18.2131 37.2122C19.5339 36.8173 22.0723 37.4531 22.0298 36.9478C21.9791 36.4074 18.5896 36.8021 17.6783 36.7512C13.4024 36.5166 15.8544 35.8881 15.7416 35.716C15.4465 35.2989 13.1143 35.3627 13.017 35.3267C12.6103 35.1665 14.2544 34.7956 14.2741 34.5368C14.2963 34.1998 12.0374 33.6416 12.5455 33.5171C13.2717 33.3403 15.3498 33.8014 15.4809 33.7744C17.1823 33.4111 14.8233 32.6847 14.1714 32.317C13.9735 32.2038 14.7477 31.9939 14.585 31.9629C12.1023 31.4939 14.087 33.0663 12.4427 32.9941C10.977 32.9298 12.8489 32.3782 12.7927 32.3513C12.7193 32.3219 10.9691 32.3322 10.6921 32.1575C10.5527 32.0699 15.0834 30.9778 14.8858 30.5366C13.4321 30.6663 11.9818 30.796 10.5351 30.9257C10.4084 30.3475 12.5036 30.7295 12.719 30.6649C13.1514 30.5354 11.9323 30.2679 11.9805 30.0832C12.0057 29.9658 13.4199 29.5182 12.1304 29.3744C11.6875 29.3247 10.769 29.752 9.15619 29.3711C14.7336 28.718 10.8529 28.4761 10.6832 28.274C10.5172 28.0719 13.1762 27.5296 9.93819 27.6859C9.77325 26.5589 9.99983 27.3272 10.9162 27.1085C12.0402 26.8398 9.41994 26.5244 13.5567 26.717C13.3084 26.193 9.99249 26.3026 9.81784 26.2643C9.66564 26.2293 10.3959 25.953 10.1315 25.8706C7.00754 24.9161 9.14804 25.3364 8.2359 24.7032C8.15397 24.6466 5.22501 24.4688 7.44888 24.3249C11.5044 24.063 13.2343 24.7758 13.885 23.1581C10.8451 22.5274 7.22974 23.6417 6.32012 23.6793C4.92653 23.7352 6.36346 23.3766 6.18971 23.2887C6.12916 23.2604 4.92903 23.3139 4.91254 23.2883C4.02666 22.0846 10.2615 23.1504 12.2308 22.8951C11.6995 22.7235 11.1686 22.5519 10.6382 22.3803C11.3523 22.3574 12.0672 22.3345 12.7829 22.3116C9.36746 22.0178 12.6583 22.1749 13.4889 21.1666C13.6751 20.9401 11.4413 21.3701 13.9857 20.6965C12.0959 20.5947 12.6929 20.3794 10.9942 20.6956C11.0279 20.2978 14.8578 19.7668 16.3768 19.5304C11.0028 19.2007 14.0885 20.5897 9.45406 19.9204C8.60978 20.4303 10.8087 20.2866 10.6313 20.3716C9.99311 20.6772 8.47249 20.2472 6.68006 21.3087C6.38839 21.4829 7.64946 21.9717 5.79958 21.9874C5.59484 21.9883 4.40849 21.5731 4.42426 21.5407C4.57232 21.1917 5.7399 21.2956 5.78503 21.1503C5.82696 21.0128 4.52932 21.1235 4.52424 21.0858C4.47463 20.6537 5.60451 20.8964 5.43833 20.7645C5.07897 20.4775 0.386333 19.649 6.49186 19.7875C1.43552 20.3884 5.84926 20.2797 7.8258 20.0483C8.32961 19.9901 8.45174 19.7288 9.17001 19.6233C10.0939 19.4868 11.1833 19.5872 11.6632 19.5293C12.1798 19.4658 9.22567 18.9185 13.483 19.0084C11.3009 18.4475 7.50428 19.1789 5.38733 18.7985C1.11512 18.0297 8.32965 17.6854 9.09052 17.5854C9.29135 17.5583 8.60878 17.2239 8.74253 17.1996C8.95889 17.1619 13.0885 17.2334 13.4926 16.9356C13.8929 16.6381 11.9782 16.9818 11.8446 16.6835C11.7509 16.4827 16.7381 16.0149 14.0308 15.9349C12.1633 15.8803 8.76189 16.7697 8.16924 15.9066C10.8905 15.7745 13.6244 15.6425 16.3702 15.5107C14.8593 15.21 13.3519 14.9093 11.8481 14.6087C14.9165 14.4362 17.5925 14.7548 20.4563 14.2162C13.5004 13.2975 22.6873 13.3157 22.7933 13.1837C22.8248 13.1053 20.0704 12.2972 19.6287 12.1482C22.034 11.7627 29.4319 11.4427 25.0808 10.4646C25.8705 10.6895 27.7626 10.0527 27.7369 10.0082C27.4827 9.54055 23.3418 9.9353 24.0097 9.49396C24.782 8.9818 25.8944 9.63062 27.1014 9.55132C33.29 9.14049 31.595 6.70716 37.761 6.96893C37.6362 6.88362 37.5115 6.7983 37.3868 6.71299C44.0906 6.71305 50.9345 6.71239 57.6258 6.71673C60.2352 5.90972 67.287 5.30882 70.732 5.32381C71.423 5.32625 74.8318 5.65428 75.0908 5.71856C75.5689 5.84203 72.9552 5.94458 74.1416 6.17033C74.3898 6.21647 80.164 6.2687 79.7444 5.85522C79.0956 5.81908 77.0752 6.07099 76.7425 5.97818C74.3903 5.31454 92.2375 5.53116 93.0923 5.22961C92.6959 5.1003 92.2997 4.971 91.9036 4.84169C93.026 4.8873 94.1492 4.93294 95.2732 4.9786ZM44.3494 39.8742C43.684 40.3112 41.99 40.0284 40.9974 40.1679C39.6251 40.3627 37.3277 42.0405 38.2977 40.3867C40.3097 40.2158 42.3271 40.045 44.3494 39.8742ZM73.9504 39.9057C72.593 39.7053 73.6238 38.7724 74.7411 39.1296C74.8651 39.1702 75.7878 40.1752 73.9504 39.9057ZM59.706 39.7581C59.7628 39.7449 60.9353 39.7453 60.9767 39.7588C62.0352 40.1037 58.5001 40.1003 59.706 39.7581ZM128.441 37.9561C126.948 38.0234 128.045 38.8322 128.968 38.4737C129.026 38.4509 128.539 37.9523 128.441 37.9561ZM127.378 37.954C126.204 37.2332 123.897 38.7818 125.751 38.5954C125.931 38.5767 127.432 37.9891 127.378 37.954ZM69.1173 39.6393C69.2674 39.3516 70.6697 39.4611 71.2643 39.5173C71.2527 39.7775 69.7111 39.5956 69.1173 39.6393ZM104.605 38.8664C104.66 38.6415 99.7834 38.7475 99.4585 39.0488C100.224 38.9089 104.552 39.0685 104.605 38.8664ZM117.07 38.3149C116.946 38.2786 115.265 38.3692 115.318 38.5657C116.144 38.809 117.629 38.4795 117.07 38.3149ZM141.883 37.8645C141.972 37.8132 140.692 36.5803 143.689 37.352C144.129 37.465 142.572 37.822 142.728 37.8642C143.055 37.9461 143.314 37.9824 143.521 37.9859C142.136 38.1156 140.689 38.1913 140.548 38.1177C139.885 37.77 141.842 37.8859 141.883 37.8645ZM154.885 36.6893C155.168 36.4792 156.998 36.5554 157.416 36.6322C157.488 36.6467 157.186 37.1909 158.009 37.1356C158.669 37.0903 157.672 36.5568 158.961 36.6216C160.264 36.6865 158.533 37.1112 158.647 37.1372C158.8 37.1712 160.809 36.8869 160.752 37.2087C160.71 37.4472 158.55 37.3258 158.017 37.386C157.336 37.4633 158.171 37.8441 157.028 37.7799C156.31 37.7398 156.695 37.0365 156.543 37.0041C156.415 36.9781 153.916 37.4245 154.889 36.6915C154.888 36.6908 154.886 36.6901 154.885 36.6893ZM143.896 37.9482C143.792 37.9736 143.669 37.9884 143.521 37.9859C143.646 37.9741 143.772 37.9608 143.896 37.9482ZM48.2727 39.4879C48.9851 39.688 46.8892 40.0064 46.0894 39.7416C46.0705 39.5151 48.1588 39.4568 48.2727 39.4879ZM145.173 37.3576C147.239 37.494 145.726 37.7618 143.896 37.9482C144.475 37.8064 144.479 37.3122 145.173 37.3576ZM86.5857 38.7579C86.674 38.8081 86.731 38.888 86.7406 39.0208C86.5081 38.8799 86.486 38.8022 86.5857 38.7579ZM91.3986 38.9014C93.0372 38.4644 89.6925 38.5458 89.7199 38.8352C89.7318 38.9444 91.3329 38.9188 91.3986 38.9014ZM130.358 37.9598C130.207 37.923 132.528 36.6561 129.142 37.6375C130.961 37.7477 129.047 37.9167 129.077 38.0233C129.157 38.3298 132.203 37.9769 132.882 38.0974C133.401 37.5367 130.859 38.0811 130.362 37.9597C130.361 37.9597 130.36 37.9598 130.358 37.9598ZM178.362 36.5609C177.954 36.8911 176.641 36.8108 175.755 36.8077C176.163 36.4775 177.477 36.5577 178.362 36.5609ZM410.226 32.5746C404.164 32.9817 403.334 31.6815 408.918 32.1014C409.028 32.1103 410.591 32.4348 410.226 32.5746ZM358.09 33.1492C357.504 32.5862 359.411 32.4611 360.661 32.6762C360.945 32.7245 361.998 33.2868 360.808 33.4208C360.835 32.7258 358.986 32.4924 358.09 33.1492ZM146.332 36.9693C146.925 36.5762 148.78 36.8141 149.755 36.8536C149.166 37.1791 147.195 37.073 146.332 36.9693ZM390.249 32.2437C389.604 32.2117 389.176 32.7178 389.288 32.7573C389.791 32.9388 390.989 32.5145 390.249 32.2437ZM140.359 37.0201C140.27 36.7934 142.721 36.5283 142.9 37.0897C142.377 37.0585 140.422 37.1623 140.359 37.0201ZM176.689 36.4195C176.307 36.3102 178.273 36.067 178.87 36.1715C178.827 36.4154 176.94 36.4905 176.689 36.4195ZM379.957 32.5935C379.386 32.5602 377.954 32.572 377.798 32.7762C377.606 33.0315 379.704 32.909 379.957 32.5935ZM486.627 30.1534C486.703 30.2423 484.519 30.9416 483.517 30.7976C481.629 30.5215 486.567 30.091 486.627 30.1534ZM396.308 31.8797C398.112 32.3219 396.111 31.8981 396.198 32.3959C397.41 32.3924 400.399 32.364 398.334 31.9097C397.932 31.8219 396.873 31.902 396.308 31.8797ZM394.645 31.7421C394.455 31.9072 393.162 32.4399 394.286 32.3835C394.806 32.3567 395.633 31.7755 394.645 31.7421ZM472.891 30.6615C471.278 30.2524 478.661 30.3387 478.831 30.4121C478.941 30.4507 479.014 30.4878 479.055 30.5196C479.33 30.3738 480.779 30.3183 480.95 30.6691C480.52 30.6488 479.336 30.7047 479.196 30.6683C479.136 30.6528 479.091 30.6381 479.063 30.6227C478.612 30.94 473.225 30.7387 472.891 30.6615ZM460.565 30.4521C462.415 29.7638 462.756 30.8657 462.599 30.9045C460.592 31.3978 461.891 30.5545 461.829 30.5175C461.688 30.4565 460.255 30.864 460.57 30.452C460.568 30.4521 460.566 30.4521 460.565 30.4521ZM470.337 30.5307C470.416 30.5147 471.994 30.5171 472.057 30.5333C473.357 30.8797 468.89 30.8744 470.337 30.5307ZM164.689 35.7351C165.805 35.8251 164.72 36.2526 163.977 36.1194C163.916 36.1061 163.705 35.6556 164.689 35.7351ZM393.758 31.8676C393.51 31.795 386.845 31.6217 387.248 32.2306C387.832 32.1477 395.378 32.3318 393.758 31.8676ZM344.366 32.577C345.535 32.5617 344.271 33.1645 343.643 32.9587C343.41 32.8822 344.072 32.5813 344.366 32.577ZM137.043 36.5541C135.839 36.8957 136.069 35.8205 137.125 36.168C137.166 36.1816 137.09 36.5408 137.043 36.5541ZM353.646 32.7512C349.676 33.1718 350.561 31.3146 355.789 31.8462C355.625 31.931 355.461 32.0159 355.297 32.1008C361.394 32.2718 355.709 32.2235 354.236 32.3521C353.681 32.4008 354.152 32.7002 353.65 32.7534C353.649 32.7527 353.647 32.7519 353.646 32.7512ZM338.196 32.6479C334.321 31.4071 341.726 32.1313 343.863 31.9242C341.81 32.4994 339.112 32.4641 342.784 32.9537C337.43 33.1526 339.647 32.5938 339.434 32.5542C339.181 32.51 338.357 32.7013 338.196 32.6479ZM348.446 32.4629C348.669 32.4209 350.352 32.658 350.954 32.6043C350.12 33.0653 346.97 32.7477 348.446 32.4629ZM447.66 31.0042C447.794 30.6517 448.14 30.3874 449.474 30.4928C449.067 30.6764 448.217 30.8438 447.66 31.0042ZM43.0326 38.0597C42.1165 38.0536 40.2949 37.9595 40.8603 38.3157C40.9216 38.3458 43.0336 38.2662 43.0326 38.0597ZM374.545 31.9209C374.353 31.8813 369.25 31.9412 371.02 32.2965C371.559 32.4037 376.181 32.2737 374.545 31.9209ZM400.601 31.5069C400.187 31.5106 398.496 31.6065 398.461 31.6899C398.352 31.9779 400.426 31.7839 400.601 31.5069ZM38.4173 37.7973C38.2957 37.7635 35.5164 37.886 35.826 38.0493C36.4116 38.3581 38.8311 37.9138 38.4173 37.7973ZM168.727 34.8422C168.96 34.8251 169.276 35.1995 169.357 35.2023C169.548 35.2042 173.825 34.9808 172.198 35.4982C171.927 35.5848 165.766 35.5088 164.964 35.4752C164.645 34.9591 167.284 35.4077 167.923 35.3425C168.036 35.3302 168.1 34.8925 168.725 34.8445C168.725 34.8437 168.726 34.843 168.727 34.8422ZM454.538 30.5033C454.646 30.1696 459.822 29.8494 459.749 30.2527C458.033 30.3361 456.182 30.4218 454.538 30.5033ZM452.019 30.4968C450.951 30.2826 453.44 30.1572 454.166 30.2468C454.18 30.4697 452.177 30.5282 452.019 30.4968ZM391.078 30.4358C390.571 30.5259 392.143 30.9823 391.795 31.0825C391.573 31.145 390.433 30.9837 390.072 31.1414C389.97 31.1913 391.139 31.6258 391.473 31.6002C391.949 31.5656 391.481 31.2157 392 31.2042C393.722 31.1661 395.245 31.3946 396.843 31.3603C396.987 31.3566 395.863 31.1236 397.094 31.1053C397.284 31.102 398.433 31.4584 399.894 31.3766C403.117 30.1529 405.64 31.2533 409.763 30.7588C409.608 30.6518 406.492 30.4129 406.305 30.4053C402.757 30.2769 396.62 30.3648 392.972 30.4266C392.037 30.4421 392.495 30.6809 392.092 30.6971C391.773 30.7093 392.145 30.2456 391.078 30.4358ZM43.5135 37.797C43.0675 37.3496 41.5439 37.6702 40.5684 37.6668C40.92 38.0714 42.5557 37.7156 43.5135 37.797ZM429.347 30.5683C428.868 30.5947 427.369 30.4847 427.247 30.6244C427.092 30.8068 429.253 30.8803 429.347 30.5683ZM192.863 34.5392C192.91 34.5259 194.089 34.5294 194.134 34.543C195.193 34.8906 191.657 34.8784 192.863 34.5392ZM221.079 34.1293C221.973 34.0573 222.873 33.8988 223.181 34.2639C222.61 34.2172 220.978 34.3891 221.079 34.1293ZM260.006 33.4422C259.813 32.9604 262.51 33.2281 263.018 33.2628C262.834 33.4816 260.148 33.7893 260.006 33.4422ZM447.436 29.4854C449.093 29.4826 448.728 28.7546 449.78 29.0672C449.951 29.1201 450.534 30.6394 448.711 30.1007C448.382 30.0039 449.657 29.616 447.436 29.4854ZM356.65 31.8467C357.067 31.5185 358.388 31.591 359.277 31.6013C359.083 31.8431 357.285 31.8128 356.65 31.8467ZM33.3719 37.5359C32.5839 37.0993 29.0113 37.5108 29.9036 37.7914C30.0294 37.8278 32.867 37.5294 33.3719 37.5359ZM150.487 35.4293C151.947 35.0457 148.907 34.9909 147.955 35.3571C148.388 35.3262 150.389 35.4545 150.487 35.4293ZM250.634 33.3404C250.704 33.3245 252.254 33.3322 252.328 33.3484C253.608 33.6989 249.211 33.6795 250.634 33.3404ZM211.788 33.7034C212.344 33.3999 216.018 33.5723 216.859 33.8516C216.06 34.295 211.102 34.0822 211.788 33.7034ZM440.637 29.8225C441.801 29.7854 442.857 29.856 443.987 29.9617C443.724 30.2139 440.765 30.0048 440.637 29.8225ZM256.358 33.2107C256.441 33.2112 256.523 33.2378 256.603 33.2394C256.52 33.2304 256.438 33.2198 256.358 33.2107ZM414.326 30.1317C413.355 30.0516 413.563 30.5008 413.624 30.5136C414.357 30.6471 415.424 30.2222 414.326 30.1317ZM42.3765 37.148C42.0271 36.7464 40.3822 37.0976 39.4322 37.0201C39.7137 37.3372 41.6111 37.2067 42.3765 37.148ZM334.071 31.8815C332.839 31.4594 337.811 30.8592 338.884 31.1263C338.944 31.3992 334.259 31.9389 334.071 31.8815ZM145.922 34.9C145.817 34.5816 143.714 35.0069 144.165 35.1499C144.451 35.2409 145.984 35.0978 145.922 34.9ZM341.44 31.2692C341.914 31.1633 343.028 31.4602 342.641 31.6595C342.144 31.915 341.317 31.2993 341.44 31.2692ZM383.832 30.2774C383.629 30.2321 380.876 30.609 382.021 30.9157C382.816 31.1289 382.933 30.6638 383.119 30.6591C383.329 30.657 387.744 31.1462 383.832 30.2774ZM305.877 32.0855C306.931 31.9443 308.208 32.0654 309.31 32.0377C308.865 32.2434 306.331 32.3408 305.877 32.0855ZM154.061 34.6649C153.804 34.54 146.869 34.5892 150.815 34.9156C151.045 34.9339 154.841 35.043 154.061 34.6649ZM447.436 29.4854C447.226 29.4858 446.984 29.4751 446.703 29.4488C446.982 29.456 447.225 29.4731 447.436 29.4854ZM428.682 29.7871C429.051 29.5471 427.173 29.5193 426.617 29.6536C426.452 29.9415 428.633 29.8206 428.682 29.7871ZM309.388 31.7111C310.02 31.5668 311.173 31.6895 311.956 31.6605C311.828 31.8795 309.667 31.9265 309.388 31.7111ZM264.985 32.229C266.239 32.3362 267.776 32.2505 267.795 31.985C267.821 32.026 267.883 32.0689 267.984 32.1114C268.088 32.1534 269.417 32.0072 270.009 32.0876C273.496 32.5651 256.552 32.6351 266.363 31.7174C265.904 31.8879 265.445 32.0584 264.985 32.229ZM206.794 33.1672C206.076 32.8571 204.088 33.2967 204.608 33.4146C204.97 33.4953 207.513 33.4795 206.794 33.1672ZM234.192 32.4961C233.973 32.4423 232.04 32.702 231.992 32.8728C233.108 33.0325 235.17 32.7467 234.192 32.4961ZM201.308 32.8861C200.859 32.8454 200.297 33.3758 200.35 33.3976C200.809 33.5795 202.065 33.1625 201.308 32.8861ZM443.949 28.1493C443.235 28.0137 441.184 28.429 440.73 28.7812C440.644 28.7163 440.414 28.634 439.993 28.5379C439.994 28.5378 439.996 28.5378 439.997 28.5378C439.527 28.4087 422.107 28.5785 433.797 29.0246C434.16 29.0391 433.66 28.7399 435.135 28.7669C435.232 28.769 435.285 29.02 435.585 29.0266C436.282 29.0404 439.929 29.1309 440.645 28.9147C440.652 28.9612 440.699 29.0047 440.8 29.0436C441.68 29.3904 444.463 28.2545 443.949 28.1493ZM238.066 32.3825C237.672 32.296 236.429 32.4063 236.304 32.6307C236.923 32.7289 238.982 32.5843 238.066 32.3825ZM153.829 33.7571C153.027 33.589 151.009 33.9677 151.624 34.1381C152.001 34.243 154.754 33.9501 153.829 33.7571ZM225.641 32.7177C230.222 32.9005 226.733 32.6774 227.428 32.3393C226.833 32.4654 226.237 32.5915 225.641 32.7177ZM465.208 28.5805C464.487 28.5197 465.321 27.86 466.116 28.1932C466.365 28.2991 465.611 28.6132 465.208 28.5805ZM498.205 27.6849C497.581 27.1287 500.567 27.3956 499.402 27.8136C499.35 27.828 498.25 27.7056 498.205 27.6849ZM475.165 27.947C474.681 28.3452 474.365 28.3978 472.962 28.3303C475.028 28.1789 473.109 27.8745 475.165 27.947ZM267.781 31.9435C267.789 31.9591 267.796 31.9705 267.795 31.985C267.786 31.9709 267.781 31.9574 267.781 31.9435ZM196.998 33.0636C196.42 32.7449 194.815 32.7976 195.299 33.1201C195.346 33.15 196.768 33.3108 196.998 33.0636ZM440.73 28.7812C440.806 28.8387 440.769 28.8775 440.645 28.9147C440.638 28.8708 440.669 28.8287 440.73 28.7812ZM205.63 32.6427C205.577 32.8891 208.024 32.9414 208.121 32.9109C209.517 32.4606 206.64 32.6101 205.63 32.6427ZM137.653 33.7099C137.528 33.7379 138.353 34.3562 138.848 34.0988C139.231 33.8991 138.124 33.6037 137.653 33.7099ZM479.851 27.692C480.651 27.6758 481.764 27.6521 481.974 27.9487C481.448 27.9136 479.841 27.9131 479.851 27.692ZM497.032 27.2983C496.145 27.6722 494.063 27.7178 492.699 27.6895C492.674 27.2245 496.206 27.4267 497.032 27.2983ZM446.09 28.2824C446.027 28.2647 444.048 28.1631 444.323 28.4697C444.729 28.9192 446.649 28.4414 446.09 28.2824ZM141.434 33.9762C142.3 33.7455 140.287 33.1229 139.379 33.6494C138.913 33.919 141.288 34.0149 141.434 33.9762ZM191.978 32.722C190.836 32.9228 193.68 33.1935 194.071 32.8606C193.543 32.8439 192.384 32.6509 191.978 32.722ZM230.964 31.7062C227.344 30.8292 229.337 32.5095 229.973 32.3476C230.063 32.3245 231.052 31.7267 230.964 31.7062ZM24.3506 35.8477C23.843 35.9891 25.7559 36.4216 25.9963 36.105C26.1444 35.9068 24.6749 35.7575 24.3506 35.8477ZM285.354 31.3779C285.203 31.3835 285.052 31.3892 284.903 31.3944C285.015 31.3771 285.162 31.3696 285.354 31.3779ZM181.552 31.6489C184.12 32.9303 183.834 31.9124 184.055 31.914C184.533 31.9197 185.649 32.2587 186.548 32.1837C185.52 32.3515 184.492 32.5193 183.464 32.6872C184.281 32.7683 191.36 33.1306 191.503 32.9129C191.71 32.6027 189.488 32.7384 189.422 32.7126C189.328 32.6758 188.966 31.8301 188.759 31.8014C188.419 31.7556 182.505 31.8436 181.552 31.6489ZM223.422 31.9851C224.005 32.0762 224.176 32.4109 224.444 32.3255C224.535 32.2962 224.545 31.9741 224.857 31.8853C224.379 31.9186 223.9 31.9518 223.422 31.9851ZM177.02 32.9236C176.294 32.5431 179.52 32.6346 179.626 32.6768C180.182 32.9336 177.613 33.2344 177.02 32.9236ZM204.403 32.3787C204.285 32.3578 201.803 32.2788 201.827 32.4968C202.486 32.6515 205.802 32.6415 204.403 32.3787ZM225.244 31.8566C226.115 31.8789 227.765 32.1744 227.568 31.6929C227.567 31.6929 227.565 31.6929 227.564 31.693C226.791 31.7475 226.018 31.802 225.244 31.8566ZM144.387 32.8975C142.761 32.1552 143.543 33.1167 144.975 33.3395C145.401 32.9849 144.654 33.0183 144.387 32.8975ZM139.212 32.4173C138.76 32.2867 134.136 32.5248 134.85 32.9202C135.103 33.0612 137.757 32.6446 137.88 32.6706C138.067 32.709 137.226 33.1767 138.644 33.0608C138.558 32.9092 139.367 32.4609 139.212 32.4173ZM143.044 32.4278C141.431 31.8703 141.089 32.9599 142.296 32.9405C142.767 32.9337 143.274 32.5083 143.044 32.4278ZM149.59 32.3997C149.012 32.3075 147.473 32.186 146.421 32.5656C147.838 32.5703 149.256 32.575 150.673 32.5798C150.833 32.3728 150.096 32.4807 149.586 32.3997C149.588 32.3997 149.589 32.3997 149.59 32.3997ZM506.608 24.2991C505.361 24.0219 508.212 23.8354 508.322 23.908C508.682 24.1498 507.17 24.4228 506.608 24.2991ZM14.205 26.2238C13.8464 26.1091 13.6047 25.7114 12.8267 25.9394C13.6203 26.2196 14.4149 26.4998 15.2105 26.78C15.8091 26.0855 14.5969 26.3503 14.205 26.2238ZM11.1454 23.8001C11.2562 23.7812 10.6264 22.7469 12.0767 23.4149C13.0546 23.866 7.79779 24.4411 6.84553 23.9974C7.88584 23.7586 10.1921 23.9554 11.1454 23.8001ZM1.86362 19.4676C1.80113 19.3854 3.78158 19.219 4.01341 19.2728C5.22717 19.5566 2.19742 19.9079 1.86362 19.4676ZM8.21171 19.5278C7.27129 19.3448 9.34175 19.1683 9.96418 19.2718C10.0282 19.4655 8.35653 19.5542 8.21171 19.5278ZM493.384 9.4253C492.347 8.73601 491.459 10.2889 493.032 9.94521C493.107 9.92902 493.428 9.4592 493.384 9.4253ZM3.77932 18.368C4.71513 18.5509 2.65475 18.7275 2.03931 18.6241C1.97758 18.4306 3.63644 18.3414 3.77932 18.368ZM492.626 7.74531C491.25 7.26315 491.766 8.97191 491.94 9.03741C492.658 9.29545 495.022 8.56767 495.492 8.38919C491.96 8.72627 493.265 7.9726 492.626 7.74531ZM486.435 8.91304C485.213 9.12275 488.353 9.40636 488.92 8.91438C488.325 8.95029 486.785 8.85252 486.435 8.91304ZM478.782 8.52282C478.116 8.47508 476.177 8.36759 475.847 8.64499C476.573 8.5811 478.497 8.80726 478.782 8.52282ZM477.281 7.74291C476.249 7.39644 476.024 8.47259 477.2 8.12919C477.246 8.1159 477.319 7.76257 477.281 7.74291ZM471.424 7.47584C470.721 7.06393 469.945 8.1173 471.075 8.12246C471.41 8.12208 471.498 7.52319 471.424 7.47584ZM490.869 5.93335C489.853 5.77261 488.555 6.54402 490.728 6.57822C489.978 6.70819 489.181 6.83909 488.494 6.96752C491.253 7.32418 491.083 6.29703 491.876 6.32222C493.001 6.35799 492.928 7.21 492.711 7.48189C493.646 6.94034 497.4 6.84806 499.607 6.69778C497.641 6.5245 494.585 6.21423 492.602 6.1194C492.043 6.09165 491.503 6.33676 491.021 6.32125C490.247 6.29513 490.926 5.94442 490.873 5.93326C490.872 5.93329 490.87 5.93332 490.869 5.93335ZM463.666 7.61559C461.652 7.17265 462.943 8.18937 464.068 7.98127C464.116 7.96601 463.716 7.6264 463.666 7.61559ZM1.04518 15.2614C3.73976 15.6374 1.78999 16.2575 7.41078 15.2572C5.05273 15.9297 7.28919 15.7063 6.8318 15.9667C6.46451 16.1728 5.07132 16.0394 5.88787 16.4204C4.81281 16.0097 0.224557 16.2314 0.0217886 16.1654C0.0237083 16.1654 0.0256277 16.1654 0.0275471 16.1653C-0.0958926 16.1263 0.186981 15.1419 1.04518 15.2614ZM478.715 5.7989C478.018 4.5488 477.818 6.56011 476.497 5.53929C474.768 7.09702 481.349 5.43915 482.23 6.70564C474.882 6.71036 487.087 7.87726 481.943 6.0611C486.133 6.67103 483.306 5.79398 483.945 5.53529C484.63 5.25963 486.948 5.49388 486.818 5.02561C486.816 5.02563 486.815 5.02566 486.814 5.02569C485.409 5.08884 483.982 5.15217 482.535 5.21566C483.973 6.20139 481.012 5.95923 479.966 5.15307C479.551 5.36833 479.134 5.58361 478.715 5.7989ZM486.914 6.57962C486.783 6.55928 483.692 6.76762 483.891 6.96724C484.327 7.08828 488.671 6.83908 486.914 6.57962ZM500.627 6.05222C499.436 6.07738 497.756 5.91748 497.173 6.31382C498.241 6.29223 499.992 6.45032 500.627 6.05222ZM442.895 7.16313C441.442 7.50492 445.933 7.51332 444.628 7.16561C444.565 7.14927 442.968 7.1471 442.895 7.16313ZM475.54 6.05567C474.098 5.69878 474.803 6.91444 475.856 6.57226C475.917 6.55212 475.607 6.07193 475.54 6.05567ZM3.21654 15.0638C3.30447 14.7604 7.21658 14.886 7.91385 14.8682C7.52223 15.1568 3.11081 15.4116 3.21654 15.0638ZM502.61 4.87842C500.304 3.849 497.292 5.16925 496.999 5.14847C496.677 5.12789 497.17 4.64298 497.097 4.63193C496.942 4.60906 493.463 4.72682 493.28 4.76367C493.158 4.79209 493.813 5.44328 493.087 5.66908C494.543 5.25927 500.786 5.35373 501.227 5.269C501.487 5.20401 499.494 4.5515 502.606 4.87851C502.607 4.87848 502.608 4.87845 502.61 4.87842ZM496.184 5.02181C497.054 5.28128 494.634 5.37072 494.029 5.28112C492.702 5.08026 496.084 4.99117 496.184 5.02181ZM490.218 4.897C489.884 4.84179 487.417 4.8384 487.213 5.15337C488.36 5.53177 490.869 5.02866 490.218 4.897ZM462.051 5.52C461.398 5.57269 459.573 5.36972 459.472 5.64313C460.139 5.59053 461.955 5.79339 462.051 5.52ZM16.5693 12.403C15.465 12.1997 18.004 12.0521 18.7361 12.1454C18.7776 12.3255 16.6729 12.4203 16.5693 12.403ZM475.244 3.46612C474.931 3.39054 466.763 3.76166 465.75 3.90836C466.743 4.09443 474.847 3.94642 475.126 3.83999C475.228 3.80788 475.294 3.47811 475.244 3.46612ZM492.452 2.97534C493.182 2.55946 493.669 3.02807 493.761 3.03203C494.671 3.07302 496.509 2.94149 496.114 3.33541C494.562 3.21528 490.997 3.80132 492.452 2.97534ZM461.451 3.72304C458.753 3.9244 463.945 4.24347 463.252 3.83921C463.209 3.8148 461.732 3.70196 461.451 3.72304ZM476.117 3.33172C476.586 2.99969 484.767 3.10718 485.963 3.08125C484.846 3.70091 483.921 3.2681 482.37 3.33119C481.951 3.34893 482.068 3.59431 482.023 3.59565C481.295 3.62244 481.834 3.32484 481.384 3.32995C481.06 3.33514 475.279 3.80427 476.117 3.33172ZM492.867 2.68923C493.338 2.45004 498.228 2.24227 498.396 2.29893C499.873 2.71854 493.307 2.75997 492.867 2.68923ZM475.388 2.81702C476.228 2.10752 480.07 2.49158 477.451 2.89101C477.201 2.9276 476.126 2.64963 475.388 2.81702ZM461.727 3.0583C461.598 3.04051 458.764 2.95762 458.713 3.17887C459.137 3.25632 463.243 3.25245 461.727 3.0583ZM463.164 2.28492C463.096 2.29153 463.761 2.70273 462.448 2.67485C462.338 2.67196 462.13 2.19874 460.469 2.40608C460.132 2.44868 459.612 2.77465 459.65 2.79353C461.423 3.5082 466.526 1.97226 463.164 2.28492ZM492.95 2.30055C492.675 2.10513 493.315 1.49288 493.904 1.78264C494.157 1.90781 493.701 2.27694 492.95 2.30055ZM452.756 3.03932C454.366 2.6457 449.289 2.67461 449.015 2.77253C449.19 2.99518 452.602 3.07778 452.756 3.03932ZM19.06 9.54932C19.0587 9.54934 19.0574 9.54937 19.0561 9.5494C20.4287 9.60212 19.5861 9.92196 19.6505 9.93005C22.5824 10.3104 21.7942 9.64391 22.2496 9.5535C23.2282 9.35817 23.0869 10.1923 24.7393 9.8125C22.0074 10.3796 24.499 10.1131 24.5833 10.407C24.9152 11.6066 20.9212 9.92011 19.5676 10.2022C19.3785 10.2412 20.7879 10.5961 20.304 10.7161C18.7288 11.1048 13.8022 9.34823 19.06 9.54932ZM494.352 1.71992C495.008 1.35123 499.711 1.58801 498.471 1.90819C498.299 1.95933 493.443 2.25706 494.352 1.71992ZM267.76 5.30365C268.915 4.97707 266.22 4.66289 265.724 4.91015C265.479 5.03331 267.253 5.44698 267.76 5.30365ZM248.797 4.31886C247.418 4.405 245.983 5.70887 247.698 5.48067C247.881 5.45582 248.959 4.49348 248.797 4.31886ZM339.771 3.41382C338.303 2.98196 338.404 3.82948 339.476 3.79908C339.854 3.78848 339.817 3.42749 339.771 3.41382ZM284.567 4.46989C284.422 4.44272 282.759 4.52549 282.822 4.71958C283.441 4.82607 285.502 4.65735 284.567 4.46989ZM340.232 3.28502C339.37 3.4529 340.87 4.04138 341.913 3.42313C341.379 3.48157 340.321 3.26785 340.232 3.28502ZM472.38 1.0015C471.67 1.3647 469.615 1.30086 468.418 1.38476C468.286 0.935659 471.555 1.10029 472.38 1.0015ZM254.691 4.73121C253.381 5.07226 256.204 5.28418 255.938 4.86791C255.902 4.84567 254.743 4.71674 254.691 4.73121ZM386.416 2.43796C385.455 2.72435 388.528 3.03278 387.676 2.57405C387.634 2.55548 386.469 2.42203 386.416 2.43796ZM399.635 2.36061C398.924 2.28235 395.868 2.36444 397.062 2.60623C397.249 2.64332 399.587 2.60831 399.635 2.36061ZM22.3239 9.22663C21.9249 8.771 24.1846 8.83325 24.5107 8.90745C24.6382 8.93847 22.8432 9.81939 22.3239 9.22663ZM330.401 3.50217C329.655 3.57303 327.709 3.49605 327.37 3.74533C328.289 3.67919 330.655 3.98281 330.401 3.50217ZM260.68 4.62566C259.53 4.14117 257.577 4.22464 258.071 4.87504C260.228 4.79368 257.796 4.28753 260.68 4.62566ZM345.066 2.65906C344.464 2.63094 344.014 3.27149 344.082 3.30013C344.74 3.57246 345.667 2.89492 345.066 2.65906ZM300.022 3.95227C299.983 3.68251 298.068 3.83806 298.327 4.00768C298.412 4.06465 300.054 4.17057 300.022 3.95227ZM447.19 1.34137C446.299 1.11147 449.001 0.818786 449.795 1.09174C450.191 1.49943 447.307 1.36755 447.19 1.34137ZM361.713 2.53001C361.798 2.12723 358.785 2.40625 359.98 2.71824C360.279 2.7963 361.685 2.6647 361.713 2.53001ZM390.486 1.54663C388.476 2.06069 396.959 2.25074 394.721 1.69386C394.566 1.65413 390.665 1.50307 390.486 1.54663ZM404.314 1.60044C403.962 1.55399 404.115 0.20271 405.573 0.696693C405.765 0.760718 404.881 1.13299 405.038 1.21172C405.134 1.25651 408.277 1.3897 408.418 1.35568C408.572 1.31717 408.382 0.88834 408.538 0.837054C408.715 0.779708 410.642 1.12486 411.64 1.11104C413.522 1.08431 413.714 0.721066 413.868 0.717107C414.32 0.706583 415.056 0.948757 416.007 0.931251C420.783 0.842199 427.673 0.411314 431.462 1.10398C428.059 0.860514 425.132 1.23909 421.839 1.39907C422.787 0.6309 417.03 2.06505 420.398 1.13738C418.771 1.35541 405.517 1.74407 404.318 1.60038C404.317 1.6004 404.315 1.60042 404.314 1.60044ZM243.333 4.03551C244.177 3.56043 239.812 3.73974 239.448 4.27874C240.028 4.3426 243.23 4.08949 243.333 4.03551ZM263.46 2.56466C263.863 2.47825 264.233 1.57185 266.36 1.99168C266.362 1.99166 266.363 1.99161 266.365 1.99159C266.987 2.11418 266.285 2.34556 266.4 2.42174C266.442 2.45292 268.38 2.86727 266.778 2.96685C264.333 3.1194 266.536 2.30145 265.231 2.3144C265.072 2.3164 262.608 2.84602 262.753 2.95046C262.768 2.96265 263.511 2.8468 263.634 2.88912C264.101 3.04816 263.88 3.33302 263.946 3.34527C264.162 3.37582 268.058 2.82991 268.631 3.23823C268.821 3.36979 262.415 3.79116 262.16 3.72547C262.001 3.68402 262.054 2.90297 261.889 2.82909C261.805 2.79233 259.223 3.12919 258.885 3.06331C258.786 3.04426 258.712 3.02319 258.656 3.00571C259.053 3.24023 256.706 3.26336 256.773 2.98987C256.812 2.88215 258.428 2.91621 258.486 2.93392C258.512 2.94141 258.534 2.95194 258.555 2.95912C258.217 2.67078 263.676 2.58993 262.49 2.17262C264.066 1.90565 262.277 2.81847 263.46 2.56466ZM271.05 1.95273C270.888 2.03757 270.725 2.12242 270.562 2.20728C273.345 1.95858 276.558 2.29833 279.746 2.24067C280.555 2.22663 279.616 1.74097 280.678 1.85985C281.529 1.95514 282.475 2.40432 282.016 2.51596C281.904 2.54378 280.171 2.27038 279.306 2.31635C276.75 2.45234 277.402 2.87144 277.253 2.88563C277.088 2.90069 275.471 2.62586 274.589 2.65449C272.375 2.72737 271.352 3.00914 268.325 2.71606C270.055 2.4027 269.097 1.80306 271.05 1.95273ZM374.382 1.09248C374.484 0.819854 376.311 1.02832 376.969 0.977034C376.871 1.25028 375.046 1.04112 374.382 1.09248ZM104.083 5.51453C103.537 5.96944 107.713 5.99965 106.606 5.6509C106.362 5.57344 104.611 5.50757 104.083 5.51453ZM122.849 5.42891C123.407 5.29554 121.147 5.01802 121.157 5.36183C121.163 5.47203 122.778 5.44623 122.849 5.42891ZM306.888 1.77547C306.994 1.75973 308.54 1.83225 308.588 1.85403C309.62 2.3083 304.53 2.12269 306.888 1.77547ZM145.642 4.45789C143.701 4.78492 149.562 4.80341 147.765 4.46501C147.675 4.44855 145.736 4.44201 145.642 4.45789ZM153.786 4.2272C153.319 4.25134 151.244 4.14468 151.219 4.28077C151.181 4.50025 153.557 4.60628 153.786 4.2272ZM345.443 0.973558C345.21 0.476772 347.948 0.808888 348.891 0.729565C349.125 1.22667 346.394 0.893947 345.443 0.973558ZM328.186 0.900743C339.669 0.308959 337.169 1.42184 327.503 1.1564C327.483 0.835469 327.458 0.938085 328.186 0.900743ZM342.935 0.706834C342.52 1.03479 341.203 0.962301 340.311 0.95193C340.468 0.726179 342.296 0.775481 342.935 0.706834ZM99.0865 4.92259C99.8017 4.5035 103.019 4.94138 102.452 5.11945C102.319 5.15806 98.8246 5.15049 99.0865 4.92259ZM307.851 1.33044C307.574 0.848136 311.049 0.987302 311.315 1.09092C312.392 1.50751 308.133 1.21811 307.851 1.33044ZM361.787 0.262931C362.392 -0.129031 364.127 0.037119 365.237 0.0229354C364.738 0.357796 362.735 0.253373 361.787 0.262931ZM353.681 0.104145C353.74 0.0884944 355.316 0.0957236 355.386 0.112065C356.673 0.462453 352.254 0.443316 353.681 0.104145ZM17.0832 5.92803C17.1342 5.91463 18.3049 5.91375 18.3462 5.92721C19.3986 6.27084 15.8851 6.27165 17.0832 5.92803Z" fill="#DAC110"/>
</svg>
