<svg width="696" height="88" viewBox="0 0 696 88" fill="none" xmlns="http://www.w3.org/2000/svg">
<path d="M55.5121 86.9313C55.9371 86.8276 57.6713 86.9748 58.4186 86.9094C57.6038 87.8667 53.9778 87.3076 55.5121 86.9313ZM129.642 16.804C129.03 17.057 128.418 17.31 127.807 17.563C129.575 17.6425 131.941 17.3815 133.591 17.534C133.86 17.5599 133.19 18.2493 133.826 18.2539C134.463 18.2583 134.305 17.3584 135.225 17.2253C136.258 17.0788 141.035 17.522 142.653 17.4429C148.753 17.1413 154.911 16.3804 161.085 16.512C154.757 17.4331 161.186 17.8607 162.958 17.4999C163.348 17.4171 163.23 15.7373 169.584 15.9091C173.628 16.0174 169.995 18.5704 176.685 17.0975C171.436 15.6217 176.534 15.5369 180.601 15.3188C181.301 15.281 186.982 15.3075 189.486 15.1327C190.337 15.0728 191.602 14.1398 192.733 14.0714C193.512 14.025 194.121 14.483 195.277 14.4122C200.67 14.0876 205.985 13.8369 211.415 13.7819C208.337 16.1731 213.941 14.6468 214.2 14.7447C215.517 15.3075 209.679 15.7173 212.006 16.0089C215.24 15.8087 218.445 15.6095 221.667 15.4095C219.011 15.238 225.091 13.362 226.253 14.0571C225.67 12.0771 241.028 15.2046 243.309 14.4429C243.784 14.2823 240.592 13.4213 247.923 13.5775C248.718 13.5956 248.442 14.2113 248.856 14.1382C249.103 14.0943 250.531 12.115 252.178 13.11C252.78 13.4731 249.083 14.8851 257.294 14.0448C253.936 12.2254 268.663 12.524 271.391 12.9029C270.84 12.6626 270.289 12.4222 269.738 12.1819C272.44 12.7808 272.895 12.0973 273.499 12.109C275.932 12.1555 279.294 12.6886 281.55 12.5355C284.19 12.3575 284.149 11.1429 287.248 11.4896C286.507 11.2515 285.765 11.0134 285.023 10.7753C287.155 10.753 289.276 10.731 291.416 10.7083C286.545 12.5172 292.484 10.7415 292.879 10.6907C293.507 10.6064 292.628 11.3015 293.679 11.1765C293.788 11.1585 293.605 10.5453 295.228 10.4093C298.618 10.1272 298.113 10.9282 299.538 10.8612C299.668 10.8518 299.189 10.3123 301.644 10.0796C309.443 9.33934 301.623 10.5089 301.325 10.5984C300.935 10.7163 303.714 12.9395 297.034 12.384C299.277 12.5561 299.543 13.5793 299.795 13.5947C300.019 13.6066 303.877 13.3032 304.088 13.2589C305.973 12.8307 304.273 12.1935 304.638 12.052C304.937 11.9377 309.625 12.6667 310.627 10.5001C312.93 12.3663 309.422 12.3304 305.701 12.784C305.174 13.208 309.287 13.4308 309.502 13.4209C314.783 13.201 311.793 11.7108 312.905 10.6344C313.49 10.0711 315.684 11.0814 313.64 9.71912C318.436 9.36997 315.559 10.3258 315.873 10.4369C316.35 10.5996 318.018 10.1168 318.231 10.1632C318.544 10.2321 317.488 10.7761 318.716 10.9021C318.92 10.9194 320.85 9.97867 318.298 9.67151C321.69 9.65492 321.38 8.93298 322.588 10.3639C324.803 7.47213 324.346 11.9473 325.27 12.0663C327.725 12.3793 326.927 10.213 327.051 10.1006C327.912 9.37815 334.68 9.85554 336.331 9.47073C335.74 11.0789 330.996 9.70726 329.96 10.0571C326.51 11.221 334.913 10.6455 332.459 12.7364C333.499 12.1471 334.539 11.5578 335.578 10.9685C337.576 12.166 334.84 12.8364 340.055 12.1544C340.864 11.0167 336.362 12.4807 337.24 11.5747C337.758 11.0428 340.787 10.8086 340.843 10.5371C340.885 10.2114 338.155 10.7076 338.568 10.1923C339.455 9.08042 349.583 9.68756 341.937 10.5891C344.075 10.4827 345.264 12.5729 347.089 11.8313C348.267 11.3502 341.415 8.67793 351.536 8.80299C351.793 9.80252 347.512 9.26696 347.404 9.34826C347.253 9.46636 348.117 11.7102 348.255 11.817C348.746 12.1673 358.992 10.5247 361.201 11.5787C360.278 10.2994 368.973 11.0231 369.909 10.583C370.156 10.462 369.183 9.69521 369.448 9.59884C371.106 9.02206 375.696 10.2731 377.793 10.2238C380.14 10.1691 379.814 9.48566 379.945 9.48156C380.978 9.47777 380.174 9.98349 380.804 9.95612C381.759 9.91442 388.29 9.7411 388.61 9.62926C388.704 9.59463 387.608 8.84379 389.022 8.6343C389.268 8.59793 389.154 9.54664 393.392 8.96362C398.491 8.26226 389.787 7.93887 391.873 6.86402C395.223 8.13299 395.056 6.74509 395.952 6.81755C396.262 6.84461 398.606 7.93349 401.088 7.75575C399.312 8.02174 397.534 8.28783 395.752 8.55403C397.521 8.6888 400.919 8.29079 402.371 8.46558C403.079 8.55059 402.54 9.54712 404.067 9.45757C404.39 9.4333 405.581 7.01055 401.619 8.23956C401.264 7.40679 403.194 7.87876 404.067 7.60289C404.199 7.56007 404.668 6.12484 405.831 6.95657C406.108 7.16157 403.343 11.4062 410.802 8.10799C411.042 8.00171 410.172 7.5205 410.406 7.40358C410.566 7.32432 412.507 7.45314 412.717 7.37106C412.932 7.28341 411.976 6.75834 412.231 6.63666C413.534 6.01015 415.41 8.17198 412.627 8.11667C413.553 8.35511 414.509 8.59227 415.449 8.83012C414.382 7.18643 416.893 8.29538 418.176 8.1902C426.393 7.51732 420.836 6.64992 422.227 6.02424C424.461 5.01966 422.848 7.97504 426.178 6.96902C426.483 6.87519 422.376 5.81943 430.33 6.18136C429.164 6.2775 427.997 6.37371 426.827 6.46997C427.572 8.07169 431.046 6.18299 431.316 6.14888C434.41 5.79637 432.339 6.47085 436.902 5.44076C437.317 5.34806 438.244 5.71251 439.128 5.47485C442.786 4.495 434.236 5.17546 434.009 4.5239C433.851 4.20663 443.064 3.90575 443.384 4.04626C444.753 4.67108 439.225 4.51914 440.31 5.32038C440.724 5.60376 453.761 4.44523 456.35 4.66695C459.359 4.92515 460.801 7.0787 460.726 4.59473C461.689 6.99605 462.379 5.30169 462.769 5.30228C467.484 5.33234 467.492 5.35666 471.491 4.95668C472.373 4.86921 473.148 5.57768 473.455 5.43985C473.634 5.35689 473.262 4.57966 474.141 4.29854C475.374 3.91267 482.77 4.42053 483.354 4.83442C483.91 5.2495 480.241 5.1539 480.927 5.84583C483.54 5.81001 486.2 5.52115 488.897 5.48495C490.023 5.47179 489.466 5.99923 489.952 5.98903C490.162 5.98652 494.015 5.38223 493.842 5.20344C493.461 4.78676 481.445 5.57713 484.575 4.56447C485.182 4.36872 487.39 5.43889 486.988 4.04262C497.728 3.91639 508.321 3.79618 519.027 3.67142C513.016 4.97819 505.854 4.33086 499.591 4.6904C498.72 4.73884 495.753 4.72592 496.142 5.42392C501.564 5.38337 508.327 4.73001 513.63 4.97494C513.799 4.98332 513.208 5.64954 513.842 5.72487C515.03 5.86526 518.801 4.67357 519.448 4.91426C519.561 4.97192 517.43 5.90644 518.111 6.41569C519.859 7.72255 520.161 4.65455 521.61 4.6305C522.706 4.61422 530.355 5.77362 532.245 4.76172C534.234 3.68415 526.571 4.41993 527.098 3.58461C532.289 2.55138 537.547 3.2058 542.356 2.90422C542.44 2.89811 541.678 2.29234 542.748 2.15871C544.608 1.92623 545.132 2.80866 546.042 2.91551C546.979 3.03056 550.576 2.75165 551.051 3.06159C551.114 3.10223 550.432 4.02737 550.324 4.05707C548.793 4.49028 548.191 3.35124 548.05 3.34218C547.512 3.32039 547.027 3.78637 546.558 3.77927C545.786 3.76706 545.344 3.37292 544.322 3.37895C543.617 3.38161 544.33 4.1441 543.649 4.13616C543.4 4.12998 540.627 2.43647 540.449 4.29014C540.294 4.87856 562.773 4.69288 564.849 4.14146C562.96 3.99781 561.059 3.85465 559.147 3.71195C563.044 4.09067 567.522 2.42983 567.971 4.59374C582.561 4.16742 596.742 3.75929 611.201 3.34269C613.789 3.42217 612.448 4.87975 616.633 4.29957C615.532 3.89798 614.426 3.49665 613.314 3.09557C615.536 3.31751 624.931 3.5442 626.618 3.18595C626.819 3.13981 627.059 1.86062 629.468 1.65297C631.599 1.46947 631.973 2.40523 633.11 2.54093C634.063 2.65228 635.108 2.36042 635.388 2.40148C635.603 2.43473 635.712 3.01185 636.228 3.09217C637.856 3.3393 636.483 1.75787 638.156 3.56991C637.771 3.65727 637.385 3.74467 636.998 3.83211C638.905 4.02643 641.768 4.76337 638.793 5.30582C638.307 5.39837 638.704 4.81953 638.339 4.8354C623.837 5.53234 635.457 6.15098 640.568 5.06909C642.002 5.84416 649.45 5.03244 649.671 5.18788C650.02 5.41169 648.792 6.12774 650.46 6.63539C650.729 6.74597 660.759 5.87372 657.175 7.1265C656.362 7.38784 651.669 7.33764 650.549 7.41578C653.172 9.07614 659.603 6.2849 660.302 6.32172C663.217 6.47957 654.778 8.07573 661.331 8.01682C666.303 7.97429 661.6 6.98375 663.484 6.40436C664.576 6.07773 670.023 7.15909 669.925 5.48001C671.922 5.22044 670.784 6.15714 671.034 6.21122C671.288 6.25735 675.144 5.59965 676.371 5.90573C676.522 5.94385 676.087 6.83594 676.244 6.90127C676.561 7.01115 680.149 6.69392 680.277 6.61481C680.366 6.55978 679.489 5.82863 679.83 5.62937C680.029 5.51439 680.984 5.4681 681.898 5.42293C682.909 5.37389 683.873 5.3262 683.97 5.21293C684.106 5.04207 683.049 5.05547 682.029 5.00184C681.077 4.94552 680.213 4.82012 680.542 4.37887C682.411 4.52048 685.96 3.80926 687.212 3.07079C686.896 3.28027 684.916 3.38638 684.209 3.34475C684.509 2.07846 688.736 1.92965 687.331 2.9776C688.222 2.40948 687.589 2.15144 688.081 1.62896C688.212 1.49636 689.492 1.42004 689.727 1.19372C689.759 1.14918 688.422 0.728188 688.675 0.463501C689.156 -0.0157957 692.958 -0.0604023 693.249 0.049204C694.124 0.357496 691.092 0.889448 690.842 1.42838C690.816 1.51059 693.465 2.44433 693.499 2.53464C693.697 3.50935 690.768 2.91529 691.129 3.78587C691.862 3.94417 692.587 4.10281 693.305 4.26182C690.638 5.26091 685.243 5.01189 683.828 6.08677C688.27 5.60836 692.549 5.47791 692.626 7.7696C692.664 8.73448 690.904 9.36952 690.98 9.61232C691.287 10.4795 693.705 9.43031 693.789 9.47354C693.865 9.52418 693.9 9.57497 693.902 9.62567C693.902 9.62569 693.902 9.62571 693.902 9.62573C693.936 10.1391 690.439 10.6459 690.254 10.8882C689.971 11.3168 691.624 12.9709 691.633 13.3506C691.589 13.4287 689.053 13.9344 689.941 14.5631C690.848 15.1977 693.041 15.1271 693.115 15.1939C693.559 15.5773 689.719 16.0925 689.593 16.3343C689.541 16.456 691.663 17.1084 691.726 17.3173C691.788 17.527 690.225 18.0509 689.614 18.7443C689.162 19.2594 690.549 19.5866 690.31 19.6739C690.156 19.7315 686.389 19.8706 686.188 19.9661C685.913 20.1063 686.833 20.6646 686.708 20.8181C686.534 21.0388 685.282 20.8734 685.452 21.0867C685.605 21.2445 690.414 23.1052 690.382 23.6541C690.38 24.5877 685.317 22.6378 690.084 26.1356C690.118 26.1584 691.216 25.8537 691.247 25.8752C691.95 26.5257 688.47 27.7042 692.763 27.3545C684.743 28.8451 691.833 28.7942 690.698 30.4107C690.272 31.0315 687.082 31.4057 687.06 31.4973C687.407 32.2503 688.409 31.6164 688.769 31.9782C688.975 32.1801 686.116 33.1029 686.786 33.6029C687.147 33.8599 690.18 33.6444 690.296 33.6929C691.497 34.1449 690.069 34.7382 690.342 35.0819C690.528 35.3123 692.316 35.2613 692.36 35.3024C692.444 35.3881 690.053 36.4416 689.543 36.7991C689.163 37.0737 690.644 37.4226 690.376 37.5463C688.779 38.2857 685.129 36.7025 688.655 38.9835C688.871 39.1234 690.145 39.0135 690.182 39.0417C690.995 39.6957 688.655 39.8466 688.244 40.4242C687.555 41.4188 690.939 40.7466 688.132 41.5371C690.287 42.0853 691.455 42.0132 693.825 41.7446C687.188 42.4954 684.772 45.0952 692.334 44.7361C689.968 44.7894 690.271 46.1912 689.556 46.244C689.122 46.2747 685.488 45.0122 687.253 48.0962C687.48 48.4812 689.609 47.8971 688.968 48.7285C683.763 48.7273 688.89 49.2445 688.888 49.3512C688.796 51.2115 676.415 50.1796 674.177 50.4817C671.611 50.8298 669.446 52.3804 668.949 52.4021C667.219 52.4722 668.626 51.6725 668.228 51.4153C667.843 51.1599 662.883 52.7831 662.607 52.7161C661.606 52.4424 662.574 51.5227 662.47 51.4824C661.238 50.9923 654.298 51.9623 652.514 51.8301C652.602 52.3978 656.329 52.2922 654.04 53.3025C651.365 54.4808 651.09 51.9734 651.017 51.8655C638.026 52.4167 625.495 52.9541 612.789 53.5009C613.031 54.8308 621.29 53.4808 621.456 53.6504C622.665 54.6451 608.556 55.206 606.736 54.8081C608.036 55.044 609.432 55.276 610.767 55.5104C608.481 57.1451 603.578 55.3457 600.378 56.1579C599.347 56.4209 601.368 56.9321 601.328 56.9744C600.187 57.6197 598.285 57.2373 599.658 56.3773C596.825 57.2639 597.207 56.3989 594.987 56.4268C594.872 56.4289 595.853 57.01 594.104 57.3401C593.302 57.4935 588.812 57.6811 588.303 58.2459C588.06 58.4848 590.385 60.7995 590.586 58.7163C595.447 59.5268 592.088 57.7087 593.957 57.6792C594.238 57.6784 593.651 58.8608 598.275 58.1247C597.488 60.2456 592.036 58.9092 591.104 59.2007C589.212 59.7989 597.15 60.5494 598.486 58.8663C597.886 60.5209 599.05 59.0626 600.774 59.0584C602.659 59.0533 601.859 59.5717 602.874 59.5324C605.641 59.4304 604.449 58.3292 606.757 59.2711C604.368 56.1588 610.743 58.6832 612.629 59.4466C609.646 59.7323 606.635 60.0194 603.782 60.3001C603.955 60.4615 604.128 60.623 604.301 60.7845C603.536 60.7922 602.768 60.7999 601.998 60.8078C602.115 60.6414 602.231 60.475 602.348 60.3086C598.424 61.5211 597.378 60.3836 597.053 60.3839C592.826 60.4214 587.862 60.6369 583.718 60.8045C583.082 60.8302 583.579 61.8605 578.9 61.2316C577.403 61.0316 578.774 60.1573 577.091 60.3497C575.067 62.655 575.03 60.8846 574.399 60.908C572.584 60.9834 571.489 61.5792 571.32 61.592C569.038 61.7724 565.923 61.8097 563.489 61.9926C563.444 62.0028 564.729 62.632 563.151 62.4955C562.599 62.4463 557.521 59.7435 553.145 60.8748C554.3 61.0236 555.452 61.1725 556.599 61.3216C555.242 61.103 545.876 62.2262 548.212 62.9091C549.566 63.3295 553.003 61.3088 553.444 63.0965C550.188 62.691 533.313 64.2006 531.841 63.8422C531.652 63.7902 532.777 63.1574 532.516 63.0933C532.322 63.0443 528.317 63.3496 527.832 63.1447C527.522 63.0239 529.212 62.5945 529.07 62.3893C528.941 62.2442 524.09 62.1949 523.837 62.9398C525.022 62.5958 528.374 62.7139 526.647 63.4047C526.425 63.4908 525.235 63.0666 524.964 63.1754C522.469 64.179 530.006 63.6497 531.283 63.604C526.436 64.7412 519.074 63.9442 513.43 64.7889C511.127 64.2733 516.765 63.715 514.169 63.3165C508.774 62.491 512.781 64.2196 512.618 64.3041C511.325 64.9746 506.605 61.8657 506.749 64.3754C504.831 64.0764 505.436 63.7341 502.757 64.1747C503.118 64.3339 503.48 64.4931 503.841 64.6523C500.921 66.2309 494.384 62.8264 494.848 62.5266C496.108 61.7237 499.474 62.7544 499.754 62.7146C500.169 62.6557 501.23 60.0588 505.873 62.1482C507.67 60.3614 498.6 61.2951 502.692 59.9579C499.927 60.2644 488.242 59.5586 486.563 60.3799C486.371 60.486 487.357 62.151 484.457 61.4033C483.09 61.0466 486.349 60.8913 485.718 60.5288C483.856 59.4136 457.695 61.264 452.845 61.5283C452.525 61.5435 452.621 61.0101 452.306 61.028C451.339 61.0829 447.836 62.0179 446.082 61.8471C449.731 62.6755 442.726 63.0426 440.925 63.0096C438.188 62.9589 438.35 62.0205 437.178 61.871C432.697 61.2932 425.84 63.7897 422.25 61.8705C422.54 63.911 416.11 61.1188 413.318 61.2164C411.115 61.293 407.966 62.7816 410.98 63.4841C407.168 63.5475 403.159 64.0964 399.564 64.3698C398.971 64.4153 399.764 63.7755 398.751 63.8723C398.66 63.8855 398.557 64.4845 397.687 64.5824C390.498 65.3982 393.953 63.9914 392.587 63.6763C391.823 63.4998 391.257 63.4198 390.854 63.4023C395.053 63.1124 399.891 62.6787 401.179 62.6085C400.036 61.3424 391.857 63.2464 389.477 62.9914C389.394 62.9819 389.651 62.2474 389.567 62.2457C389.566 62.2458 389.564 62.2459 389.562 62.246C388.67 62.2274 382.988 62.7294 384.195 63.5427C384.52 63.7599 387.143 63.651 390.239 63.4446C389.407 63.6409 390.067 64.4246 389.92 64.4652C388.142 64.9396 383.7 64.3317 382.127 64.2899C381.768 64.2813 381.815 64.7989 381.756 64.8026C380.326 64.7437 380.85 63.2385 379.449 64.8263C376.789 63.0872 384.279 64.3523 383.704 63.1752C383.282 62.2683 366.764 63.4467 366.859 64.8991C366.796 64.7459 366.562 64.5622 366.09 64.3618C365.044 63.9162 360.472 64.2575 359.691 64.5581C359.56 64.6164 359.671 66.0254 359.506 66.0453C359.095 66.0947 353.44 65.2193 351.373 66.14C352.515 66.2911 353.656 66.4422 354.796 66.5934C347.955 66.8874 349.026 67.264 351.326 67.5919C351.44 67.5911 351.554 67.6401 351.663 67.6413C353.444 67.8805 355.72 68.0877 355.759 68.1976C355.912 68.6169 344.297 69.3318 346.478 67.9306C346.784 67.7388 352.187 68.1003 349.485 67.2757C349.013 67.1312 345.567 67.5401 345.38 67.4446C344.138 66.81 351.648 65.5899 350.685 64.6551C348.893 65.6566 346.522 65.2656 344.428 65.5912C343.475 65.7387 343.269 66.4559 343.152 66.4741C341.393 66.7315 342.355 65.9488 341.769 65.9914C341.456 66.0171 338.067 67.738 338.63 65.5346C327.301 67.6039 335.55 67.2635 342.525 66.8539C340.35 67.7375 336.01 67.5318 334.072 67.7957C333.377 67.8912 333.821 68.6005 332.648 68.7942C330.243 69.1924 318.581 68.8351 315.559 68.7618C317.399 68.4293 316.826 67.6603 315.4 67.7735C313.973 67.8871 315.217 68.8939 314.943 69.0189C314.65 69.1486 307.921 68.9249 306.808 69.1074C311.846 68.5181 310.675 67.7758 306.381 67.8688C306.992 67.6162 307.603 67.3636 308.214 67.111C305.713 67.5332 300.372 66.5461 298.93 66.9637C298.704 67.0306 299.552 67.6605 299.425 67.698C298.16 68.0321 293.785 67.5331 293.592 67.7677C293.428 67.9631 295.305 68.4435 294.628 68.7454C294.488 68.8089 292.657 67.9855 290.914 68.2774C290.266 68.3851 290.684 68.9965 290.521 69.0395C289.166 69.3971 289.93 68.3077 287.437 68.5795C285.61 68.7798 284.287 69.8683 281.74 69.6295C290.11 70.6071 283.098 70.3421 279.635 70.8828C279.08 70.9692 279.604 72.0886 276.25 71.6698C283.256 69.3217 274.184 70.6636 272.318 70.717C272.215 70.7142 272.15 69.9645 271.235 69.9897C271.157 69.9935 271.289 70.4965 270.441 70.5699C262.393 71.2646 267.525 70.4817 265.974 70.0434C265.314 69.8566 261.425 70.7334 260.371 70.7936C260.128 70.8052 260.219 70.2733 259.281 70.332C257.622 70.4373 256.156 71.0591 255.062 71.1481C254.934 71.1558 254.895 70.3239 252.828 70.678C252.247 70.7771 251.603 71.0992 252.442 71.3048C255.226 71.9802 260.391 70.4066 263.533 71.0656C266.398 71.6658 257.458 72.0963 256.993 72.1193C256.822 72.1288 258.552 71.6448 256.774 71.635C255.256 71.6284 252.544 73.178 250.273 72.9565C250.1 72.9403 248.246 71.7947 248.326 71.7202C248.4 71.6653 251.16 71.2885 250.744 70.9521C250.694 70.9139 248.933 70.9934 248.693 70.7402C248.398 70.4319 247.512 67.3261 247.133 67.2627C246.16 67.1075 246.817 67.7974 246.191 67.7729C244.848 67.7222 240.168 66.9824 240.059 68.0757C240.829 68.1092 241.601 68.1427 242.37 68.1762C238.104 68.4607 239.943 68.8499 239.346 69.0782C238.703 69.3251 238.848 68.3621 237.404 68.3305C237.09 68.3235 231.076 68.7661 231.202 69.1626C234.506 68.3901 233.319 69.6208 233.474 69.6357C234.06 69.6891 234.779 68.9966 235.562 68.9782C241.074 68.8594 235.562 70.1294 236.873 70.3457C237.324 70.4181 238.193 69.8166 238.384 69.8379C239.005 69.9066 239.045 70.6467 239.454 70.5702C240.409 70.3924 239.245 69.3898 239.319 69.3322C240.151 68.6418 243.547 69.3217 241.5 70.5465C242.773 70.9066 242.864 69.5149 243.882 70.0286C245.906 71.0455 242.929 70.8837 242.132 71.0984C239.274 71.8721 238.396 71.3749 234.319 71.7218C232.852 71.8453 231.137 72.5887 230.457 72.6532C230.028 72.6938 225.877 70.5153 225.906 74.1855C224.315 73.8943 221.746 71.5785 220.127 71.7543C218.675 71.9137 219.19 73.1917 219.056 73.2474C218.851 73.3346 217.086 73.3032 216.496 73.5105C215.804 73.7552 216.174 74.236 215.071 74.4825C212.326 75.0942 212.346 73.7677 212.058 73.6931C208.72 72.8313 210.24 74.6559 209.514 74.8363C208.838 75.0026 199.275 74.6602 197.292 75.2166C198.097 74.9188 198.902 74.6211 199.708 74.3233C198.214 73.5562 196.722 74.9647 196.635 73.4853C196.434 75.8873 193.36 74.41 192.459 74.5079C192.104 74.5476 192.148 74.9537 191.703 74.9891C189.954 75.1306 185.995 74.9638 185.055 75.2082C180.987 76.2611 191.543 77.3213 192.37 77.3776C190.717 77.4174 181.38 78.3261 185.726 79.3036C186.398 79.4544 187.533 78.3377 187.905 78.2809C190.423 77.9046 188.472 78.9425 188.674 79.0258C189.017 79.1595 190.645 78.1664 191.089 78.2592C191.235 78.2888 190.333 79.1942 192.736 79.1164C191.592 80.005 184.78 79.5903 183.903 79.8231C183.59 79.9062 185.642 81.6254 179.784 80.1095C179.858 80.2738 179.931 80.438 180.005 80.6023C176.786 80.7994 173.571 80.9961 170.361 81.1924C170.694 80.794 172.468 79.9498 170.202 80.204C168.898 80.3508 169.9 81.169 169.782 81.1986C168.64 81.4807 147.723 82.0233 143.74 82.2751C142.39 82.3594 138.549 83.2 138.262 83.2241C136.51 83.3621 130.301 83.1571 129.074 83.3024C128.307 83.395 129.067 84.0824 128.378 84.0757C127.738 84.0686 128.373 83.3505 128.182 83.329C126.594 83.1403 114.734 84.513 111.827 83.9722C113.586 84.1001 122.191 82.3791 121.986 81.8982C121.946 81.8328 119.832 81.3881 119.411 81.6617C118.682 81.09 116.282 83.011 114.92 82.7052C114.766 82.6704 115.325 81.6237 112.917 81.5315C112.088 81.5002 109.955 82.3822 107.749 81.5725C104.609 82.1255 88.1147 81.4345 86.9778 82.579C86.9459 82.6384 89.2963 82.927 87.7356 83.4391C85.6622 84.1198 87.4661 82.0267 85.0183 81.9465C84.6454 81.9344 77.8843 82.3991 77.6723 82.5324C75.6702 83.7449 81.5905 83.978 81.5157 84.1128C81.3199 84.4528 76.422 84.842 76.2223 84.7712C76.0297 84.6971 79.9655 83.0413 75.1892 83.7951C75.7453 83.9536 76.3017 84.1121 76.8585 84.2706C74.6151 84.7068 74.362 83.6755 73.8137 83.6329C72.1031 83.4971 70.364 85.145 67.5132 83.3007C66.7646 82.811 67.9526 82.19 67.8585 82.1158C66.9561 81.4527 65.9107 83.3589 64.5443 82.019C64.4424 81.919 67.4634 80.97 62.1264 81.1713C62.4984 81.2906 62.8706 81.4099 63.2429 81.5291C62.4985 81.8555 57.1185 82.2373 56.3967 82.1942C54.2795 82.0687 56.0818 81.0422 53.9682 81.237C55.3727 82.4967 48.9529 82.9114 49.283 81.7685C48.4689 83.2189 42.8922 82.3345 40.2953 82.3985C38.6561 82.44 35.3535 83.1835 34.8349 83.1305C34.2017 83.0654 34.3564 82.0912 33.2124 81.9185C32.8858 81.8693 29.5332 82.7048 26.5513 81.8137C25.973 81.6421 24.7144 80.0464 25.7591 79.5969C27.5457 78.8277 31.0446 80.0202 30.9653 79.0525C30.8722 78.0177 26.2547 78.8079 25.0095 78.7187C19.1789 78.3092 22.4844 77.0822 22.3312 76.7534C21.9077 75.9572 18.7073 76.1014 18.5727 76.0334C18.0077 75.7301 20.2494 75.0042 20.2659 74.5081C20.282 73.8623 17.1586 72.8138 17.8509 72.5706C18.8395 72.2251 21.7127 73.0888 21.8921 73.0357C24.2153 72.3232 20.9427 70.9544 20.0328 70.2559C19.7564 70.0408 20.8108 69.6314 20.5861 69.5736C17.1582 68.6983 19.9478 71.6924 17.6882 71.5694C15.6751 71.4597 18.22 70.3857 18.1419 70.3346C18.0397 70.279 15.6399 70.3146 15.2534 69.9823C15.0572 69.8161 21.2283 67.6816 20.94 66.8379C18.9489 67.1002 16.9647 67.3621 14.9876 67.6236C14.7898 66.5171 17.6779 67.2299 17.9712 67.1042C18.5589 66.8519 16.8756 66.3507 16.9342 65.9963C16.9638 65.7712 18.885 64.9005 17.1106 64.6369C16.5013 64.5457 15.2589 65.3729 13.0351 64.6573C20.6498 63.3561 15.3226 62.9274 15.0815 62.5417C14.8458 62.1559 18.4667 61.093 14.0368 61.4214C13.7647 59.2637 14.1063 60.7336 15.3528 60.3064C16.8826 59.7813 13.2762 59.2014 18.9571 59.532C18.5938 58.5307 14.0534 58.7709 13.8137 58.6987C13.6038 58.6331 14.5925 58.0973 14.2271 57.9417C9.91152 56.1403 12.8588 56.9267 11.5847 55.7215C11.4697 55.6139 7.45875 55.2977 10.4929 55.0032C16.0284 54.4671 18.4352 55.8156 19.2601 52.7102C15.0624 51.5306 10.1645 53.6964 8.92374 53.7758C7.02218 53.8944 8.97059 53.1954 8.72968 53.0286C8.64567 52.9749 7.00879 53.087 6.98537 53.0381C5.72494 50.7395 14.2873 52.7297 16.9808 52.2216C16.2454 51.8977 15.511 51.5738 14.7775 51.2497C15.7544 51.1995 16.7331 51.1491 17.7135 51.0987C13.0207 50.5668 17.5363 50.838 18.6342 48.8982C18.88 48.4624 15.8348 49.3073 19.2962 47.9928C16.7003 47.8155 17.5098 47.3975 15.1956 48.0186C15.2236 47.2565 20.4547 46.2037 22.5269 45.7358C15.1442 45.1551 19.4288 47.7878 13.0554 46.547C11.921 47.5315 14.9244 47.2367 14.6854 47.4011C13.824 47.9924 11.7249 47.182 9.31907 49.2306C8.92771 49.5669 10.6704 50.493 8.14385 50.5384C7.86409 50.5419 6.22776 49.7558 6.2481 49.6937C6.43589 49.0239 8.03411 49.2134 8.08997 48.9346C8.14151 48.6708 6.37443 48.8935 6.36612 48.8212C6.28081 47.9939 7.83304 48.4497 7.60088 48.1983C7.09828 47.6514 0.660635 46.1016 9 46.3176C2.12203 47.5101 8.13992 47.2665 10.8336 46.8062C11.5201 46.6904 11.6763 46.1886 12.6546 45.9802C13.9129 45.7107 15.4089 45.8933 16.064 45.778C16.7694 45.6515 12.6983 44.6301 18.5367 44.7632C15.5201 43.7091 10.3557 45.1437 7.45143 44.4319C1.59026 42.9931 11.4212 42.2755 12.4623 42.0763C12.7359 42.0227 11.7886 41.3879 11.9706 41.3401C12.2633 41.2664 17.9206 41.3663 18.4639 40.7917C19.0003 40.2179 16.39 40.8942 16.195 40.3238C16.0567 39.9402 22.8768 38.9968 19.1604 38.8692C16.596 38.7825 11.9784 40.5165 11.1338 38.8677C14.8464 38.5913 18.5944 38.3131 22.3473 38.0341C20.2718 37.4723 18.1843 36.9107 16.1142 36.3483C20.3245 35.9894 23.9597 36.5755 27.8509 35.5149C18.324 33.8225 30.8548 33.7682 30.9988 33.5132C31.0378 33.3627 27.2422 31.8422 26.634 31.5608C29.8945 30.7997 40.005 30.1072 34.0097 28.2796C35.099 28.7022 37.662 27.4616 37.625 27.3766C37.2554 26.4837 31.6086 27.2839 32.5037 26.4311C33.5375 25.4418 35.0864 26.6732 36.7352 26.5082C45.2095 25.6521 42.7324 21.0111 51.1721 21.4407C50.998 21.2787 50.8239 21.1167 50.6498 20.9547C59.8197 20.8755 69.1456 20.7876 78.2934 20.7043C81.8121 19.1234 91.4903 17.8696 96.1281 17.8496C97.0712 17.8443 101.745 18.4218 102.103 18.5409C102.762 18.7703 99.194 19.0061 100.827 19.4208C101.166 19.5058 109.07 19.5173 108.477 18.7314C107.587 18.6723 104.834 19.186 104.374 19.0132C101.142 17.7792 125.507 17.9159 126.671 17.3209C126.123 17.0797 125.575 16.8384 125.027 16.5972C126.563 16.6662 128.102 16.7352 129.642 16.804ZM61.6507 84.4052C60.757 85.2509 58.4216 84.7301 57.0681 85.0094C55.196 85.3996 52.126 88.6415 53.3806 85.4612C56.1269 85.1098 58.8838 84.7578 61.6507 84.4052ZM102.157 84.0572C100.289 83.6937 101.656 81.891 103.203 82.5583C103.375 82.6343 104.686 84.5459 102.157 84.0572ZM82.6598 83.9802C82.7368 83.9541 84.3446 83.9385 84.402 83.9638C85.8693 84.6098 81.0222 84.6527 82.6598 83.9802ZM176.624 79.4008C174.584 79.5574 176.126 81.0867 177.371 80.3826C177.449 80.3379 176.758 79.3917 176.624 79.4008ZM175.169 79.4165C173.527 78.0574 170.451 81.0665 172.976 80.6754C173.221 80.6364 175.245 79.4828 175.169 79.4165ZM95.5442 83.618C95.7303 83.0649 97.6434 83.2544 98.4624 83.3533C98.4593 83.8518 96.3377 83.5263 95.5442 83.618ZM144.071 81.5708C144.152 81.1385 137.469 81.4253 137.037 82.0078C138.081 81.7269 144.026 81.9584 144.071 81.5708ZM161.094 80.2956C160.922 80.2282 158.624 80.432 158.706 80.8074C159.849 81.2589 161.869 80.6007 161.094 80.2956ZM195.014 78.9705C195.135 78.8706 193.32 76.5333 197.455 77.954C198.062 78.162 195.952 78.8761 196.168 78.9539C196.62 79.1045 196.974 79.1689 197.257 79.1716C195.369 79.4469 193.404 79.6194 193.208 79.4811C192.287 78.8275 194.96 79.0124 195.014 78.9705ZM212.74 76.4644C213.116 76.0562 215.628 76.1654 216.205 76.3041C216.303 76.3306 215.919 77.3792 217.042 77.2567C217.942 77.1568 216.552 76.1546 218.316 76.2529C220.099 76.3511 217.756 77.1995 217.914 77.247C218.124 77.3091 220.853 76.7241 220.792 77.3419C220.747 77.7996 217.791 77.6103 217.067 77.7363C216.138 77.8981 217.302 78.6107 215.732 78.5107C214.746 78.4484 215.237 77.0933 215.027 77.0343C214.851 76.987 211.451 77.8921 212.746 76.4684C212.744 76.4671 212.742 76.4657 212.74 76.4644ZM197.768 79.0922C197.627 79.1429 197.461 79.1736 197.257 79.1716C197.429 79.1466 197.599 79.1188 197.768 79.0922ZM67.0197 83.6146C68.0075 83.9887 65.1421 84.6262 64.0326 84.129C63.9964 83.6953 66.8616 83.5565 67.0197 83.6146ZM199.484 77.936C202.316 78.1571 200.261 78.6996 197.768 79.0922C198.553 78.8094 198.533 77.8624 199.484 77.936ZM119.411 81.6617C119.533 81.7565 119.614 81.9086 119.634 82.163C119.312 81.8965 119.278 81.748 119.411 81.6617ZM125.986 81.8597C128.208 80.9956 123.634 81.2061 123.686 81.7601C123.707 81.9692 125.897 81.8941 125.986 81.8597ZM179.248 79.3722C179.038 79.3044 182.151 76.8339 177.566 78.7774C180.061 78.9546 177.451 79.3141 177.498 79.5177C177.622 80.1034 181.773 79.3703 182.709 79.5883C183.391 78.5043 179.939 79.5952 179.253 79.372C179.251 79.372 179.249 79.3721 179.248 79.3722ZM244.848 75.7389C244.307 76.38 242.507 76.2536 241.293 76.2662C241.835 75.625 243.636 75.7515 244.848 75.7389ZM561.631 62.7567C553.358 63.6726 552.149 61.2008 559.816 61.8794C559.966 61.8941 562.123 62.4807 561.631 62.7567ZM490.405 65.0635C489.572 63.9989 492.171 63.7141 493.892 64.0965C494.282 64.1824 495.752 65.2346 494.135 65.5196C494.132 64.1874 491.592 63.784 490.405 65.0635ZM201.049 77.1695C201.84 76.4048 204.389 76.8244 205.726 76.8808C204.937 77.516 202.235 77.3514 201.049 77.1695ZM534.305 62.5764C533.42 62.5299 532.863 63.5094 533.019 63.5825C533.717 63.9184 535.332 63.0781 534.305 62.5764ZM192.894 77.382C192.761 76.9493 196.086 76.3947 196.363 77.4666C195.645 77.417 192.988 77.6531 192.894 77.382ZM242.552 75.503C242.023 75.3016 244.699 74.7947 245.522 74.9824C245.476 75.4505 242.898 75.6337 242.552 75.503ZM520.262 63.4847C519.479 63.4342 517.522 63.4902 517.321 63.8852C517.072 64.3787 519.933 64.0951 520.262 63.4847ZM665.859 56.6527C665.968 56.822 663.01 58.1925 661.627 57.9316C659.022 57.4307 665.778 56.5331 665.859 56.6527ZM542.572 61.7397C545.063 62.5457 542.303 61.7795 542.45 62.7311C544.107 62.6967 548.192 62.5743 545.344 61.751C544.789 61.5919 543.345 61.7696 542.572 61.7397ZM540.29 61.5141C540.039 61.8348 538.3 62.8851 539.835 62.7512C540.544 62.6879 541.642 61.5555 540.29 61.5141ZM647.121 57.8364C644.889 57.0792 655.016 57.1228 655.246 57.2622C655.398 57.3345 655.499 57.4043 655.557 57.4646C655.881 57.1828 657.826 57.0556 658.093 57.7245C657.484 57.693 655.91 57.8165 655.748 57.7477C655.671 57.7187 655.613 57.691 655.573 57.662C654.976 58.276 647.587 57.9781 647.121 57.8364ZM630.276 57.6514C632.78 56.2982 633.304 58.4032 633.091 58.4804C630.363 59.4623 632.101 57.8229 632.014 57.7531C631.818 57.6389 629.872 58.4462 630.284 57.6511C630.281 57.6512 630.279 57.6513 630.276 57.6514ZM643.605 57.6296C643.713 57.5975 645.882 57.575 645.969 57.6051C647.773 58.2463 641.634 58.3132 643.605 57.6296ZM226.097 74.4391C227.627 74.5888 226.166 75.43 225.143 75.1899C225.059 75.1655 224.747 74.3068 226.097 74.4391ZM539.084 61.775C538.741 61.6414 529.613 61.4633 530.198 62.6206C530.993 62.4481 541.326 62.6269 539.084 61.775ZM471.612 64.2935C473.207 64.2364 471.515 65.4211 470.646 65.0419C470.323 64.9009 471.21 64.3086 471.612 64.2935ZM188.331 76.5527C186.698 77.23 186.959 75.1658 188.424 75.8114C188.481 75.8366 188.395 76.5262 188.331 76.5527ZM484.298 64.4069C478.903 65.3065 479.99 61.7283 487.187 62.6217C486.968 62.7882 486.749 62.9547 486.529 63.1212C494.867 63.3045 487.111 63.346 485.081 63.6282C484.327 63.7348 484.986 64.2971 484.304 64.4109C484.302 64.4095 484.3 64.4082 484.298 64.4069ZM463.183 64.5764C457.78 62.2932 467.996 63.5018 470.888 63.0549C468.116 64.2056 464.429 64.2021 469.472 65.0527C462.169 65.5612 465.166 64.4379 464.873 64.367C464.523 64.2885 463.416 64.6744 463.183 64.5764ZM477.18 63.9778C477.482 63.8921 479.794 64.3065 480.613 64.1892C479.5 65.0921 475.178 64.5585 477.18 63.9778ZM612.678 58.9556C612.843 58.2777 613.305 57.7643 615.139 57.9397C614.591 58.2995 613.434 58.6371 612.678 58.9556ZM59.7638 80.9451C58.5073 80.9448 56.0077 80.7869 56.7982 81.4625C56.8831 81.5194 59.7742 81.3408 59.7638 80.9451ZM512.825 62.3228C512.561 62.2513 505.587 62.4859 508.026 63.1251C508.77 63.3176 515.081 62.9603 512.825 62.3228ZM548.42 60.9277C547.854 60.9442 545.548 61.1664 545.505 61.327C545.372 61.8813 548.196 61.4623 548.42 60.9277ZM53.4302 80.4987C53.2617 80.4355 49.4659 80.7026 49.8967 81.0119C50.7105 81.5969 54.0013 80.7169 53.4302 80.4987ZM231.571 72.6462C231.889 72.6085 232.341 73.3193 232.452 73.323C232.712 73.3229 238.554 72.8066 236.355 73.8314C235.988 74.0031 227.555 73.9839 226.458 73.9356C225.995 72.9535 229.627 73.7591 230.498 73.621C230.652 73.5952 230.717 72.7553 231.568 72.6505C231.569 72.6491 231.57 72.6476 231.571 72.6462ZM622.077 57.8611C622.239 57.2181 629.187 56.5118 629.146 57.2846C626.764 57.4777 624.332 57.673 622.077 57.8611ZM618.628 57.8974C617.154 57.5078 620.557 57.2191 621.554 57.3767C621.585 57.8035 618.845 57.9543 618.628 57.8974ZM535.339 59.0938C534.65 59.278 536.826 60.1161 536.355 60.3161C536.055 60.441 534.486 60.1582 534.001 60.4688C533.864 60.5667 535.488 61.372 535.944 61.3154C536.592 61.2381 535.933 60.5786 536.642 60.5445C538.996 60.4319 541.091 60.8347 543.274 60.7326C543.471 60.722 541.922 60.3014 543.604 60.2384C543.863 60.2277 545.454 60.884 547.446 60.6942C551.74 58.2786 555.292 60.3278 560.898 59.2885C560.68 59.0869 556.403 58.6993 556.146 58.689C551.266 58.5236 542.927 58.8296 537.928 59.0325C536.65 59.0837 537.29 59.5307 536.74 59.5709C536.305 59.6018 536.788 58.7049 535.339 59.0938ZM60.4116 80.4358C59.7799 79.5842 57.7057 80.2173 56.3695 80.2228C56.8689 80.9937 59.0944 80.2919 60.4116 80.4358ZM587.661 58.4958C587.007 58.5567 584.951 58.378 584.791 58.6483C584.589 59.001 587.549 59.0957 587.661 58.4958ZM264.566 71.559C264.63 71.5325 266.243 71.5139 266.305 71.5389C267.773 72.1821 262.935 72.2347 264.566 71.559ZM303.132 70.1556C304.35 69.9977 305.572 69.6741 306.011 70.3666C305.228 70.2898 303.009 70.6555 303.132 70.1556ZM356.321 67.9511C356.031 67.0325 359.729 67.4827 360.425 67.5375C360.186 67.9609 356.534 68.6128 356.321 67.9511ZM612.29 56.0505C614.564 56.0119 614.025 54.6246 615.484 55.2025C615.721 55.3006 616.6 58.1995 614.072 57.2038C613.615 57.0249 615.344 56.2562 612.29 56.0505ZM488.363 62.6024C488.915 61.9638 490.725 62.0713 491.94 62.07C491.688 62.5379 489.23 62.5224 488.363 62.6024ZM46.5479 80.0554C45.4471 79.2281 40.556 80.0571 41.7942 80.5845C41.9675 80.6529 45.8556 80.0488 46.5479 80.0554ZM206.654 74.1376C208.633 73.3739 204.469 73.329 203.186 74.0491C203.777 73.9815 206.52 74.188 206.654 74.1376ZM343.504 67.9729C343.599 67.9409 345.736 67.919 345.832 67.9487C347.61 68.5902 341.565 68.6559 343.504 67.9729ZM290.399 69.5461C291.136 68.9529 296.201 69.2005 297.354 69.7174C296.299 70.584 289.474 70.2873 290.399 69.5461ZM603.045 56.8319C604.63 56.7373 606.113 56.8497 607.581 57.0327C607.281 57.5191 603.237 57.1781 603.045 56.8319ZM351.326 67.5919C351.44 67.5911 351.554 67.6401 351.663 67.6413C351.548 67.6259 351.436 67.6076 351.326 67.5919ZM567.105 57.9857C565.772 57.8536 566.083 58.7096 566.166 58.7328C567.176 58.9722 568.612 58.1346 567.105 57.9857ZM58.8238 79.2065C58.327 78.4415 56.0888 79.1346 54.785 78.9975C55.1841 79.6015 57.7771 79.3286 58.8238 79.2065ZM457.491 63.2069C455.791 62.4273 462.52 61.1602 464.042 61.6448C464.137 62.1661 457.745 63.3126 457.491 63.2069ZM200.381 73.213C200.222 72.6051 197.369 73.4607 197.993 73.726C198.388 73.8948 200.477 73.5909 200.381 73.213ZM467.541 61.8577C468.183 61.6435 469.721 62.1859 469.204 62.5769C468.54 63.0781 467.376 61.9183 467.541 61.8577ZM525.429 58.9577C525.148 58.8755 521.407 59.6617 522.99 60.2225C524.088 60.6124 524.222 59.7187 524.475 59.7055C524.763 59.6964 530.822 60.5313 525.429 58.9577ZM418.975 64.2699C420.406 63.9743 422.157 64.176 423.659 64.0967C423.064 64.5014 419.61 64.7482 418.975 64.2699ZM211.507 72.6025C211.147 72.3686 201.659 72.5995 207.076 73.147C207.391 73.1776 212.595 73.3112 211.507 72.6025ZM612.29 56.0505C612.003 56.0554 611.67 56.0397 611.283 55.995C611.666 56.0031 612 56.031 612.29 56.0505ZM586.709 57.0135C587.2 56.5459 584.629 56.5327 583.876 56.802C583.666 57.3571 586.644 57.0787 586.709 57.0135ZM423.748 63.4692C424.603 63.1778 426.185 63.3854 427.253 63.3113C427.09 63.7338 424.141 63.8753 423.748 63.4692ZM363.055 65.5112C364.774 65.6874 366.869 65.4873 366.881 64.9783C366.919 65.0562 367.007 65.1369 367.149 65.2159C367.293 65.2939 369.13 64.9816 369.939 65.1219C374.743 65.955 351.541 66.4862 364.91 64.4989C364.292 64.8363 363.674 65.1738 363.055 65.5112ZM283.542 68.6287C282.544 68.0503 279.849 68.9359 280.567 69.1504C281.066 69.2971 284.542 69.2112 283.542 68.6287ZM320.986 66.731C320.69 66.6327 318.039 67.175 317.983 67.5033C319.532 67.7833 322.336 67.189 320.986 66.731ZM276.029 68.2097C275.414 68.1414 274.675 69.1697 274.749 69.2103C275.385 69.5488 277.078 68.7228 276.029 68.2097ZM607.433 53.5613C606.516 53.3131 603.719 54.151 603.117 54.8351C602.996 54.7126 602.677 54.5596 602.095 54.3841C602.097 54.384 602.099 54.384 602.101 54.3839C601.427 54.145 577.669 54.8362 593.631 55.4459C594.13 55.466 593.429 54.9032 595.452 54.9239C595.585 54.926 595.672 55.4056 596.083 55.4121C597.04 55.4236 602.04 55.5212 603.008 55.0925C603.02 55.1816 603.088 55.264 603.227 55.3364C604.482 55.9814 608.109 53.7538 607.433 53.5613ZM326.269 66.4258C325.726 66.2691 324.035 66.5085 323.876 66.9413C324.727 67.1153 327.531 66.7917 326.269 66.4258ZM211.142 70.8679C210.035 70.5617 207.293 71.3273 208.144 71.6416C208.665 71.835 212.419 71.2192 211.142 70.8679ZM309.289 67.3494C315.56 67.5966 310.779 67.2476 311.711 66.5842C310.904 66.8393 310.096 67.0943 309.289 67.3494ZM636.547 53.9807C635.556 53.8773 636.666 52.5983 637.771 53.2225C638.118 53.421 637.101 54.0362 636.547 53.9807ZM681.535 51.7823C680.676 50.7224 684.694 51.2062 683.17 52.0169C683.101 52.0449 681.597 51.8214 681.535 51.7823ZM650.105 52.598C649.461 53.3691 649.031 53.4749 647.102 53.3692C649.93 53.0444 647.281 52.4933 650.105 52.598ZM366.859 64.8991C366.871 64.9287 366.881 64.9505 366.881 64.9783C366.867 64.9514 366.861 64.9257 366.859 64.8991ZM270.15 68.6428C269.34 68.0448 267.145 68.1805 267.825 68.7879C267.891 68.8441 269.847 69.1214 270.15 68.6428ZM603.117 54.8351C603.225 54.9437 603.175 55.0188 603.008 55.0925C602.996 55.0087 603.037 54.9274 603.117 54.8351ZM281.922 67.6494C281.863 68.1226 285.211 68.1692 285.342 68.1085C287.226 67.2153 283.3 67.5649 281.922 67.6494ZM189.022 71.092C188.851 71.148 190.015 72.3167 190.679 71.814C191.194 71.4241 189.662 70.8795 189.022 71.092ZM656.435 52.038C657.536 51.9943 659.066 51.9319 659.369 52.4969C658.644 52.4375 656.431 52.4617 656.435 52.038ZM679.917 51.0541C678.724 51.7799 675.876 51.8913 673.999 51.8544C673.946 50.9633 678.798 51.3083 679.917 51.0541ZM610.38 53.7729C610.293 53.7401 607.569 53.5858 607.964 54.1675C608.545 55.0203 611.156 54.0661 610.38 53.7729ZM194.203 71.5299C195.371 71.0714 192.596 69.917 191.384 70.9429C190.765 71.4682 194.006 71.6068 194.203 71.5299ZM263.259 68.0967C261.707 68.5058 265.612 68.9635 266.129 68.3173C265.406 68.2966 263.81 67.9518 263.259 68.0967ZM316.51 65.2917C311.513 63.6933 314.329 66.8673 315.191 66.5428C315.312 66.4966 316.632 65.3291 316.51 65.2917ZM34.0954 76.9207C33.4061 77.1971 36.0449 78.0055 36.3612 77.3962C36.5555 77.015 34.5354 76.7445 34.0954 76.9207ZM390.854 63.4023C390.648 63.4166 390.442 63.431 390.239 63.4446C390.391 63.4089 390.591 63.391 390.854 63.4023ZM248.946 66.262C252.523 68.6629 252.079 66.7187 252.381 66.7171C253.034 66.7181 254.578 67.3438 255.803 67.1812C254.407 67.5244 253.01 67.8676 251.614 68.2108C252.733 68.3494 262.433 68.893 262.619 68.4726C262.885 67.8739 259.853 68.1814 259.762 68.1333C259.631 68.0648 259.09 66.4524 258.806 66.4018C258.338 66.3215 250.257 66.6152 248.946 66.262ZM306.217 65.9956C307.018 66.1571 307.27 66.7943 307.632 66.6247C307.755 66.5667 307.75 65.9493 308.172 65.7723C307.521 65.8467 306.869 65.9211 306.217 65.9956ZM242.819 68.7987C241.805 68.085 246.225 68.1928 246.37 68.2715C247.145 68.7517 243.647 69.3817 242.819 68.7987ZM280.231 67.1703C280.069 67.1329 276.673 67.0355 276.717 67.4525C277.627 67.7348 282.157 67.6432 280.231 67.1703ZM308.7 65.7085C309.891 65.7318 312.162 66.2608 311.867 65.3428C311.865 65.3429 311.863 65.343 311.861 65.343C310.808 65.4649 309.754 65.5867 308.7 65.7085ZM198.181 69.4066C195.92 68.0158 197.037 69.8427 199.006 70.2418C199.57 69.5542 198.551 69.6327 198.181 69.4066ZM191.093 68.5857C190.466 68.3443 184.143 68.8887 185.141 69.6326C185.495 69.8978 189.11 69.0491 189.28 69.0965C189.538 69.1665 188.41 70.0786 190.347 69.8294C190.222 69.5406 191.307 68.6662 191.093 68.5857ZM196.32 68.5326C194.088 67.4955 193.68 69.5894 195.325 69.5293C195.968 69.5072 196.639 68.6824 196.32 68.5326ZM205.27 68.3511C204.474 68.1861 202.363 67.9833 200.944 68.7311C202.882 68.7125 204.821 68.6937 206.761 68.6749C206.969 68.2751 205.967 68.4964 205.265 68.3514C205.267 68.3513 205.269 68.3512 205.27 68.3511ZM692.834 45.2224C691.128 44.6997 694.993 44.3234 695.141 44.4625C695.638 44.9237 693.604 45.4555 692.834 45.2224ZM19.8264 58.581C19.3294 58.3646 18.9812 57.6049 17.9235 58.049C19.0235 58.5785 20.1256 59.1079 21.2298 59.6372C22.023 58.3008 20.3694 58.8198 19.8264 58.581ZM15.5307 53.9655C15.6818 53.9282 14.7759 51.9522 16.7909 53.2191C18.1486 54.0747 10.9715 55.2236 9.65471 54.381C11.0663 53.9148 14.2305 54.2717 15.5307 53.9655ZM2.67286 45.7415C2.5841 45.5845 5.27694 45.2504 5.59576 45.3516C7.26288 45.8857 3.14444 46.5828 2.67286 45.7415ZM11.34 45.8055C10.0467 45.463 12.8703 45.1071 13.7269 45.2999C13.8222 45.6704 11.5388 45.855 11.34 45.8055ZM674.101 16.8538C672.642 15.546 671.488 18.5325 673.64 17.8542C673.742 17.8222 674.163 16.9182 674.101 16.8538ZM5.23988 43.6199C6.52363 43.9629 3.72053 44.3176 2.87831 44.124C2.78618 43.7538 5.04366 43.5701 5.23988 43.6199ZM672.98 13.6445C671.06 12.7383 671.851 16.0056 672.094 16.1288C673.097 16.6137 676.317 15.1906 676.953 14.8435C672.113 15.5312 673.869 14.0723 672.98 13.6445ZM664.584 15.9619C662.917 16.3808 667.24 16.8801 667.993 15.9304C667.179 16.007 665.062 15.8409 664.584 15.9619ZM654.09 15.3272C653.203 15.245 650.519 15.0709 650.083 15.6076C651.074 15.4735 653.741 15.8754 654.09 15.3272ZM652.007 13.8563C650.574 13.209 650.318 15.2744 651.915 14.5976C651.977 14.5714 652.06 13.8933 652.007 13.8563ZM643.943 13.4419C642.955 12.6649 641.939 14.6964 643.495 14.6867C643.956 14.6802 644.048 13.5313 643.943 13.4419ZM670.472 10.1958C669.047 9.90182 667.34 11.3954 670.307 11.4331C669.237 11.6937 668.288 11.9495 667.317 12.2062C670.978 12.8583 670.81 10.8887 671.881 10.9276C673.434 10.9817 673.372 12.6152 673.084 13.1388C674.339 12.0894 679.55 11.8661 682.476 11.5604C679.863 11.2442 675.6 10.6865 672.872 10.5298C672.101 10.4837 671.366 10.9603 670.699 10.9369C669.628 10.8972 670.551 10.2162 670.477 10.1955C670.475 10.1956 670.474 10.1957 670.472 10.1958ZM633.361 13.844C630.572 13.0323 632.398 14.9563 633.931 14.5372C633.997 14.5071 633.43 13.8638 633.361 13.844ZM1.38924 37.6885C5.07569 38.3882 2.43726 39.5929 10.0707 37.63C6.87722 38.9381 9.92279 38.4914 9.30869 38.9941C8.8152 39.3922 6.90793 39.148 8.03814 39.8713C6.5513 39.0937 0.309327 39.5534 0.032708 39.4282C0.0353179 39.4281 0.0379278 39.4281 0.0405377 39.428C-0.128911 39.3541 0.216269 37.4659 1.38924 37.6885ZM653.866 10.1097C652.874 7.72463 652.682 11.5817 650.822 9.64711C648.566 12.6573 657.365 9.38243 658.693 11.7945C648.558 11.9174 665.447 13.9647 658.267 10.564C664.069 11.6695 660.132 10.0317 661 9.52648C661.931 8.98802 665.127 9.40391 664.925 8.50872C664.923 8.50879 664.922 8.50886 664.92 8.50893C662.994 8.64954 661.034 8.79166 659.042 8.93524C661.071 10.802 656.98 10.3828 655.494 8.85515C654.922 9.27451 654.387 9.69238 653.866 10.1097ZM665.131 11.4847C664.952 11.4472 660.711 11.8909 660.994 12.2707C661.603 12.4955 667.556 11.9572 665.131 11.4847ZM683.857 10.3131C682.179 10.3745 679.973 10.0817 679.165 10.8485C680.649 10.7945 682.968 11.0833 683.857 10.3131ZM604.907 13.3768C602.977 14.0593 609.037 13.9882 607.254 13.3476C607.165 13.3176 604.971 13.3461 604.907 13.3768ZM649.534 10.652C647.534 9.99195 648.564 12.3092 649.993 11.6365C650.076 11.5969 649.626 10.682 649.534 10.652ZM4.33906 37.2935C4.44528 36.7117 9.78837 36.9207 10.7423 36.8803C10.2169 37.437 4.20729 37.9609 4.33906 37.2935ZM686.541 8.04533C683.289 6.09471 679.297 8.65334 678.874 8.61767C678.431 8.58179 679.087 7.64732 678.985 7.62698C678.775 7.58425 673.998 7.85042 673.745 7.92386C673.578 7.97981 674.51 9.21931 673.521 9.66092C675.543 8.85442 683.999 8.97336 684.652 8.80663C685.006 8.67974 682.23 7.44826 686.535 8.04554C686.537 8.04547 686.539 8.0454 686.541 8.04533ZM677.751 8.38406C678.956 8.87132 675.639 9.07006 674.8 8.90606C672.964 8.53722 677.615 8.32595 677.751 8.38406ZM669.524 8.21892C669.056 8.11758 665.764 8.14054 665.474 8.74801C667.1 9.45549 670.387 8.46406 669.524 8.21892ZM631.036 9.85886C630.141 9.97179 627.62 9.61714 627.495 10.1429C628.41 10.0295 630.918 10.3843 631.036 9.85886ZM22.4815 32.0783C20.9874 31.6984 24.4046 31.3931 25.4165 31.5642C25.4828 31.9089 22.6075 32.111 22.4815 32.0783ZM648.999 5.69568C648.564 5.55473 637.349 6.40622 636.033 6.70407C637.345 7.04388 648.473 6.62121 648.855 6.41388C648.994 6.35069 649.067 5.71781 648.999 5.69568ZM672.521 4.50801C673.509 3.70196 674.201 4.59384 674.329 4.60031C675.585 4.66752 678.104 4.39463 677.578 5.15387C675.444 4.94057 670.551 6.10902 672.521 4.50801ZM630.119 6.42734C626.419 6.86325 633.573 7.3782 632.599 6.61672C632.539 6.57071 630.503 6.38173 630.119 6.42734ZM650.191 5.42391C650.845 4.77758 661.981 4.8617 663.658 4.79565C662.153 5.99875 660.859 5.18299 658.724 5.32738C658.147 5.36774 658.32 5.83609 658.258 5.83934C657.255 5.90185 657.985 5.3234 657.364 5.34012C656.865 5.35635 649.105 6.34066 650.191 5.42391ZM673.08 3.95461C673.724 3.48923 680.434 3.03537 680.662 3.14339C682.707 3.93077 673.7 4.08245 673.08 3.95461ZM649.164 4.44976C650.285 3.07629 655.574 3.75142 652.001 4.55813C651.659 4.63219 650.17 4.11691 649.164 4.44976ZM630.463 5.14872C630.286 5.11687 626.384 5.01123 626.324 5.43621C626.912 5.57623 632.557 5.49255 630.463 5.14872ZM632.399 3.64064C632.306 3.65456 633.24 4.43012 631.436 4.4008C631.283 4.39733 630.973 3.4944 628.7 3.92261C628.238 4.01053 627.54 4.64481 627.594 4.68026C630.072 6.01552 637.001 2.98049 632.399 3.64064ZM673.177 3.20891C672.789 2.83795 673.644 1.65686 674.468 2.20487C674.822 2.44163 674.211 3.15427 673.177 3.20891ZM618.2 5.28052C620.388 4.49498 613.423 4.64965 613.051 4.84304C613.304 5.26593 617.991 5.35703 618.2 5.28052ZM25.7485 26.5871C25.7467 26.5871 25.745 26.5872 25.7432 26.5873C27.6174 26.6748 26.4818 27.2959 26.5699 27.3108C30.5865 28.0105 29.4837 26.7411 30.1015 26.5633C31.4299 26.179 31.2719 27.7787 33.5147 27.0338C29.8046 28.1487 33.1989 27.6124 33.3269 28.1746C33.8312 30.4695 28.3009 27.2796 26.4684 27.8329C26.2119 27.9097 28.1499 28.5757 27.4948 28.8103C25.3604 29.5709 18.5751 26.252 25.7485 26.5871ZM675.082 2.07928C675.974 1.36382 682.433 1.76723 680.747 2.39398C680.519 2.49251 673.859 3.11856 675.082 2.07928ZM365.359 13.8647C366.932 13.2116 363.207 12.6737 362.55 13.1586C362.224 13.4002 364.661 14.1517 365.359 13.8647ZM339.383 12.4181C337.503 12.6148 335.615 15.1456 337.946 14.6691C338.194 14.6173 339.613 12.7489 339.383 12.4181ZM463.698 8.53469C461.669 7.74233 461.854 9.36352 463.317 9.27975C463.833 9.25045 463.762 8.55978 463.698 8.53469ZM388.278 11.8728C388.08 11.8242 385.812 12.0219 385.91 12.3922C386.76 12.5817 389.565 12.2099 388.278 11.8728ZM464.321 8.27697C463.152 8.61912 465.235 9.71074 466.626 8.50155C465.899 8.6262 464.441 8.24198 464.321 8.27697ZM644.936 1.02183C643.977 1.72965 641.142 1.64294 639.495 1.82507C639.29 0.966835 643.806 1.22483 644.936 1.02183ZM347.477 13.0714C345.708 13.755 349.573 14.0959 349.187 13.3046C349.136 13.2628 347.547 13.0425 347.477 13.0714ZM527.404 5.56569C526.104 6.13664 530.328 6.65623 529.136 5.79721C529.078 5.76257 527.476 5.53394 527.404 5.56569ZM545.488 5.11357C544.512 4.97976 540.336 5.20683 541.983 5.64274C542.241 5.70951 545.437 5.58916 545.488 5.11357ZM30.1889 25.9363C29.6244 25.0674 32.714 25.1635 33.1634 25.3021C33.339 25.3603 30.9231 27.0668 30.1889 25.9363ZM450.886 8.92788C449.871 9.08139 447.21 8.98026 446.761 9.4659C448.011 9.31732 451.261 9.84258 450.886 8.92788ZM355.647 12.7308C354.049 11.8293 351.388 12.0344 352.099 13.2689C355.038 13.0632 351.69 12.1498 355.647 12.7308ZM470.89 6.96282C470.066 6.92326 469.487 8.16108 469.582 8.2143C470.495 8.72038 471.724 7.40036 470.89 6.96282ZM409.377 10.5149C409.309 9.999 406.703 10.3424 407.066 10.6612C407.185 10.7683 409.433 10.9323 409.377 10.5149ZM610.468 2.1378C609.232 1.71526 612.93 1.10024 614.034 1.60754C614.6 2.38063 610.631 2.18549 610.468 2.1378ZM493.642 6.32037C493.734 5.54677 489.633 6.15253 491.283 6.72196C491.696 6.8644 493.61 6.57907 493.642 6.32037ZM532.925 3.76396C530.204 4.79495 541.822 4.96385 538.729 3.94852C538.515 3.87591 533.169 3.67629 532.925 3.76396ZM551.834 3.5518C551.348 3.47082 551.484 0.878611 553.509 1.79196C553.775 1.91029 552.585 2.64343 552.804 2.79072C552.937 2.87431 557.251 3.05856 557.441 2.99029C557.65 2.91305 557.366 2.09581 557.577 1.99406C557.817 1.88021 560.474 2.49819 561.84 2.4495C564.415 2.35636 564.658 1.65629 564.868 1.64526C565.485 1.61512 566.511 2.06249 567.774 2.00953C574.31 1.73305 583.784 0.755974 588.926 2.00642C584.335 1.60874 580.291 2.39936 575.798 2.77723C577.057 1.28476 569.241 4.15864 573.808 2.30748C571.561 2.76088 553.511 3.79783 551.839 3.55158C551.837 3.55165 551.836 3.55173 551.834 3.5518ZM331.905 12.0005C333.03 11.0711 327.079 11.5142 326.614 12.5549C327.408 12.6641 331.766 12.1063 331.905 12.0005ZM359.329 8.71795C359.874 8.54302 360.329 6.79807 363.256 7.55281C363.259 7.5527 363.262 7.55259 363.264 7.55248C364.12 7.77286 363.174 8.23248 363.335 8.37573C363.393 8.43454 366.068 9.18291 363.882 9.41119C360.551 9.76041 363.515 8.14211 361.733 8.19731C361.516 8.20486 358.18 9.27679 358.384 9.47347C358.405 9.49648 359.413 9.25728 359.584 9.33548C360.231 9.6293 359.944 10.1802 360.035 10.2021C360.333 10.2556 365.616 9.11933 366.448 9.88703C366.689 10.1358 357.97 11.0919 357.618 10.9719C357.398 10.8962 357.428 9.39871 357.198 9.26101C357.08 9.19257 353.574 9.89777 353.109 9.77935C352.974 9.74512 352.87 9.7065 352.794 9.67428C353.348 10.1144 350.145 10.213 350.222 9.68749C350.269 9.48023 352.478 9.50811 352.558 9.5407C352.593 9.55444 352.624 9.57411 352.653 9.58738C352.176 9.04287 359.624 8.76141 357.981 7.98946C360.119 7.44139 357.726 9.23168 359.329 8.71795ZM369.686 7.36763C369.469 7.53397 369.251 7.70032 369.033 7.86666C372.817 7.32534 377.222 7.90102 381.571 7.71566C382.675 7.66977 381.366 6.76144 382.823 6.96423C383.99 7.12677 385.306 7.96502 384.686 8.18972C384.534 8.24563 382.154 7.7626 380.974 7.87099C377.492 8.19149 378.407 8.97905 378.204 9.00973C377.98 9.04245 375.756 8.55386 374.554 8.62933C371.532 8.82092 370.171 9.38384 365.997 8.89401C368.367 8.25225 367.008 7.12664 369.686 7.36763ZM510.882 3.26821C511.006 2.74354 513.516 3.10009 514.414 2.98647C514.294 3.51222 511.787 3.15423 510.882 3.26821ZM141.712 17.6823C140.987 18.5633 146.677 18.55 145.152 17.9007C144.814 17.7566 142.426 17.6603 141.712 17.6823ZM167.342 17.1867C168.093 16.9212 165.008 16.43 165.04 17.0885C165.052 17.2995 167.245 17.2212 167.342 17.1867ZM418.658 6.18066C418.802 6.14799 420.916 6.25021 420.984 6.29078C422.418 7.1365 415.459 6.90181 418.658 6.18066ZM198.43 14.8971C195.795 15.5614 203.803 15.4827 201.331 14.8694C201.207 14.8397 198.556 14.8649 198.43 14.8971ZM209.55 14.2951C208.913 14.3507 206.069 14.1874 206.042 14.4486C206.002 14.8699 209.257 15.026 209.55 14.2951ZM471.31 3.72493C470.964 2.77878 474.723 3.34993 476.007 3.17559C476.355 4.12233 472.604 3.54982 471.31 3.72493ZM447.715 3.99707C463.365 2.58987 460.013 4.78135 446.797 4.50311C446.752 3.88875 446.724 4.08594 447.715 3.99707ZM467.868 3.27362C467.32 3.91175 465.517 3.80423 464.298 3.80557C464.5 3.36937 467 3.42032 467.868 3.27362ZM134.859 16.6328C135.817 15.8179 140.247 16.6018 139.479 16.9526C139.298 17.029 134.511 17.074 134.859 16.6328ZM419.948 5.30522C419.543 4.38787 424.295 4.57189 424.663 4.76407C426.157 5.53654 420.326 5.08336 419.948 5.30522ZM493.615 1.97559C494.42 1.21041 496.801 1.48772 498.317 1.43442C497.654 2.08765 494.91 1.93488 493.615 1.97559ZM482.516 1.86383C482.602 1.83217 484.763 1.80835 484.859 1.83808C486.643 2.47853 480.579 2.54767 482.516 1.86383ZM22.9018 19.6677C22.9706 19.6416 24.5655 19.6287 24.6224 19.6541C26.0706 20.3024 21.2843 20.3375 22.9018 19.6677Z" fill="#DAC110"/>
</svg>
