<svg width="242" height="55" viewBox="0 0 242 55" fill="none" xmlns="http://www.w3.org/2000/svg">
<path d="M20.4008 53.9622C20.5458 53.8956 21.1512 54.0038 21.4089 53.9647C21.1493 54.5973 19.8774 54.2037 20.4008 53.9622ZM44.4082 7.72124C44.2022 7.88583 43.9963 8.05042 43.7905 8.21499C44.4057 8.27909 45.2199 8.12032 45.7956 8.23239C45.8898 8.25135 45.6743 8.70611 45.895 8.71323C46.1158 8.72021 46.0389 8.12001 46.3548 8.03724C46.7093 7.94623 48.3768 8.27182 48.9361 8.22949C51.0439 8.0677 53.1609 7.60067 55.3053 7.72824C53.1332 8.30065 55.3734 8.62691 55.9791 8.39814C56.1124 8.34556 56.0302 7.22632 58.2378 7.38198C59.6431 7.48047 58.4459 9.15659 60.7301 8.21961C58.8732 7.20267 60.6391 7.1795 62.0442 7.06088C62.2859 7.0403 64.2568 7.09519 65.1209 6.99535C65.4149 6.96101 65.8304 6.34816 66.2211 6.31008C66.49 6.2843 66.7124 6.5933 67.1118 6.55376C68.9741 6.37327 70.8114 6.2416 72.6932 6.24108C71.6849 7.81272 73.5907 6.83376 73.683 6.90072C74.1537 7.28417 72.1393 7.51819 72.9534 7.72781C74.07 7.61604 75.1767 7.5048 76.2894 7.39317C75.364 7.26125 77.4263 6.05286 77.8466 6.52345C77.5954 5.20116 82.9998 7.38678 83.772 6.89512C83.9331 6.7914 82.8042 6.19654 85.3512 6.35008C85.6271 6.36756 85.547 6.77563 85.6885 6.72976C85.7732 6.7022 86.2194 5.39401 86.8155 6.06765C87.0332 6.3135 85.7859 7.22852 88.613 6.72475C87.4032 5.49058 92.519 5.78952 93.4745 6.06049C93.2774 5.89672 93.0803 5.73296 92.8832 5.56919C93.8355 5.98634 93.9764 5.5344 94.186 5.54629C95.031 5.5939 96.2106 5.97188 96.9894 5.88539C97.9007 5.78498 97.8564 4.97602 98.94 5.22812C98.6769 5.0645 98.4137 4.90088 98.1504 4.73726C98.8893 4.73703 99.6245 4.737 100.366 4.73657C98.7215 5.90743 100.738 4.76603 100.873 4.73493C101.089 4.68315 100.801 5.13986 101.163 5.06385C101.2 5.05265 101.122 4.64311 101.681 4.56373C102.85 4.39928 102.695 4.92913 103.187 4.8943C103.232 4.88897 103.053 4.52642 103.898 4.38844C106.585 3.94945 103.902 4.67417 103.801 4.73167C103.668 4.80747 104.688 6.30685 102.357 5.89093C103.139 6.02098 103.257 6.70405 103.345 6.71602C103.423 6.72553 104.754 6.55011 104.826 6.5221C105.469 6.24998 104.863 5.81406 104.986 5.72232C105.087 5.64828 106.732 6.16605 107.025 4.73052C107.871 5.98896 106.653 5.94077 105.374 6.21707C105.201 6.49567 106.634 6.67245 106.708 6.66736C108.534 6.55751 107.46 5.54466 107.819 4.83569C108.007 4.4647 108.794 5.15253 108.051 4.23139C109.706 4.03215 108.732 4.64859 108.843 4.72477C109.013 4.83636 109.579 4.52647 109.654 4.55889C109.765 4.60693 109.412 4.96175 109.841 5.05416C109.912 5.06709 110.558 4.45418 109.666 4.23197C110.842 4.24445 110.716 3.76165 111.171 4.72271C111.867 2.8128 111.821 5.78915 112.144 5.87482C113.003 6.10023 112.672 4.65238 112.713 4.57845C112.993 4.10341 115.353 4.46836 115.916 4.22368C115.751 5.29027 114.071 4.34399 113.721 4.56968C112.553 5.32063 115.454 4.99593 114.655 6.37094C115.001 5.98584 115.347 5.60074 115.692 5.21566C116.415 6.02681 115.483 6.45411 117.275 6.03641C117.527 5.28459 116.002 6.22788 116.284 5.63078C116.45 5.28029 117.496 5.14547 117.508 4.96512C117.515 4.74853 116.58 5.05991 116.71 4.71968C116.99 3.98557 120.519 4.46052 117.889 5.00735C118.628 4.95147 119.093 6.35139 119.707 5.87039C120.104 5.5583 117.66 3.73125 121.174 3.88528C121.288 4.55255 119.79 4.16604 119.754 4.21942C119.705 4.297 120.061 5.79695 120.111 5.86905C120.29 6.10566 123.804 5.08374 124.597 5.80102C124.244 4.94279 127.279 5.48565 127.593 5.19922C127.675 5.12039 127.319 4.60303 127.408 4.54073C127.969 4.16837 129.593 5.03356 130.319 5.0155C131.132 4.99562 131.001 4.53828 131.047 4.53647C131.405 4.54122 131.139 4.87226 131.357 4.85847C131.687 4.83743 133.948 4.76806 134.057 4.69586C134.088 4.67347 133.689 4.16585 134.175 4.03635C134.259 4.01387 134.243 4.64469 135.699 4.28643C137.45 3.85548 134.422 3.57873 135.119 2.87785C136.313 3.74634 136.221 2.82113 136.533 2.8757C136.641 2.8959 137.482 3.63742 138.338 3.53662C137.729 3.70116 137.119 3.86575 136.508 4.0304C137.124 4.13262 138.293 3.89164 138.801 4.01828C139.049 4.07989 138.887 4.73954 139.415 4.69072C139.526 4.67684 139.879 3.07225 138.535 3.86249C138.391 3.30553 139.072 3.63341 139.368 3.45591C139.413 3.42834 139.54 2.47611 139.964 3.03809C140.065 3.17654 139.213 5.98292 141.717 3.83985C141.798 3.77079 141.484 3.44425 141.563 3.36807C141.616 3.31644 142.293 3.41594 142.364 3.36278C142.436 3.30595 142.091 2.9496 142.177 2.8704C142.613 2.4625 143.318 3.91508 142.351 3.85855C142.678 4.02385 143.016 4.18852 143.348 4.35353C142.937 3.25164 143.835 4.00775 144.278 3.94681C147.112 3.55708 145.162 2.94018 145.629 2.53349C146.379 1.88051 145.893 3.83669 147.023 3.19052C147.127 3.13022 145.676 2.39817 148.444 2.69559C148.042 2.75132 147.639 2.80709 147.236 2.86288C147.535 3.93454 148.693 2.70176 148.786 2.68097C149.85 2.46824 149.148 2.90258 150.706 2.24919C150.848 2.19042 151.178 2.43965 151.479 2.2877C152.724 1.66133 149.774 2.05362 149.679 1.61822C149.616 1.40585 152.805 1.27101 152.919 1.36683C153.41 1.79256 151.489 1.6521 151.885 2.19326C152.036 2.38485 156.53 1.70625 157.434 1.87231C158.484 2.06564 159.039 3.50968 158.95 1.85539C159.344 3.46097 159.541 2.33783 159.677 2.341C161.314 2.3946 161.317 2.41084 162.694 2.17304C162.998 2.12109 163.285 2.5983 163.388 2.50872C163.448 2.45476 163.299 1.93465 163.597 1.75375C164.015 1.50564 166.594 1.89649 166.807 2.1762C167.011 2.45651 165.735 2.36671 165.99 2.83227C166.896 2.82704 167.812 2.6537 168.747 2.64882C169.137 2.6481 168.957 2.99527 169.126 2.99195C169.198 2.99178 170.52 2.61694 170.455 2.49667C170.313 2.21653 166.164 2.65706 167.224 2.00518C167.43 1.87918 168.223 2.60742 168.048 1.67495C171.771 1.6675 175.444 1.66302 179.155 1.65627C177.103 2.48344 174.601 2.00139 172.437 2.19609C172.136 2.22213 171.107 2.19237 171.259 2.65986C173.139 2.67153 175.469 2.28477 177.315 2.48564C177.374 2.49242 177.186 2.93176 177.408 2.98643C177.823 3.08837 179.102 2.32186 179.333 2.48672C179.373 2.52592 178.657 3.13289 178.907 3.4768C179.546 4.35933 179.573 2.31889 180.076 2.31321C180.456 2.31019 183.139 3.13658 183.769 2.47634C184.432 1.77309 181.792 2.20837 181.954 1.65599C183.729 1.00508 185.57 1.47821 187.231 1.31164C187.26 1.30817 186.98 0.899443 187.348 0.818085C187.988 0.676539 188.192 1.26776 188.51 1.34537C188.838 1.42864 190.079 1.26851 190.252 1.47824C190.275 1.50574 190.061 2.11683 190.025 2.13583C189.504 2.41337 189.267 1.65075 189.217 1.64371C189.03 1.62538 188.874 1.93218 188.711 1.92411C188.443 1.91049 188.279 1.64494 187.925 1.64169C187.68 1.63844 187.947 2.15116 187.71 2.14103C187.624 2.13514 186.619 0.987917 186.604 2.22078C186.565 2.61149 194.36 2.64761 195.067 2.29512C194.407 2.18609 193.744 2.07729 193.078 1.96873C194.439 2.24852 195.951 1.17451 196.161 2.61836C201.213 2.43787 206.124 2.26617 211.132 2.08971C212.032 2.16068 211.603 3.12178 213.04 2.76464C212.648 2.48961 212.255 2.21471 211.859 1.93992C212.635 2.10322 215.901 2.31938 216.478 2.09247C216.546 2.06313 216.598 1.21313 217.429 1.09151C218.164 0.984036 218.317 1.60962 218.715 1.7078C219.048 1.78849 219.404 1.60136 219.502 1.63062C219.578 1.65423 219.63 2.03922 219.811 2.09624C220.382 2.27195 219.866 1.20962 220.492 2.42754C220.36 2.48306 220.229 2.53861 220.096 2.59417C220.763 2.73663 221.775 3.24688 220.756 3.58767C220.59 3.64595 220.713 3.26329 220.587 3.27135C215.571 3.63569 219.619 4.12759 221.366 3.4422C221.883 3.9681 224.448 3.47832 224.529 3.58327C224.655 3.73464 224.247 4.20308 224.838 4.55236C224.934 4.62791 228.394 4.11461 227.181 4.92463C226.905 5.0932 225.275 5.02813 224.889 5.07254C225.84 6.19584 228.003 4.3806 228.247 4.40975C229.262 4.53434 226.373 5.54063 228.646 5.54524C230.37 5.55005 228.714 4.85921 229.353 4.48599C229.724 4.27583 231.641 5.0318 231.566 3.91316C232.253 3.75346 231.881 4.36965 231.969 4.40731C232.058 4.43971 233.381 4.02702 233.814 4.23875C233.867 4.26511 233.739 4.85626 233.795 4.90079C233.907 4.97603 235.145 4.788 235.188 4.73612C235.217 4.70006 234.895 4.20758 235.008 4.07711C235.075 4.00184 235.405 3.97715 235.721 3.95293C236.071 3.92675 236.405 3.90114 236.435 3.82633C236.478 3.71343 236.112 3.71563 235.756 3.67339C235.425 3.62979 235.121 3.54075 235.225 3.24906C235.877 3.35539 237.092 2.90439 237.509 2.42054C237.404 2.55804 236.719 2.61618 236.473 2.58395C236.546 1.74276 238.01 1.67034 237.548 2.35925C237.844 1.98657 237.617 1.81077 237.775 1.46598C237.818 1.37851 238.26 1.33571 238.336 1.18647C238.346 1.15702 237.872 0.868342 237.953 0.693687C238.108 0.3776 239.428 0.371502 239.532 0.446231C239.843 0.656904 238.803 0.992404 238.729 1.34967C238.722 1.40426 239.665 2.04239 239.679 2.10271C239.772 2.75297 238.74 2.33928 238.887 2.92119C239.145 3.03114 239.401 3.14127 239.654 3.25156C238.752 3.90047 236.872 3.70065 236.408 4.40727C237.938 4.11707 239.421 4.05664 239.504 5.58303C239.54 6.22575 238.945 6.63767 238.977 6.7998C239.105 7.37914 239.919 6.69551 239.949 6.72479C239.977 6.75898 239.99 6.79302 239.992 6.82678C239.992 6.8268 239.992 6.82681 239.992 6.82683C240.016 7.16889 238.815 7.48464 238.756 7.64483C238.668 7.92843 239.283 9.04009 239.295 9.29303C239.282 9.34473 238.414 9.66562 238.737 10.0898C239.068 10.518 239.827 10.4846 239.855 10.5295C240.018 10.7876 238.698 11.1068 238.66 11.2669C238.645 11.3476 239.397 11.7953 239.424 11.9348C239.451 12.0749 238.921 12.4139 238.726 12.8718C238.582 13.2119 239.071 13.4385 238.991 13.4951C238.939 13.5325 237.635 13.6014 237.567 13.6637C237.475 13.7552 237.808 14.1328 237.769 14.2343C237.714 14.3801 237.275 14.262 237.339 14.4051C237.396 14.5112 239.111 15.7805 239.113 16.1457C239.135 16.7674 237.331 15.4371 239.07 17.7962C239.083 17.8116 239.456 17.6156 239.467 17.6301C239.727 18.0676 238.549 18.8306 240.029 18.6245C237.284 19.5668 239.742 19.5774 239.388 20.6466C239.255 21.0573 238.158 21.2863 238.153 21.3471C238.291 21.8507 238.624 21.435 238.757 21.6782C238.834 21.8139 237.865 22.4102 238.109 22.7474C238.241 22.9208 239.287 22.7965 239.329 22.8295C239.756 23.138 239.276 23.5241 239.379 23.7547C239.449 23.9092 240.068 23.8865 240.084 23.9141C240.115 23.9717 239.312 24.6582 239.144 24.893C239.019 25.0734 239.541 25.3151 239.451 25.3958C238.915 25.878 237.611 24.8007 238.889 26.3419C238.968 26.4364 239.407 26.3713 239.42 26.3903C239.718 26.8309 238.91 26.9166 238.782 27.2985C238.567 27.9564 239.725 27.5303 238.771 28.0388C239.531 28.4175 239.934 28.3769 240.749 28.2128C238.467 28.6711 237.693 30.3867 240.305 30.1954C239.487 30.216 239.626 31.1513 239.38 31.1819C239.23 31.1997 237.939 30.3358 238.627 32.4006C238.715 32.6583 239.438 32.283 239.237 32.8325C237.433 32.7985 239.222 33.1756 239.224 33.2466C239.238 34.4849 234.922 33.718 234.153 33.9041C233.272 34.119 232.56 35.1371 232.388 35.1483C231.79 35.1834 232.258 34.6604 232.113 34.4864C231.974 34.3138 230.294 35.3615 230.197 35.315C229.843 35.126 230.156 34.5202 230.119 34.4927C229.679 34.1581 227.297 34.7572 226.675 34.6571C226.719 35.0357 228.009 34.9906 227.241 35.6477C226.342 36.4141 226.185 34.7428 226.157 34.6705C221.665 34.9491 217.332 35.2201 212.938 35.4953C213.055 36.3825 215.886 35.5413 215.948 35.6553C216.392 36.326 211.512 36.6011 210.871 36.3234C211.328 36.4895 211.818 36.6537 212.287 36.8191C211.535 37.8915 209.789 36.6591 208.699 37.1774C208.348 37.3453 209.062 37.6998 209.049 37.7276C208.67 38.1493 208 37.8813 208.455 37.3184C207.494 37.8888 207.605 37.3155 206.836 37.3185C206.796 37.3191 207.151 37.7129 206.552 37.9203C206.278 38.0168 204.725 38.11 204.563 38.4825C204.484 38.6399 205.349 40.1973 205.366 38.8118C207.073 39.3857 205.862 38.1515 206.51 38.145C206.607 38.1465 206.433 38.9296 208.019 38.472C207.799 39.8786 205.874 38.9504 205.558 39.1379C204.917 39.5229 207.689 40.0785 208.111 38.9672C207.944 40.0646 208.311 39.1019 208.909 39.1113C209.563 39.1211 209.298 39.4606 209.65 39.4416C210.607 39.3931 210.166 38.6515 210.99 39.2949C210.083 37.206 212.358 38.9314 213.031 39.4528C212.004 39.6222 210.967 39.7922 209.984 39.9591C210.048 40.0678 210.112 40.1765 210.176 40.2852C209.911 40.285 209.645 40.2847 209.378 40.2846C209.414 40.1746 209.45 40.0647 209.486 39.9547C208.156 40.7344 207.764 39.9697 207.652 39.9676C206.186 39.9628 204.47 40.0712 203.036 40.1536C202.816 40.1662 203.014 40.8557 201.375 40.4039C200.851 40.2601 201.305 39.6877 200.726 39.8039C200.081 41.3244 200.024 40.1455 199.806 40.1566C199.178 40.1939 198.813 40.5828 198.755 40.5901C197.968 40.6941 196.888 40.6968 196.048 40.8013C196.033 40.8078 196.494 41.2358 195.944 41.1338C195.751 41.0971 193.921 39.2615 192.431 39.9837C192.836 40.0909 193.239 40.1982 193.641 40.3056C193.164 40.1505 189.943 40.8316 190.771 41.3029C191.251 41.5925 192.393 40.2716 192.591 41.4649C191.451 41.1719 185.634 42.0567 185.114 41.8076C185.047 41.7716 185.422 41.3584 185.33 41.3138C185.261 41.2798 183.879 41.4545 183.706 41.3147C183.595 41.232 184.171 40.9582 184.117 40.8205C184.068 40.723 182.384 40.6556 182.315 41.1498C182.717 40.9292 183.883 41.0317 183.301 41.4793C183.226 41.5351 182.803 41.2442 182.711 41.3147C181.871 41.9651 184.473 41.6664 184.915 41.6451C183.262 42.3676 180.687 41.7845 178.75 42.3066C177.938 41.947 179.881 41.6155 178.97 41.3316C177.077 40.7436 178.511 41.923 178.457 41.9781C178.025 42.4153 176.309 40.3118 176.422 41.9837C175.749 41.771 175.95 41.5474 175.032 41.8216C175.161 41.9302 175.291 42.0387 175.42 42.1473C174.446 43.1775 172.092 40.8642 172.246 40.668C172.663 40.1424 173.857 40.8526 173.953 40.8281C174.095 40.7919 174.398 39.0705 176.062 40.4947C176.64 39.3178 173.517 39.8748 174.903 39.0138C173.951 39.1981 169.879 38.6449 169.317 39.1797C169.254 39.2489 169.637 40.3645 168.612 39.846C168.129 39.5988 169.256 39.5186 169.028 39.2728C168.354 38.517 159.323 39.5626 157.647 39.7041C157.536 39.7119 157.556 39.3575 157.447 39.3672C157.113 39.3969 155.921 39.9945 155.308 39.8683C156.595 40.4458 154.174 40.6404 153.548 40.6056C152.597 40.5524 152.63 39.9288 152.219 39.8209C150.65 39.4044 148.333 41.0179 147.04 39.7147C147.191 41.0753 144.89 39.1707 143.924 39.216C143.161 39.2514 142.106 40.2202 143.17 40.7092C141.848 40.7244 140.471 41.0616 139.231 41.2182C139.026 41.2443 139.285 40.824 138.936 40.8813C138.905 40.8894 138.884 41.2875 138.585 41.3465C136.111 41.8389 137.274 40.9267 136.792 40.7073C136.523 40.5844 136.324 40.5271 136.184 40.5126C137.634 40.3492 139.301 40.0946 139.747 40.057C139.318 39.206 136.528 40.4159 135.696 40.2293C135.667 40.2225 135.738 39.7352 135.709 39.7336C135.708 39.7336 135.707 39.7336 135.707 39.7337C135.397 39.715 133.438 40.0092 133.877 40.5592C133.995 40.7061 134.903 40.6521 135.972 40.5365C135.688 40.6613 135.937 41.1877 135.887 41.2137C135.282 41.517 133.725 41.081 133.178 41.0421C133.053 41.0339 133.083 41.3788 133.062 41.3809C132.564 41.3316 132.709 40.3332 132.262 41.3804C131.296 40.2039 133.926 41.0988 133.697 40.311C133.528 39.7042 127.826 40.3727 127.896 41.3404C127.87 41.238 127.784 41.1141 127.615 40.9773C127.241 40.6733 125.663 40.8685 125.4 41.0632C125.356 41.101 125.43 42.0399 125.373 42.052C125.231 42.082 123.247 41.4597 122.553 42.0582C122.953 42.1668 123.353 42.2754 123.752 42.384C121.386 42.5319 121.767 42.7901 122.573 43.0246C122.613 43.0248 122.653 43.0582 122.691 43.0598C123.315 43.2315 124.11 43.3854 124.127 43.4588C124.19 43.739 120.178 44.1339 120.9 43.2162C121.001 43.0906 122.885 43.369 121.927 42.8012C121.759 42.7017 120.574 42.9498 120.506 42.885C120.06 42.4538 122.635 41.6939 122.277 41.0648C121.681 41.719 120.848 41.4421 120.13 41.6443C119.803 41.7359 119.749 42.212 119.709 42.2233C119.105 42.3823 119.419 41.868 119.217 41.8923C119.109 41.9072 117.976 43.0293 118.116 41.5662C114.237 42.8651 117.091 42.6959 119.501 42.4718C118.768 43.0449 117.257 42.8777 116.591 43.0399C116.353 43.0986 116.524 43.574 116.122 43.6948C115.298 43.9431 111.242 43.6244 110.192 43.5547C110.822 43.3461 110.604 42.8301 110.112 42.8956C109.62 42.9614 110.076 43.6403 109.984 43.7216C109.886 43.8059 107.545 43.6105 107.164 43.7243C108.897 43.3668 108.472 42.8645 106.985 42.8967C107.19 42.7328 107.396 42.5688 107.602 42.4048C106.745 42.6687 104.867 41.9746 104.377 42.2428C104.3 42.2858 104.61 42.711 104.567 42.7351C104.136 42.9488 102.606 42.5865 102.544 42.7414C102.492 42.8704 103.156 43.2031 102.928 43.3995C102.881 43.4407 102.225 42.88 101.628 43.0624C101.406 43.1296 101.566 43.5395 101.511 43.5671C101.049 43.7958 101.287 43.0758 100.429 43.2396C99.8 43.3605 99.3681 44.0761 98.4783 43.8997C101.407 44.6079 98.9672 44.3834 97.779 44.7197C97.5886 44.7734 97.7985 45.5223 96.624 45.2206C98.9968 43.7051 95.8823 44.5366 95.236 44.5594C95.2003 44.5568 95.1589 44.0572 94.842 44.0678C94.8152 44.0698 94.8735 44.4056 94.5809 44.4487C91.8059 44.8564 93.5672 44.3701 93.0179 44.0677C92.7841 43.9388 91.4568 44.4962 91.0924 44.5291C91.0086 44.5352 91.0266 44.1816 90.7026 44.2144C90.1295 44.2732 89.6366 44.6773 89.259 44.7291C89.2148 44.7334 89.1806 44.1792 88.4722 44.401C88.2729 44.4631 88.0575 44.6732 88.3539 44.8158C89.3367 45.2843 91.0898 44.2715 92.1964 44.7317C93.2055 45.1507 90.114 45.3767 89.9531 45.3889C89.8941 45.394 90.4824 45.0835 89.8652 45.0649C89.3382 45.0502 88.4359 46.0636 87.6423 45.9008C87.5818 45.8888 86.91 45.1135 86.9361 45.0645C86.9602 45.0284 87.9087 44.7962 87.7557 44.5695C87.7375 44.5437 87.1285 44.5847 87.0388 44.4145C86.9289 44.2072 86.5443 42.1334 86.4111 42.0886C86.0697 41.9787 86.3148 42.4425 86.0969 42.4219C85.6298 42.3791 83.9874 41.855 83.9769 42.5822C84.245 42.6097 84.5134 42.6372 84.7811 42.6647C83.308 42.8254 83.9557 43.0969 83.7543 43.2449C83.5374 43.405 83.5637 42.7648 83.0621 42.734C82.9529 42.7272 80.877 42.9815 80.9305 43.2464C82.0579 42.7542 81.6766 43.5657 81.7305 43.5767C81.9354 43.6161 82.1675 43.1599 82.4389 43.1529C84.3483 43.1108 82.4673 43.9193 82.9276 44.0722C83.086 44.1234 83.3725 43.7288 83.4393 43.7442C83.6565 43.7941 83.6887 44.2872 83.8288 44.239C84.1558 44.127 83.7271 43.4517 83.7513 43.4138C84.0229 42.9597 85.2181 43.4353 84.5381 44.237C84.9889 44.4853 84.9857 43.5594 85.3518 43.9083C86.0795 44.5989 85.0423 44.4712 84.7714 44.6087C83.7986 45.1046 83.4816 44.7676 82.0758 44.9712C81.5695 45.0436 80.9931 45.5271 80.7585 45.5655C80.6107 45.5896 79.1166 44.1114 79.2175 46.5552C78.6583 46.3507 77.7092 44.7917 77.1521 44.8979C76.6519 44.9944 76.8625 45.8487 76.8173 45.8849C76.7482 45.9416 76.1353 45.9089 75.9356 46.043C75.7016 46.2013 75.8418 46.524 75.4651 46.6807C74.5277 47.0698 74.5017 46.1866 74.4 46.1351C73.2206 45.5391 73.7931 46.7641 73.5458 46.8794C73.3151 46.9855 69.9882 46.6943 69.3142 47.0518C69.5861 46.8588 69.858 46.6659 70.1301 46.4729C69.593 45.9523 69.1098 46.8802 69.0433 45.8947C69.033 47.4927 67.9296 46.4888 67.6194 46.5481C67.4972 46.5721 67.5226 46.8429 67.369 46.8635C66.7655 46.9462 65.3878 46.8092 65.0677 46.9658C63.6819 47.6402 67.3711 48.4152 67.6594 48.4582C67.087 48.4738 63.8693 49.0177 65.4016 49.697C65.6384 49.8018 66.0048 49.0657 66.1325 49.0303C66.9967 48.7963 66.3456 49.4746 66.4177 49.5313C66.54 49.6226 67.0803 48.972 67.2366 49.0367C67.2881 49.0574 66.9975 49.6543 67.8294 49.6183C67.4544 50.2024 65.0803 49.8817 64.7818 50.0309C64.6753 50.0843 65.4297 51.2423 63.3594 50.1947C63.389 50.3046 63.4187 50.4144 63.4483 50.5243C62.336 50.6345 61.2252 50.7445 60.1161 50.8545C60.2222 50.5913 60.8168 50.0408 60.0368 50.1953C59.5879 50.2846 59.9557 50.8359 59.9153 50.8548C59.5262 51.035 52.2808 51.2615 50.9049 51.4041C50.4385 51.4516 49.1265 51.9869 49.0274 52.0011C48.4226 52.0818 46.2629 51.906 45.8409 51.9951C45.577 52.0519 45.8574 52.5144 45.6182 52.5056C45.3959 52.4968 45.5986 52.0227 45.5319 52.0072C44.976 51.8714 40.8941 52.7111 39.872 52.333C40.4856 52.429 43.4298 51.337 43.3469 51.0155C43.3313 50.9717 42.5868 50.6623 42.4474 50.8419C42.1804 50.4567 41.3947 51.7208 40.9145 51.5086C40.8603 51.4845 41.0285 50.791 40.1908 50.7146C39.9022 50.6887 39.1837 51.2627 38.3983 50.7098C37.3222 51.0584 31.5817 50.4971 31.2149 51.2525C31.2053 51.2918 32.0279 51.4983 31.4988 51.8298C30.7958 52.2704 31.3709 50.8877 30.5196 50.8193C30.3898 50.809 28.0549 51.0775 27.9846 51.165C27.3192 51.9604 29.3794 52.1512 29.3567 52.2406C29.297 52.4658 27.6067 52.6954 27.5357 52.6471C27.4671 52.5965 28.7927 51.5177 27.1535 51.9909C27.3503 52.0998 27.5473 52.2087 27.7443 52.3175C26.9764 52.5945 26.8636 51.9063 26.6722 51.8746C26.0753 51.7739 25.5118 52.8608 24.4778 51.6157C24.2062 51.2852 24.6034 50.8787 24.5689 50.8288C24.2397 50.3818 23.9231 51.6449 23.4165 50.7446C23.3787 50.6774 24.4041 50.0634 22.5569 50.1658C22.6889 50.2474 22.8209 50.329 22.953 50.4107C22.7026 50.6236 20.8448 50.846 20.5933 50.8131C19.8556 50.717 20.4562 50.0441 19.7275 50.1614C20.2453 51.0084 18.0275 51.2469 18.1145 50.4879C17.8669 51.4489 15.9104 50.8275 15.0108 50.8552C14.4429 50.8734 13.3147 51.3495 13.1334 51.3112C12.9122 51.2643 12.9424 50.6165 12.5413 50.4949C12.4268 50.4602 11.2834 50.9975 10.2272 50.3872C10.0224 50.2696 9.54742 49.2 9.89915 48.9065C10.5007 48.4045 11.7434 49.2184 11.6927 48.5736C11.6355 47.884 10.0522 48.3839 9.618 48.3175C7.58499 48.0119 8.7026 47.2136 8.64154 46.9937C8.47553 46.4612 7.36848 46.5392 7.32015 46.4932C7.11687 46.288 7.87731 45.8172 7.87117 45.4869C7.86128 45.057 6.75246 44.3413 6.98687 44.1832C7.32159 43.9587 8.33916 44.5499 8.40016 44.5156C9.18915 44.0543 8.02087 43.1244 7.6885 42.6541C7.58744 42.5093 7.94345 42.2426 7.86411 42.2029C6.65389 41.6008 7.69337 43.6102 6.90647 43.5156C6.20537 43.4313 7.06266 42.7303 7.03432 42.6959C6.99755 42.6583 6.16579 42.6686 6.02375 42.4452C5.95172 42.3334 8.04162 40.9466 7.92137 40.3831C7.23689 40.5466 6.55479 40.7099 5.87514 40.873C5.78007 40.1351 6.79906 40.6259 6.8978 40.5438C7.09564 40.3791 6.49967 40.0359 6.51153 39.8003C6.51643 39.6505 7.16208 39.0815 6.5402 38.896C6.32666 38.8319 5.91545 39.3757 5.12689 38.8869C7.73734 38.0629 5.87903 37.7476 5.7862 37.4895C5.69522 37.2313 6.92582 36.5437 5.39703 36.7377C5.25108 35.2993 5.40469 36.28 5.82688 36.0025C6.34496 35.6614 5.08012 35.255 7.05857 35.507C6.90856 34.8381 5.33943 34.9727 5.25455 34.9234C5.18018 34.8785 5.51031 34.5272 5.37985 34.4215C3.83992 33.1979 4.881 33.7381 4.41027 32.9284C4.36781 32.8561 2.96914 32.6233 4.01444 32.4441C5.92149 32.1177 6.7886 33.0293 7.00033 30.966C5.51624 30.1569 3.86938 31.572 3.44091 31.618C2.78425 31.6865 3.44331 31.2318 3.35577 31.1193C3.32536 31.0831 2.76034 31.1488 2.75105 31.1161C2.25907 29.5784 5.27605 30.9511 6.19811 30.628C5.93531 30.4081 5.67285 30.1883 5.41073 29.9684C5.74834 29.9404 6.08655 29.9124 6.42535 29.8843C4.7851 29.5038 6.35768 29.7097 6.69197 28.4242C6.7668 28.1353 5.73094 28.6808 6.89987 27.825C5.99538 27.6923 6.26612 27.4185 5.47846 27.8191C5.46993 27.3118 7.25882 26.64 7.96615 26.3402C5.39214 25.912 6.94092 27.6891 4.70108 26.8272C4.3312 27.4765 5.3657 27.297 5.28675 27.4051C5.00217 27.794 4.25487 27.2427 3.4695 28.5935C3.34181 28.8153 3.96827 29.4416 3.09316 29.4579C2.99623 29.4587 2.41 28.9262 2.41558 28.8849C2.46472 28.4399 3.02348 28.5749 3.0362 28.3896C3.04777 28.2142 2.4403 28.3528 2.43569 28.3046C2.38637 27.7532 2.93552 28.0653 2.84902 27.8966C2.66165 27.5296 0.392367 26.4621 3.2893 26.652C0.932714 27.4081 3.01369 27.279 3.93681 26.9875C4.17209 26.9142 4.21428 26.5809 4.54854 26.4476C4.97845 26.2751 5.50158 26.4051 5.72599 26.332C5.96758 26.2517 4.5314 25.5487 6.55914 25.6701C5.48786 24.9512 3.73135 25.8777 2.7073 25.3877C0.640658 24.3972 4.0323 23.9736 4.38854 23.8469C4.48211 23.8127 4.13849 23.3847 4.20043 23.3539C4.30017 23.3064 6.26418 23.4046 6.43883 23.025C6.61105 22.646 5.72214 23.0817 5.64089 22.7008C5.58376 22.4445 7.92594 21.8547 6.63427 21.7488C5.74306 21.6766 4.18346 22.8055 3.85121 21.7028C5.13184 21.5395 6.42472 21.3752 7.71924 21.2107C6.98618 20.8248 6.24892 20.4391 5.51772 20.053C6.96891 19.8376 8.24332 20.2485 9.56704 19.5644C6.22331 18.3833 10.5666 18.4184 10.6104 18.2495C10.6203 18.1495 9.26778 17.1153 9.05019 16.9245C10.1623 16.4362 13.651 16.0334 11.5284 14.7818C11.9163 15.0695 12.775 14.2582 12.7601 14.2014C12.6105 13.6046 10.6721 14.1049 10.9619 13.5423C11.2965 12.8894 11.8631 13.7183 12.4307 13.618C15.3481 13.0971 14.3773 9.99225 17.3135 10.3278C17.2492 10.219 17.1849 10.1101 17.1207 10.0012C20.2978 10.0023 23.5289 9.99961 26.6986 9.99961C27.8802 8.96819 31.2053 8.19248 32.8129 8.20789C33.1397 8.21014 34.7745 8.62358 34.9015 8.70512C35.1357 8.86193 33.9042 8.99684 34.4804 9.28307C34.6002 9.34177 37.3412 9.39855 37.1164 8.87156C36.8062 8.82665 35.8641 9.15159 35.7006 9.0337C34.5497 8.19165 43.0015 8.43507 43.3907 8.04663C43.1947 7.88254 42.9987 7.71844 42.8029 7.55434C43.3374 7.61003 43.8725 7.66566 44.4082 7.72124ZM22.47 52.3163C22.1804 52.8742 21.3573 52.5136 20.8943 52.6916C20.2541 52.9404 19.2669 55.0811 19.6255 52.9708C20.5702 52.7529 21.5184 52.5347 22.47 52.3163ZM36.5184 52.3297C35.8614 52.0761 36.2918 50.8842 36.8449 51.3381C36.9064 51.3898 37.4079 52.6707 36.5184 52.3297ZM29.7505 52.1592C29.7766 52.1423 30.3342 52.1417 30.3547 52.1588C30.8796 52.5979 29.1985 52.5971 29.7505 52.1592ZM62.2453 49.7022C61.5415 49.7933 62.1143 50.8216 62.5287 50.3608C62.5547 50.3316 62.2916 49.6971 62.2453 49.7022ZM61.741 49.7032C61.1375 48.7876 60.1443 50.7712 61.011 50.5272C61.095 50.5028 61.7691 49.7479 61.741 49.7032ZM34.2129 51.9966C34.264 51.6294 34.9325 51.7674 35.2191 51.8382C35.2302 52.1702 34.486 51.9404 34.2129 51.9966ZM51.0027 50.9373C51.0201 50.6499 48.7079 50.7983 48.5725 51.1835C48.9278 51.003 50.9963 51.195 51.0027 50.9373ZM56.8785 50.1973C56.8171 50.1514 56.0245 50.2723 56.0623 50.5227C56.4701 50.8307 57.1548 50.4055 56.8785 50.1973ZM68.6164 49.5362C68.6559 49.4704 67.9684 47.9023 69.4382 48.8755C69.654 49.0179 68.9395 49.4795 69.0164 49.5327C69.1768 49.6359 69.3015 49.6812 69.3997 49.6849C68.7512 49.8557 68.0738 49.9577 68.0023 49.8643C67.6663 49.423 68.5988 49.5637 68.6164 49.5362ZM74.7055 47.9848C74.8259 47.7155 75.7001 47.8049 75.9036 47.9011C75.9385 47.9194 75.8312 48.615 76.2179 48.541C76.5276 48.4804 76.0204 47.8038 76.635 47.8811C77.2561 47.9584 76.4642 48.5076 76.52 48.5403C76.5946 48.583 77.5269 48.2117 77.5212 48.6227C77.5168 48.9271 76.4863 48.7813 76.2383 48.8604C75.92 48.962 76.3414 49.4442 75.7944 49.3671C75.4507 49.3191 75.5874 48.4201 75.5131 48.3794C75.4508 48.3468 74.2934 48.9268 74.7075 47.9875C74.7068 47.9866 74.7062 47.9857 74.7055 47.9848ZM69.575 49.6353C69.5274 49.6682 69.4703 49.6875 69.3997 49.6849C69.4586 49.6694 69.5171 49.6519 69.575 49.6353ZM24.3141 51.8218C24.666 52.0768 23.687 52.4842 23.29 52.1465C23.2669 51.8575 24.2579 51.7822 24.3141 51.8218ZM70.1418 48.8769C71.1301 49.0428 70.4302 49.3904 69.575 49.6353C69.8404 49.4522 69.8101 48.8215 70.1418 48.8769ZM42.4474 50.8419C42.4921 50.9058 42.524 51.0076 42.5369 51.1771C42.4187 50.9976 42.4034 50.8985 42.4474 50.8419ZM44.734 51.015C45.4838 50.4537 43.9017 50.565 43.9332 50.9342C43.9458 51.0736 44.7039 51.0374 44.734 51.015ZM63.1552 49.7003C63.0809 49.6538 64.1 48.0292 62.5571 49.2933C63.4272 49.4276 62.5302 49.6499 62.5515 49.7858C62.6091 50.1766 64.0316 49.7156 64.3617 49.8668C64.5716 49.1495 63.4004 49.8533 63.157 49.7002C63.1564 49.7002 63.1558 49.7003 63.1552 49.7003ZM85.8287 47.7167C85.657 48.1399 85.0292 48.0436 84.6084 48.0438C84.7805 47.6206 85.4085 47.7169 85.8287 47.7167ZM195.423 41.2968C192.575 41.8479 192.094 40.1936 194.771 40.6999C194.823 40.7107 195.586 41.1166 195.423 41.2968ZM170.768 42.3253C170.452 41.6106 171.347 41.4395 171.954 41.7063C172.091 41.7663 172.628 42.4773 172.074 42.6555C172.039 41.7686 171.148 41.4819 170.768 42.3253ZM70.6659 48.3768C70.9217 47.8729 71.8165 48.1691 72.2819 48.2155C72.0237 48.6332 71.0821 48.5057 70.6659 48.3768ZM185.937 40.9824C185.629 40.9452 185.461 41.5933 185.517 41.6431C185.767 41.8717 186.306 41.3238 185.937 40.9824ZM67.8414 48.4645C67.7846 48.1756 68.9247 47.8282 69.0472 48.5438C68.7967 48.506 67.8806 48.6457 67.8414 48.4645ZM85.0263 47.5441C84.8378 47.4065 85.7538 47.087 86.0441 47.2175C86.0396 47.5289 85.1498 47.6335 85.0263 47.5441ZM181.088 41.4871C180.815 41.4479 180.137 41.4712 180.077 41.7327C180.004 42.0596 180.989 41.8911 181.088 41.4871ZM231.422 37.9578C231.464 38.0712 230.472 38.964 229.986 38.781C229.071 38.43 231.391 37.8777 231.422 37.9578ZM188.785 40.4842C189.669 41.0386 188.692 40.5088 188.767 41.1434C189.341 41.1323 190.755 41.0799 189.747 40.5115C189.55 40.4016 189.054 40.5096 188.785 40.4842ZM187.987 40.3178C187.908 40.5295 187.331 41.2164 187.86 41.1382C188.105 41.1011 188.457 40.355 187.987 40.3178ZM224.954 38.6193C224.161 38.1 227.674 38.198 227.757 38.2923C227.812 38.3414 227.849 38.3886 227.87 38.4291C227.975 38.2437 228.647 38.1722 228.756 38.6193C228.544 38.5942 228.001 38.6658 227.944 38.6189C227.916 38.5991 227.895 38.5802 227.881 38.5607C227.689 38.9655 225.119 38.7169 224.954 38.6193ZM219.107 38.3803C219.942 37.4967 220.176 38.9018 220.104 38.9517C219.183 39.5866 219.745 38.5072 219.713 38.4601C219.642 38.3827 218.987 38.9067 219.11 38.3802C219.109 38.3802 219.108 38.3803 219.107 38.3803ZM223.73 38.4576C223.766 38.437 224.518 38.4369 224.549 38.4574C225.19 38.8967 223.063 38.8992 223.73 38.4576ZM79.2899 46.7254C79.8246 46.8353 79.3384 47.3856 78.9776 47.2189C78.9479 47.2021 78.8183 46.6282 79.2899 46.7254ZM187.575 40.4829C187.453 40.3915 184.282 40.2079 184.514 40.9826C184.785 40.8734 188.375 41.0661 187.575 40.4829ZM164.228 41.6787C164.78 41.652 164.223 42.4287 163.912 42.1701C163.796 42.0739 164.089 41.6859 164.228 41.6787ZM66.2375 47.8824C65.6878 48.3227 65.7272 46.95 66.2514 47.3894C66.2719 47.4066 66.2591 47.8652 66.2375 47.8824ZM168.633 41.8446C166.783 42.4051 167.071 40.0305 169.59 40.6767C169.519 40.786 169.447 40.8952 169.375 41.0045C172.272 41.186 169.582 41.1584 168.885 41.3318C168.626 41.3973 168.869 41.7764 168.635 41.8473C168.634 41.8464 168.633 41.8455 168.633 41.8446ZM161.311 41.807C159.378 40.2485 162.954 41.1258 163.946 40.8489C163.013 41.5953 161.733 41.5667 163.505 42.1689C160.984 42.4555 161.995 41.7289 161.892 41.6797C161.768 41.6249 161.394 41.8739 161.311 41.807ZM166.152 41.5082C166.255 41.4533 167.067 41.7456 167.349 41.6734C166.985 42.2666 165.472 41.8805 166.152 41.5082ZM213.036 39.1263C213.076 38.676 213.224 38.3374 213.864 38.467C213.683 38.7028 213.29 38.9195 213.036 39.1263ZM21.7316 50.0012C21.2955 49.9936 20.4243 49.8737 20.715 50.3282C20.7458 50.3666 21.7448 50.2647 21.7316 50.0012ZM178.478 40.6605C178.385 40.611 175.971 40.7174 176.834 41.1604C177.096 41.2939 179.277 41.101 178.478 40.6605ZM190.793 39.9853C190.597 39.9922 189.803 40.1237 189.792 40.2304C189.76 40.5984 190.729 40.3396 190.793 39.9853ZM19.5229 49.6666C19.463 49.6236 18.1522 49.7792 18.3092 49.9877C18.6057 50.3819 19.7264 49.8153 19.5229 49.6666ZM81.1449 45.5683C81.2545 45.5453 81.429 46.0216 81.4676 46.0248C81.5579 46.0265 83.5719 45.7219 82.8346 46.3895C82.7114 46.5013 79.7848 46.432 79.4029 46.3925C79.2177 45.7355 80.4982 46.2962 80.797 46.2101C80.8496 46.194 80.8513 45.6352 81.1442 45.5711C81.1444 45.5702 81.1447 45.5692 81.1449 45.5683ZM216.269 38.4631C216.309 38.0361 218.701 37.6141 218.706 38.1283C217.885 38.2404 217.046 38.3535 216.269 38.4631ZM215.073 38.4632C214.552 38.1936 215.725 38.0251 216.075 38.137C216.097 38.4213 215.15 38.5026 215.073 38.4632ZM186.209 38.6712C185.974 38.7889 186.75 39.3624 186.592 39.4922C186.491 39.5732 185.939 39.3737 185.779 39.577C185.734 39.6413 186.318 40.189 186.474 40.1545C186.697 40.1077 186.452 39.664 186.697 39.6463C187.511 39.5881 188.248 39.8712 189.003 39.8187C189.071 39.8131 188.523 39.522 189.105 39.492C189.195 39.4868 189.763 39.9351 190.449 39.8228C191.878 38.2451 193.162 39.6347 195.081 38.9826C195 38.8468 193.507 38.5584 193.417 38.5497C191.72 38.405 188.835 38.5493 187.106 38.6488C186.663 38.6738 186.897 38.9759 186.707 38.9988C186.556 39.0163 186.701 38.4225 186.209 38.6712ZM21.944 49.6659C21.7043 49.0951 20.9998 49.5044 20.5363 49.5002C20.7282 50.0165 21.4835 49.5623 21.944 49.6659ZM204.346 38.6444C204.121 38.6803 203.403 38.5468 203.354 38.7256C203.293 38.959 204.322 39.043 204.346 38.6444ZM92.5672 45.0672C92.5886 45.05 93.1479 45.0486 93.17 45.0657C93.6954 45.5039 92.0178 45.506 92.5672 45.0672ZM105.914 44.3969C106.333 44.3001 106.749 44.0931 106.919 44.5572C106.645 44.5007 105.884 44.7289 105.914 44.3969ZM124.316 43.2986C124.192 42.685 125.486 43.0106 125.729 43.0519C125.657 43.3322 124.406 43.7406 124.316 43.2986ZM212.829 37.1893C213.617 37.1796 213.395 36.2521 213.915 36.6471C214 36.714 214.378 38.6502 213.476 37.9696C213.313 37.8474 213.893 37.3477 212.829 37.1893ZM169.998 40.6722C170.173 40.251 170.804 40.3354 171.226 40.3433C171.15 40.653 170.297 40.6251 169.998 40.6722ZM17.124 49.3312C16.7222 48.7739 15.0448 49.2976 15.4872 49.656C15.549 49.7025 16.8837 49.3227 17.124 49.3312ZM72.5359 46.3952C73.2036 45.8998 71.7577 45.8423 71.3302 46.3133C71.5338 46.2723 72.4908 46.4279 72.5359 46.3952ZM119.868 43.2236C119.901 43.2029 120.642 43.2033 120.676 43.2237C121.309 43.6633 119.213 43.6648 119.868 43.2236ZM101.481 43.9035C101.722 43.5136 103.486 43.7132 103.898 44.0653C103.554 44.635 101.178 44.3906 101.481 43.9035ZM209.641 37.6448C210.189 37.593 210.706 37.6782 211.22 37.8103C211.128 38.1321 209.716 37.8767 209.641 37.6448ZM122.573 43.0246C122.613 43.0248 122.653 43.0582 122.691 43.0598C122.651 43.0487 122.612 43.0358 122.573 43.0246ZM197.202 38.1593C196.736 38.0619 196.865 38.634 196.895 38.65C197.251 38.8166 197.728 38.2691 197.202 38.1593ZM21.3634 48.8379C21.1725 48.3256 20.4126 48.7739 19.9568 48.675C20.1099 49.0795 21.0031 48.913 21.3634 48.8379ZM159.301 40.8547C158.692 40.3236 160.995 39.5279 161.535 39.8614C161.581 40.2091 159.392 40.927 159.301 40.8547ZM70.3365 45.7381C70.2661 45.3323 69.2973 45.8832 69.5204 46.0639C69.6617 46.1789 70.3791 45.9904 70.3365 45.7381ZM162.754 40.028C162.972 39.89 163.519 40.2621 163.349 40.5187C163.132 40.8476 162.698 40.0672 162.754 40.028ZM182.767 38.51C182.667 38.4532 181.389 38.95 181.952 39.3346C182.343 39.602 182.367 39.008 182.455 39.001C182.554 38.997 184.678 39.5961 182.767 38.51ZM145.963 41.2889C146.453 41.1023 147.065 41.249 147.585 41.2069C147.388 41.4721 146.196 41.6119 145.963 41.2889ZM74.1818 45.4053C74.0511 45.2471 70.7647 45.338 72.6578 45.7384C72.768 45.7609 74.5768 45.8844 74.1818 45.4053ZM212.829 37.1893C212.729 37.1906 212.613 37.1779 212.478 37.1454C212.611 37.1535 212.728 37.1744 212.829 37.1893ZM203.979 37.6508C204.137 37.3429 203.245 37.316 202.99 37.4899C202.932 37.858 203.958 37.6937 203.979 37.6508ZM147.599 40.7897C147.889 40.6018 148.443 40.7512 148.812 40.7094C148.766 40.9895 147.746 41.0629 147.599 40.7897ZM126.591 41.7213C127.192 41.8507 127.914 41.7322 127.905 41.3933C127.921 41.4454 127.953 41.4998 128.004 41.5534C128.056 41.6064 128.686 41.4113 128.97 41.5104C130.658 42.0987 122.62 42.2897 127.209 41.0604C127.003 41.2807 126.797 41.501 126.591 41.7213ZM99.0787 43.2457C98.7179 42.8538 97.805 43.4249 98.0593 43.5727C98.2363 43.6737 99.44 43.6404 99.0787 43.2457ZM112.024 42.2402C111.919 42.1727 111.012 42.5154 111.001 42.7336C111.546 42.9307 112.504 42.5545 112.024 42.2402ZM96.4614 42.9154C96.2463 42.8656 96.0154 43.5453 96.0419 43.5728C96.271 43.8025 96.8382 43.2642 96.4614 42.9154ZM211.081 35.4981C210.757 35.3265 209.808 35.8647 209.616 36.3159C209.571 36.2335 209.457 36.1294 209.25 36.0085C209.251 36.0084 209.252 36.0084 209.252 36.0084C209.013 35.8447 200.788 36.1374 206.341 36.6559C206.514 36.6728 206.257 36.2931 206.959 36.3212C207.006 36.3235 207.048 36.6434 207.191 36.6506C207.523 36.665 209.26 36.7652 209.585 36.4865C209.591 36.5459 209.617 36.6013 209.667 36.6504C210.118 37.0887 211.321 35.631 211.081 35.4981ZM113.85 42.0736C113.657 41.9655 113.076 42.1132 113.032 42.4002C113.332 42.522 114.296 42.326 113.85 42.0736ZM74.0124 44.2479C73.6206 44.0367 72.6881 44.5283 72.9911 44.7432C73.1767 44.8754 74.464 44.4903 74.0124 44.2479ZM107.981 42.571C110.163 42.7789 108.495 42.5135 108.802 42.0783C108.528 42.2425 108.254 42.4067 107.981 42.571ZM221.191 35.9797C220.844 35.904 221.197 35.0601 221.596 35.4834C221.722 35.6179 221.384 36.0205 221.191 35.9797ZM236.735 34.8182C236.412 34.1069 237.816 34.4549 237.308 34.9849C237.285 35.0031 236.758 34.8446 236.735 34.8182ZM225.859 35.152C225.654 35.6609 225.508 35.7285 224.836 35.6449C225.809 35.448 224.877 35.063 225.859 35.152ZM127.896 41.3404C127.901 41.3602 127.905 41.3748 127.905 41.3933C127.9 41.3754 127.897 41.3582 127.896 41.3404ZM94.4321 43.1636C94.1363 42.7599 93.3778 42.8353 93.629 43.2444C93.6532 43.2822 94.3391 43.4802 94.4321 43.1636ZM209.616 36.3159C209.656 36.389 209.641 36.4387 209.585 36.4865C209.579 36.4307 209.591 36.3768 209.616 36.3159ZM98.492 42.5826C98.4833 42.8972 99.6462 42.9512 99.6903 42.9117C100.322 42.3299 98.9683 42.5357 98.492 42.5826ZM66.3426 44.2511C66.2847 44.2873 66.7171 45.073 66.9354 44.7427C67.1043 44.4865 66.5594 44.1138 66.3426 44.2511ZM228.04 34.822C228.42 34.8003 228.949 34.7691 229.069 35.1473C228.816 35.1029 228.049 35.1041 228.04 34.822ZM236.157 34.3228C235.761 34.7983 234.777 34.8539 234.125 34.817C234.085 34.2233 235.775 34.4848 236.157 34.3228ZM212.109 35.6596C212.078 35.6372 211.129 35.5154 211.281 35.9054C211.504 36.4772 212.386 35.8602 212.109 35.6596ZM68.151 44.5767C68.5448 44.2792 67.5535 43.4923 67.1585 44.1673C66.9564 44.513 68.0844 44.6266 68.151 44.5767ZM92.0273 42.7531C91.499 43.0149 92.8656 43.3462 93.0288 42.9195C92.7773 42.9008 92.215 42.6604 92.0273 42.7531ZM110.435 41.2509C108.661 40.1522 109.717 42.2849 110.008 42.0748C110.049 42.0448 110.478 41.2767 110.435 41.2509ZM12.7276 47.1719C12.495 47.352 13.4301 47.9055 13.5252 47.5016C13.5835 47.2489 12.876 47.0572 12.7276 47.1719ZM136.184 40.5126C136.113 40.5207 136.042 40.5289 135.972 40.5365C136.023 40.5138 136.092 40.5033 136.184 40.5126ZM87.0155 41.4346C88.3162 43.0573 88.1138 41.7598 88.2186 41.7608C88.4454 41.7659 88.9966 42.193 89.4175 42.093C88.9415 42.312 88.4656 42.5311 87.9896 42.7502C88.3815 42.8499 91.7607 43.2776 91.8146 42.999C91.8921 42.6022 90.8475 42.7864 90.8148 42.7538C90.7679 42.7073 90.54 41.63 90.44 41.5944C90.2757 41.5378 87.4792 41.6786 87.0155 41.4346ZM106.881 41.6484C107.163 41.7615 107.266 42.1875 107.388 42.0771C107.429 42.0393 107.412 41.6282 107.554 41.5132C107.33 41.5583 107.105 41.6034 106.881 41.6484ZM84.9525 43.0822C84.583 42.6002 86.1193 42.7017 86.1715 42.7551C86.4523 43.0801 85.2544 43.476 84.9525 43.0822ZM97.8936 42.252C97.8363 42.226 96.6556 42.138 96.6813 42.4159C97.0038 42.6101 98.5735 42.5801 97.8936 42.252ZM107.735 41.4744C108.149 41.4982 108.95 41.866 108.825 41.2528C108.824 41.2529 108.824 41.2529 108.823 41.2529C108.461 41.3268 108.098 41.4006 107.735 41.4744ZM69.4787 43.1892C68.6598 42.2483 69.0927 43.4721 69.7858 43.7507C69.9646 43.2967 69.6128 43.3422 69.4787 43.1892ZM66.9993 42.596C66.7756 42.4311 64.5952 42.7521 64.9599 43.254C65.0893 43.4329 66.3226 42.8915 66.3829 42.9241C66.4741 42.9725 66.1051 43.5723 66.7712 43.4192C66.7205 43.2261 67.0756 42.651 66.9993 42.596ZM68.8117 42.595C68.0116 41.8898 67.9217 43.2813 68.4909 43.2521C68.7134 43.2416 68.9259 42.6969 68.8117 42.595ZM71.9126 42.5333C71.6321 42.4181 70.8946 42.2692 70.4209 42.7577C71.0928 42.7581 71.7652 42.7584 72.4379 42.7588C72.5001 42.494 72.1579 42.6346 71.9108 42.5334C71.9113 42.5334 71.912 42.5334 71.9126 42.5333ZM240.491 30.5223C239.887 30.1636 241.217 29.9372 241.272 30.0307C241.455 30.3409 240.763 30.6823 240.491 30.5223ZM7.33733 34.8786C7.15976 34.7317 7.02081 34.2239 6.66455 34.5137C7.05877 34.8724 7.45374 35.2312 7.84943 35.5898C8.09253 34.7044 7.53139 35.0407 7.33733 34.8786ZM5.7369 31.781C5.78842 31.7571 5.42698 30.4362 6.15614 31.2911C6.64751 31.8684 4.18569 32.5934 3.70888 32.025C4.18733 31.7224 5.29327 31.9777 5.7369 31.781ZM1.08157 26.2335C1.04705 26.1284 1.97282 25.9207 2.08579 25.9899C2.67662 26.3547 1.26513 26.7963 1.08157 26.2335ZM4.08849 26.3239C3.63183 26.0887 4.60247 25.8674 4.90411 26.0005C4.94602 26.2478 4.15862 26.358 4.08849 26.3239ZM233.296 11.5134C232.758 10.6332 232.431 12.6141 233.161 12.1765C233.196 12.1559 233.32 11.5567 233.296 11.5134ZM1.92109 24.8348C2.37439 25.0702 1.4109 25.291 1.11426 25.1575C1.07349 24.9104 1.85186 24.8005 1.92109 24.8348ZM232.828 9.36931C232.139 8.75334 232.495 10.9339 232.582 11.0176C232.942 11.347 234.024 10.4205 234.236 10.1935C232.574 10.6199 233.147 9.65994 232.828 9.36931ZM229.972 10.8568C229.404 11.1247 230.916 11.4859 231.154 10.8585C230.873 10.9041 230.135 10.7795 229.972 10.8568ZM226.314 10.364C226.004 10.3032 225.068 10.1691 224.931 10.5235C225.271 10.4409 226.207 10.7266 226.314 10.364ZM225.555 9.37051C225.041 8.9299 225.004 10.3033 225.541 9.86349C225.562 9.84646 225.574 9.39555 225.555 9.37051ZM222.746 9.03984C222.384 8.51576 222.082 9.86142 222.622 9.86558C222.781 9.86441 222.785 9.10009 222.746 9.03984ZM231.872 7.05659C231.37 6.85151 230.815 7.83468 231.846 7.87937C231.481 8.04581 231.158 8.20986 230.827 8.37436C232.114 8.83274 232.007 7.52021 232.379 7.55315C232.92 7.59935 232.939 8.68652 232.852 9.03327C233.261 8.34282 235.065 8.22801 236.073 8.04319C235.158 7.81593 233.664 7.417 232.714 7.29474C232.445 7.25898 232.202 7.57151 231.97 7.55157C231.597 7.51805 231.9 7.07073 231.874 7.05648C231.874 7.05652 231.873 7.05656 231.872 7.05659ZM219.084 9.23503C218.096 8.67537 218.778 9.96901 219.299 9.70052C219.321 9.68093 219.109 9.24868 219.084 9.23503ZM0.444622 20.8638C1.73934 21.3501 0.853371 22.1376 3.45306 20.8728C2.3771 21.7261 3.42235 21.4455 3.22144 21.7769C3.05985 22.0392 2.39274 21.8661 2.80187 22.354C2.26778 21.8279 0.114644 22.0998 0.0157642 22.015C0.0166668 22.0149 0.0175694 22.0149 0.0184719 22.0148C-0.0420335 21.9647 0.0326694 20.7092 0.444622 20.8638ZM226.107 6.88856C225.703 5.2939 225.733 7.86067 225.039 6.56002C224.331 8.54899 227.303 6.42802 227.824 8.04278C224.309 8.05656 230.222 9.53305 227.646 7.22067C229.687 7.99555 228.28 6.87878 228.568 6.54818C228.878 6.1959 229.998 6.49405 229.905 5.89668C229.905 5.89671 229.904 5.89675 229.904 5.89678C229.238 5.97761 228.562 6.05917 227.874 6.14142C228.624 7.39794 227.194 7.09139 226.641 6.06428C226.453 6.33964 226.277 6.61425 226.107 6.88856ZM230.05 7.87947C229.987 7.85333 228.527 8.12054 228.634 8.37528C228.851 8.52904 230.904 8.21019 230.05 7.87947ZM236.521 7.22152C235.94 7.2517 235.167 7.04253 234.906 7.54786C235.42 7.52153 236.232 7.72866 236.521 7.22152ZM209.199 8.72629C208.546 9.16718 210.647 9.16226 210.012 8.72324C209.981 8.70267 209.22 8.70624 209.199 8.72629ZM224.617 7.22033C223.906 6.76732 224.321 8.31717 224.801 7.87895C224.828 7.85315 224.65 7.24096 224.617 7.22033ZM1.45787 20.617C1.48082 20.2302 3.33821 20.3988 3.66797 20.3773C3.49914 20.745 1.4281 21.0607 1.45787 20.617ZM237.398 5.72857C236.221 4.40925 234.897 6.08714 234.75 6.06064C234.595 6.03389 234.8 5.41593 234.764 5.40173C234.69 5.37196 233.038 5.51816 232.952 5.56537C232.896 5.60153 233.25 6.43291 232.917 6.72048C233.599 6.19687 236.538 6.33051 236.76 6.22349C236.88 6.14125 235.886 5.30369 237.396 5.72867C237.396 5.72864 237.397 5.7286 237.398 5.72857ZM234.354 5.89784C234.785 6.23008 233.638 6.34091 233.343 6.22622C232.696 5.96868 234.306 5.8583 234.354 5.89784ZM231.494 5.73414C231.329 5.6636 230.187 5.65712 230.102 6.05964C230.684 6.5415 231.8 5.90305 231.494 5.73414ZM218.178 6.56574C217.87 6.63476 216.986 6.38123 216.956 6.7304C217.271 6.66121 218.15 6.91478 218.178 6.56574ZM7.62297 17.2455C7.09589 16.984 8.27325 16.8001 8.62819 16.9198C8.65944 17.1498 7.66746 17.268 7.62297 17.2455ZM224.308 3.9168C224.153 3.82011 220.282 4.31052 219.833 4.49968C220.297 4.73505 224.148 4.52956 224.276 4.394C224.322 4.35288 224.332 3.932 224.308 3.9168ZM232.443 3.28302C232.766 2.75279 233.029 3.35114 233.073 3.35628C233.511 3.40923 234.379 3.24385 234.215 3.74597C233.469 3.59018 231.799 4.33611 232.443 3.28302ZM217.774 4.27473C216.501 4.53943 218.996 4.93164 218.639 4.41792C218.617 4.38688 217.906 4.24702 217.774 4.27473ZM224.715 3.74394C224.926 3.31815 228.793 3.44903 229.374 3.41605C228.881 4.20708 228.412 3.6553 227.674 3.73715C227.475 3.76015 227.547 4.07314 227.525 4.07489C227.179 4.10979 227.418 3.72954 227.203 3.73651C227.03 3.74403 224.361 4.34699 224.715 3.74394ZM232.624 2.91821C232.836 2.61264 235.154 2.35391 235.236 2.42721C235.966 2.9647 232.842 3.00753 232.624 2.91821ZM224.334 3.08838C224.689 2.18155 226.542 2.66674 225.322 3.17973C225.205 3.22674 224.675 2.8736 224.334 3.08838ZM217.861 3.42582C217.799 3.4034 216.442 3.30611 216.432 3.58864C216.64 3.68595 218.597 3.66918 217.861 3.42582ZM218.495 2.43508C218.464 2.44371 218.807 2.96652 218.18 2.93456C218.127 2.9312 217.997 2.32791 217.219 2.59732C217.061 2.65267 216.834 3.07014 216.854 3.09411C217.747 4.00027 220.076 2.02723 218.495 2.43508ZM232.639 2.42234C232.495 2.17281 232.763 1.392 233.063 1.76225C233.191 1.92219 232.997 2.39271 232.639 2.42234ZM213.609 3.42864C214.349 2.92086 211.935 2.97539 211.811 3.10153C211.909 3.38485 213.538 3.47814 213.609 3.42864ZM8.62381 13.6075C8.62321 13.6075 8.6226 13.6075 8.622 13.6076C9.27379 13.6765 8.89505 14.0836 8.92594 14.094C10.3352 14.5829 9.9224 13.7313 10.1323 13.6165C10.5835 13.3682 10.5673 14.4325 11.3269 13.9494C10.0675 14.6705 11.2313 14.3328 11.2892 14.7079C11.5192 16.239 9.52524 14.0831 8.90328 14.4412C8.81623 14.4908 9.50407 14.9454 9.28258 15.0978C8.56085 15.5921 6.12909 13.3436 8.62381 13.6075ZM233.272 1.68262C233.564 1.21214 235.817 1.52232 235.247 1.92877C235.17 1.99301 232.873 2.36669 233.272 1.68262ZM126.096 7.35215C126.626 6.92834 125.32 6.54407 125.104 6.86232C124.997 7.02087 125.862 7.53831 126.096 7.35215ZM117.049 6.20726C116.401 6.32513 115.81 7.99692 116.606 7.69591C116.691 7.66315 117.137 6.42913 117.049 6.20726ZM160.08 4.49967C159.356 3.95768 159.462 5.03835 159.967 4.993C160.145 4.97716 160.103 4.51683 160.08 4.49967ZM133.998 6.18723C133.928 6.15344 133.146 6.26911 133.189 6.51635C133.489 6.64849 134.453 6.42074 133.998 6.18723ZM160.29 4.33252C159.893 4.55199 160.643 5.29359 161.095 4.49846C160.846 4.57627 160.331 4.31008 160.29 4.33252ZM222.782 0.777346C222.466 1.24209 221.48 1.16502 220.913 1.275C220.821 0.702203 222.394 0.904829 222.782 0.777346ZM119.873 6.69876C119.276 7.1415 120.626 7.39549 120.472 6.86592C120.453 6.83776 119.897 6.68 119.873 6.69876ZM182.11 2.97712C181.673 3.34798 183.152 3.724 182.716 3.14359C182.695 3.12012 182.134 2.9565 182.11 2.97712ZM188.373 2.80484C188.031 2.70881 186.588 2.83029 187.17 3.13222C187.261 3.17851 188.367 3.12111 188.373 2.80484ZM10.1475 13.1995C9.93095 12.6177 11.0043 12.6994 11.1635 12.7943C11.2257 12.834 10.4292 13.9565 10.1475 13.1995ZM155.645 4.67024C155.297 4.76523 154.371 4.67896 154.227 4.9991C154.657 4.90907 155.798 5.28188 155.645 4.67024ZM122.699 6.52912C122.122 5.91775 121.204 6.03567 121.481 6.86258C122.496 6.74616 121.311 6.11464 122.699 6.52912ZM162.536 3.50439C162.249 3.47218 162.079 4.29216 162.114 4.32827C162.443 4.67171 162.837 3.80164 162.536 3.50439ZM141.284 5.4322C141.247 5.08827 140.351 5.29844 140.485 5.51327C140.53 5.58544 141.314 5.71052 141.284 5.4322ZM210.847 1.2824C210.407 0.99245 211.675 0.608787 212.071 0.95423C212.287 1.47289 210.905 1.31529 210.847 1.2824ZM170.414 3.23886C170.427 2.72448 169.019 3.09853 169.606 3.48941C169.753 3.58719 170.409 3.41087 170.414 3.23886ZM183.98 1.8169C183.062 2.48394 187.097 2.6791 185.998 1.98109C185.922 1.93123 184.062 1.76027 183.98 1.8169ZM190.536 1.81017C190.365 1.7528 190.347 0.0279428 191.073 0.650414C191.168 0.731077 190.774 1.21073 190.853 1.31035C190.902 1.36695 192.403 1.52026 192.467 1.47615C192.538 1.42621 192.419 0.880095 192.49 0.813854C192.57 0.739749 193.507 1.17005 193.98 1.14732C194.871 1.10357 194.938 0.639201 195.011 0.63335C195.224 0.617659 195.591 0.922777 196.028 0.896466C198.289 0.758708 201.552 0.175117 203.368 1.04383C201.765 0.746729 200.382 1.24456 198.832 1.46437C199.231 0.479628 196.591 2.33769 198.129 1.13754C197.361 1.42357 191.124 1.98594 190.538 1.81005C190.537 1.81009 190.536 1.81013 190.536 1.81017ZM114.444 5.8771C114.811 5.26618 112.758 5.51975 112.622 6.20946C112.9 6.28768 114.398 5.94658 114.444 5.8771ZM123.875 3.88324C124.06 3.7706 124.174 2.61202 125.209 3.13505C125.21 3.135 125.211 3.13494 125.211 3.13489C125.514 3.28762 125.197 3.58699 125.257 3.68349C125.278 3.72306 126.225 4.24007 125.472 4.37672C124.326 4.58586 125.313 3.52922 124.696 3.55347C124.621 3.55697 123.491 4.24725 123.567 4.37963C123.575 4.3951 123.918 4.24291 123.979 4.29617C124.211 4.49632 124.126 4.86107 124.158 4.8763C124.262 4.91399 126.067 4.19456 126.375 4.71153C126.464 4.87882 123.463 5.45425 123.338 5.37191C123.26 5.31998 123.233 4.32315 123.15 4.22987C123.107 4.18347 121.908 4.62843 121.744 4.54634C121.697 4.5226 121.66 4.49616 121.632 4.47418C121.836 4.77108 120.727 4.8143 120.74 4.46498C120.752 4.32732 121.519 4.36133 121.547 4.38359C121.56 4.39298 121.571 4.4063 121.581 4.41533C121.402 4.04946 123.979 3.91424 123.39 3.38878C124.118 3.03887 123.332 4.21405 123.875 3.88324ZM127.435 3.05691C127.364 3.16612 127.292 3.27535 127.221 3.38457C128.52 3.05075 130.062 3.465 131.567 3.37222C131.948 3.34945 131.471 2.73548 131.982 2.88075C132.391 2.99719 132.869 3.56456 132.659 3.70978C132.608 3.74594 131.77 3.40758 131.363 3.47144C130.164 3.66031 130.501 4.19109 130.431 4.21008C130.354 4.23029 129.57 3.88935 129.155 3.93115C128.112 4.03745 127.653 4.40266 126.193 4.04723C126.999 3.63661 126.5 2.87765 127.435 3.05691ZM176.319 1.32976C176.349 0.981338 177.229 1.23661 177.537 1.16737C177.509 1.51654 176.63 1.26033 176.319 1.32976ZM48.6157 8.38287C48.3858 8.96485 50.3588 8.99241 49.8139 8.55033C49.6931 8.45221 48.8624 8.37276 48.6157 8.38287ZM57.4919 8.21811C57.7458 8.04622 56.6636 7.69912 56.691 8.13774C56.7006 8.27835 57.4591 8.24045 57.4919 8.21811ZM144.395 2.61232C144.444 2.59159 145.18 2.67464 145.204 2.70213C145.723 3.27535 143.303 3.06977 144.395 2.61232ZM68.2172 6.89748C67.3198 7.32235 70.0954 7.32294 69.2226 6.89822C69.179 6.8776 68.2603 6.87687 68.2172 6.89748ZM72.0592 6.57041C71.8396 6.60316 70.8491 6.47557 70.8463 6.64929C70.8429 6.92951 71.9755 7.05506 72.0592 6.57041ZM162.6 1.35169C162.457 0.719299 163.775 1.12634 164.216 1.01943C164.361 1.65222 163.045 1.24433 162.6 1.35169ZM154.421 1.36488C159.815 0.539365 158.707 1.97453 154.115 1.69526C154.084 1.28592 154.079 1.417 154.421 1.36488ZM161.395 1.0267C161.221 1.44764 160.593 1.36321 160.17 1.35543C160.229 1.06645 161.097 1.11817 161.395 1.0267ZM46.2131 7.64038C46.5255 7.10387 48.0809 7.65405 47.8231 7.88275C47.7624 7.93244 46.1033 7.93189 46.2131 7.64038ZM144.82 2.03862C144.657 1.425 146.31 1.58121 146.442 1.71177C146.98 2.23667 144.946 1.89359 144.82 2.03862ZM170.295 0.346036C170.555 -0.157658 171.389 0.0439479 171.913 0.0192701C171.7 0.449446 170.744 0.328168 170.295 0.346036ZM166.442 0.19249C166.471 0.172023 167.22 0.171577 167.254 0.192046C167.889 0.631169 165.787 0.633964 166.442 0.19249ZM7.47104 8.98371C7.49425 8.96669 8.04674 8.96719 8.06709 8.98441C8.58463 9.42437 6.92645 9.42052 7.47104 8.98371Z" fill="#DAC110"/>
</svg>
