<svg width="1855" height="873" viewBox="0 0 1855 873" fill="none" xmlns="http://www.w3.org/2000/svg">
<path d="M468.789 -15.3553C468.773 -15.3447 468.757 -15.3342 468.741 -15.3237C418.9 17.7483 377.837 20.3544 328.097 39.1822C300.893 49.5271 271.711 61.5293 243.555 74.9125C208.088 92.0082 175.388 110.378 152.767 134.473C132.088 156.141 130.438 159.997 125.429 184.617C123.229 197.281 125.52 216.595 130.818 229.691C134.538 239.362 139.753 247.768 146.568 255.07C172.188 282.28 233.926 306.149 292.586 328.892C303.056 333.036 313.471 337.271 323.929 341.694C328.447 343.605 330.656 345.968 332.733 346.868C352.039 355.05 385.587 369.616 404.437 380.489C408.882 382.988 413.658 385.729 418.64 388.66C456.743 411.181 507.784 443.62 539.775 479.226C540.66 480.235 541.519 481.236 542.335 482.207C555.707 498.39 564.872 511.82 566.42 518.972C569.913 523.935 574.09 524.838 575.139 525.997C575.148 526.012 575.156 526.028 575.164 526.044C578.538 529.806 584.338 540.945 586.064 543.038C586.323 543.35 586.462 540.128 589.91 545.76C590.226 546.268 588.768 546.652 592.086 551.084C592.937 552.26 605.73 565.487 609.036 569.426C613.999 575.443 621.663 585.442 629.992 595.817C639.832 608.153 650.726 620.695 658.158 628.177C660.24 630.29 662.013 630.914 664.209 633.053C665.368 634.181 666.441 636.445 666.81 636.791C668.371 638.29 677.859 641.597 670.071 645.174C677.589 651.336 677.185 647.373 678.483 646.279C686.321 652.852 687.743 658.599 692.168 657.061C696.213 660.27 700.241 663.235 703.937 665.69C703.804 667.156 722.453 671.329 743.639 670.105C765.208 669.469 789.952 666.537 817.757 665.388C823.501 665.146 828.946 665.359 834.053 665.847C834.142 665.209 834.231 664.57 834.321 663.932C863.304 670.25 869.586 669.907 880.074 677.134C887.11 678.817 893.542 680.484 899.48 681.928C912.199 687.21 922.795 691.236 930.012 692.83C934.453 693.949 946.813 695.486 958.122 697.903C969.435 700.253 979.759 702.918 989.842 705.673C1039.57 719.625 1085.95 733.58 1130.86 742.267C1166.46 749.082 1200.87 751.703 1230.93 746.965C1254.1 743.397 1269.61 736.212 1292.34 720.923C1294.27 719.615 1296.27 718.232 1298.28 716.817C1303.13 713.39 1305.12 713.672 1313.49 707.526C1322.78 700.708 1335.34 689.169 1349.07 679.32C1361.01 670.734 1380.46 658.905 1397.53 649.924C1397.58 649.898 1397.63 649.873 1397.68 649.848C1401.54 647.795 1404.03 645.578 1404.48 645.356C1407.14 644.057 1407.88 645.225 1410.48 644.016C1413.61 642.573 1417.03 639.909 1420.83 638.39C1434.94 632.552 1451.56 627.869 1453.49 627.493C1462.83 625.399 1465.15 626.508 1465.91 626.346C1476.25 624.713 1472.19 624.243 1474.78 623.901C1488.22 622.471 1497.59 624.771 1514.57 621.986C1514.09 623.103 1513.62 624.221 1513.15 625.34C1525.92 626.209 1517.55 623.071 1520.18 622.587C1520.64 622.513 1526.09 622.698 1532.07 623.147C1539.93 623.707 1548.73 624.774 1549.87 624.934C1556.79 625.9 1556.74 627.441 1557.34 627.527C1558.8 627.698 1576.13 628.425 1584.34 631.264C1594.08 634.569 1581.78 635.457 1584.16 636.463C1584.58 636.614 1595.02 638.223 1596.2 639.442C1597.53 640.733 1588.63 639.017 1588.68 639.475C1588.75 639.751 1603.07 644.692 1599.95 645.537C1597.47 646.419 1577.8 640.929 1573.3 640.981C1572.57 640.977 1573.63 642.925 1572.99 642.888C1571.2 642.703 1546.62 639.11 1531.1 638.214C1524.99 637.785 1520.39 637.602 1519.75 637.497C1522.4 636.78 1525.05 636.095 1527.71 635.439C1524.24 635.168 1520.74 634.947 1517.19 634.786C1521.97 634.288 1526.7 633.9 1531.39 633.597C1531.67 633.579 1531.94 633.562 1532.22 633.544C1531.98 633.297 1531.72 633.065 1531.44 632.848C1523.83 626.637 1501.83 632.939 1501.11 636.332C1500.85 637.819 1514.66 641.456 1501.93 644.017C1503.89 644.342 1505.84 644.691 1507.75 645.06C1511.7 644.377 1515.62 643.783 1519.54 643.263C1516.96 642.779 1514.35 642.327 1511.71 641.912C1512.68 641.459 1513.66 641.011 1514.64 640.568C1520.16 640.102 1525.61 639.792 1531.01 639.596C1532.86 639.527 1534.77 639.476 1536.61 639.434C1540.28 640.075 1539.39 641.358 1541.88 641.848C1572.41 648.594 1552.82 642.039 1572.65 645.508C1575.35 646.674 1578.04 647.857 1580.68 649.053C1580.21 645.934 1588.56 649.255 1599.09 650.062C1597.67 650.767 1596.25 651.473 1594.83 652.184C1609.97 654.482 1638.26 666.308 1631.55 659.212C1634.77 660.451 1637.98 661.704 1641.19 662.97C1644.19 662.812 1647.2 662.667 1650.21 662.529C1654.04 663.609 1657.85 664.701 1661.67 665.81C1661.56 666.273 1661.46 666.736 1661.36 667.199C1658.29 666.394 1655.24 665.602 1652.17 664.818C1654.11 666.806 1656.05 668.801 1657.97 670.795C1660.29 671.155 1662.58 671.512 1664.9 671.881C1655.82 668.064 1668.82 669.192 1672.33 668.179C1677.05 669.029 1680.51 670.671 1683.1 672.063C1684.96 673.062 1686.37 673.932 1687.47 674.287C1688.69 674.672 1704.52 674.62 1697.47 677.607C1705.14 679.181 1712.79 680.787 1720.43 682.415C1723.25 683.624 1726.06 684.835 1728.87 686.049C1721.92 686.324 1739.46 694.32 1725.72 691.22C1715.45 688.92 1713.53 686.197 1708.74 684.821C1704.4 683.58 1701.72 684.274 1696.99 682.991C1691.6 681.529 1686.37 680.109 1681.26 678.729C1656.11 671.961 1633.79 665.886 1607.85 659.757C1601.67 658.304 1595.86 657.842 1591.67 656.937C1586.93 655.919 1593.23 655.314 1587.08 654.595C1580.59 653.863 1578.94 655.064 1577.25 654.8C1576.18 654.634 1573.05 652.795 1569.93 652.308C1557.2 650.19 1537.79 649.525 1535.89 649.451C1535.45 649.413 1533.38 649.187 1530.4 648.906C1519.54 647.542 1494.82 647.364 1493.2 647.587C1492.19 647.573 1493.89 642.524 1485.47 648.48C1482.72 648.871 1479.96 649.32 1477.2 649.828C1477.51 648.816 1477.82 647.804 1478.14 646.792C1462.15 653.143 1467.49 649.946 1451.82 654.357C1438.65 658.385 1423.83 664.528 1409.7 672.256C1384.05 686.289 1360.73 703.748 1342.32 717.634C1335.99 722.444 1334.26 725.18 1326.91 730.695C1322.2 734.241 1311.46 739.967 1307.44 743.274C1305.57 744.826 1305.07 745.97 1307.07 746.417C1290.03 752.679 1291.19 759.752 1281.66 759.788C1281.04 760.814 1280.44 761.826 1279.8 762.843C1270.52 764.122 1269.13 767.343 1260.03 770.665C1256.07 771.987 1259.95 767.909 1252.67 773.236C1251.04 773.399 1249.4 773.537 1247.76 773.651C1247.98 772.878 1248.19 772.105 1248.39 771.332C1239.36 773.885 1238.51 773.437 1240.08 775.904C1238.48 776.013 1236.87 776.103 1235.24 776.178C1232.09 776.322 1228.93 776.397 1225.77 776.406C1225.27 777.333 1224.76 778.258 1224.25 779.181C1224.71 779.44 1228.97 779.252 1235.56 778.343C1254.4 776.706 1286.21 764.339 1309.61 746.489C1322.62 737.19 1333.36 728.522 1337.15 725.459C1353.96 715.246 1385.91 688.705 1401.86 680.285C1405.48 678.269 1408.31 677.492 1411.87 676.258C1414.42 675.378 1417.3 674.283 1421.26 672.444C1430.76 667.927 1442.9 661.455 1448.51 659.704C1467.55 648.906 1556.04 650.728 1496.29 653.669C1498.07 654.524 1499.83 655.4 1501.56 656.296C1522.25 653.037 1517.98 654.588 1529.96 655.701C1531.47 655.87 1533.27 656.056 1535.37 656.262C1543.28 656.916 1562.03 657.217 1560.36 661.434C1550.25 660.582 1539.73 658.909 1529.82 657.936C1525.66 657.525 1521.61 657.231 1517.79 657.149C1516.51 657.048 1501.14 658.93 1493.08 659.149C1485.84 659.365 1490.23 654.37 1475.02 661.371C1462.36 658.953 1456.42 665.132 1453.62 666.397C1448.65 668.723 1447.39 666.777 1442.13 668.4C1436.43 670.207 1433.3 673.233 1432.56 673.555C1429.77 674.767 1422.62 678.045 1415.09 682.163C1402.66 688.861 1389.57 697.56 1388.32 697.709C1389.42 696.492 1390.53 695.284 1391.65 694.071C1382.68 699.232 1385.81 699.968 1383.74 701.699C1382.09 702.819 1380.45 703.947 1378.82 705.078C1379.19 704.236 1379.56 703.394 1379.94 702.553C1370.2 709.528 1378.55 705.575 1364.9 715.402C1356.29 721.664 1346.54 726.697 1345.8 727.407C1345.59 727.617 1348.96 726.634 1345.64 729.312C1340.13 733.769 1330.42 740.884 1328.36 740.299C1325.78 742.468 1326.95 743.628 1326.62 743.92C1325.97 744.461 1320.46 748.654 1314.1 753.134C1305.82 759.037 1295.91 765.072 1293.1 766.621C1279.39 774.546 1263.59 780.379 1247.1 783.91C1245.4 784.277 1246.29 783.036 1244.59 783.398C1243.42 783.646 1240.17 784.565 1236.61 785.454C1231.92 786.646 1226.71 787.752 1225.46 787.935C1220.04 788.875 1205.48 788.818 1203.19 789.229C1202.85 789.301 1207.7 790.657 1202.06 791.162C1195.78 791.66 1199.17 789.743 1198.83 789.729C1186.11 788.981 1177.96 789.683 1169.13 789.142C1166.28 788.963 1161.19 786.978 1157.12 786.889C1156.66 786.879 1157.4 788.307 1156.94 788.316C1150.77 788.247 1145.42 784.942 1142.85 784.372C1136.5 782.953 1139.7 785.304 1139.36 785.265C1135.09 784.618 1129.5 782.978 1123.04 781.777C1123 781.769 1122.95 781.76 1122.91 781.752C1093.82 776.269 1070 770.085 1039.11 761.434C1035.24 760.345 1030.97 757.816 1030.37 757.645C1028.53 757.137 1028.65 758.737 1023.34 757.202C1012.14 753.958 1001.71 751.036 990.507 747.865C988.249 747.227 987.655 745.615 985.932 745.107C984.507 744.69 982.181 744.257 979.53 743.8C971.183 742.302 959.143 740.72 959.632 737.339C946.836 738.51 938.688 733.781 929.62 732.445C927.108 732.059 924.624 731.653 922.045 731.144C903.399 727.785 876.479 715.303 855.719 708.526C850.77 706.902 848.598 705.164 845.635 704.394C842.636 703.603 830.631 701.139 819.45 701.91C813.131 702.302 807.896 702.747 807.287 702.708C804.459 702.566 805.659 697.274 791.615 702.897C783.249 703.919 784.084 701.744 782.345 701.777C768.86 702.12 756.563 707.677 758.634 703.215C743.618 705.423 734.076 707.847 728.321 703.709C728.406 705.656 721.47 706.805 713.845 705.231C722.185 702.569 720.729 700.929 740.979 701.223C741.301 701.224 740.727 702.66 741.05 702.66C743.998 702.68 750.129 701.697 755.277 701.441C760.434 701.183 757.638 702.337 759.703 702.178C761.599 702.024 761.444 700.676 764.195 700.45C773.142 699.716 781.221 698.618 786.475 698.152C789.784 697.857 793.616 698.735 796.22 698.528C801.566 698.098 810.152 697.165 819.2 696.517C829.973 695.808 839.867 697.395 846.775 699.062C849.823 699.841 848.32 700.762 854.667 702.669C855.391 702.9 858.539 702.33 863.919 703.846C869.278 705.368 872.904 707.486 876.109 708.55C878.767 709.442 878.165 707.872 883.457 709.855C886.762 711.009 910.938 721.572 923.495 724.171C928.993 725.445 934.14 726.23 934.989 726.443C939.067 727.352 940.93 729.42 943.59 729.664C944.065 729.701 945.137 728.178 946.808 728.362C956.046 729.348 968.548 732.056 981.723 735.692C1007.23 742.791 1036.14 752.297 1054.28 757.149C1078.35 763.665 1101.68 769.407 1124.63 773.731C1156.08 779.572 1187.49 782.808 1219.03 780.312C1219.99 779.948 1220.93 779.579 1221.87 779.205C1216.4 779.664 1210.87 779.935 1205.32 780.031C1205.27 779.24 1205.22 778.449 1205.17 777.659C1197.7 777.633 1198.67 779.434 1198.89 780.581C1196.08 780.09 1193.3 779.558 1190.51 778.987C1188.02 781.782 1169.19 778.788 1159.4 777.44C1153.02 776.672 1145.28 776.556 1141.9 775.912C1134.78 774.559 1135.29 772.877 1134.72 772.759C1134.12 772.626 1129.88 772.464 1124.99 771.925C1122.13 771.613 1119.02 771.17 1116.34 770.578C1105.65 768.175 1105.11 765.402 1089.88 763.998C1071.34 758.059 1050.23 753.012 1029.67 747.44C1034.22 746.22 1015.23 743.221 1006.87 740.799C999.009 738.533 990.815 736.145 982.248 733.75C964.702 728.464 939.404 723.762 924.142 721.058C900.778 716.116 874.788 699.295 839.489 692.261C831.536 690.843 824.552 689.458 818.875 689.502C818.366 689.497 817.878 689.506 817.41 689.535C815.202 689.67 814.319 691.396 811.284 691.356C810.758 691.349 810.258 689.789 804.654 689.941C790.449 690.323 757.975 695.96 750.161 693.172C725.434 695.011 700.886 693.499 690.469 686.48C677.234 678.092 663.696 666.856 650.916 654.924C650.589 653.725 650.245 652.505 649.937 651.312C641.894 648.305 621.601 624.271 611.197 611.636C610.961 611.358 610.73 611.087 610.503 610.822C591.881 589.26 569.067 560.56 553.617 539.758C550.245 535.247 548.223 530.958 544.95 526.625C543.553 524.777 540.829 523.167 539.318 521.195C533.867 514.135 527.893 506.113 520.075 497.274C502.891 478.487 484.541 464.239 468.808 452.859C447.65 437.787 426.477 424.518 405.057 412.015C373.084 393.23 339.195 377.504 304.279 363.434C297.034 360.506 289.782 357.652 282.535 354.859C223.457 332.032 161.06 311.233 125.015 275.552C101.156 251.427 90.2863 212.206 95.74 179.161C100.543 150.906 110.06 134.831 131.792 113.462C158.131 86.0897 193.289 66.6904 230.617 48.361C246.22 40.7968 262.265 33.549 278.472 26.4579C280.967 25.3684 281.402 26.691 283.347 25.8472C294.823 20.8461 320.162 8.79452 333.337 3.38609C343.807 -0.947308 361.277 -5.85064 364.077 -9.29931C325.549 3.04154 286.322 19.7035 248.331 36.2706C245.606 37.4646 244.731 36.4229 244.389 36.555C238.188 38.9619 242.683 38.8285 234.024 43.052C233.377 43.37 231.449 44.0715 228.969 44.9771C220.068 48.1794 203.89 54.5808 207.862 56.1957C200.456 57.5455 157.91 82.0552 151.887 88.6309C149.803 90.4508 152.111 90.2371 151.716 90.6212C150.045 92.2674 148.142 91.5991 146.482 92.8918C141.959 96.2608 132.57 106.906 130.539 109.032C130.092 109.473 129.54 110.001 128.92 110.585C122.946 116.054 111.564 126.975 108.167 132.632C104.59 138.366 106.816 138.256 104.213 143.133C102.346 147.086 102.966 141.928 98.4971 150.874C96.0837 155.063 92.3711 173.295 91.7202 178.423C91.7159 178.446 91.7117 178.47 91.7074 178.493C90.9977 182.404 89.3497 187.084 89.2465 193.235C88.7336 202.054 91.6648 221.563 94.7094 230.016C94.868 230.528 96.5571 231.421 96.9009 232.665C97.6333 235.259 95.7642 235.017 96.2422 237.028C95.5843 239.66 112.292 271.048 117.428 274.699C118.935 276.469 120.437 277.636 121.77 278.636C122.789 279.388 123.701 280.028 124.411 280.734C125.678 281.987 124.815 283.139 126.173 284.424C126.611 284.836 131.029 287.196 135.003 290.345C138.449 293.448 153.636 304.915 155.742 305.985C156.994 306.736 156.12 305.053 159.844 307.264C163.238 309.262 164.913 311.688 166.902 312.795C171.555 315.379 177.372 317.108 182.504 319.611C197.337 326.729 196.055 327.716 196.907 328.208C199.377 329.48 201.006 328.56 201.851 328.899C205.409 330.35 214.236 333.806 217.47 335.068C221.481 336.649 222.639 338.657 226.921 340.387C230.107 341.669 237.087 342.952 244.489 345.744C255.665 349.964 268.48 354.621 280.812 359.311C286.895 361.627 292.82 363.944 298.34 366.178C303.317 368.195 303.622 369.729 305.116 370.373C313.086 373.824 318.112 374.389 320.409 375.382C336.717 382.293 364.714 397.93 379.231 406.094C382.438 407.842 391.685 412.504 401.581 417.993C409.965 422.622 418.916 427.818 425.356 431.927C426.96 432.947 424.915 432.873 426.785 433.851C431.26 436.203 431.993 434.225 434.107 435.641C435.149 436.347 436.89 438.842 439.87 440.918C455.256 451.647 466.324 458.519 473.28 463.75C487.818 474.828 501.952 486.044 515.894 501.104C550.488 542.7 574.899 581.525 605.072 616.791C613.029 626.321 621.123 635.478 629.341 644.167C634.825 649.954 642.534 656.065 650.406 664.995C650.237 665.715 650.068 666.435 649.9 667.155C650.634 666.972 651.358 666.777 652.095 666.594C662.262 675.294 666.588 677.94 676.617 686.516C677.468 687.236 678.582 691.67 682.397 689.858C683.937 691.474 685.114 692.605 685.993 693.389C689.039 696.197 687.726 693.502 692.975 695.68C699.55 698.175 707.435 700.598 716.203 701.593C720.863 703.551 700.458 703.969 699.512 703.176C697.563 702.659 696.182 700.338 694.584 699.667C689.774 697.708 685.213 696.588 685.237 694.655C685.219 694.65 685.201 694.645 685.183 694.64C679.665 692.466 682.825 694.44 684.337 695.947C684.733 696.399 684.965 696.822 684.564 697.069C684.358 696.893 684.154 696.715 683.954 696.536C679.993 693.258 676.067 689.714 672.228 686.03C666.485 688.795 646.703 662.377 645.829 666.651C644.494 664.307 643.177 661.945 641.889 659.581C630.293 655.244 627.982 647.883 618.862 635.677C619.111 636.906 619.4 638.174 619.667 639.414C619.22 639.377 609.476 630.016 614.726 631.795C606.181 626.048 606.387 622.559 602.925 618.598C601.562 617.027 599.686 615.417 596.5 613.467C591.35 608.069 596.096 609.969 587.692 599.602C582.727 593.443 575.639 586.509 570.165 579.495C568.9 577.868 569.525 576.287 568.426 574.84C567.316 573.379 565.642 573.533 564.288 571.799C561.462 568.187 558.718 562.844 556.925 560.598C555.327 558.591 552.12 556.386 548.258 551.504C534.743 534.428 540.038 538.584 538.476 535.46C536.737 532.06 533.286 531.369 528.89 525.178C528.447 524.554 530.822 525.221 529.261 523.289C528.007 521.752 526.161 521.927 521.728 516.86C521.047 516.115 517.181 511.267 511.492 505.137C501.491 494.366 487.544 483.268 484.373 480.727C476.895 474.586 460.493 460.852 452.3 455.351C449.167 453.199 445.057 451.981 441.741 449.776C430.818 442.454 413.12 431.313 398.719 422.913C398.531 422.803 398.343 422.693 398.156 422.584C385.143 414.772 362.485 399.857 353.791 398.651C334.353 389.74 330.448 385.893 328.983 385.161C325.053 383.349 322.604 383.868 317.576 381.801C305.098 376.674 291.844 371.439 278.148 366.192C220.634 344.481 154.472 319.689 120.539 287.045C119.267 285.831 118.01 284.577 116.825 283.335C90.4803 256.288 78.7133 214.19 84.7884 177.149C89.4602 147.754 101.725 127.02 123.94 105.597C151.626 76.8792 187.999 56.878 225.718 38.3048C254.412 24.3954 284.168 11.5381 313.995 -0.964552C314.119 -1.71634 314.244 -2.46816 314.37 -3.22005C297.618 3.39948 277.765 10.7488 261.487 17.7793C250.404 22.5594 236.935 29.4176 224.397 35.5943C212.274 41.5499 201.019 46.9346 192.637 49.0886C198.522 45.3879 209.41 41.6642 208.179 39.7643C197.06 45.2869 185.976 51.1412 175.301 57.341C176.156 58.0469 177.012 58.7536 177.867 59.4612C166.983 66.2925 155.988 73.2092 146.096 80.9755C144.38 82.3274 146.175 82.1391 144.691 83.3004C143.051 84.5933 143.566 82.9609 143.252 83.1979C139.042 86.5293 138.473 88.349 137.967 88.7459C136.698 89.7827 137.035 88.2272 133.247 91.2061C126.242 96.7819 123.378 103.29 122.008 98.82C121.204 99.6105 120.382 100.427 119.579 101.228C118.257 102.548 116.977 103.843 115.699 105.158C115.976 106.481 116.244 107.816 116.532 109.136C100.73 119.267 102.932 130.159 92.9582 134.67C92.2708 137.803 91.7576 140.918 91.3986 144.025C89.6827 145.088 87.9812 146.224 86.2948 147.437C87.0624 148.11 87.8349 148.775 88.6134 149.428C85.0462 157.571 82.8561 166.935 81.3196 176.511C80.1718 183.769 79.9061 191.451 79.9633 198.669C80.233 209.768 80.2301 212.522 81.9706 222.253C87.1179 243.684 79.7529 222.785 82.9749 241.252C83.7868 239.961 84.6123 238.677 85.457 237.42C86.767 240.186 88.1593 242.872 89.6412 245.501C89.4922 247.779 89.4158 250.103 89.3931 252.417C97.7165 258.812 97.3176 265.524 98.0067 266.708C98.6466 267.576 102.595 268.991 107.331 279.071C107.665 273.029 112.615 285.393 113.51 286.13C113.546 286.169 113.607 286.231 113.691 286.313C115.022 287.799 124.015 295.102 127.955 298.107C131.09 300.699 137.767 306.655 143.119 310.021C147.844 313.009 148.106 311.476 148.457 311.688C154.386 315.164 150.124 313.856 154.403 316.442C158.697 319.002 162.71 319.817 163.605 320.424C164.06 320.734 161.829 321.006 163.978 322.307C169.732 325.831 181.232 330.265 188.311 333.533C190.812 334.702 193.545 337.148 196.365 338.432C200.693 340.398 203.316 339.928 205.838 341.054C206.71 341.447 211.482 345.941 218.734 348.513C220.12 349.001 225.847 346.167 228.672 354.569C229.433 353.845 230.193 353.12 230.953 352.395C255.875 359.609 259.984 369.314 273.311 367.099C274.806 367.744 276.067 368.315 277.13 368.823C288.699 374.368 277.799 372.562 279.453 373.609C280.599 374.33 286.661 375.923 287.298 376.224C288.399 376.748 287.889 377.47 289.12 377.955C311.744 386.894 302.355 381.396 309.881 383.377C327.85 388.312 338.852 399.034 310.054 384.918C309.869 385.36 309.683 385.802 309.498 386.244C316.968 388.804 335.166 397.114 328.077 396.636C322.58 396.011 279.439 376.973 303.109 389.59C308.453 392.472 312.084 392.012 320.378 399.293C326.646 402.247 329.348 398.642 337.203 404.173C336.432 402.138 335.655 400.105 334.869 398.074C347.477 401.581 360.708 411.058 369.887 414.945C373.005 416.211 387.256 415.712 381.248 420.716C383.547 421.748 389.294 425.113 395.291 428.807C402.84 433.439 410.852 438.594 413.404 439.736C414.499 440.258 417.878 437.617 431.798 448.123C432.527 449.17 433.301 450.25 434.042 451.311C420.014 443.893 442.621 460.306 434.245 459.233C433.041 456.428 423.076 448.822 421.799 447.068C419.633 444.027 429.322 447.909 417.963 441.411C407.76 442.282 429.153 452.321 422.969 455.353C438.722 462.256 438.653 465.523 441.787 467.751C455.064 477.419 463.831 483.052 475.511 493.327C479.346 494.681 458.052 475.966 454.798 474.534C467.74 478.676 449.832 465.379 440.602 462.329C440.671 460.829 440.731 459.324 440.782 457.816C450.549 465.195 460.103 472.38 470.425 478.931C470.767 479.795 471.118 480.669 471.45 481.531C468.824 480.416 466.221 479.351 463.631 478.321C470.927 485.326 468.483 478.646 476.982 489.569C478.21 488.704 479.456 487.855 480.694 487.001C489.147 494.439 497.401 502.144 505.058 511.032C506.242 512.422 507.422 513.856 508.568 515.287C515.517 518.606 529.664 539.071 523.891 537.687C529.637 545.771 523.884 534.782 530.188 541.676C532.929 544.681 537.715 550.956 538.043 553.094C534.699 554.574 527.307 545.342 523.207 543.972C523.921 546.213 558.478 588.497 552.333 587.065C554.564 590.822 555.07 587.96 560.288 593.843C569.043 603.719 579.033 618.143 589.23 630.124C596.063 638.178 602.977 645.057 609.339 648.825C602.13 638.229 597.132 633.081 591.872 627.901C588.553 624.613 585.194 621.354 581.263 616.609C574.466 609.062 536.681 559.819 548.078 568.596C546.344 567.072 544.575 565.497 542.846 563.972C542.356 561.429 541.911 558.941 541.423 556.394C545.426 561.528 549.425 566.645 553.441 571.734C553.482 573.656 553.503 575.55 553.542 577.465C554.612 577.555 555.683 577.647 556.755 577.739C558.509 579.798 560.301 581.897 562.071 583.955C560.842 583.929 559.614 583.904 558.387 583.879C560.796 587.318 563.245 590.778 565.676 594.183C565.996 592.499 566.332 590.832 566.656 589.148C579.022 604.537 574.284 599.728 579.239 609.803C584.19 616.309 577.411 604.076 588.806 617.043C592.331 621.019 594.132 623.362 595.213 625.089C598.234 629.818 595.243 629.647 608.409 643.49C609.135 643.337 609.859 643.183 610.583 643.026C613.923 647.668 617.329 652.264 620.811 656.807C620.865 655.713 620.92 654.618 620.974 653.521C628.8 662.275 641.448 672.214 642.201 677.069C634.574 667.953 630.927 671.853 632.47 674.758C634.116 677.613 652.399 695.906 674.983 710.386C697.33 724.285 727.14 721.974 735.901 722.157C759.352 721.589 777.34 721.197 798.794 716.844C783.823 715.99 732.73 721.891 723.419 718.95C722.466 718.742 723.05 713.838 716.714 719.026C703.867 717.316 689.229 715.365 676.697 707.74C670.221 703.748 663.715 699.105 657.466 694.016C658.945 693.356 660.446 692.71 661.916 692.035C667.317 698.48 674.539 701.993 678.994 704.194C682.214 705.719 684.027 706.562 682.183 708.461C684.571 709.705 687.059 710.784 689.651 711.729C689.981 710.823 690.311 709.917 690.641 709.01C694.376 710.371 698.329 711.433 702.42 712.255C702.23 713.2 702.041 714.146 701.851 715.091C705.347 715.793 708.888 716.316 712.506 716.709C712.99 715.794 713.457 714.876 713.92 713.956C724.299 717.771 762.419 710.42 745.858 716.932C751.139 716.716 756.432 716.394 761.751 716.015C761.683 715.313 761.616 714.611 761.548 713.909C763.828 713.651 766.096 713.384 768.383 713.109C767.678 713.805 766.973 714.5 766.268 715.194C776.671 713.243 786.989 715.68 793.794 712.911C789.146 712.81 784.509 712.727 779.893 712.636C788.718 712.78 804.93 709.571 806.432 709.497C810.924 709.179 813.389 710.448 818.293 710.27C818.896 710.248 819.403 710.211 819.833 710.162C822.964 709.864 822.561 709.105 823.381 709.128C850.189 712.523 837.941 717.943 851.357 713.74C852.29 715.01 853.18 716.283 854.054 717.562C855.845 717.285 857.621 717.026 859.416 716.79C866.23 719.184 872.781 721.818 879.207 724.417C877.493 722.458 875.762 720.494 873.994 718.53C884.029 721.851 887.485 725.815 888.411 726.222C890.969 727.363 892.688 726.399 893.486 726.698C925.947 738.193 913.219 734.155 920.179 740.117C921.379 741.026 923.152 742.121 925.929 743.41C933.544 742.369 926.491 739.008 925.961 736.606C935.086 739.19 938.844 738.895 949.545 741.151C952.353 741.749 955.066 743.592 956.806 744.003C958.336 744.357 963.311 744.185 966.895 745.082C970.235 745.909 974.103 747.16 978.258 748.5C981.506 749.549 984.959 750.655 988.498 751.635C995.133 753.453 1015.53 758.342 1029.52 762.263C1035.5 763.938 1033.82 764.593 1035.37 765.028C1036.01 765.205 1041.01 765.25 1044.85 766.3C1070.39 773.28 1096.36 780.606 1122.22 785.943C1127.99 787.128 1133.77 788.202 1139.53 789.141C1161.78 792.764 1184.57 793.863 1206.63 793.451C1211.33 793.347 1208.87 794.368 1210.93 794.331C1211.64 794.294 1212.42 792.68 1219.67 792.858C1222.31 792.901 1219.39 794.293 1221.97 794.149C1223.21 794.056 1223.65 792.642 1230.85 791.489C1233.21 791.096 1235.39 790.775 1237.36 790.515C1246.26 789.326 1251.24 789.423 1252.18 789.182C1254.29 788.579 1253.4 787.558 1256.18 786.819C1269.79 783.115 1280.49 778.475 1291.72 772.509C1294.58 771.059 1306.51 764.258 1316.81 757.138C1325.41 751.28 1333.1 745.588 1334.04 745.039C1338.61 742.291 1336.11 747.256 1341.57 743.125C1342.73 741.475 1343.9 739.81 1345.06 738.153C1342.32 739.584 1339.58 741.017 1336.85 742.421C1344.06 738.123 1351.05 731.453 1356.12 727.742C1357.06 727.055 1366.34 721.594 1370.73 718.264C1369.12 720.022 1367.51 721.782 1365.92 723.542C1366.82 723.38 1367.72 723.218 1368.63 723.058C1377.1 716.093 1386.61 709.32 1396.21 703.111C1399.68 700.878 1399.04 702.458 1402.58 700.242C1411.67 694.621 1415.6 691.649 1419.08 689.494C1423.56 686.843 1427.42 685.187 1441.35 683.985C1437.47 685.158 1428.9 689.067 1421.23 693.436C1413.7 697.67 1406.98 702.122 1405.17 703.112C1402.64 704.449 1389.68 705.284 1396.8 708.534C1377.78 721.494 1392.09 707.087 1375.03 720.184C1375.86 720.59 1376.68 720.997 1377.5 721.405C1371.74 726.19 1367.58 729.787 1363.09 731.326C1364.19 735.36 1342.69 748.689 1331.71 756.825C1328.42 759.267 1325.05 761.756 1321.6 764.226C1308.38 773.729 1293.86 782.887 1279.68 788.691C1273.52 791.225 1269.44 790.861 1268.67 791.132C1267.54 791.521 1264.68 793.824 1262.33 794.482C1257.72 795.836 1247.89 797.509 1238.58 798.786C1230.28 799.986 1222.46 801.036 1219.29 803.019C1225.84 802.571 1232.4 801.877 1238.89 800.919C1269.42 796.949 1297.71 783.9 1323.05 766.385C1337.6 756.523 1351.66 745.755 1365.91 735.213C1359.02 737.736 1404.65 704.676 1407.65 703.789C1409.95 702.453 1408.73 704.735 1409.45 704.385C1414.72 701.767 1418.15 697.653 1419.81 696.732C1420.36 696.421 1421.25 696.122 1422.45 695.685C1423.99 695.123 1426.01 694.345 1428.54 693.051C1429.37 692.631 1429.19 691.676 1430.1 691.226C1436.09 688.275 1442.19 685.649 1448.52 683.335C1448.91 683.2 1450.96 683.907 1452.56 683.368C1454.16 682.824 1455.35 681.023 1455.76 680.889C1460.9 679.221 1470.09 677.865 1475.1 677.001C1476.84 676.682 1475.46 675.917 1477.42 675.585C1483.48 674.646 1481.75 676.82 1489.14 675.469C1491.62 675.058 1491.33 673.553 1496.18 673.406C1499.61 673.332 1499.37 676.026 1499.92 676.091C1500.62 676.102 1512.32 673.752 1516.11 675.66C1507.76 680.07 1525.13 676.137 1524.46 674.27C1525.88 674.493 1527.29 674.726 1528.72 674.969C1531.87 675.511 1535.05 676.103 1538.18 676.732C1539.8 676.389 1541.4 676.056 1543.03 675.734C1561.29 679.984 1572.6 680.575 1590.4 684.728C1591.26 684.893 1606.07 689.128 1605.2 689.675C1595.99 688.868 1587.04 687.149 1581.67 683.927C1571.41 686.344 1571.87 682.91 1556.34 681.219C1551.13 680.699 1550.63 681.805 1550.03 681.74C1543.7 681.131 1536.15 680.514 1528.39 680.06C1511.4 678.916 1493.42 679.348 1483.79 678.508C1480.11 679.854 1493.82 678.583 1488.58 679.851C1487.15 680.1 1469.09 682.695 1454.85 687.546C1440.6 692.174 1429.65 697.25 1439.06 690.689C1436.96 691.731 1434.87 692.813 1432.81 693.932C1432.46 696.611 1428.18 699.346 1424.91 700.202C1423 700.69 1421.4 700.503 1421.18 699.097C1420.56 700.285 1419.98 701.461 1419.4 702.649C1417.82 704.276 1415.8 705.853 1412.84 707.901C1400.91 714.665 1334.91 763.46 1331.27 765.971C1331.68 766.726 1332.08 767.484 1332.49 768.24C1362.92 748.147 1388.7 723.366 1423.68 705.978C1422.32 705.832 1420.94 705.703 1419.55 705.587C1421.74 704.508 1423.94 703.465 1426.15 702.465C1438.11 697.015 1450.46 692.752 1463.03 690.174C1453.2 693.864 1440.18 699.996 1428.43 706.654C1422.11 710.18 1416.05 713.747 1410.79 716.627C1408.1 718.104 1409.38 715.952 1408.71 716.22C1406.98 716.929 1406.37 719.603 1401 723.465C1395.62 727.278 1381.24 735.959 1380.03 736.928C1377.68 738.74 1372.55 745.281 1368.47 748.289C1363.1 752.238 1365.86 748.472 1364.77 749.248C1360.25 752.449 1356.66 755.971 1353.1 758.481C1347.8 762.24 1335.47 768.169 1333.68 773.661C1337.64 771.122 1341.54 768.538 1345.4 765.935C1340.32 770.029 1335.21 773.575 1330.08 776.787C1315.26 785.996 1300.82 792.64 1283.95 802.195C1279.92 808.452 1300.12 799.621 1283.5 808.308C1286.66 807.041 1289.78 805.688 1292.85 804.261C1293.22 803.118 1293.56 801.978 1293.9 800.837C1299.39 799.028 1304.79 796.987 1310.1 794.763C1308.27 794.863 1306.48 794.93 1304.66 794.986C1314.51 789.392 1323.69 783.051 1331.25 778.509C1337.15 774.96 1342.09 772.518 1345.61 772.312C1345.33 771.235 1345.04 770.159 1344.76 769.082C1360.1 759.538 1378.54 740.136 1378.04 747.764C1378.53 747.022 1379.01 746.283 1379.5 745.543C1388.73 740.226 1383.68 740.98 1386.73 738.42C1387.6 737.619 1404.98 726.916 1398.58 733.503C1415.55 723.402 1407.59 722.454 1412.01 719.241C1417.85 717.011 1424.88 712.454 1429.99 709.531C1435.44 706.412 1438.58 704.926 1435.34 708.985C1437.01 708.305 1438.7 707.643 1440.39 707.016C1444.33 701.45 1451.29 702.604 1457.52 701.767C1459.54 701.143 1461.57 700.566 1463.6 700.034C1464.62 698.555 1465.68 697.088 1466.78 695.632C1487.3 696.269 1479.06 683.568 1489.8 694.361C1488.47 695.247 1487.15 696.151 1485.87 697.069C1482.63 697.87 1479.45 698.773 1476.32 699.78C1489.29 697.401 1502.71 696.875 1516.54 697.558C1520.35 698.409 1523.81 698.992 1527.13 699.415C1538.88 700.968 1548.76 700.235 1564.02 704.801C1565.94 704.78 1567.87 704.771 1569.79 704.771C1567.41 707.188 1560.27 705.526 1573.52 709.093C1574.31 711.221 1565.22 709.869 1561.34 707.761C1560.39 707.238 1569.12 707.096 1559.58 705.544C1553.13 704.588 1564.47 708.445 1545.32 705.054C1545.97 705.615 1546.62 706.178 1547.28 706.743C1545.2 706.469 1543.12 706.211 1541.06 705.973C1539.32 704.669 1537.61 703.38 1535.85 702.103C1532.82 702.822 1530.57 703.873 1526.82 704.313C1524.48 704.587 1521.6 704.63 1517.59 704.322C1520.47 703.735 1516.64 701.315 1511.41 701.329C1511.41 702.131 1511.4 702.934 1511.4 703.737C1499.06 704.408 1503.15 701.927 1493.26 704.526C1492.21 703.987 1491.15 703.458 1490.08 702.939C1484.73 705.804 1466.62 712.052 1468.97 707.506C1464.68 712.538 1453.61 714.835 1448.24 713.995C1448.25 714.863 1448.27 715.729 1448.29 716.595C1446.23 717.71 1444.19 718.876 1442.14 720.09C1440.75 720.253 1439.34 720.445 1437.94 720.647C1437.53 721.044 1437.11 721.443 1436.7 721.846C1435.85 722.683 1434.98 723.535 1434.13 724.394C1432.83 724.208 1431.52 724.039 1430.2 723.885C1428.25 726.131 1426.31 728.43 1424.4 730.75C1422.58 731.137 1420.76 731.537 1418.91 731.968C1419.66 733.377 1405.18 743.581 1400.42 745.738C1399.47 747.008 1398.52 748.285 1397.58 749.563C1396.51 749.351 1395.45 749.143 1394.38 748.936C1393.83 750.115 1393.29 751.296 1392.75 752.479C1390.26 753.507 1387.77 754.553 1385.26 755.61C1378.91 765.16 1376.57 762.66 1374.59 764.164C1370.95 766.942 1359.57 778.418 1357.25 779.922C1354.99 781.407 1353.09 781.053 1351.23 782.223C1346.06 785.472 1342.05 787.998 1338.99 789.974C1323.57 799.693 1333.03 796.633 1327.94 800.462C1324.56 802.918 1321.32 803.316 1318.16 805.281C1313.3 809.12 1283.13 824.215 1280.85 824.077C1278.09 824.713 1282.42 816.89 1274.31 821.115C1275.01 824.572 1255.36 826.045 1265.25 828.345C1257.89 829.775 1250.59 830.771 1243.4 831.452C1242.86 831.503 1242.32 831.553 1241.77 831.601C1243.2 835.345 1233.33 834.283 1223.05 835.226C1208.44 837.093 1175.8 838.321 1177.31 834.179C1173.87 834.885 1170.37 835.543 1166.9 836.16C1148.79 833.547 1131.23 831.423 1113.83 828.323C1109.04 827.468 1104.26 826.537 1099.53 825.511C1055.1 815.871 1009.81 801.764 967.178 789.465C948.04 783.914 935.447 781.667 912.401 777.519C911.362 777.292 910.333 777.055 909.312 776.81C905.681 775.915 906.528 774.758 904.004 774.071C890.157 770.732 860.582 759.094 847.698 754.423C843.437 752.864 841.864 751.087 840.566 750.641C836.267 749.216 836.904 751.171 835.014 750.651C833.053 750.086 825.987 747.988 821.578 747.801C817.313 747.729 813.314 747.764 810.895 747.87C807.395 748.024 803.324 749.673 799.126 749.599C798.764 749.594 799.316 748.165 799.01 748.165C791.364 748.623 796.053 749.436 793.459 749.589C774.888 750.653 754.398 752.789 731.972 752.5C726.408 752.443 717.715 751.118 712.711 750.551C710.789 750.331 714.178 751.757 707.487 750.954C705.174 750.649 704.583 749.202 701.97 748.723C690.859 746.49 685.464 749.684 676.307 742.604C671.41 740.773 665.525 738.187 659.427 734.399C644.652 725.383 629.255 713.193 620.634 705.398C617.932 702.959 617.17 701.16 614.651 698.821C612.842 697.139 608.892 695.094 606.148 692.419C603.426 689.77 600.015 684.699 594.965 679.483C589.623 673.989 582.752 667.462 581.616 666.181C580.214 664.62 580.714 662.929 579.324 661.389C576.917 658.719 571.881 653.713 567.114 648.739C563.619 645.102 560.266 641.519 558.081 638.958C552.548 632.462 549.922 627.978 548.116 625.731C546.41 623.616 543.5 621.962 542.719 620.983C541.519 619.483 542.407 618.22 540.913 616.322C538.449 613.192 535.234 610.554 531.612 605.844C512.82 581.706 494.856 555.201 477.899 535.913C451.453 508.627 412.977 483.634 376.216 461.605C352.994 447.76 329.151 435.773 304.219 424.75C294.091 420.29 287.933 418.821 272.84 412.308C266.732 409.692 269.845 409.278 264.936 407.672C263.481 407.198 263.027 407.611 262.098 407.66C261.623 407.689 261.021 407.621 260.079 407.279C247.863 402.845 233.813 396.329 228.422 394.253C226.293 393.436 223.351 393.761 218.952 392.06C186.193 379.256 146.86 362.887 112.463 339.207C103.988 333.307 93.4948 325.436 83.3991 315.101C71.9758 303.494 62.0905 289.335 55.5819 276.397C39.1715 243.63 32.8387 206.635 39.2008 168.772C43.5464 132.746 68.9885 92.9597 91.2819 73.049C91.3094 73.0214 91.337 72.9937 91.3645 72.9661C124.825 38.5167 166.139 15.9291 205.303 -3.59392C244.957 -22.9555 284.796 -39.7029 325.002 -55.6072C289.459 -44.142 243.661 -24.8921 204.14 -5.97932C200.671 -4.31362 197.394 -2.71823 194.067 -1.07539C158.549 16.633 120.068 38.1874 88.8172 70.4144C64.7028 91.8318 39.9908 133.395 36.0441 168.192C27.4472 222.702 43.4804 277.633 81.1131 317.273C96.9387 333.71 114.265 345.378 131.429 355.469C169.815 377.978 218.425 395.604 260.326 412.236C266.007 414.509 271.579 416.787 277.014 419.066C279.055 419.921 283.755 420.687 288.159 422.624C289.129 423.035 300.027 429.672 303.884 431.391C301.551 426.661 315.572 436.081 320.182 438.165C326.05 440.741 338.909 444.879 351.632 452.685C363.15 459.815 359.194 459.248 359.821 459.66C363.736 462.425 366.217 461.412 369.519 463.049C370.654 463.615 372.166 464.418 373.992 465.429C394.541 475.972 449.809 514.254 462.453 527.06C466.323 530.507 465.443 531.578 466.286 532.354C468.32 534.258 472 536.145 474.663 538.877C474.818 539.036 474.973 539.201 475.128 539.373C480.536 545.349 486.332 554.981 489.522 559.176C497.183 569.211 513.287 588.772 523.928 602.77C526.895 606.679 525.632 607.312 526.979 609.076C532.925 616.942 550.193 636.263 558.159 645.734C559.882 647.81 561.566 649.849 563.301 651.948C574.631 665.652 586.375 679.586 599.582 692.225C600.092 693.614 600.612 695.004 601.123 696.379C603.1 697.41 605.046 698.392 607.045 699.406C621.603 713.685 637.485 727.092 656.394 739.083C675.595 751.051 695.061 754.232 711.892 755.876C716.613 756.587 738.102 758.101 741.431 757.831C744.311 757.755 747.062 756.122 751.245 756.145C757.049 756.149 751.814 759.405 761.172 757.979C763.671 757.581 761.16 756.503 766.144 755.753C768.014 755.564 798.968 752.377 800.39 752.383C803.095 752.312 805.681 754.815 806.367 754.822C809.943 754.865 809.648 752.82 812.003 752.473C815.159 752.007 818.744 751.946 821.775 752.04C823.522 752.235 825.211 752.774 825.562 752.784C832.724 752.153 856.263 759.027 870.654 765.933C872.617 766.844 871.828 768.184 872.165 768.369C874.364 769.561 876.453 768.487 878.73 769.3C887.012 772.254 899.032 777.094 911.847 780.185C917.806 781.636 923.125 782.578 926.844 783.25C928.21 783.49 931.052 783.077 933.233 783.532C945.525 786.241 941.226 786.929 941.919 787.086C943.549 787.573 946.823 786.74 951.421 787.739C955.446 788.61 960.752 789.919 966.625 791.51C978.059 794.609 991.669 798.648 1000.62 801.265C1010.76 804.24 1010.18 805.841 1010.84 806.062C1012.26 806.527 1016.61 806.346 1023.42 808.085C1036.53 811.409 1034.72 812.281 1040.11 813.692C1040.57 813.813 1040.13 812.343 1046.15 813.82C1057.75 816.719 1083.75 824.624 1096.67 827.336C1101.61 828.403 1103.04 827.419 1108.13 828.455C1109.65 828.76 1111.53 829.185 1113.56 829.662C1122.48 831.789 1134.88 834.728 1136.11 834.893C1136.52 834.956 1137.67 833.667 1140.11 834.03C1142.77 834.425 1145.35 835.538 1147.35 835.8C1158.83 837.45 1179.16 836.369 1173.19 841.123C1177.07 840.119 1180.92 839.06 1184.75 837.943C1204.41 838.995 1224.13 838.007 1243.9 834.831C1248.96 834.019 1254.08 833.05 1259.24 831.891C1264.94 830.608 1270 830.315 1274.84 828.846C1279.84 827.686 1300 818.115 1303.07 816.301C1308.92 814.076 1335.42 798.423 1341.61 793.844C1342.16 793.477 1342.59 793.195 1342.87 793.017C1349.85 788.529 1357.38 785.71 1359.76 783.457C1361.67 781.649 1359.02 782.09 1362.8 778.896C1369.34 773.361 1381.56 766.152 1383.56 764.652C1384.41 764.012 1382.26 764.415 1390.25 758.43C1394.54 755.219 1397.45 754.394 1399.01 753.263C1399.49 752.927 1397.79 752.007 1406.39 746.2C1412.34 742.229 1415.54 741.676 1416.15 741.265C1417.07 740.66 1418.51 738.009 1422.21 735.681C1426.62 732.914 1433.07 729.452 1439.28 726.579C1445.24 723.795 1451.07 721.549 1454.99 719.987C1456.54 719.398 1455.36 717.942 1461.65 715.808C1466.16 714.366 1465.79 715.941 1467.47 715.462C1470.12 714.744 1473.64 711.999 1479.72 710.828C1484.15 709.66 1506.41 707.488 1526.46 709.793C1540.04 711.071 1551.73 713.22 1553.08 713.572C1555.33 714.185 1557.96 714.601 1558.99 715.494C1557.91 716.03 1556.84 716.569 1555.78 717.113C1546.14 713.277 1549.78 716.629 1547.14 716.451C1543.39 716.156 1530.02 714.488 1526.14 714.855C1526 714.864 1525.88 714.876 1525.77 714.889C1524.56 715.047 1527.15 716.649 1520.77 717.086C1514.02 717.611 1511.12 715.021 1508.56 718.638C1499.25 714.741 1491.27 719.845 1501.42 720.237C1503.6 720.357 1513.08 720.271 1525.71 721.488C1545.91 723.202 1573.68 728.942 1581.83 730.774C1592.51 733.026 1613.08 736.614 1626.48 740.318C1634.31 742.414 1653.82 747.831 1652.48 749.475C1659.47 751.628 1652.51 747.753 1654.06 747.9C1655.09 748 1657.97 748.796 1661.58 749.897C1669.3 752.241 1680.31 756.006 1683.17 756.796C1703.84 762.46 1730.58 768.263 1750.05 776.728C1748.97 776.933 1747.87 777.135 1746.79 777.341C1741.98 776.853 1721.39 769.233 1718.32 770.896C1748.97 780.054 1779.63 789.605 1810.95 799.041C1810.97 798.201 1816.78 799.442 1824.07 801.34C1824.29 801.415 1824.96 801.58 1825.18 801.651C1836.62 804.325 1851.5 808.563 1852.44 809.419C1851.49 810.214 1850.57 811.017 1849.63 811.814C1834.57 804.886 1830.73 805.811 1824.45 804.369C1824.22 804.295 1823.51 804.12 1823.28 804.04C1820.87 803.424 1818.06 802.435 1814.16 800.486C1808.13 798.637 1809.51 800.8 1806.44 800.207C1776.23 794.35 1806.91 796.773 1784.15 791.404C1790.16 795.781 1771.62 791.045 1763.42 788.86C1761.54 788.349 1737.45 780.362 1734.58 779.544C1718.36 774.844 1690.37 767.917 1674.86 762.15C1668.77 760.337 1663.89 759.36 1659.2 758.527C1654.24 757.646 1649.48 756.919 1643.65 755.574C1635.01 753.594 1637.76 753.071 1633.75 752.008C1625.31 749.789 1621.66 752.708 1617.52 746.363C1611.66 745.59 1605.84 744.872 1600.05 744.218C1600.23 743.435 1600.4 742.653 1600.58 741.87C1597.02 741.062 1593.49 740.283 1589.94 739.526C1588.73 740.087 1587.53 740.65 1586.33 741.216C1575.4 737.856 1580.43 736.933 1578.78 734.279C1576.4 733.654 1574.01 733.041 1571.64 732.446C1569.46 733.819 1567.31 735.207 1565.17 736.607C1554.61 734.631 1544.22 733.006 1534.16 731.893C1533.58 731.034 1533 730.177 1532.42 729.321C1532.33 730.116 1532.24 730.911 1532.14 731.706C1529.76 731.515 1527.4 731.354 1525.08 731.227C1510.64 730.426 1497.81 730.92 1486.48 733.095C1483.02 734.666 1504.93 733.015 1507.18 733.518C1511.1 733.594 1517.76 733.574 1524.89 734.041C1535.98 734.714 1547.74 736.578 1547.51 738.302C1554.98 737.02 1577.58 741.59 1584.22 745.689C1573.45 743.301 1562.81 741.192 1552.42 739.498C1552.62 740.494 1552.81 741.489 1553 742.485C1540.74 736.839 1538.56 736.762 1525.78 739.401C1525.86 738.122 1525.94 736.842 1526.01 735.562C1525.61 735.735 1525.19 735.884 1524.77 736.011C1515.64 738.563 1502.98 732.225 1502.88 737.569C1498.84 737.317 1494.98 737.224 1491.22 737.303C1487.31 738.226 1488.62 739.287 1487.06 740.508C1485.45 741.946 1481.46 742.458 1466.97 747.259C1464.94 747.987 1464.81 746.495 1461.78 747.978C1461.15 748.304 1458.89 750.416 1454.02 753.653C1452 754.998 1449.47 756.58 1446.32 758.409C1444.63 759.394 1443.86 758.439 1442.01 759.412C1437.73 761.611 1430.57 769.349 1432.24 763.504C1414.5 774.26 1423.37 772.173 1418.75 776.986C1415.62 780.289 1414.99 777.884 1412.12 780.627C1408.5 784.107 1413.06 783.586 1396.05 794.907C1397.82 793.397 1399.56 791.9 1401.29 790.413C1399.99 790.587 1398.69 790.765 1397.39 790.943C1388.88 799.185 1388.38 796.778 1385.92 803.039C1377.79 807.044 1371.52 811.566 1360.62 819.377C1360.21 819.668 1359.82 819.951 1359.43 820.227C1338.89 834.209 1352.37 830.989 1321.15 841.892C1316.54 844.986 1311.71 847.993 1306.68 850.851C1297.33 852.892 1303.8 848.528 1290.5 852.802C1302.19 852.981 1273.46 860.82 1269.34 864.684C1268.66 864.016 1267.98 863.345 1267.3 862.672C1264.31 863.33 1261.33 863.93 1258.38 864.471C1258.49 865.106 1258.59 865.741 1258.7 866.376C1255.27 866.591 1251.94 866.726 1248.62 866.805C1248.01 866.818 1247.41 866.83 1246.8 866.839C1244.01 867.879 1241.22 868.878 1238.4 869.839C1233.51 869.039 1228.69 868.122 1223.95 867.1C1221.02 867.211 1218.11 867.281 1215.22 867.313C1216.18 868.231 1217.13 869.146 1218.12 870.056C1214.35 869.928 1210.58 869.737 1206.87 869.486C1211.24 870.929 1208.54 872.998 1196.93 872.907C1187.46 872.667 1198.06 869.854 1177.98 870.33C1176.62 870.284 1173.85 872.787 1155.27 871.27C1133.22 869.105 1144.16 868.625 1140.26 868.093C1139.5 867.981 1132.71 868.22 1126.56 867.373C1123.08 866.902 1119.92 865.377 1119.46 865.299C1117.32 864.963 1116.48 866.181 1113.53 865.684C1111.38 865.316 1109.12 864.852 1106.71 864.316C1100.74 862.989 1094.42 861.309 1089.41 860.243C1086.23 859.565 1083.09 859.664 1081.68 859.348C1079.49 858.852 1077.04 857.023 1074.85 856.507C1066.8 854.628 1053.77 855.489 1051.54 849.102C1042.65 852.158 1028.65 841.898 1028.91 845.549C1009.05 838.846 957.149 828.339 960.691 823.427C959.621 823.606 958.691 823.751 957.874 823.863C949.746 824.984 950.976 822.266 947.314 821.411C942.886 820.41 944.922 821.896 941.505 821.045C933.203 819.029 928.391 817.728 918.104 816.181C919.932 815.656 921.552 815.093 923.046 814.516C913.92 812.857 915.221 814.724 904.967 813.267C903.803 813.083 902.501 812.849 901.04 812.548C873.893 806.087 886.247 807.508 882.941 804.477C882.57 806.736 857.367 797.137 856.015 796.167C854.878 795.549 861.07 795.175 848.306 791.083C848.672 792.083 849.046 793.087 849.429 794.096C843.722 790.597 831.022 787.587 830.023 787.171C829.446 786.843 826.709 779.456 824.148 784.275C824.069 783.454 823.995 782.637 823.918 781.822C823.054 782.206 822.803 782.732 823.219 783.201C820.167 783.818 817.023 784.478 813.81 785.169C812.669 783.8 811.51 782.436 810.335 781.076C808.208 781.228 806.051 781.392 803.867 781.565C805.414 782.726 806.953 783.89 808.464 785.061C795.355 785.471 777.489 789.109 773.986 785.018C770.835 786.068 767.624 787.111 764.351 788.135C762.081 786.851 759.803 785.558 757.514 784.253C741.625 785.432 741.239 786.349 729.335 787.868C729.827 786.753 730.297 785.636 730.769 784.519C722.092 786.063 704.906 786.945 688.964 783.961C681.557 782.812 668.151 777.083 666.155 776.338C664.53 776.413 641.405 772.17 641.862 765.661C641.191 765.304 640.53 764.942 639.879 764.576C620.886 754.457 616.178 747.079 609.869 742.057C605.81 738.704 603.188 738.116 598.707 734.319C592.295 728.873 586.746 722.752 583.305 719.524C581.336 717.683 580.112 718.2 578.772 716.93C572.448 710.879 576.924 713.623 570.473 707.127C569.893 706.549 564.136 702.753 559.227 697.133C556.438 693.986 550.578 684.883 549.963 684.163C547.225 681.053 546.759 685.786 540.507 672.428C540.284 673.158 540.062 673.888 539.84 674.618C539.287 674.075 538.759 673.546 538.253 673.03C527.502 662.053 527.993 658.358 526.035 655.664C525.766 655.308 522.307 652.775 520.871 650.726C518.475 647.304 518.6 645.012 518.086 644.254C516.242 641.556 508.979 633.321 505.852 626.793C503.312 630.621 487.125 611.694 487.945 604.555C484.598 601.66 481.32 598.846 478.033 596.022C477.556 594.03 477.059 592.011 476.595 590.038C475.264 589.588 473.944 589.153 472.635 588.733C470.481 582.889 468.366 577.131 466.365 571.656C464.753 572.455 463.145 573.259 461.54 574.069C460.746 572.716 460.008 571.447 459.238 570.153C459.631 568.391 460.021 566.634 460.415 564.892C459.101 563.696 457.812 562.556 456.581 561.521C455.556 561.882 454.545 562.261 453.53 562.637C452.331 561.601 451.823 560.757 451.634 559.975C450.914 557.015 455.172 553.77 440.366 549.793C438.856 547.429 437.177 544.983 435.475 542.569C430.538 543.561 427.137 537.889 422.758 535.167C419.686 533.263 418.936 534.62 414.893 531.732C410.796 528.831 411.812 527.761 411.492 527.518C408.177 525.068 404.888 524.391 402.496 522.45C402.126 522.155 402.204 520.074 398.989 517.793C395.801 515.542 392.783 515.784 388.053 512.327C385.577 510.53 385.686 508.849 383.453 507.288C375.098 501.436 363.883 500.1 357.635 493.552C356.062 491.88 354.823 489.858 354.032 487.301C351.597 487.161 336.34 483.256 330.655 480.15C321.783 475.23 326.036 475.453 322.535 473.354C322.034 473.064 318.999 472.18 311.22 468.414C309.819 467.739 309.727 468.783 309.52 468.701C300.446 464.394 282.365 455.731 271.68 451.274C270.752 450.883 264.721 451.37 257.528 444.568C254.903 444.094 252.001 443.181 248.816 441.974C235.496 436.922 217.163 426.633 201.121 423.843C198.545 422.918 195.821 420.771 194.676 420.346C184.795 416.619 187.294 421.109 166.614 407.386C167.819 409.57 162.015 408.559 154.548 404.976C143.302 399.498 152.564 400.766 143.37 396.565C143.016 397.283 142.663 398 142.31 398.718C122.194 386.067 116.355 387.088 94.4266 372.744C86.519 367.524 75.8812 356.813 74.0504 355.141C73.3174 354.63 63.3842 348.32 62.5452 347.42C59.9571 344.978 58.1765 342.801 56.4843 340.679C55.1294 338.973 53.8264 337.297 52.1764 335.436C39.6971 321.831 26.3373 303.872 32.3304 304.993C28.9112 301.186 25.6334 297.243 22.5013 293.174C18.3736 274.207 8.29851 263.213 11.6218 258.015C9.74154 255.127 7.93315 252.213 6.17801 249.197C-0.380199 221.044 -2.3044 193.751 3.28608 162.172C7.25482 124.054 40.3247 69.0627 66.1475 47.7064C69.518 44.3923 73.3618 40.6932 77.352 37.0709C78.1034 33.7529 102.456 14.63 103.865 14.336C110.142 11.1449 106.138 17.9423 117.143 9.41871C117.637 7.33005 118.034 5.31685 118.534 3.2452C132.76 -6.53257 126.588 -0.781107 132.779 -3.49688C135.102 -5.12364 133.679 -5.58387 136.875 -7.59735C149.341 -15.5255 171.144 -27.4208 189.367 -36.3001C196.298 -39.7096 202.763 -42.7825 207.855 -45.1821C211.616 -46.9516 211.454 -45.7118 212.615 -46.2458C215.779 -47.7191 221.507 -51.8027 227.844 -54.6477C267.098 -72.3433 322.49 -94.3678 361.93 -109.102C364.604 -110.101 365.379 -109.059 367.212 -109.733C369.73 -110.664 374.873 -113.836 377.506 -114.784C379.943 -115.663 381.945 -115.441 384.577 -116.382C395.565 -120.304 409.427 -127.261 421.945 -130.344C423.266 -130.677 424.548 -130.959 425.79 -131.184C426.946 -131.39 441.964 -132.099 442.329 -131.904C444.758 -130.791 434.505 -123.137 454.477 -128.379C438.526 -119.013 445.795 -117.053 468.153 -124.321C457.81 -119.181 446.727 -114.01 435.708 -108.898C435.891 -108.403 436.075 -107.909 436.258 -107.415C447.461 -109.195 458.17 -112.571 473.003 -118.831C472.757 -118.188 472.485 -117.534 472.21 -116.88C460.893 -109.406 445.555 -102.556 436.053 -95.667C435.436 -95.2131 434.834 -94.7549 434.253 -94.2932C434.978 -94.4692 435.694 -94.6422 436.401 -94.812C452.069 -98.6736 467.786 -102.517 482.753 -106.708C482.185 -106.025 481.619 -105.346 481.042 -104.665C474.429 -100.557 458.482 -93.2668 452.724 -89.9019C430.535 -76.9375 474.304 -95.9406 467.848 -90.9672C459.372 -87.4307 450.855 -83.9635 442.231 -80.4826C425.927 -73.9108 409.47 -67.3679 393.045 -60.786C392.93 -59.8688 418.727 -68.5395 443.818 -76.5813C467.653 -84.1697 490.566 -91.7493 491.123 -89.5555C483.444 -85.6843 475.835 -82.1309 468.075 -78.5328C472.077 -78.8778 476.018 -79.2097 479.986 -79.5763C479.15 -78.7973 478.4 -78.0568 477.553 -77.2765C468.066 -72.4997 458.77 -67.9318 449.224 -63.2941C445.836 -61.6409 442.371 -59.9623 438.86 -58.268C442.615 -59.8817 446.145 -61.3925 449.43 -62.7879C465.944 -69.7967 478.237 -74.6943 488.157 -77.54C493.067 -78.9457 497.449 -79.8578 501.589 -80.3974C503.694 -80.6918 505.744 -80.8726 508.21 -81.3297C509.496 -81.6049 510.863 -81.8912 512.872 -82.8588C513.844 -83.3252 515.106 -84.0892 516.424 -85.1538C517.735 -86.1806 519.09 -87.6701 519.458 -87.737C519.364 -87.4787 518.302 -85.8367 517.248 -84.601C516.171 -83.3137 515.171 -82.3397 514.353 -81.5858C512.736 -80.1112 511.66 -79.2919 510.763 -78.5785C497.937 -76.2796 473.895 -66.6135 451.927 -56.6504C445.74 -53.8672 440.007 -51.2205 435.14 -48.9649C438.203 -49.0848 445.817 -52.2009 452.614 -54.963C457.471 -56.9361 461.678 -58.6357 463.585 -58.9455C464.886 -59.1508 461.215 -56.3178 464.204 -56.8676C471.755 -58.0846 502.918 -69.204 499.461 -65.6228C497.622 -63.6956 473.995 -52.41 456.728 -44.8503C449.055 -41.463 442.668 -38.7407 439.727 -37.5975C445.654 -39.3473 451.536 -41.2003 457.432 -43.1214C474.8 -48.9011 490.721 -54.1545 510.353 -61.1297C496.24 -50.236 486.643 -41.3914 462.38 -30.9589C461.709 -30.672 461.02 -30.3815 460.311 -30.0873C458.852 -29.0356 460.103 -29.0473 462.901 -29.677C473.827 -32.0794 509.163 -44.8132 511.523 -45.18C501.451 -39.2605 492.617 -34.2965 483.521 -29.2086C491.473 -32.8583 499.288 -36.4734 507.778 -40.5885C507.967 -40.2329 508.155 -39.8773 508.343 -39.5217C493.897 -31.7698 481.761 -24.7065 467.727 -17.8164C461.046 -14.5427 454.086 -11.3997 446.507 -8.42429C448.064 -6.7678 461.873 -12.557 468.737 -15.3341C468.755 -15.3412 468.772 -15.3482 468.789 -15.3553ZM1683.03 769.557C1683.02 771.383 1674.46 768.618 1669.62 767.217C1670.26 767.731 1670.9 768.246 1671.54 768.762C1667.66 767.528 1662.5 765.893 1657.53 764.539C1649.35 762.301 1641.66 760.816 1640.67 762.751C1633.25 761.223 1637.24 759.208 1634.96 758.259C1634.07 757.884 1624.11 757.076 1617.02 753.172C1615.21 752.734 1613.42 752.307 1611.61 751.879C1610.99 752.884 1610.39 753.89 1609.78 754.896C1607.6 752.976 1605.41 751.061 1603.21 749.156C1621.28 753.174 1639.6 757.79 1658.04 762.716C1666.32 764.93 1674.65 767.214 1682.99 769.545C1683.01 769.549 1683.02 769.553 1683.03 769.557ZM1451.57 751.588C1444.49 754.675 1432.37 761.458 1436.38 762.509C1440.98 759.306 1445.48 756.329 1449.79 753.686C1450.38 752.981 1450.98 752.279 1451.57 751.588ZM469.308 570.777C467.288 563.893 461.928 559.606 457.338 554.749C456.755 554.144 456.035 553.364 455.254 552.468C454.808 552.925 454.362 553.382 453.916 553.838C454.735 554.155 455.687 554.823 456.5 555.517C459.623 558.234 464.777 565.409 469.308 570.777ZM1932.02 830.152C1933.64 830.917 1935.24 831.687 1936.85 832.465C1928.96 833.502 1928.52 830.824 1920.46 828.716C1919.97 828.592 1919.91 829.394 1919.74 829.349C1917.79 828.813 1916.25 827.368 1914.45 826.854C1911.02 825.873 1907.93 825.968 1901.77 824.178C1896.98 822.79 1897.32 821.328 1895.63 820.892C1894.16 820.51 1878.73 820.535 1869.8 816.269C1853.05 808.106 1927.99 827.911 1932.02 830.152ZM1979.11 851.966C1977.1 851.175 1975.12 850.37 1973.17 849.566C1979.99 849.921 1967.64 845.122 1960.44 841.9C1961.17 839.787 1977.9 848.381 1987.06 850.971C1984.42 851.335 1981.76 851.663 1979.11 851.966ZM1762.47 779.265C1769.42 781.153 1767.45 783.45 1766.93 784.152C1764.75 783.485 1762.54 782.811 1760.36 782.146C1761.07 781.186 1761.77 780.226 1762.47 779.265ZM1814.81 794.194C1812.07 795.346 1796.72 791.561 1789.56 789.532C1789.26 789.439 1791.49 789.041 1786.45 787.602C1784.91 787.166 1768.99 786.226 1773.5 783.146C1787.18 786.823 1800.9 790.525 1814.79 794.188C1814.79 794.19 1814.8 794.192 1814.81 794.194ZM1830.88 799.981C1829.18 799.873 1827.46 799.761 1825.72 799.643C1825.51 799.576 1824.87 799.418 1824.66 799.346C1823.37 799.229 1822.07 799.106 1820.75 798.978C1819.51 797.688 1818.3 796.405 1817.05 795.109C1819.83 795.747 1822.61 796.38 1825.36 796.998C1825.55 797.067 1826.16 797.216 1826.35 797.28C1826.92 797.393 1827.48 797.506 1828.05 797.618C1829 798.408 1829.94 799.195 1830.88 799.981ZM121.175 29.9798C119.982 29.6697 118.79 29.3614 117.601 29.055C114.711 30.3027 105.358 42.8151 109.625 40.4992C113.423 36.8655 117.287 33.3601 121.175 29.9798ZM173.081 0.606227C175.84 -0.332733 178.539 -1.21915 181.291 -2.11563C183.449 -5.04678 185.619 -7.95982 187.791 -10.8526C174.666 -5.48507 160.592 0.930719 165.085 3.84793C162.159 5.46761 159.331 7.06312 156.445 8.7246C157.87 5.66735 157.294 5.19284 149.077 8.58167C148.799 11.9109 140.281 15.3165 131.726 21.6687C138.291 17.538 144.828 13.6907 151.397 10.0091C151.64 10.4223 151.883 10.8354 152.126 11.2486C137.675 19.7176 157.02 11.4902 165.516 4.71808C166.551 4.8745 167.59 5.03079 168.633 5.18688C170.108 3.65301 171.616 2.11272 173.081 0.606227ZM741.467 766.153C739.311 765.725 737.141 765.279 734.969 764.811C726.459 771.104 743.893 765.221 755.601 769.413C751.629 765.891 769.076 764.937 769.932 764.567C767.884 763.449 765.817 762.327 763.757 761.197C756.581 762.978 749.194 764.677 741.467 766.153ZM674.57 753.311C679.18 756.538 666.853 754.476 652.258 745.467C643.945 740.363 635.789 733.988 631.729 730.376C629.444 728.367 626.459 723.693 624.703 722.491C623.312 722.154 621.899 721.788 620.519 721.442C620.655 718.853 601.709 705.061 594.557 699.376C594.508 698.199 594.468 697.029 594.439 695.867C591.886 693.755 589.348 691.617 586.854 689.483C587.714 689.227 588.573 688.97 589.43 688.709C587.028 687.604 584.617 686.466 582.218 685.318C574.794 678.934 582.07 680.38 576.148 675.929C569.619 670.967 576.602 682.519 575.223 683.47C580.009 688.082 591.219 698.279 596.154 702.972C599.015 705.666 593.575 704.867 608.39 713.918C610.619 717.055 612.868 720.149 615.213 723.258C621.33 726.871 627.565 730.356 633.999 733.697C634.36 735.387 634.774 737.108 635.171 738.803C635.549 739.472 651.138 747.272 650.958 745.992C651.133 746.2 651.316 746.41 651.509 746.623C658.953 754.117 676.713 762.274 693.088 765.205C694.846 764.924 696.592 764.613 698.268 764.266C681.732 762.525 693.209 762.684 688.59 760.549C685.953 759.338 677.445 755.539 674.57 753.311ZM52.3744 102.385C65.5605 79.0891 57.8553 92.6624 75.1942 73.0466C72.9227 73.3515 70.6427 73.6872 68.3323 74.0838C61.4107 84.856 46.3636 104.121 52.3591 102.409C52.3642 102.401 52.3693 102.393 52.3744 102.385ZM243.615 -38.1217C233.011 -32.4225 239.437 -32.8764 225.859 -25.8966C225.853 -25.8936 225.846 -25.8905 225.839 -25.8875C233.067 -29.0262 240.34 -32.1199 247.543 -35.1358C246.234 -36.1316 244.924 -37.1269 243.615 -38.1217ZM336.725 457.505C345.786 462.825 344.484 460.889 351.786 467.352C365.501 471.791 354.83 466.343 355.999 464.172C352.792 463.242 349.595 462.349 346.384 461.479C340.476 455.788 347.637 458.208 347.744 458.018C347.738 458.015 347.732 458.012 347.726 458.009C348.07 457.353 348.378 457.332 345.882 455.528C342.82 456.165 339.763 456.822 336.725 457.505ZM377.859 476.71C373.804 476.221 371.382 477.204 379.122 483.057C379.128 483.06 379.133 483.064 379.139 483.067C381.725 480.332 388.065 487.644 391.777 489.69C392.914 489.931 394.063 490.181 395.217 490.437C389.525 485.805 383.733 481.23 377.859 476.71ZM497.132 573.362C493.901 575.806 488.602 569.318 492.64 581.018C494.084 582.843 495.499 584.633 496.958 586.481C498.571 587.166 500.203 587.876 501.836 588.587C513.861 616.984 528.959 616.469 495.347 579.011C495.341 579.007 495.335 579.003 495.328 578.999C495.931 577.12 496.538 575.25 497.132 573.362ZM467.749 537.556C466.046 538.864 464.349 540.179 462.655 541.499C462.519 534.231 453.95 533.007 447.286 523.052C446.049 522.893 444.852 522.771 443.625 522.631C441.603 518.588 405.661 493.171 411.614 501.349C414.277 504.827 422.806 508.376 423.399 508.863C425.468 510.516 427.156 513.953 430.758 516.461C432.83 517.899 438.368 519.336 442.383 522.476C449.424 527.929 458.871 540.496 466.132 546.693C468.18 548.458 470.624 550.324 473.351 551.862C473.519 553.076 473.647 554.249 473.811 555.477C480.936 563.854 480.27 559.724 484.899 569.835C494.807 569.782 472.499 548.174 469.663 543.458C468.896 542.02 469.174 541.021 471.667 541.089C471.663 541.086 471.66 541.082 471.657 541.079C470.455 539.949 469.148 538.772 467.749 537.556ZM182.28 390.089C182.295 388.163 167.426 384.621 172.435 382.086C167.344 381.452 162.221 380.744 157.058 379.941C156.917 380.322 156.776 380.703 156.636 381.083C161.262 382.954 165.879 384.745 170.485 386.471C170.239 387.063 169.992 387.655 169.746 388.248C177.414 389.333 204.61 401.636 202.919 403.319C204.748 403.019 206.568 402.712 208.391 402.404C220.54 410.026 232.786 411.691 245.701 419.351C247.064 419.022 248.42 418.69 249.768 418.356C250.232 419.22 250.689 420.082 251.147 420.945C252.847 421.627 254.523 422.302 256.172 422.97C259.444 424.294 262.678 425.615 265.877 426.936C277.561 429.667 267.03 423.122 257.905 418.492C253.871 416.436 250.076 414.731 248.836 414.382C248.301 414.235 247.785 415.813 244.485 414.832C238.695 413.135 206.604 399.085 195.871 395.733C196.201 394.678 196.531 393.624 196.861 392.569C192.028 391.794 187.166 390.971 182.28 390.089ZM533.959 629.352C533.571 630.671 533.187 631.994 532.806 633.321C542.325 643.572 547.194 650.942 547.784 645.835C547.779 645.829 547.774 645.824 547.77 645.818C543.101 640.36 538.5 634.869 533.959 629.352ZM1479.2 721.806C1478.5 719.69 1473.45 719.894 1467.95 723.357C1468.44 723.879 1468.92 724.403 1469.4 724.931C1471.96 722.196 1476.59 724.028 1486.18 721.934C1486 720.828 1485.82 719.722 1485.64 718.616C1483.43 719.625 1481.29 720.689 1479.2 721.806ZM527.005 619.625C525.47 615.489 515.17 608.551 519.695 614.83C523.181 619.652 527.832 621.855 527.005 619.625ZM287.512 -54.7839C284.589 -53.7991 281.684 -52.8174 278.759 -51.8225C277.659 -50.3159 276.562 -48.8095 275.47 -47.3035C275.476 -47.3063 275.483 -47.3091 275.489 -47.312C279.491 -49.8114 283.499 -52.3015 287.512 -54.7839ZM303.843 442.284C312.874 446.099 321.746 450.031 330.461 454.136C330.82 453.62 331.179 453.104 331.539 452.588C321.847 450.387 319.318 446.577 317.319 445.481C317.329 445.485 317.338 445.489 317.347 445.494C310.89 441.98 304.654 438.829 298.487 435.374C300.304 437.679 302.091 439.983 303.843 442.284ZM274.071 425.57C273.983 430.286 275.868 431.504 291.088 434.513C290.742 433.781 290.393 433.048 290.04 432.314C282.625 429.567 277.955 428.79 280.107 427.188C278.1 426.645 276.081 426.103 274.071 425.57ZM409.133 497.11C408.441 494.932 395.634 488.391 395.902 489.426C396.056 489.788 410.552 501.285 409.133 497.11ZM1576.25 724.996C1573.13 724.079 1569.97 723.181 1566.84 722.317C1571.17 722.58 1575.51 722.893 1579.89 723.258C1578.68 723.835 1577.46 724.414 1576.25 724.996ZM1613.13 726.522C1615.32 727.626 1606.89 729.64 1620.5 733.982C1610.39 731.591 1600.29 729.344 1590.27 727.323C1595.09 727.685 1599.94 728.098 1604.82 728.556C1604.24 727.262 1603.66 725.967 1603.09 724.674C1606.44 725.272 1609.78 725.887 1613.13 726.522ZM1623.33 731.966C1618.56 727.639 1647.45 734.748 1650.05 735.906C1650.62 736.149 1652.89 739.114 1653.8 739.869C1649.44 738.691 1645.1 737.538 1640.74 736.401C1642.02 737.475 1643.29 738.552 1644.56 739.628C1639.41 738.518 1634.29 737.442 1629.15 736.395C1631.49 736.246 1633.84 736.104 1636.19 735.969C1631.92 734.615 1627.6 733.271 1623.33 731.966ZM1511.36 715.058C1514.62 715.146 1517.93 715.311 1521.29 715.545C1520.67 714.394 1520.05 713.246 1519.41 712.099C1517.38 712.02 1515.37 711.966 1513.38 711.94C1512.69 712.976 1512.02 714.015 1511.36 715.058ZM1582.43 722.045C1576.21 726.293 1564.12 712.096 1579.99 719.497C1581.59 720.257 1583.03 721.632 1582.43 722.045ZM1660.7 739.462C1662.18 739.38 1663.43 739.422 1664.44 739.547C1670.17 740.254 1668.58 743.605 1663.52 742.908C1662.01 742.7 1660.2 742.142 1658.19 741.064C1657.69 740.787 1659.77 739.508 1660.7 739.462ZM1746.12 764.293C1747.04 764.604 1747.83 767.779 1757.45 767.916C1758.83 768.67 1760.18 769.419 1761.55 770.172C1757.74 770.36 1728.35 762.263 1733.19 760.824C1737.66 762.128 1741.53 762.808 1746.12 764.293ZM1720.86 745.823C1716.45 744.593 1712.05 743.369 1707.65 742.155C1708.84 743.425 1710.04 744.696 1711.23 745.967C1709.01 745.561 1706.79 745.156 1704.57 744.754C1701.31 742.216 1698.06 739.683 1694.8 737.158C1704.39 739.683 1713.98 742.261 1723.58 744.874C1722.68 745.19 1721.77 745.506 1720.86 745.823ZM1604.93 712.293C1613.11 715.263 1623.71 716.548 1637.37 720.239C1637.38 720.244 1637.38 720.248 1637.39 720.252C1638.07 720.44 1638.97 721.92 1641.16 722.538C1642.31 722.847 1657.05 726.204 1667.31 729.17C1673.61 730.977 1678.22 732.587 1676.91 733.028C1672.84 732.407 1669.54 731.65 1666.82 730.953C1659.6 729.105 1656.25 727.63 1652.9 730.153C1652.46 729.038 1652.01 727.923 1651.57 726.809C1638.23 721.543 1633.49 723.804 1625.5 723.072C1625.71 722.376 1625.91 721.68 1626.12 720.984C1620.98 719.64 1615.85 718.333 1610.73 717.072C1611.35 717.704 1611.97 718.339 1612.58 718.971C1610.77 718.547 1608.94 718.123 1607.13 717.712C1603.18 714.607 1597.65 712.882 1604.93 712.293ZM1740.4 752.938C1746.04 748.872 1784.46 764.565 1802.97 769.004C1792.45 769.264 1778.42 762.578 1768.08 759.384C1748.1 753.22 1761.33 759.377 1757.68 759.191C1755.88 759.101 1745.57 752.281 1740.4 752.938ZM1574.01 706.982C1583.83 709.22 1589.64 709.121 1597.81 712.935C1597.01 713.171 1596.2 713.409 1595.4 713.649C1592.56 712.551 1568.87 706.875 1574.01 706.982ZM1829.28 778.421C1810.34 770.717 1818.52 778.344 1809.5 771.728C1816.2 773.513 1822.93 775.291 1829.69 777.042C1829.55 777.502 1829.41 777.962 1829.28 778.421ZM529.263 588.397C524.237 581.476 519.367 573.199 514.685 570.362C517.86 575.189 521.051 580.04 524.272 584.899C525.926 586.057 527.608 587.247 529.263 588.397ZM725.481 724.254C723.559 723.74 715.902 724.741 715.065 724.628C713.57 724.495 714.048 723.81 714.043 723.621C704.326 722.679 713.051 725.983 705.715 725.493C704.405 725.621 687.673 720.996 681.436 717.71C678.507 716.427 675.666 714.898 673.125 713.254C667.15 709.392 662.283 705.661 660.021 703.986C654.584 700.003 643.766 693.325 635.476 685.83C632.068 682.754 631.804 680.663 628.459 677.517C617.094 666.878 600.511 650.22 585.682 633.111C572.295 617.768 560.09 602.431 552.874 592.315C549.113 587.046 546.805 581.045 544.641 578.396C542.513 576.631 540.368 574.834 538.256 573.076C537.948 562.951 532.181 563.811 526.412 556.933C522.763 552.582 522.551 549.429 522.09 548.817C519.04 544.788 516.889 543.291 514.381 540.216C511.578 536.767 508.245 531.261 507.146 530.125C506.423 529.522 506.794 532.964 495.709 520.197C495.61 520.087 495.511 519.978 495.412 519.869C483.884 507.455 470.527 496.482 456.476 485.859C457.108 494.916 463.957 494.199 469.744 498.534C471.304 499.709 469.66 499.784 470.992 500.808C474.755 503.676 482.303 508.792 484.985 511.686C487.853 514.769 485.094 515.599 489.457 518.619C489.676 518.772 489.839 517.445 490.819 518.19C492.093 519.175 493.206 520.114 494.176 521.001C501 527.407 503.058 532.2 511.613 543.455C518.036 551.973 558.188 604.356 559.357 606.359C563.542 618.152 521.387 562.487 517.044 555.83C515.435 553.499 518.136 555.19 516.769 552.984C516.198 552.084 508.573 545.476 502.551 538.101C499.529 534.412 495.464 528.979 491.104 523.815C485.041 516.641 477.33 509.283 472.417 505.211C445.409 483.033 415.66 463.88 385.316 445.958C348.401 424.032 309.055 406.676 268.609 390.838C253.028 384.74 237.209 378.79 221.418 372.534C219.493 371.769 216.474 372.006 210.21 369.463C170.82 352.925 129.502 335.551 96.7805 302.384C64.2651 268.081 50.5805 218.761 58.2588 172.274C62.7163 139.948 81.7934 108.055 104.996 86.621C111.143 80.4163 117.711 74.2284 124.539 68.5517C146.568 50.2636 170.256 35.1231 195.758 22.9232C198.368 20.4828 201.117 17.9996 203.787 15.582C196.098 20.2298 180.56 26.0869 179.207 26.8444C178.752 27.0873 176.248 29.6906 171.413 32.3921C164.632 36.1989 161.215 37.2123 160.675 37.5302C158.998 38.5448 160.612 38.7356 158.979 39.7289C146.879 47.1418 137.905 53.5747 127.45 61.7332C115.777 70.9902 108.845 75.1462 102.729 84.0815C102.654 84.096 102.579 84.1105 102.505 84.1249C101.149 84.4084 99.801 84.6902 98.4582 84.9742C94.7243 91.631 62.4456 131.873 59.6286 152.963C57.8988 159.053 56.8783 157.648 56.3596 159.715C56.1282 160.89 57.359 160.952 55.3873 171.746C55.1187 173.28 54.8074 175.095 54.488 177.107C53.2329 185.552 51.931 187.698 51.7909 191.975C51.7594 194.28 53.0804 193.942 53.0755 197.225C53.2935 216.216 55.4642 231.725 61.126 249.573C62.7908 254.572 61.8361 254.99 62.2659 256.106C63.9175 260.167 68.4456 266.496 73.8755 276.031C78.2602 283.812 85.8324 294.833 94.7687 304.296C103.981 314.181 114.088 322.074 119.805 326.703C121.476 328.056 122.145 330.13 123.464 331C125.462 332.309 126.991 331.642 127.339 331.864C133.957 336.103 129.284 334.645 133.911 337.159C136.434 338.498 139.746 338.678 145.48 341.709C153.079 345.658 150.741 346.468 153.981 347.987C154.331 348.135 155.031 347.039 158.167 348.609C170.02 354.603 187.548 362.184 198.964 366.947C202.245 368.326 204.345 370.153 208.931 372.039C216.276 375.21 251.492 388.271 267.217 394.433C271.245 396.023 273.992 397.167 274.822 397.603C275.246 397.828 269.958 397.815 277.287 400.643C279.725 400.744 282.117 400.833 284.556 400.947C287.603 403.555 290.686 406.195 293.702 408.829C295.297 404.625 316.236 412.766 314.185 416.89C316.349 418.04 318.49 419.19 320.655 420.363C326.571 419.593 329.193 422.02 338.844 424.577C339.821 426.11 340.759 427.631 341.72 429.169C342.347 428.761 342.973 428.354 343.599 427.947C346.756 433.34 355.936 434.123 356.871 434.599C360.468 436.38 362.692 438.572 364.365 439.439C368.687 441.681 376.707 445.426 383.453 449.162C386.46 450.822 389.129 452.404 391.229 453.852C391.546 454.074 390.468 455.159 392.374 456.51C395.838 458.973 397.288 457.301 400.792 462.437C402.099 462.487 403.375 462.519 404.696 462.583C405.558 463.506 406.409 464.426 407.249 465.342C413.376 468.97 419.449 472.672 425.455 476.459C418.681 475.002 424.114 480.224 430.991 482.523C433.329 483.307 432.456 480.857 433.24 481.112C434.463 481.318 459.655 500.574 460.471 502.817C461.903 503.331 463.417 503.922 464.847 504.456C464.823 505.676 464.811 506.909 464.773 508.123C465.612 508.373 466.442 508.619 467.294 508.887C471.296 513.827 482.991 521.51 488.383 526.308C490.009 527.716 491.247 528.924 491.749 529.611C492.927 531.277 488.643 532.396 495.056 539.655C496.146 539.21 497.238 538.77 498.333 538.333C499.872 540.009 501.396 541.698 502.911 543.396C505.45 546.84 507.686 553.071 506.724 554.019C508.165 554.601 509.648 555.242 511.085 555.824C511.159 560.267 523.525 575.453 529.605 580.833C530.351 583.155 531.113 585.493 531.871 587.82C534.515 589.749 537.166 591.676 539.801 593.567C544.417 599.172 538.511 594.028 539.34 595.34C541.069 598.12 553.381 609.664 550.076 610.846C551.46 612.634 552.878 614.456 554.271 616.234C555.747 616.558 557.23 616.887 558.711 617.21C558.55 622.305 563.641 626.907 571.607 638.383C572.936 638.79 574.268 639.197 575.603 639.604C575.831 640.074 576.06 640.544 576.291 641.015C578.033 644.567 579.783 648.081 581.576 651.597C583.116 651.447 584.651 651.289 586.181 651.123C587.537 652.395 588.949 653.718 590.321 654.983C590.771 659.738 597.648 662.745 599.198 666.094C601.47 670.974 597.247 669.542 590.507 662.735C589.343 664.731 609.705 684.814 614.745 689.165C614.712 688.576 614.68 687.985 614.647 687.395C609.584 682.922 604.615 678.346 599.737 673.693C599.603 666.076 611.121 680.176 617.674 685.461C618.282 685.946 622.696 687.565 628.789 693.378C631.089 695.65 638.895 706.208 640.766 707.881C655.676 721.381 646.255 709.156 660.28 723.662C659.249 721.072 661.296 722.598 665.229 725.444C668.831 728.028 674.036 731.15 679.637 733.062C681.903 734.334 700.342 736.713 701.436 736.492C708.848 737.252 700.496 738.617 711.271 739.262C712.609 738.756 713.937 738.234 715.257 737.699C717.679 737.891 720.14 738.035 722.538 738.136C737.106 744.29 740.514 739.708 745.549 739.053C747.589 738.751 745.004 740.358 750.32 739.799C752.304 739.582 754.463 738.244 759.767 737.809C776.311 736.386 782.286 741.039 796.69 734.344C799.035 734.952 801.363 735.567 803.688 736.19C805.142 735.121 806.594 734.057 808.056 732.996C819.872 734.997 815.479 732.46 819.675 732.261C820.056 732.245 820.45 732.23 820.855 732.215C829.933 731.247 849.176 737.693 850.182 740.529C860.593 738.45 869.359 748.388 873.023 749.585C875.401 749.832 877.795 750.084 880.205 750.33C882.538 751.917 884.906 753.501 887.325 755.071C887.751 749.799 899.871 759.397 901.418 759.823C902.21 760.091 908.217 761.609 915.474 762.742C922.811 763.895 930.275 764.443 934.015 765.1C941.515 766.239 954.185 770.547 955.326 770.859C956.314 771.089 963.569 772.06 971.419 773.785C974.233 774.396 977.232 775.123 979.905 775.871C988.719 778.341 1041.35 795.345 1038.67 792.108C1035.34 790.532 1030.53 788.628 1026.32 787.137C1019.65 784.836 996.118 777.432 972.329 770.422C949.965 763.49 928.146 760.406 916.475 757.926C916.219 757.868 915.97 757.812 915.729 757.756C880.934 749.694 850.334 728.698 820.711 729.11C812.77 729.419 804.797 729.931 796.84 730.481C794.411 730.65 793.933 729.349 791.844 729.494C788.675 729.719 780.732 731.747 777.581 731.981C765.848 732.885 751.369 733.616 744.949 733.77C730.598 734.197 720.588 733.146 709.544 731.773C706.214 731.464 687.86 730.461 676.383 723.702C674.432 722.33 672.565 720.875 670.775 719.323C676.562 722.968 692.864 727.538 700.303 728.429C711.402 730.251 717.078 731.437 721.196 731.688C724.672 732.005 742.015 730.787 749.799 730.239C752.215 730.109 752.789 731.48 754.873 731.355C766.141 730.674 780.826 729.318 790.328 727.137C786.454 727.887 811.004 726.77 812.253 726.775C814.324 726.646 816.505 725.33 820.522 725.015C820.729 724.999 820.942 724.987 821.161 724.979C829.276 725.049 827.75 727.564 838.321 726.715C840.671 728.033 842.949 729.436 845.199 730.902C846.442 726.797 876.102 743.291 886.902 742.82C887.184 742.449 846.742 724.972 843.037 725.017C836.408 723.202 828.535 721.764 820.39 722.177C802.542 723.092 783.049 725.365 768.569 726.027C762.153 726.433 741.933 725.278 740.435 725.236C737.993 725.356 740.233 726.576 739.172 726.645C717.428 727.679 728.345 724.97 725.481 724.254ZM1627.46 715.142C1621.22 713.444 1614.98 711.798 1608.73 710.219C1609.36 709.54 1609.99 708.862 1610.63 708.184C1613.44 709.151 1616.25 710.129 1619.07 711.122C1621.38 711.182 1623.73 711.256 1626.05 711.332C1626.52 712.601 1626.99 713.871 1627.46 715.142ZM1643.78 715.815C1649.34 716.846 1649.18 718.562 1650.41 718.973C1654.11 720.214 1657.53 720.425 1661.16 721.436C1655.91 724.17 1647.49 720.015 1643.78 715.815ZM1531.16 693.029C1532.41 693.314 1540.06 698.246 1549.88 695.458C1556.7 697.62 1563.5 699.956 1570.24 702.413C1558.71 698.369 1542.06 698.353 1536.38 697.819C1534.21 697.59 1533.9 696.231 1532.16 696.068C1530.56 695.922 1528.92 695.867 1527.36 695.868C1519.13 695.845 1512.33 697.347 1511.48 693.653C1517.77 694.533 1523.75 693.783 1527.53 693.313C1529.35 693.081 1530.65 692.913 1531.16 693.029ZM1592.37 703.803C1593.81 705.039 1595.27 706.284 1596.69 707.528C1590.82 706.276 1584.95 705.093 1579.08 703.994C1580.84 703.376 1582.61 702.767 1584.38 702.163C1587.05 702.695 1589.71 703.241 1592.37 703.803ZM1155.91 816.728C1159.77 817.202 1163.67 817.626 1167.56 817.993C1167.4 817.31 1162.96 816.885 1161.37 816.253C1161.38 816.254 1161.39 816.255 1161.39 816.256C1159.64 815.55 1160.5 814.783 1157.25 814.025C1156.81 814.927 1156.36 815.828 1155.91 816.728ZM209.236 16.0819C209.995 15.7139 211.579 14.9375 213.803 13.8529C228.025 6.70529 267.903 -11.3482 263.093 -11.484C260.269 -11.5988 242.274 -2.38985 236.862 0.113598C231.491 2.54523 218.712 6.94302 212.624 11.4323C210.411 13.0431 209.102 14.6183 209.236 16.0819ZM304.657 -26.2665C304.643 -28.9524 270.659 -14.8278 267.553 -12.9324C268.393 -12.9213 269.795 -12.6909 270.788 -12.9335C275.667 -14.177 297.09 -23.8193 304.657 -26.2665ZM950.123 759.987C952.701 761.804 955.237 763.652 957.753 765.525C957.374 763.785 957.048 762.061 956.637 760.318C954.482 760.192 952.269 760.071 950.123 759.987ZM668.222 718.568C634.548 695.736 607.164 666.717 581.593 636.552C575.057 628.762 568.672 620.896 562.387 612.937C565.61 615.933 568.852 618.912 572.121 621.88C575.706 626.346 579.347 630.817 583.072 635.308C607.07 664.15 634.173 692.782 664.345 713.092C665.614 714.938 666.876 716.745 668.222 718.568ZM1518.2 685.1C1505.89 684.753 1495.9 686.192 1482.64 686.215C1494.94 682.687 1501.36 685.222 1513.75 682.601C1513.76 682.601 1513.76 682.601 1513.77 682.602C1515.25 683.421 1516.74 684.255 1518.2 685.1ZM1271.45 803.36C1274.91 801.081 1278.26 798.693 1281.48 796.211C1277.11 797.943 1272.66 799.498 1268.16 800.865C1269.25 801.707 1270.34 802.538 1271.45 803.36ZM360.799 424.241C348.144 420.192 319.4 402.199 308.275 400.862C307.574 400.778 312.922 404.376 302.544 402.614C309.882 405.15 315.072 406.871 316.36 405.368C318.227 406.879 320.067 408.387 321.904 409.905C325.591 411.012 329.246 412.132 332.924 413.295C331.761 414.836 332.074 414.849 337.914 416.165C340.14 417.74 342.334 419.317 344.515 420.905C345.884 420.684 347.247 420.462 348.608 420.243C350.203 422.269 351.767 424.294 353.312 426.323C361.854 429.316 357.977 424.92 360.799 424.241ZM400.723 447.203C400.207 446.748 395.102 443.714 388.657 440.214C373.808 432.037 351.972 422.462 367.765 433.739C374.071 437 380.33 440.378 386.541 443.853C386.578 443.873 386.615 443.894 386.652 443.915C386.637 443.854 386.622 443.794 386.609 443.735C386.148 441.647 386.759 441.095 387.944 441.439C391.344 442.425 399.05 450.507 400.031 451.228C406.299 455.706 415.38 459.64 420.032 462.726C424.01 465.36 425.776 467.852 428.624 469.701C438.287 475.891 452.965 486.387 456.476 485.859C449.336 480.502 441.906 475.248 434.165 470.121C425.935 464.708 420.01 457.857 402.472 451.072C398.758 448.408 401.138 447.579 400.723 447.203ZM1292.39 791.757C1293.19 794.577 1314.04 782.575 1313.45 781.417C1313.18 780.907 1306.55 784.829 1305.45 785.146C1305.45 785.149 1305.44 785.153 1305.43 785.156C1304.98 785.292 1306.53 783.302 1303.24 784.816C1299.71 787.229 1296.09 789.551 1292.39 791.757ZM133.158 68.5105C135.591 66.0488 197.385 28.3615 199.493 27.7407C199.912 27.307 198.912 27.1081 198.944 26.6785C184.849 36.1742 162.781 45.9578 149.273 54.9978C145.474 57.5208 147.217 57.5923 147.005 57.7557C146.997 57.7617 146.988 57.7677 146.979 57.7737C144.866 59.162 133.959 63.9878 133.158 68.5105ZM286.549 393.197C289.228 394.705 291.92 396.231 294.58 397.755C295.605 397.31 296.628 396.864 297.647 396.419C297.64 396.416 297.634 396.413 297.627 396.411C293.917 395.313 290.238 394.248 286.549 393.197ZM188.866 351.478C189.319 352.297 189.774 353.115 190.232 353.933C197.286 357.134 204.392 360.214 211.526 363.21C210.684 363.209 209.841 363.208 208.997 363.204C219.529 368.431 224.761 368.326 230.463 370.865C230.456 370.863 230.45 370.86 230.443 370.858C231.054 371.131 231.379 372.518 233.696 373.458C238.993 375.621 254.117 381.852 256.385 381.454C261.179 380.588 230.005 369.985 224.355 367.563C221.79 366.494 219.07 364.303 217.514 363.65C215.803 362.937 212.953 363.287 208.789 361.527C207.564 361.033 194.709 353.867 188.866 351.478ZM80.9033 270.352C80.9623 273.109 84.6711 276.838 85.5308 278.496C85.7392 278.904 82.9365 276.55 84.9853 280.269C86.251 280.866 87.5229 281.444 88.7986 282.001C85.9677 278.251 83.3409 274.373 80.9033 270.352ZM1326.05 770.749C1326.04 770.751 1326.03 770.755 1326.01 770.76C1325.04 771.167 1314.83 777.9 1314.38 778.31C1310.05 783.253 1324.39 774.512 1326.53 771.53C1326.99 770.918 1326.93 770.593 1326.05 770.749ZM1614.18 691.944C1610.18 687.994 1654.77 700.648 1673.53 706.703C1677.39 707.897 1680.2 708.761 1681.29 709.036C1680.81 710.093 1676.14 708.679 1673.17 707.996C1670.65 707.415 1669.34 707.338 1672.71 709.639C1672.72 709.645 1672.73 709.651 1672.74 709.657C1672.73 709.652 1672.72 709.647 1672.71 709.643C1665.28 705.896 1643.4 700.982 1638.39 699.283C1635.36 698.229 1635 696.259 1634.55 696.086C1632.75 695.393 1615.91 693.522 1614.18 691.944ZM1735.14 726.231C1729.03 723.981 1722.91 721.741 1716.79 719.518C1724.22 721.457 1731.63 723.42 1739.05 725.398C1737.74 725.676 1736.44 725.953 1735.14 726.231ZM1743.24 727.664C1743.64 725.633 1764.3 733.529 1769.98 734.776C1762.71 736.205 1753.23 729.88 1743.24 727.664ZM1390.32 717.576C1381.17 722.33 1381.27 729.966 1389.78 720.606C1390.03 720.316 1390.71 717.393 1390.32 717.576ZM362.013 414.977C360.525 414.07 341.775 402.709 340.168 403.16C335.21 404.374 348.693 409.255 352.422 412.484C358.443 417.686 347.655 413.976 364.869 421.464C363.886 421.675 362.92 421.896 361.946 422.114C371.537 427.356 370.438 421.805 372.459 422.223C373.083 422.349 378.953 425.967 380.173 426.33C395.539 430.731 363.542 415.528 362.013 414.977ZM1164.52 801.273C1144.83 797.069 1153.02 800.992 1132.65 797.526C1131.7 798.997 1161.79 802.509 1164.52 801.273ZM519.135 535.364C513.045 527.83 507.721 520.653 501.806 514.011C494.762 506.209 487.144 499.589 478.074 493.824C477.357 495.73 489.364 505.169 499.941 515.719C510.742 526.727 520.369 537.948 519.135 535.364ZM353.934 -27.9948C310.434 -14.1605 264.32 3.91148 219.464 25.4711C184.352 42.655 149.673 62.1072 122.291 87.7534C117.148 92.59 114.991 93.5999 113.219 94.8572C112.653 95.2665 112.134 95.705 111.589 96.3111C110.118 97.9529 111.231 98.5492 109.204 100.651C88.3519 121.077 75.4233 146.482 71.2074 174.653C64.5361 217.035 77.9169 262.296 107.148 292.532C128.265 314.21 156.081 329.108 183.98 342.41C189.671 345.312 217.667 359.932 225.432 358.628C231.233 357.739 209.461 351.523 206.041 349.976C203.454 348.864 203.895 347.521 202.175 346.781C200.351 345.993 201.48 347.524 199.354 346.623C190.341 342.806 180.828 338.02 172.925 334.187C149.158 322.599 126.146 309.221 108.637 291.117C79.57 261.053 67.1469 216.083 73.9724 175.161C76.7564 160.08 80.9634 145.585 88.3188 132.73C93.3581 124.24 93.4356 126.719 93.6545 126.274C93.6559 126.267 93.6572 126.26 93.6586 126.253C100.029 116.793 108.176 107.729 117.023 98.6676C144.732 69.1212 182.889 46.6717 220.874 28.3631C225.238 26.2762 229.671 24.2206 234.119 22.2159C272.457 5.11988 311.614 -10.4837 350.869 -25.8309C351.893 -26.5534 352.915 -27.2747 353.934 -27.9948ZM399.47 440.297C398.057 436.585 396.439 436.11 392.188 434.142C389.155 432.748 384.824 430.606 378.206 426.133C376.498 426.02 374.796 425.918 373.092 425.82C379.216 429.006 385.284 432.294 391.301 435.667C394.075 437.223 396.745 438.736 399.497 440.314C399.488 440.308 399.479 440.303 399.47 440.297ZM287.369 384.358C287.09 382.081 281.815 379.106 274.368 375.959C260.588 370.141 239.399 363.717 228.244 358.517C223.921 359.954 250.122 368.731 256.124 371.304C258.016 372.131 264.879 376.05 272.935 379.662C277.595 381.751 282.587 383.726 287.319 384.968C287.336 384.765 287.352 384.562 287.369 384.358ZM1544.67 671.082C1541.51 670.909 1538.38 670.775 1535.23 670.68C1543.02 671.966 1550.73 673.505 1558.34 675.218C1548.64 673.526 1538.86 672.119 1528.96 671.152C1526.35 670.898 1523.75 670.675 1521.14 670.486C1523.52 669.389 1525.94 668.322 1528.38 667.281C1528.65 667.338 1528.93 667.395 1529.2 667.453C1534.42 668.55 1539.57 669.768 1544.67 671.082ZM1503.77 669.801C1525.96 669.216 1502.86 672.299 1497.3 671.409C1493.93 670.76 1501.48 669.878 1503.77 669.801ZM1445.83 678.614C1454.98 672.553 1476.46 667.939 1469.75 673.658C1458.19 674.3 1451.37 677.762 1435.79 683.202C1437.68 681.497 1439.62 679.821 1441.6 678.179C1441.61 678.175 1441.62 678.171 1441.63 678.167C1443.04 678.299 1444.44 678.447 1445.83 678.614ZM1513.95 667.201C1528.53 669.497 1486.2 669.3 1499.44 667.441C1500.08 667.241 1513.38 667.014 1513.95 667.201ZM272.98 10.9501C273.976 9.01725 264.146 13.3889 260.827 14.7857C249.231 19.6189 235.301 26.3785 222.879 32.478C219.879 33.949 217.13 35.3001 214.334 36.662C215.606 36.5261 216.94 36.3625 218.183 36.2473C219.909 35.3943 221.667 34.5333 223.457 33.6642C239.714 25.7794 256.28 18.2884 272.98 10.9501ZM170.752 60.681C161.522 66.372 152.55 72.4038 144.115 78.8806C143.286 79.5045 140.411 83.2629 143.272 81.374C151.91 74.005 161.13 67.1852 170.752 60.681ZM463.448 472.466C456.847 466.611 479.504 478.611 475.966 481.346C471.83 478.309 467.658 475.357 463.448 472.466ZM524.388 528.39C520.733 524.293 517.011 520.203 513.115 516.162C513.48 515.847 513.845 515.532 514.21 515.216C517.761 519.597 521.11 523.992 524.388 528.39ZM313.455 -5.43889C307.592 -4.75925 295.276 0.761766 287.536 4.08353C293.411 3.07667 305.839 -2.9993 313.455 -5.43889ZM352.769 403.794C352.971 404.942 321.664 390.331 333.363 393.485C339.855 396.818 346.359 400.263 352.769 403.794ZM289.139 374.318C296.084 376.808 301.233 379.337 299.16 380.398C295.558 378.851 291.948 377.321 288.37 375.821C288.626 375.32 288.883 374.819 289.139 374.318ZM1408.22 693.296C1397.29 700.038 1386.95 707.298 1376.88 714.688C1376.97 714.026 1377.07 713.365 1377.17 712.703C1386.92 705.573 1396.93 698.57 1407.52 692.039C1407.75 692.458 1407.98 692.877 1408.22 693.296ZM321.521 -4.13694C329.146 -7.6832 336.8 -11.2121 344.455 -14.7192C336.549 -11.7992 328.642 -8.85621 320.759 -5.894C321.008 -5.30302 321.256 -4.71204 321.504 -4.12105C321.51 -4.12634 321.515 -4.13165 321.521 -4.13694ZM1581.43 665.311C1543.36 656.719 1593.02 662.311 1602.16 668.012C1602.17 668.011 1602.18 668.011 1602.19 668.01C1603 668.479 1600.87 669.474 1602.2 670.337C1598.5 668.906 1594.8 667.505 1591.04 666.124C1587.38 666.22 1583.68 666.339 1580.02 666.495C1578.91 665.979 1577.79 665.467 1576.68 664.959C1578.26 665.069 1579.86 665.191 1581.43 665.311ZM1730.76 702.036C1763.45 712.098 1728.95 705.392 1713.45 697.98C1713.75 697.389 1727.75 701.107 1730.76 702.036ZM1643.76 678.552C1638.39 677.525 1633.03 676.534 1627.64 675.576C1627.06 675.022 1626.47 674.466 1625.88 673.911C1630.06 674.488 1634.23 675.087 1638.4 675.709C1640.18 676.65 1641.99 677.604 1643.76 678.552ZM1458.03 657.66C1448.17 660.128 1437.31 667.216 1467.77 658.325C1467.66 657.856 1467.54 657.387 1467.43 656.919C1466.19 657.243 1462.64 658.515 1462.44 658.535C1461.84 658.561 1462.14 656.797 1458.03 657.66ZM1795.01 708.222C1795.98 708.327 1797.99 703.624 1806.08 711.599C1809.1 712.186 1812.09 712.764 1815.1 713.346C1815.52 714.647 1815.93 715.942 1816.36 717.247C1805.37 712.987 1803.5 714.782 1802.67 714.58C1798.85 713.632 1801.97 713.367 1799.56 712.614C1793.33 710.667 1778.88 707.068 1786.29 705.854C1788.98 705.429 1794.03 708.113 1795.01 708.222ZM1773.74 698.701C1774.99 699.526 1770.12 699.599 1771.04 700.318C1771.86 700.947 1785.04 706.557 1780.62 707.836C1778.41 707.052 1776.2 706.266 1773.99 705.483C1773.44 704.593 1772.88 703.704 1772.32 702.814C1769.95 702.758 1767.61 702.71 1765.25 702.656C1762.09 699.921 1754.91 695.449 1764.58 696.932C1761.14 696.038 1757.69 695.146 1754.23 694.255C1752.24 694.503 1750.23 694.749 1748.23 694.997C1749.51 694.088 1750.8 693.179 1752.08 692.271C1759.31 694.405 1766.53 696.55 1773.74 698.701ZM1877.79 729.729C1877.21 730.237 1876.63 730.744 1876.05 731.25C1888.92 733.471 1908.77 738.427 1896.5 739.245C1879.41 734.935 1862.4 730.736 1845.38 726.502L1846.1 726.705C1846.01 726.681 1845.93 726.658 1845.84 726.634C1844.89 725.85 1843.92 725.061 1842.94 724.266C1844.28 724.878 1845.42 725.307 1846.43 725.596L1845.68 725.386C1854.06 727.58 1853.59 721.215 1862.89 725.801C1864.64 726.668 1858.54 727.893 1870.71 729.33C1870.46 728.597 1870.21 727.862 1869.96 727.128C1872.58 727.996 1875.19 728.863 1877.79 729.729ZM1989.26 765.213C1967.09 754.79 1993.26 763.27 1995.8 766.663C1995.79 766.66 1995.78 766.657 1995.78 766.654C2003.9 776.1 1982.69 763.804 1980.6 763.101C1979.85 762.808 1978.54 762.841 1976.73 762.526C1976.51 762.451 1975.87 762.183 1975.65 762.116C1972.65 761.737 1968.26 760.412 1962.58 754.842C1967.2 756.412 1971.84 758.048 1976.49 759.766C1976.73 759.839 1977.42 760.127 1977.66 760.208C1981.66 761.847 1985.56 763.55 1989.26 765.213ZM1915.82 740.113C1917.69 740.505 1916.41 741.153 1917.2 741.36C1917.21 741.362 1917.22 741.364 1917.23 741.366C1928.86 744.296 1957.35 751.981 1959.52 756.111C1950.46 753.191 1911.52 742.783 1909.81 740.198C1911.82 740.17 1913.8 740.134 1915.82 740.113ZM1834.97 720.297C1828.98 716.497 1842.67 720.262 1847.36 722.426L1846.54 722.194C1846.83 722.317 1847.08 722.435 1847.3 722.547C1847.5 722.655 1847.12 722.832 1846.33 722.958L1847.14 723.185C1845.05 723.511 1839.79 723.351 1834.97 720.297ZM1284.14 748.097C1273.01 755.48 1289.01 748.243 1284.57 752.81C1286.78 751.423 1288.97 749.983 1291.18 748.479C1288.8 748.403 1286.45 748.282 1284.14 748.097ZM639.878 626.556C637.668 623.845 637.938 625.84 637.72 625.631C636.21 623.949 635.423 621.677 634.775 621.11C622.472 610.209 628.973 618.949 628.917 619.241C628.293 620.265 624.41 617.927 627.414 623.27C630.164 625.73 632.891 628.115 635.668 630.502C636.415 632.241 637.197 634.004 637.964 635.738C643.919 639.989 637.7 632.946 638.298 630.903C638.553 630.131 643.752 634.42 639.878 626.556ZM1262.04 754.202C1260.97 756.774 1257.03 760.784 1262.33 761.107C1262.34 761.105 1262.34 761.103 1262.35 761.101C1263.33 761.161 1266.9 760.035 1268.16 760.07C1274.77 754.321 1270.49 753.319 1262.04 754.202ZM687.541 665.931C691.061 669.168 694.592 672.222 697.957 674.92C698.03 675.01 698.108 675.102 698.19 675.196C697.535 676.213 696.875 677.227 696.209 678.237C696.131 678.146 696.057 678.055 695.985 677.965C694.237 676.487 692.455 674.921 690.663 673.289C689.551 673.175 688.474 673.076 687.343 672.93C689.309 676.083 691.32 679.16 693.313 682.09C693.314 682.095 693.316 682.101 693.317 682.106C695.153 682.72 697.308 683.253 699.882 683.677C698.991 682.674 698.26 681.672 697.696 680.696C702.904 682.113 700.812 684.499 706.723 687.086C709.171 686.459 711.72 685.739 714.31 684.932C717.733 686.493 721.583 687.908 725.672 689.181C732.719 688.85 733.396 687.928 728.638 686.595C732.132 685.199 736.046 687.491 740.524 686.765C740.891 686.706 740.159 685.345 740.483 685.319C763.863 683.398 763.545 686.626 767.412 686.571C770.217 686.463 781.569 683.037 781.715 682.185C781.943 681.048 756.895 678.687 795.493 675.343C774.677 674.009 754.105 678.806 768.225 682.194C761.877 682.402 736.863 684.853 735.647 684.506C733.462 684.32 734.192 682.614 731.524 682.561C730.144 682.461 725.055 686.647 714.666 682.061C713.277 682.534 711.873 682.978 710.529 683.4C709.437 682.681 708.433 681.95 707.495 681.205C710.044 679.84 712.647 678.368 715.291 676.805C705.051 677.545 702.232 671.93 699.241 673.886C699.095 673.752 698.973 673.627 698.87 673.51C695.298 670.761 693.799 669.079 696.538 669.209C695.067 668.193 693.603 667.146 692.098 666.037C690.603 666.033 689.078 665.993 687.541 665.931ZM1226.49 765.176C1219.91 764.011 1217.88 768.136 1218.91 768.305C1224.79 769.124 1229.95 765.741 1226.49 765.176ZM647.198 637.34C651.896 643.628 656.75 649.806 661.698 655.751C662.562 654.807 663.426 653.864 664.29 652.92C658.536 647.972 652.81 642.733 647.198 637.34ZM1284.43 744.633C1285.47 745.144 1286.5 745.656 1287.56 746.151C1291.76 740.262 1299.2 739.205 1303.18 736.973C1303.87 736.591 1304.45 736.173 1304.87 735.692C1305.44 735.059 1303.47 734.713 1301.92 735.11C1301.75 735.155 1301.59 735.209 1301.43 735.273C1300.36 735.861 1285.38 743.898 1284.43 744.633ZM1669.62 663.407C1666.05 663.115 1662.47 662.834 1658.87 662.563C1659.34 661.568 1659.8 660.574 1660.26 659.58C1662 659.828 1663.76 660.082 1665.49 660.334C1666.87 661.355 1668.26 662.385 1669.62 663.407ZM1630.01 655.142C1623.82 653.59 1617.59 652.086 1611.32 650.641C1635.45 655.007 1615.94 650.115 1630.73 652.091C1630.49 653.108 1630.25 654.125 1630.01 655.142ZM1565.84 640.333C1566.74 639.814 1567.65 639.296 1568.55 638.782C1575.16 639.775 1581.69 640.879 1588.15 642.066C1584.47 639.117 1580.72 636.193 1576.9 633.303C1574.46 632.899 1572.04 632.514 1569.58 632.137C1568.32 634.865 1567.07 637.597 1565.84 640.333ZM542.077 495.325C540.593 493.479 536.331 489.312 532.384 485.997C529.111 483.201 526.613 481.523 526.603 481.954C527.946 483.717 529.354 485.599 530.725 487.517C533.481 491.415 535.823 495.1 538.011 498.7C539.019 497.908 540.028 497.116 541.037 496.325C541.112 497.421 541.159 498.489 541.201 499.555C543.771 501.969 546.192 504.27 548.615 506.613C548.727 508.586 548.879 510.623 548.953 512.566C550.957 513.083 552.97 513.618 554.958 514.129C547.352 500.364 545.562 501.973 543.503 499.319C542.398 497.929 542.32 496.581 542.207 495.813C542.164 495.65 542.121 495.488 542.077 495.325ZM656.74 635.377C645.776 623.908 637.009 619.175 631.35 608.436C631.592 618.602 669.593 649.403 678.961 662.504C680.864 662.82 682.749 663.102 684.63 663.36C677.382 658.705 674.014 653.044 670.994 649.951C668.595 647.475 668.166 648.435 667.985 648.253C667.976 648.245 667.966 648.237 667.957 648.228C662.25 642.384 661.099 639.874 656.74 635.377ZM1291.4 734.913C1287.16 735.843 1281.47 739.334 1282.5 741.286C1286.07 739.99 1289.72 738.532 1293.42 736.931C1292.43 736.887 1292.12 734.764 1291.4 734.913ZM1558.92 633.106C1554.96 631.831 1545.16 631.414 1549.14 633.779C1549.86 634.178 1559.59 633.998 1553.57 636.761C1562.83 637.857 1561.17 633.833 1558.92 633.106ZM915.248 701.664C917.636 702.381 919.918 703.008 922.079 703.532C922.815 702.802 923.529 702.064 924.227 701.317C921.486 701.604 918.467 701.71 915.248 701.664ZM1320.49 712.632C1326.35 713.766 1329.38 706.168 1337.84 704.374C1340.19 702.666 1342.55 700.947 1344.94 699.223C1344.94 699.219 1344.95 699.214 1344.95 699.21C1344.31 698.198 1343.66 697.186 1343.01 696.174C1335.29 701.779 1327.8 707.312 1320.49 712.632ZM716.65 678.655C717.898 679.351 719.231 680.03 720.608 680.689C723.183 680.224 725.859 679.692 728.586 679.101C727.134 678.604 725.695 678.09 724.328 677.56C721.664 677.992 719.09 678.359 716.65 678.655ZM1361.9 681.808C1352.82 687.552 1351.86 692.954 1362.93 685.091C1367.65 681.782 1371.56 675.806 1361.9 681.808ZM369.44 375.252C372.6 377.162 375.735 379.091 378.874 381.056C380.351 380.908 381.838 380.769 383.326 380.634C378.705 378.783 374.073 376.989 369.44 375.252ZM1609.39 642.355C1608.81 643.052 1608.23 643.749 1607.65 644.447C1604.51 643.622 1601.36 642.814 1598.2 642.025C1599.17 641.403 1600.12 640.779 1601.08 640.159C1603.87 640.88 1606.63 641.609 1609.39 642.355ZM391.274 386.989C393.802 388.517 396.309 390.056 398.814 391.616C400.727 392.227 402.646 392.852 404.557 393.482C402.352 391.794 400.135 390.117 397.894 388.446C395.693 387.951 393.483 387.464 391.274 386.989ZM1465.67 633.727C1460.46 633.566 1441.93 641.488 1459.45 637.904C1470.61 636.004 1466.45 633.767 1465.67 633.727ZM1491.87 629.341C1473.18 629.392 1488.13 636.4 1508.93 630.142C1487.54 631.456 1492.88 629.517 1491.87 629.341ZM1635.57 641.853C1635.94 641.948 1635.93 643.322 1638.93 644.098C1649.7 646.867 1663.63 651.029 1671.17 653.139C1675.05 654.219 1680.69 655.662 1687.18 657.341C1710.96 663.447 1745.77 672.966 1749.85 677.385C1750.93 678.562 1747.2 679.986 1747.7 680.267C1749.17 681.073 1758.55 682.661 1756.36 683.875C1747.51 681.191 1738.62 678.52 1729.71 675.877C1732.25 675.309 1734.8 674.743 1737.35 674.179C1714.93 668.261 1722.29 670.373 1715.11 671.145C1711.63 669.025 1708.14 666.909 1704.64 664.799C1698.4 663.832 1692.16 662.885 1685.9 661.965C1683.54 661.616 1681.22 661.282 1678.86 660.942C1680.98 660.69 1683.06 660.43 1685.17 660.182C1672.99 655.308 1676.21 657.205 1668.82 657.23C1669.01 656.453 1669.2 655.676 1669.4 654.899C1656.67 653.543 1654.88 650.65 1652.18 649.926C1646.59 648.498 1637.54 655.814 1618.14 641.804C1608.07 644.232 1610.17 635.281 1603.8 638.748C1589.1 630.596 1618.71 638.346 1632.3 641.876C1632.3 641.878 1632.31 641.88 1632.32 641.882C1633.35 642.141 1631.9 640.913 1635.57 641.853ZM1553.33 631.275C1564.13 628.119 1523.42 623.864 1536.46 631.077C1538.44 631.426 1540.43 631.793 1542.39 632.171C1546.07 631.83 1549.7 631.532 1553.35 631.278C1553.34 631.277 1553.33 631.276 1553.33 631.275ZM1235.86 751.712C1234.38 752.069 1233.03 752.389 1231.77 752.681C1213.29 756.489 1223.94 757.165 1232.05 754.52C1232.66 754.312 1233.26 754.084 1233.81 753.837C1235.46 753.106 1236.26 752.316 1235.86 751.712ZM643.26 616.644C642.592 616.653 641.923 616.66 641.252 616.664C648.389 623.995 660.722 639.067 662.901 636.394C656.261 630.11 649.682 623.469 643.26 616.644ZM700.47 665.67C699.163 664.596 693.357 659.74 693.314 661.252C695.464 663.982 697.617 666.612 699.694 669.068C700.309 669.207 700.916 669.337 701.502 669.448C701.799 669.245 702.103 669.04 702.419 668.837C702.317 668.697 702.305 668.407 702.362 668.12C701.473 667.021 700.694 665.862 700.47 665.67Z" fill="#F3E582" fill-opacity="0.7"/>
</svg>
