<svg width="695" height="59" viewBox="0 0 695 59" fill="none" xmlns="http://www.w3.org/2000/svg">
<path d="M54.6203 57.771C55.0468 57.7091 56.7766 57.7546 57.5243 57.7069C56.693 58.2218 53.0808 57.9954 54.6203 57.771ZM129.989 19.765C129.373 19.9086 128.757 20.0523 128.141 20.1959C129.907 20.2043 132.277 20.0236 133.923 20.0723C134.192 20.0808 133.509 20.4536 134.145 20.444C134.781 20.4344 134.64 19.9672 135.562 19.8803C136.597 19.7844 141.363 19.9262 142.982 19.8543C149.084 19.5819 155.254 19.068 161.422 19.0198C155.079 19.6209 161.497 19.7227 163.274 19.5005C163.666 19.4499 163.58 18.5745 169.927 18.5437C173.967 18.5235 170.287 19.9265 177.002 19.0297C171.784 18.3584 176.88 18.2172 180.949 18.0258C181.649 17.9927 187.326 17.8983 189.832 17.7592C190.684 17.7116 191.966 17.1999 193.098 17.1426C193.877 17.1035 194.476 17.3312 195.634 17.272C201.029 16.9994 206.346 16.7665 211.773 16.6336C208.651 17.9421 214.281 17.037 214.538 17.0832C215.843 17.352 210.002 17.6782 212.321 17.7859C215.557 17.6192 218.763 17.4535 221.987 17.287C219.337 17.2485 225.449 16.1513 226.597 16.4921C226.053 15.4688 241.34 16.8069 243.634 16.3646C244.113 16.2715 240.939 15.8834 248.263 15.8232C249.056 15.8173 248.769 16.1443 249.183 16.0982C249.431 16.0704 250.897 15.0085 252.524 15.4965C253.118 15.6746 249.396 16.4841 257.617 15.8859C254.298 15.0004 269.009 14.8708 271.727 15.0157C271.181 14.9008 270.635 14.7859 270.089 14.671C272.778 14.9315 273.246 14.5655 273.849 14.5598C276.279 14.5369 279.629 14.75 281.886 14.6261C284.528 14.4817 284.511 13.8478 287.601 13.9686C286.865 13.8586 286.128 13.7486 285.392 13.6387C287.523 13.5855 289.643 13.5327 291.781 13.4791C286.878 14.5193 292.848 13.4756 293.244 13.4414C293.873 13.3851 292.981 13.7654 294.034 13.6796C294.143 13.6681 293.972 13.3512 295.597 13.2485C298.99 13.0349 298.469 13.4633 299.895 13.4005C300.025 13.393 299.556 13.1205 302.014 12.9509C309.823 12.4118 301.985 13.1757 301.686 13.2283C301.294 13.2975 304.027 14.405 297.363 14.2451C299.601 14.2913 299.847 14.8207 300.099 14.8238C300.322 14.8257 304.183 14.5918 304.395 14.5645C306.286 14.3039 304.601 14.0042 304.968 13.9231C305.269 13.8575 309.94 14.1468 310.983 12.9951C313.248 13.9252 309.743 13.9751 306.016 14.2848C305.481 14.5167 309.587 14.5527 309.802 14.5433C315.084 14.3251 312.125 13.6049 313.257 13.0207C313.852 12.7149 316.026 13.1999 314.01 12.5281C318.808 12.2518 315.915 12.8075 316.226 12.8595C316.7 12.9351 318.376 12.6502 318.588 12.6703C318.899 12.7002 317.834 13.005 319.058 13.0469C319.262 13.0519 321.209 12.5225 318.665 12.412C322.055 12.3369 321.759 11.9657 322.938 12.6898C325.209 11.1353 324.664 13.4827 325.585 13.5268C328.032 13.6422 327.277 12.5259 327.404 12.4647C328.277 12.0704 335.032 12.1871 336.689 11.9536C336.066 12.8055 331.353 12.1818 330.311 12.3849C326.841 13.0608 335.249 12.5953 332.756 13.736C333.807 13.4077 334.857 13.0793 335.907 12.751C337.88 13.3375 335.133 13.7416 340.357 13.2828C341.188 12.6724 336.661 13.5258 337.556 13.0351C338.084 12.747 341.116 12.5651 341.177 12.4222C341.225 12.2511 338.487 12.5641 338.91 12.2867C339.818 11.6883 349.927 11.8066 342.269 12.4279C344.408 12.3303 345.555 13.3991 347.393 12.9758C348.579 12.7012 341.784 11.4395 351.896 11.3059C352.133 11.8231 347.866 11.6275 347.756 11.6721C347.603 11.7367 348.422 12.8923 348.558 12.9454C349.041 13.1188 359.313 12.0589 361.5 12.5661C360.602 11.9158 369.276 12.1228 370.221 11.8743C370.47 11.8062 369.512 11.4247 369.779 11.3691C371.447 11.0351 376.009 11.5983 378.105 11.5312C380.452 11.4563 380.139 11.1056 380.27 11.1009C381.303 11.0785 380.489 11.3587 381.119 11.3319C382.074 11.2913 388.604 11.0718 388.926 11.0071C389.021 10.9871 387.94 10.6164 389.357 10.479C389.604 10.4551 389.471 10.9531 393.717 10.5648C398.826 10.0976 390.135 10.1005 392.241 9.49762C395.563 10.0946 395.424 9.3726 396.318 9.39277C396.627 9.40079 398.948 9.92348 401.431 9.78154C399.651 9.95564 397.869 10.1298 396.084 10.3041C397.848 10.3396 401.251 10.0645 402.699 10.1271C403.406 10.1575 402.847 10.6889 404.375 10.6119C404.698 10.5929 405.936 9.3033 401.953 10.0239C401.614 9.59571 403.533 9.80419 404.411 9.64277C404.544 9.61778 405.041 8.85853 406.187 9.27015C406.459 9.37179 403.613 11.6445 411.131 9.77353C411.373 9.71324 410.513 9.47898 410.749 9.41326C410.911 9.36867 412.848 9.39759 413.059 9.35054C413.276 9.30049 412.331 9.04502 412.588 8.97639C413.902 8.62323 415.735 9.71579 412.954 9.74195C413.875 9.84824 414.826 9.95324 415.76 10.0589C414.727 9.22112 417.213 9.75094 418.498 9.67057C426.722 9.15629 421.186 8.81303 422.589 8.45853C424.84 7.88936 423.17 9.46566 426.517 8.87401C426.825 8.81893 422.742 8.34858 430.682 8.38018C429.515 8.45351 428.346 8.52691 427.176 8.60037C427.888 9.42263 431.397 8.36685 431.668 8.34367C434.766 8.09818 432.683 8.49167 437.264 7.86295C437.68 7.80629 438.599 7.97837 439.487 7.83667C443.162 7.25213 434.604 7.77717 434.391 7.44118C434.239 7.27853 443.452 6.9387 443.768 7.00578C445.124 7.30514 439.603 7.33532 440.672 7.73251C441.079 7.87242 454.129 7.00853 456.711 7.07301C459.713 7.14825 461.111 8.245 461.085 6.94847C462 8.18421 462.723 7.28511 463.113 7.27766C467.824 7.19982 467.831 7.21238 471.834 6.92401C472.717 6.86079 473.478 7.21562 473.788 7.1375C473.968 7.09061 473.611 6.69184 474.495 6.52749C475.736 6.30137 483.115 6.41996 483.691 6.62464C484.238 6.83051 480.573 6.85339 481.245 7.20136C483.857 7.13076 486.521 6.927 489.216 6.85456C490.342 6.82531 489.774 7.112 490.26 7.09701C490.47 7.09155 494.332 6.69926 494.162 6.60927C493.791 6.39908 481.768 7.05066 484.916 6.45934C485.526 6.34501 487.711 6.86039 487.337 6.13874C498.071 5.85955 508.658 5.58639 519.357 5.30869C513.325 6.11088 506.182 5.91481 499.916 6.22704C499.046 6.26964 496.082 6.32179 496.457 6.67881C501.874 6.54999 508.645 6.07429 513.938 6.09702C514.107 6.09804 513.503 6.45791 514.135 6.48469C515.319 6.53447 519.111 5.83687 519.753 5.9498C519.865 5.97769 517.717 6.50834 518.387 6.76094C520.108 7.40915 520.47 5.79995 521.919 5.75861C523.014 5.72834 530.634 6.1824 532.542 5.61614C534.551 5.01357 526.88 5.55011 527.423 5.10315C532.63 4.46021 537.871 4.69787 542.681 4.44492C542.766 4.44005 542.016 4.13862 543.088 4.04757C544.951 3.8892 545.457 4.33994 546.364 4.37772C547.298 4.41926 550.897 4.20222 551.366 4.35477C551.428 4.37476 550.728 4.87172 550.62 4.88938C549.081 5.14611 548.503 4.56281 548.362 4.56088C547.824 4.56017 547.331 4.81329 546.863 4.81885C546.091 4.82779 545.658 4.63058 544.637 4.654C543.931 4.66938 544.629 5.0537 543.949 5.06304C543.7 5.06475 540.963 4.23478 540.749 5.20696C540.582 5.51744 563.046 4.97489 565.131 4.64576C563.245 4.6081 561.349 4.57093 559.442 4.53421C563.328 4.65493 567.835 3.69842 568.24 4.82032C582.826 4.30884 597.002 3.81556 611.456 3.31384C614.04 3.30456 612.672 4.09251 616.864 3.70724C615.773 3.51898 614.675 3.33097 613.573 3.14321C615.788 3.2155 625.169 3.14989 626.861 2.92978C627.063 2.90175 627.328 2.2286 629.738 2.07304C631.871 1.93553 632.226 2.41721 633.36 2.46594C634.31 2.50553 635.359 2.33265 635.638 2.34865C635.853 2.36183 635.95 2.66128 636.464 2.69318C638.085 2.79062 636.745 1.991 638.381 2.90528C637.994 2.95842 637.607 3.0116 637.219 3.06483C639.12 3.12923 641.966 3.45862 638.984 3.79994C638.496 3.85777 638.904 3.54757 638.539 3.56298C624.038 4.20989 635.634 4.30641 640.761 3.64172C642.179 4.01875 649.635 3.45013 649.853 3.52714C650.196 3.63734 648.956 4.03525 650.612 4.26823C650.879 4.32066 660.916 3.67141 657.312 4.39513C656.494 4.54734 651.806 4.61175 650.686 4.67428C653.275 5.49101 659.753 3.90856 660.451 3.91441C663.359 3.94082 654.898 4.93721 661.446 4.78034C666.413 4.66264 661.734 4.23537 663.627 3.89646C664.725 3.70477 670.144 4.16561 670.079 3.2902C672.078 3.11648 670.924 3.62762 671.173 3.6511C671.426 3.67033 675.29 3.25328 676.509 3.38998C676.659 3.40703 676.208 3.88138 676.364 3.91255C676.678 3.9639 680.268 3.73024 680.397 3.68653C680.487 3.65609 679.625 3.29065 679.969 3.1801C680.17 3.11626 681.125 3.07404 682.038 3.03322C683.049 2.98854 684.013 2.94549 684.112 2.8845C684.251 2.79268 683.195 2.81954 682.177 2.81074C681.228 2.79924 680.367 2.75004 680.704 2.51328C682.568 2.55195 686.126 2.11369 687.39 1.7045C687.071 1.81983 685.091 1.91238 684.386 1.90392C684.709 1.23662 688.933 1.07977 687.51 1.65359C688.411 1.3401 687.783 1.21712 688.285 0.934938C688.418 0.863206 689.698 0.799463 689.936 0.676864C689.969 0.652992 688.641 0.457957 688.9 0.314939C689.388 0.0555028 693.186 -0.0384325 693.474 0.0135076C694.342 0.15838 691.305 0.492453 691.045 0.778726C691.017 0.82213 693.645 1.26084 693.678 1.30741C693.857 1.81297 690.943 1.55692 691.288 2.00508C692.017 2.07416 692.738 2.1436 693.451 2.2134C690.77 2.78462 685.387 2.75545 683.954 3.34373C688.399 3.0102 692.674 2.86275 692.708 4.05865C692.729 4.56204 690.96 4.92651 691.03 5.05197C691.321 5.4993 693.756 4.90628 693.838 4.92734C693.913 4.9524 693.948 4.97828 693.949 5.00472C693.949 5.00473 693.949 5.00475 693.949 5.00476C693.973 5.27228 690.471 5.60197 690.282 5.73211C689.991 5.96128 691.611 6.79469 691.614 6.99295C691.568 7.03453 689.026 7.34601 689.9 7.65795C690.795 7.97253 692.987 7.89492 693.059 7.92845C693.496 8.1205 689.651 8.46107 689.52 8.5898C689.466 8.65435 691.574 8.95568 691.633 9.06369C691.691 9.17208 690.119 9.47488 689.496 9.84859C689.035 10.1262 690.414 10.2712 690.174 10.3213C690.019 10.3542 686.253 10.4974 686.051 10.5511C685.773 10.6294 686.682 10.9039 686.554 10.9865C686.376 11.105 685.128 11.0421 685.294 11.1504C685.444 11.2298 690.214 12.112 690.172 12.3994C690.153 12.8872 685.13 11.9631 689.828 13.7015C689.862 13.7128 690.965 13.5331 690.994 13.5438C691.686 13.8705 688.185 14.5511 692.482 14.2884C684.439 15.2168 691.526 15.0579 690.362 15.9237C689.925 16.2559 686.729 16.5112 686.706 16.5595C687.038 16.9464 688.052 16.5964 688.404 16.7787C688.607 16.8803 685.732 17.4161 686.393 17.6647C686.748 17.7922 689.783 17.6228 689.898 17.646C691.09 17.8598 689.652 18.1964 689.919 18.3709C690.1 18.4877 691.888 18.4278 691.932 18.4484C692.014 18.4916 689.604 19.0866 689.088 19.283C688.703 19.4336 690.176 19.5882 689.906 19.6578C688.296 20.0739 684.677 19.3153 688.159 20.4409C688.372 20.51 689.648 20.4287 689.685 20.4427C690.485 20.7693 688.143 20.8918 687.721 21.2014C687.014 21.7339 690.41 21.3193 687.589 21.7849C689.732 22.0309 690.901 21.9714 693.276 21.787C686.626 22.3029 684.163 23.7068 691.73 23.3777C689.363 23.4497 689.639 24.1765 688.924 24.2175C688.49 24.2416 684.88 23.6502 686.587 25.2284C686.807 25.4252 688.946 25.0802 688.289 25.5266C683.086 25.6237 688.202 25.7976 688.198 25.8534C688.071 26.8266 675.711 26.5216 673.469 26.7225C670.898 26.9533 668.704 27.805 668.207 27.8259C666.475 27.8957 667.897 27.4509 667.504 27.3241C667.124 27.198 662.135 28.1415 661.861 28.1118C660.866 27.988 661.851 27.4888 661.747 27.4698C660.525 27.2374 653.571 27.8782 651.79 27.8438C651.867 28.1387 655.594 28.0114 653.287 28.5836C650.59 29.2511 650.364 27.9463 650.293 27.8913C637.298 28.4312 624.765 28.9573 612.057 29.4927C612.273 30.1828 620.553 29.3152 620.716 29.4007C621.904 29.8966 607.793 30.4668 605.983 30.2949C607.277 30.3925 608.667 30.4863 609.997 30.5825C607.681 31.4816 602.816 30.6379 599.603 31.1254C598.567 31.2832 600.577 31.5104 600.536 31.5333C599.384 31.893 597.49 31.7307 598.88 31.2542C596.031 31.7734 596.43 31.3138 594.211 31.3722C594.096 31.3756 595.065 31.6599 593.31 31.8669C592.505 31.9628 588.015 32.1495 587.495 32.4547C587.248 32.5844 589.525 33.748 589.768 32.6554C594.609 32.983 591.289 32.0993 593.156 32.047C593.437 32.041 592.827 32.6704 597.462 32.1946C596.635 33.3184 591.212 32.7276 590.275 32.8984C588.373 33.2483 596.29 33.4838 597.659 32.5779C597.026 33.4544 598.218 32.6694 599.942 32.6333C601.825 32.5934 601.015 32.8801 602.031 32.8396C604.798 32.7318 603.628 32.1798 605.916 32.6266C603.59 31.0473 609.911 32.2409 611.78 32.6028C608.794 32.8107 605.78 33.02 602.923 33.2228C603.093 33.3038 603.262 33.3848 603.432 33.4657C602.667 33.4848 601.9 33.504 601.13 33.5233C601.25 33.434 601.37 33.3448 601.489 33.2556C597.545 33.9664 596.521 33.3927 596.197 33.3992C591.972 33.5022 587.007 33.7128 582.864 33.8823C582.228 33.9083 582.703 34.4369 578.04 34.2007C576.548 34.1258 577.935 33.6418 576.25 33.7756C574.182 35.0203 574.18 34.096 573.549 34.1207C571.734 34.196 570.628 34.529 570.459 34.539C568.175 34.6785 565.062 34.7596 562.626 34.9034C562.581 34.9096 563.853 35.213 562.279 35.1729C561.728 35.1581 556.708 33.8463 552.312 34.5243C553.464 34.5791 554.611 34.6341 555.755 34.6893C554.403 34.6019 545.022 35.3745 547.343 35.6851C548.687 35.878 552.162 34.7539 552.567 35.6793C549.322 35.5319 532.43 36.6555 530.966 36.4975C530.778 36.474 531.915 36.1211 531.655 36.0927C531.463 36.071 527.455 36.31 526.974 36.2126C526.667 36.1556 528.364 35.8976 528.227 35.7932C528.1 35.72 523.254 35.7905 522.986 36.1848C524.177 35.9815 527.524 35.9766 525.785 36.372C525.561 36.4214 524.38 36.2233 524.108 36.2855C521.595 36.8595 529.136 36.4333 530.413 36.3841C525.548 37.0745 518.208 36.8042 512.551 37.3576C510.26 37.134 515.905 36.7303 513.319 36.5735C507.945 36.2493 511.914 37.073 511.75 37.1204C510.444 37.4965 505.79 35.9655 505.884 37.2742C503.974 37.156 504.585 36.9651 501.899 37.2486C502.257 37.3246 502.615 37.4006 502.973 37.4766C500.024 38.3595 493.56 36.7102 494.029 36.5444C495.304 36.0998 498.647 36.5716 498.928 36.5452C499.343 36.5062 500.455 35.1281 505.053 36.1277C506.884 35.1583 497.803 35.8263 501.918 35.0463C499.149 35.2614 487.488 35.1246 485.794 35.587C485.6 35.6463 486.552 36.4968 483.669 36.1636C482.311 36.0044 485.57 35.8585 484.947 35.6816C483.109 35.1358 456.932 36.6219 452.082 36.8561C451.762 36.8704 451.868 36.5898 451.553 36.6054C450.586 36.6533 447.067 37.2113 445.318 37.1568C448.948 37.5174 441.942 37.8481 440.142 37.8665C437.409 37.8943 437.589 37.4007 436.421 37.3457C431.955 37.1326 425.054 38.573 421.506 37.6411C421.755 38.7016 415.386 37.3698 412.595 37.476C410.392 37.5596 407.216 38.3997 410.214 38.7072C406.404 38.8157 402.387 39.1818 398.79 39.3957C398.196 39.4312 399.002 39.0812 397.988 39.1518C397.896 39.1605 397.782 39.4755 396.91 39.5439C389.712 40.1121 393.191 39.3088 391.833 39.1711C391.073 39.094 390.509 39.0633 390.107 39.0621C394.308 38.8278 399.15 38.5056 400.438 38.4434C399.321 37.8044 391.112 38.9609 388.739 38.8746C388.656 38.8713 388.928 38.4824 388.844 38.4832C388.842 38.4833 388.84 38.4833 388.839 38.4834C387.948 38.4913 382.261 38.8657 383.451 39.2669C383.771 39.374 386.393 39.2654 389.492 39.0964C388.656 39.2154 389.3 39.6119 389.153 39.636C387.367 39.919 382.941 39.689 381.37 39.6981C381.011 39.7007 381.048 39.9703 380.989 39.9734C379.561 39.9708 380.114 39.174 378.683 40.0312C376.06 39.175 383.518 39.6883 382.967 39.0845C382.563 38.619 366.036 39.5604 366.103 40.3174C366.043 40.2386 365.813 40.1472 365.345 40.0517C364.309 39.8395 359.734 40.1079 358.948 40.2803C358.815 40.3133 358.899 41.0474 358.734 41.061C358.322 41.095 352.689 40.7488 350.605 41.2705C351.743 41.327 352.881 41.3835 354.017 41.4401C347.176 41.7282 348.238 41.9039 350.53 42.0301C350.645 42.0274 350.757 42.0508 350.866 42.0493C352.641 42.1393 354.911 42.2028 354.947 42.2595C355.092 42.4756 343.474 43.0774 345.68 42.3023C345.989 42.1961 351.38 42.2788 348.697 41.901C348.228 41.8348 344.777 42.1162 344.593 42.0699C343.364 41.7627 350.892 40.9776 349.947 40.5081C348.138 41.0666 345.776 40.9089 343.678 41.1201C342.723 41.2159 342.503 41.5947 342.385 41.6066C340.623 41.7756 341.599 41.3477 341.013 41.3815C340.7 41.401 337.28 42.3668 337.886 41.2044C326.526 42.5079 334.775 42.1683 341.752 41.8173C339.561 42.3218 335.229 42.2994 333.288 42.4753C332.591 42.5388 333.021 42.9008 331.845 43.025C329.434 43.2803 317.79 43.322 314.772 43.3427C316.617 43.133 316.059 42.7424 314.632 42.8294C313.204 42.9167 314.427 43.4184 314.151 43.4891C313.856 43.5626 307.137 43.5773 306.022 43.6944C311.067 43.288 309.911 42.923 305.619 43.0555C306.235 42.9116 306.85 42.7676 307.465 42.6237C304.959 42.8932 299.641 42.4816 298.192 42.728C297.965 42.7674 298.8 43.0799 298.672 43.102C297.402 43.3013 293.041 43.1259 292.843 43.2522C292.675 43.3575 294.542 43.5719 293.859 43.7429C293.719 43.7788 291.905 43.3842 290.158 43.5707C289.508 43.6396 289.914 43.9509 289.75 43.9766C288.389 44.1899 289.174 43.6057 286.678 43.7963C284.848 43.9366 283.506 44.5311 280.965 44.4558C289.309 44.8038 282.308 44.8018 278.838 45.1517C278.281 45.2076 278.784 45.7824 275.44 45.6287C282.486 44.2656 273.396 45.1431 271.53 45.2072C271.428 45.2077 271.377 44.8173 270.462 44.8482C270.385 44.8517 270.507 45.112 269.658 45.1668C261.604 45.686 266.747 45.1773 265.205 44.9784C264.549 44.8936 260.647 45.4271 259.593 45.479C259.35 45.4898 259.451 45.2101 258.512 45.2589C256.853 45.3461 255.377 45.6994 254.281 45.767C254.153 45.7736 254.131 45.3396 252.058 45.5646C251.476 45.6277 250.826 45.8084 251.661 45.8996C254.429 46.1987 259.62 45.2764 262.747 45.5599C265.598 45.8179 256.657 46.2162 256.192 46.2371C256.021 46.2454 257.759 45.959 255.983 45.9883C254.466 46.0143 251.727 46.8764 249.462 46.8046C249.289 46.7995 247.459 46.2367 247.541 46.1963C247.615 46.1661 250.381 45.9159 249.971 45.7482C249.922 45.7292 248.161 45.8048 247.926 45.6771C247.637 45.5217 246.812 43.916 246.434 43.8902C245.465 43.8279 246.108 44.1757 245.483 44.175C244.143 44.1744 239.481 43.8782 239.351 44.4516C240.12 44.4543 240.89 44.4568 241.658 44.4595C237.39 44.6905 239.22 44.8584 238.619 44.9892C237.972 45.1306 238.135 44.6246 236.694 44.636C236.38 44.6384 230.362 44.9856 230.481 45.1903C233.797 44.723 232.587 45.3889 232.741 45.3937C233.326 45.4103 234.058 45.0346 234.841 45.0099C240.35 44.8416 234.818 45.6114 236.124 45.6992C236.573 45.7283 237.453 45.3973 237.643 45.4047C238.262 45.4286 238.288 45.8146 238.698 45.7667C239.656 45.6554 238.512 45.154 238.587 45.1224C239.432 44.7456 242.812 45.0353 240.743 45.7148C242.008 45.8784 242.125 45.1495 243.133 45.3983C245.136 45.8905 242.164 45.8635 241.364 45.991C238.493 46.4504 237.625 46.2076 233.546 46.4674C232.077 46.5603 230.35 46.9817 229.669 47.0285C229.239 47.058 225.135 45.9996 225.093 47.9167C223.509 47.7952 220.986 46.6346 219.366 46.7575C217.912 46.8687 218.402 47.5266 218.267 47.5582C218.06 47.6078 216.298 47.6252 215.704 47.7449C215.009 47.886 215.369 48.1302 214.262 48.2801C211.507 48.6524 211.553 47.9589 211.267 47.9254C207.949 47.5391 209.432 48.4634 208.703 48.5715C208.024 48.6714 198.476 48.6755 196.485 49.0041C197.295 48.8331 198.105 48.6622 198.915 48.4912C197.438 48.1189 195.92 48.8833 195.862 48.112C195.615 49.3709 192.572 48.6577 191.67 48.7261C191.314 48.7536 191.351 48.9649 190.905 48.9919C189.155 49.0992 185.203 49.0875 184.259 49.2331C180.174 49.8607 190.701 50.2136 191.526 50.2272C189.874 50.2796 180.528 50.9322 184.852 51.3602C185.52 51.4261 186.675 50.8211 187.048 50.7843C189.57 50.5397 187.602 51.1192 187.802 51.1588C188.142 51.2222 189.787 50.6722 190.229 50.7122C190.375 50.7249 189.456 51.2152 191.858 51.1287C190.698 51.6149 183.901 51.528 183.02 51.6663C182.706 51.7157 184.723 52.5749 178.899 51.8943C178.97 51.9787 179.04 52.0632 179.111 52.1476C175.891 52.3118 172.675 52.4756 169.464 52.6391C169.805 52.4245 171.593 51.9498 169.325 52.1256C168.019 52.227 169.004 52.6355 168.886 52.6532C167.74 52.8226 146.832 53.5013 142.848 53.7075C141.498 53.7769 137.645 54.2882 137.358 54.3062C135.604 54.4112 129.405 54.4204 128.177 54.5193C127.409 54.582 128.155 54.9269 127.467 54.9363C126.828 54.9446 127.475 54.5575 127.285 54.5499C125.702 54.4811 113.828 55.4195 110.934 55.1909C112.689 55.2251 121.318 54.1655 121.122 53.9181C121.083 53.8846 118.98 53.6917 118.554 53.8425C117.836 53.5574 115.403 54.6058 114.048 54.4714C113.895 54.4561 114.472 53.8988 112.068 53.8954C111.241 53.8945 109.094 54.395 106.904 54.0129C103.757 54.3604 87.2913 54.304 86.1344 54.9226C86.1015 54.9542 88.4443 55.0617 86.8757 55.358C84.7918 55.7518 86.6324 54.6251 84.1885 54.6282C83.8161 54.6288 77.053 54.9956 76.8387 55.0691C74.8164 55.7393 80.7266 55.7525 80.6494 55.8243C80.4476 56.0055 75.5474 56.2987 75.3492 56.2653C75.1581 56.2301 79.1204 55.293 74.335 55.7743C74.8876 55.8469 75.4406 55.9195 75.9939 55.9921C73.7447 56.2611 73.5108 55.7269 72.9637 55.7147C71.2573 55.675 69.4898 56.5677 66.6754 55.6562C65.9366 55.414 67.1347 55.0679 67.042 55.0309C66.1525 54.7008 65.0735 55.7158 63.7328 55.0406C63.6328 54.9903 66.6682 54.4395 61.3327 54.6418C61.7021 54.6973 62.0718 54.7529 62.4416 54.8084C61.6919 54.9925 56.3102 55.2897 55.5899 55.2802C53.477 55.253 55.2961 54.6841 53.1811 54.8241C54.5614 55.4568 48.1403 55.7896 48.4908 55.1865C47.6512 55.959 42.096 55.5975 39.5005 55.6775C37.8621 55.7287 34.5495 56.1763 34.0323 56.1578C33.401 56.1352 33.573 55.6235 32.4332 55.5537C32.1077 55.5339 28.7436 56.0303 25.7805 55.6179C25.2058 55.5386 23.9768 54.7274 25.0285 54.4739C26.8271 54.0403 30.3014 54.6008 30.2394 54.0967C30.1649 53.5578 25.5377 54.053 24.2953 54.0285C18.4774 53.9183 21.8016 53.2185 21.6544 53.0495C21.2454 52.6411 18.0454 52.7732 17.9121 52.7401C17.3531 52.5916 19.6055 52.1727 19.6309 51.9132C19.6584 51.5756 16.5563 51.0832 17.2524 50.9439C18.2462 50.7459 21.1016 51.1461 21.2818 51.1152C23.6156 50.7017 20.3702 50.0448 19.4735 49.696C19.2011 49.5886 20.2619 49.3559 20.0384 49.3298C16.6289 48.9333 19.363 50.4479 17.1076 50.4237C15.0981 50.4021 17.6599 49.796 17.5828 49.7706C17.4817 49.7434 15.0832 49.8045 14.7029 49.6378C14.5098 49.5545 20.7136 48.33 20.4406 47.8943C18.4464 48.0667 16.4592 48.2387 14.4791 48.4103C14.301 47.8358 17.1742 48.157 17.4695 48.0861C18.0611 47.9439 16.3881 47.7119 16.4529 47.5257C16.4865 47.4076 18.4216 46.9187 16.6532 46.8125C16.046 46.7756 14.79 47.2297 12.5806 46.8952C20.2124 46.0808 14.8969 45.9511 14.6628 45.7539C14.4341 45.5565 18.0711 44.9372 13.6387 45.1871C13.405 44.0647 13.7203 44.8266 14.9735 44.5814C16.5115 44.2799 12.918 44.0409 18.5889 44.113C18.2436 43.5963 13.7022 43.8022 13.4639 43.7687C13.2554 43.7382 14.2528 43.4408 13.8904 43.366C9.60968 42.5012 12.5411 42.8599 11.289 42.2529C11.1761 42.1987 7.17333 42.1043 10.2107 41.8969C15.752 41.5191 18.1333 42.1807 19.0128 40.5438C14.8387 40.0022 9.90555 41.2201 8.66419 41.2834C6.76175 41.3788 8.72123 40.9794 8.48342 40.8965C8.40041 40.8699 6.76258 40.9573 6.74004 40.9322C5.52086 39.7537 14.0428 40.6424 16.7436 40.3291C16.0144 40.1729 15.2862 40.0167 14.5589 39.8604C15.5361 39.8168 16.5151 39.7732 17.4958 39.7294C12.8153 39.5348 17.3233 39.5964 18.4549 38.5636C18.7084 38.3316 15.6499 38.827 19.1326 38.0788C16.5414 38.0323 17.3578 37.7996 15.034 38.1651C15.0754 37.7665 20.3222 37.1237 22.4016 36.8423C15.0334 36.6702 19.2689 37.9695 12.921 37.4342C11.7698 37.9685 14.7768 37.7614 14.535 37.8515C13.6637 38.1757 11.58 37.7895 9.13942 38.9021C8.74236 39.0846 10.4677 39.5377 7.94184 39.6059C7.66219 39.6127 6.04066 39.2309 6.06208 39.1981C6.26154 38.8449 7.85551 38.9157 7.91625 38.7691C7.9724 38.6304 6.20241 38.7778 6.19538 38.7402C6.12468 38.3095 7.66801 38.5203 7.44041 38.3931C6.94776 38.1162 0.540841 37.42 8.8719 37.386C1.97668 38.13 7.99558 37.8969 10.6959 37.6088C11.384 37.5362 11.549 37.2713 12.5305 37.1452C13.7929 36.9821 15.2848 37.0511 15.9416 36.9792C16.6489 36.9006 12.5981 36.4392 18.4309 36.4052C15.4346 35.9081 10.2475 36.7489 7.35739 36.4282C1.52451 35.7798 11.3632 35.2318 12.4073 35.1092C12.6817 35.0764 11.7461 34.7615 11.9288 34.7333C12.2228 34.6897 17.8754 34.6417 18.4287 34.3318C18.9749 34.0225 16.3539 34.4221 16.1692 34.1276C16.0377 33.9297 22.8713 33.3157 19.1589 33.3151C16.5973 33.3154 11.9512 34.3029 11.1361 33.4565C14.852 33.2465 18.6031 33.0347 22.3592 32.8222C20.2947 32.5656 18.2182 32.3093 16.1589 32.0523C20.3738 31.7901 23.9968 32.0316 27.9052 31.408C18.4127 30.6939 30.9389 30.4419 31.0874 30.3059C31.1292 30.2266 27.3623 29.5002 26.7594 29.3641C30.0322 28.9084 40.1509 28.365 34.1909 27.5179C35.2722 27.7191 37.8564 27.025 37.8209 26.9812C37.4676 26.5214 31.8086 27.0408 32.7186 26.5792C33.7697 26.0439 35.296 26.6594 36.9472 26.5435C45.4335 25.9438 43.0412 23.5639 51.47 23.6356C51.2988 23.5541 51.1277 23.4727 50.9567 23.3912C60.1246 23.1837 69.4483 22.9675 78.5936 22.756C82.1397 21.8655 91.8369 21.0321 96.4729 20.9357C97.4157 20.9155 102.077 21.1306 102.432 21.1862C103.087 21.2938 99.516 21.4831 101.14 21.6695C101.478 21.7077 109.378 21.5669 108.8 21.1672C107.911 21.1529 105.15 21.4725 104.694 21.3908C101.486 20.8064 125.836 20.4239 127.011 20.0907C126.467 19.975 125.924 19.8592 125.381 19.7434C126.915 19.7507 128.452 19.7579 129.989 19.765ZM60.7986 56.3399C59.8904 56.798 57.5668 56.5683 56.2096 56.7387C54.3323 56.9766 51.2067 58.7257 52.5176 57.0416C55.2675 56.8083 58.028 56.5744 60.7986 56.3399ZM101.272 55.4147C99.4124 55.2594 100.812 54.2922 102.345 54.6122C102.515 54.6487 103.789 55.6232 101.272 55.4147ZM81.7948 55.734C81.8723 55.719 83.4788 55.6813 83.5356 55.6934C84.9896 56.004 80.1465 56.1155 81.7948 55.734ZM175.756 51.5841C173.715 51.7047 175.227 52.4744 176.483 52.0829C176.562 52.058 175.89 51.5768 175.756 51.5841ZM174.302 51.6199C172.687 50.941 169.557 52.5715 172.087 52.3193C172.332 52.2943 174.377 51.6531 174.302 51.6199ZM94.6734 55.3075C94.8696 55.0151 96.7773 55.0788 97.5937 55.1153C97.5814 55.3758 95.4679 55.245 94.6734 55.3075ZM143.193 53.3332C143.281 53.1059 136.599 53.3813 136.157 53.6937C137.205 53.5274 143.139 53.5366 143.193 53.3332ZM160.223 52.3459C160.053 52.314 157.753 52.4639 157.828 52.6585C158.961 52.8728 160.992 52.4907 160.223 52.3459ZM194.137 51.009C194.26 50.9545 192.492 49.7679 196.595 50.4313C197.198 50.5283 195.076 50.9418 195.29 50.9783C195.739 51.0483 196.092 51.0752 196.375 51.0713C194.483 51.2512 192.517 51.3788 192.323 51.3103C191.415 50.9864 194.083 51.0319 194.137 51.009ZM211.895 49.3604C212.279 49.1399 214.786 49.1488 215.359 49.2102C215.458 49.2221 215.053 49.7774 216.178 49.6918C217.079 49.6223 215.709 49.1254 217.47 49.1429C219.249 49.16 216.893 49.6482 217.049 49.67C217.258 49.6984 219.995 49.3404 219.923 49.6643C219.869 49.9043 216.919 49.8622 216.194 49.9419C215.262 50.0443 216.411 50.3943 214.845 50.3722C213.861 50.3586 214.378 49.6411 214.169 49.6143C213.994 49.593 210.58 50.1311 211.901 49.3624C211.899 49.3617 211.897 49.361 211.895 49.3604ZM196.886 51.02C196.745 51.0492 196.578 51.0684 196.375 51.0713C196.546 51.0549 196.717 51.0371 196.886 51.02ZM66.1767 55.8291C67.1567 56.0066 64.2825 56.3919 63.1832 56.1523C63.1549 55.9264 66.0198 55.8017 66.1767 55.8291ZM198.623 50.3831C201.448 50.4445 199.384 50.7672 196.886 51.02C197.676 50.8572 197.674 50.3628 198.623 50.3831ZM118.554 53.8425C118.674 53.8898 118.752 53.9677 118.767 54.1003C118.45 53.9671 118.419 53.8901 118.554 53.8425ZM125.119 53.8232C127.355 53.3303 122.781 53.5257 122.823 53.8142C122.84 53.923 125.03 53.8429 125.119 53.8232ZM178.378 51.5192C178.17 51.4878 181.327 50.1378 176.709 51.2404C179.198 51.2856 176.584 51.523 176.627 51.6285C176.74 51.9322 180.901 51.4703 181.832 51.5663C182.534 50.987 179.064 51.6227 178.383 51.519C178.381 51.5191 178.379 51.5192 178.378 51.5192ZM243.987 48.3633C243.435 48.7088 241.639 48.6775 240.426 48.7075C240.98 48.362 242.776 48.3933 243.987 48.3633ZM560.755 35.3395C552.469 35.982 551.311 34.7143 558.958 34.917C559.108 34.9217 561.251 35.1855 560.755 35.3395ZM489.54 37.9582C488.729 37.4185 491.331 37.2181 493.043 37.3837C493.431 37.4208 494.879 37.9415 493.257 38.1225C493.281 37.4264 490.751 37.2661 489.54 37.9582ZM200.201 49.9527C201.006 49.538 203.545 49.7085 204.88 49.7124C204.079 50.0594 201.383 50.025 200.201 49.9527ZM533.453 35.7871C532.57 35.7804 531.994 36.3033 532.148 36.3384C532.84 36.5001 534.469 36.0289 533.453 35.7871ZM192.049 50.2195C191.925 49.9959 195.258 49.6427 195.513 50.1975C194.797 50.1853 192.138 50.3593 192.049 50.2195ZM241.698 48.2844C241.174 48.1894 243.857 47.8728 244.676 47.955C244.621 48.2005 242.042 48.346 241.698 48.2844ZM519.403 36.5405C518.622 36.5296 516.666 36.5978 516.457 36.8082C516.199 37.071 519.063 36.866 519.403 36.5405ZM665.036 30.1062C665.141 30.1925 662.159 30.9655 660.781 30.8559C658.186 30.6443 664.957 30.0452 665.036 30.1062ZM541.73 35.1859C544.203 35.5577 541.461 35.212 541.589 35.7064C543.246 35.6555 547.329 35.5106 544.5 35.1368C543.948 35.0647 542.503 35.1861 541.73 35.1859ZM539.454 35.1133C539.197 35.2858 537.439 35.8692 538.975 35.7688C539.685 35.7216 540.805 35.1081 539.454 35.1133ZM646.283 31.0869C644.067 30.7345 654.188 30.5608 654.415 30.6293C654.566 30.6641 654.666 30.6987 654.723 30.729C655.051 30.5755 656.999 30.4715 657.252 30.8158C656.644 30.8111 655.068 30.9061 654.908 30.8732C654.832 30.8596 654.774 30.8463 654.735 30.8319C654.126 31.1642 646.746 31.1518 646.283 31.0869ZM629.451 31.3186C631.98 30.5625 632.463 31.6523 632.249 31.6968C629.503 32.2632 631.272 31.3726 631.186 31.3378C630.992 31.2819 629.033 31.7418 629.459 31.3183C629.457 31.3184 629.454 31.3185 629.451 31.3186ZM642.773 31.0472C642.882 31.0283 645.05 30.9744 645.136 30.9884C646.927 31.2883 640.79 31.4427 642.773 31.0472ZM225.278 48.0456C226.804 48.0944 225.328 48.5621 224.311 48.4562C224.228 48.4451 223.932 48.0024 225.278 48.0456ZM538.244 35.2735C537.905 35.2105 528.787 35.2985 529.349 35.8917C530.146 35.7858 540.467 35.6742 538.244 35.2735ZM470.778 37.9289C472.373 37.8674 470.659 38.5201 469.798 38.3391C469.478 38.2719 470.376 37.9448 470.778 37.9289ZM187.506 49.8732C185.862 50.2582 186.162 49.1747 187.613 49.4841C187.67 49.4962 187.571 49.8581 187.506 49.8732ZM483.451 37.7363C478.043 38.3136 479.2 36.4221 486.374 36.7461C486.151 36.8375 485.929 36.9289 485.706 37.0202C494.033 36.9505 486.283 37.1262 484.249 37.3139C483.493 37.3846 484.141 37.6653 483.457 37.7383C483.455 37.7377 483.453 37.737 483.451 37.7363ZM462.351 38.2439C456.997 37.158 467.18 37.5869 470.079 37.296C467.287 37.9523 463.602 38.0237 468.624 38.3681C461.318 38.7787 464.335 38.1322 464.043 38.101C463.695 38.0669 462.581 38.2905 462.351 38.2439ZM476.347 37.6534C476.65 37.6027 478.953 37.7733 479.773 37.6957C478.643 38.1897 474.336 37.9966 476.347 37.6534ZM611.839 32.3452C612.017 31.9877 612.489 31.7104 614.319 31.766C613.763 31.9648 612.601 32.1639 611.839 32.3452ZM58.9764 54.5665C57.7211 54.5892 55.2267 54.552 56.0042 54.8906C56.088 54.9189 58.9796 54.7731 58.9764 54.5665ZM511.996 36.081C511.734 36.0488 504.76 36.3099 507.185 36.5955C507.924 36.6813 514.238 36.3693 511.996 36.081ZM547.59 34.6456C547.024 34.6654 544.716 34.8273 544.669 34.912C544.526 35.2043 547.355 34.9294 547.59 34.6456ZM52.6569 54.4482C52.4897 54.4182 48.6927 54.6264 49.1176 54.7802C49.92 55.0711 53.2236 54.5518 52.6569 54.4482ZM230.782 47.0034C231.101 46.9776 231.539 47.3403 231.65 47.3401C231.91 47.335 237.756 46.9526 235.54 47.5305C235.169 47.6274 226.745 47.7798 225.649 47.7756C225.205 47.2713 228.819 47.6224 229.692 47.5334C229.846 47.517 229.927 47.0769 230.779 47.0057C230.78 47.005 230.781 47.0042 230.782 47.0034ZM621.253 31.5888C621.428 31.2496 628.386 30.7444 628.33 31.149C625.945 31.2966 623.511 31.4462 621.253 31.5888ZM617.806 31.6754C616.341 31.5008 619.747 31.2831 620.741 31.3459C620.763 31.5683 618.022 31.7008 617.806 31.6754ZM534.556 33.9467C533.864 34.0566 536.021 34.4514 535.547 34.5653C535.244 34.6365 533.682 34.5199 533.191 34.6918C533.053 34.7457 534.659 35.1343 535.116 35.0956C535.765 35.0424 535.12 34.7109 535.829 34.6789C538.183 34.5734 540.269 34.7423 542.452 34.6457C542.649 34.6363 541.109 34.4471 542.791 34.3809C543.05 34.3702 544.627 34.6816 546.621 34.5429C550.96 33.1954 554.468 34.1959 560.09 33.5417C559.876 33.4406 555.61 33.3228 555.354 33.3226C550.481 33.3328 542.143 33.6581 537.144 33.8633C535.866 33.9154 536.497 34.1363 535.946 34.1682C535.51 34.193 536.011 33.7147 534.556 33.9467ZM59.6328 54.2887C59.0172 53.8553 56.9335 54.2237 55.5985 54.2508C56.0834 54.6445 58.3195 54.2375 59.6328 54.2887ZM586.849 32.598C586.194 32.6427 584.143 32.5899 583.978 32.7343C583.769 32.9226 586.726 32.9137 586.849 32.598ZM263.769 45.7976C263.833 45.7825 265.445 45.7415 265.507 45.7534C266.961 46.061 262.126 46.1823 263.769 45.7976ZM302.329 44.3139C303.549 44.2076 304.775 44.0146 305.201 44.3679C304.42 44.3431 302.196 44.5775 302.329 44.3139ZM355.514 42.1196C355.243 41.6453 358.929 41.8078 359.623 41.8227C359.375 42.0487 355.714 42.4611 355.514 42.1196ZM611.509 30.8348C613.782 30.77 613.271 30.0556 614.717 30.3289C614.952 30.3755 615.774 31.873 613.267 31.4024C612.814 31.3179 614.557 30.8823 611.509 30.8348ZM487.549 36.7127C488.113 36.368 489.919 36.3883 491.134 36.3635C490.872 36.613 488.416 36.6537 487.549 36.7127ZM45.7893 54.3409C44.7044 53.9286 39.803 54.4496 41.0305 54.7029C41.2025 54.7356 45.0977 54.3499 45.7893 54.3409ZM205.859 48.2612C207.851 47.8243 203.691 47.8806 202.395 48.2814C202.988 48.2348 205.725 48.2901 205.859 48.2612ZM342.707 42.3828C342.803 42.3642 344.938 42.3109 345.034 42.3245C346.798 42.6248 340.757 42.7778 342.707 42.3828ZM289.618 44.2437C290.366 43.9194 295.422 43.95 296.564 44.1976C295.493 44.6711 288.68 44.649 289.618 44.2437ZM602.255 31.425C603.841 31.3444 605.32 31.3739 606.784 31.4406C606.475 31.7007 602.439 31.6022 602.255 31.425ZM350.53 42.0301C350.645 42.0274 350.757 42.0508 350.866 42.0493C350.752 42.0435 350.64 42.0361 350.53 42.0301ZM566.319 32.7379C564.99 32.6953 565.283 33.1365 565.365 33.1469C566.37 33.2521 567.821 32.7859 566.319 32.7379ZM58.0689 53.6753C57.5865 53.2847 55.3378 53.6874 54.0376 53.6394C54.4255 53.9477 57.0209 53.7581 58.0689 53.6753ZM456.69 37.6412C455.008 37.2675 461.756 36.4719 463.267 36.695C463.352 36.9655 456.942 37.6914 456.69 37.6412ZM199.61 47.8982C199.462 47.5836 196.595 48.0852 197.214 48.2118C197.605 48.2925 199.698 48.0938 199.61 47.8982ZM466.759 36.7368C467.405 36.6121 468.93 36.8651 468.406 37.0796C467.733 37.3547 466.592 36.7717 466.759 36.7368ZM524.656 34.0723C524.377 34.0349 520.624 34.52 522.194 34.7816C523.283 34.9636 523.435 34.4939 523.689 34.482C523.976 34.4715 530.014 34.7875 524.656 34.0723ZM418.186 38.9597C419.622 38.777 421.368 38.8477 422.87 38.7765C422.267 38.9998 418.811 39.1971 418.186 38.9597ZM210.737 47.3661C210.382 47.2509 200.898 47.5532 206.3 47.7356C206.614 47.7455 211.81 47.7156 210.737 47.3661ZM611.509 30.8348C611.222 30.843 610.89 30.8414 610.503 30.8256C610.886 30.8223 611.219 30.8303 611.509 30.8348ZM585.927 31.8422C586.427 31.5882 583.858 31.632 583.1 31.7876C582.879 32.0818 585.861 31.8775 585.927 31.8422ZM422.971 38.4469C423.831 38.2777 425.407 38.3548 426.476 38.295C426.304 38.519 423.355 38.6513 422.971 38.4469ZM362.29 40.7121C364.005 40.7703 366.102 40.6246 366.123 40.3583C366.16 40.3983 366.246 40.4388 366.386 40.4772C366.529 40.5152 368.371 40.3158 369.176 40.3731C373.959 40.7139 350.767 41.4482 364.164 40.1466C363.539 40.3351 362.915 40.5236 362.29 40.7121ZM282.785 43.8978C281.799 43.615 279.09 44.1302 279.803 44.2283C280.299 44.2952 283.773 44.1828 282.785 43.8978ZM320.234 42.1754C319.94 42.1298 317.28 42.465 317.218 42.6377C318.761 42.7537 321.574 42.3882 320.234 42.1754ZM275.287 43.825C274.674 43.8012 273.915 44.3529 273.988 44.3727C274.617 44.5372 276.325 44.0727 275.287 43.825ZM606.704 29.6296C605.793 29.518 602.981 30.0109 602.366 30.3802C602.248 30.3186 601.932 30.2449 601.354 30.1646C601.356 30.1646 601.357 30.1645 601.359 30.1644C600.691 30.0527 576.937 30.8828 592.875 30.8864C593.373 30.8871 592.684 30.6068 594.705 30.5777C594.838 30.5761 594.915 30.825 595.326 30.8203C596.281 30.8075 601.276 30.7599 602.252 30.5169C602.262 30.5632 602.328 30.6049 602.466 30.64C603.708 30.9523 607.375 29.7169 606.704 29.6296ZM325.518 41.9124C324.978 41.8412 323.284 41.9994 323.117 42.2287C323.964 42.3029 326.771 42.0789 325.518 41.9124ZM210.406 46.4668C209.306 46.328 206.551 46.7806 207.395 46.9285C207.912 47.0196 211.675 46.6259 210.406 46.4668ZM308.535 42.7273C314.795 42.7339 310.026 42.645 310.969 42.2801C310.158 42.4291 309.346 42.5782 308.535 42.7273ZM635.79 29.278C634.802 29.2433 635.936 28.5533 637.028 28.858C637.371 28.9549 636.343 29.2962 635.79 29.278ZM680.8 27.2622C679.961 26.7247 683.969 26.9015 682.43 27.3538C682.361 27.3698 680.862 27.2815 680.8 27.2622ZM649.368 28.2917C648.709 28.7071 648.277 28.7707 646.351 28.753C649.184 28.5284 646.547 28.2918 649.368 28.2917ZM366.103 40.3174C366.114 40.3326 366.124 40.3438 366.123 40.3583C366.11 40.3446 366.104 40.3313 366.103 40.3174ZM269.405 44.1655C268.608 43.8687 266.411 43.9822 267.079 44.2864C267.143 44.3145 269.093 44.4214 269.405 44.1655ZM602.366 30.3802C602.472 30.4348 602.421 30.4751 602.252 30.5169C602.242 30.4733 602.284 30.43 602.366 30.3802ZM281.186 43.4176C281.117 43.666 284.461 43.6252 284.594 43.591C286.493 43.0876 282.565 43.3467 281.186 43.4176ZM188.301 47.0068C188.129 47.0393 189.269 47.6278 189.943 47.3524C190.464 47.1389 188.944 46.8836 188.301 47.0068ZM655.704 27.8766C656.806 27.8324 658.336 27.7703 658.629 28.0597C657.905 28.0426 655.693 28.098 655.704 27.8766ZM679.196 26.9124C677.99 27.3142 675.14 27.4266 673.265 27.4432C673.229 26.9785 678.073 27.0664 679.196 26.9124ZM609.645 29.6822C609.558 29.6668 606.84 29.6397 607.222 29.9359C607.787 30.3701 610.414 29.8201 609.645 29.6822ZM193.469 47.1367C194.644 46.8749 191.894 46.3247 190.664 46.8838C190.035 47.1701 193.27 47.1807 193.469 47.1367ZM262.53 44.0138C260.972 44.2577 264.865 44.4211 265.394 44.0734C264.672 44.0766 263.084 43.9274 262.53 44.0138ZM315.79 41.5108C310.828 40.7734 313.58 42.3768 314.447 42.1904C314.569 42.1639 315.911 41.528 315.79 41.5108ZM33.4048 52.927C32.7111 53.0838 35.333 53.4588 35.6599 53.1348C35.8609 52.9322 33.8475 52.8271 33.4048 52.927ZM390.107 39.0621C389.9 39.0737 389.695 39.0853 389.492 39.0964C389.643 39.0747 389.844 39.0615 390.107 39.0621ZM248.266 43.3322C251.793 44.5176 251.387 43.5103 251.689 43.5036C252.341 43.4915 253.872 43.7886 255.099 43.6799C253.697 43.8863 252.295 44.0926 250.893 44.299C252.009 44.3497 261.69 44.4459 261.883 44.2226C262.161 43.9047 259.125 44.1241 259.036 44.1007C258.906 44.0675 258.397 43.2354 258.114 43.2145C257.648 43.1816 249.569 43.4915 248.266 43.3322ZM305.492 42.0799C306.289 42.1486 306.528 42.4767 306.893 42.381C307.018 42.3483 307.025 42.0257 307.45 41.925C306.797 41.9766 306.144 42.0282 305.492 42.0799ZM242.095 44.7761C241.096 44.4228 245.51 44.3937 245.653 44.432C246.418 44.668 242.911 45.0648 242.095 44.7761ZM279.506 43.2002C279.344 43.1838 275.953 43.1989 275.99 43.416C276.892 43.5458 281.421 43.4098 279.506 43.2002ZM307.978 41.8814C309.168 41.8702 311.427 42.1023 311.149 41.6284C311.148 41.6284 311.146 41.6285 311.144 41.6286C310.089 41.7128 309.034 41.7971 307.978 41.8814ZM197.483 45.9513C195.251 45.2679 196.333 46.2011 198.292 46.372C198.869 46.0019 197.849 46.0624 197.483 45.9513ZM190.418 45.6578C189.796 45.5436 183.468 45.9485 184.451 46.3182C184.8 46.45 188.428 45.9377 188.597 45.9592C188.853 45.9909 187.709 46.489 189.649 46.3218C189.529 46.1733 190.631 45.6957 190.418 45.6578ZM195.642 45.5302C193.431 45.031 192.984 46.1328 194.628 46.07C195.271 46.0462 195.957 45.6024 195.642 45.5302ZM204.587 45.2643C203.795 45.1933 201.689 45.1277 200.258 45.5456C202.194 45.4988 204.132 45.4519 206.071 45.4049C206.286 45.192 205.281 45.3268 204.582 45.2645C204.584 45.2644 204.586 45.2643 204.587 45.2643ZM692.221 23.6225C690.524 23.3812 694.396 23.1126 694.542 23.1826C695.03 23.4143 692.986 23.7299 692.221 23.6225ZM19.4745 43.6007C18.9817 43.4965 18.6472 43.1058 17.5824 43.3566C18.6722 43.6137 19.7641 43.8707 20.8581 44.1275C21.6744 43.4153 20.0128 43.7158 19.4745 43.6007ZM15.2635 41.2657C15.4152 41.2436 14.5449 40.2274 16.5362 40.8535C17.8778 41.2765 10.6851 42.0037 9.38402 41.5866C10.803 41.3182 13.9587 41.4487 15.2635 41.2657ZM2.55828 37.1963C2.47232 37.1159 5.16963 36.894 5.4865 36.9413C7.14333 37.191 3.01484 37.6276 2.55828 37.1963ZM11.2196 37.0771C9.93307 36.9211 12.7615 36.6853 13.6142 36.7708C13.7029 36.9627 11.4175 37.0995 11.2196 37.0771ZM674.034 9.1534C672.601 8.49787 671.392 10.0803 673.554 9.68491C673.657 9.66626 674.095 9.18586 674.034 9.1534ZM5.16127 36.0429C6.43833 36.1995 3.63041 36.4342 2.79202 36.3478C2.70644 36.156 4.96601 36.0204 5.16127 36.0429ZM672.975 7.49791C671.074 7.061 671.802 8.75309 672.042 8.81284C673.035 9.04702 676.279 8.24225 676.921 8.04886C672.073 8.50008 673.855 7.70453 672.975 7.49791ZM664.543 8.86924C662.87 9.12012 667.179 9.2981 667.949 8.78751C667.135 8.8431 665.023 8.79687 664.543 8.86924ZM654.071 8.73971C653.186 8.71387 650.508 8.67483 650.063 8.96373C651.055 8.87444 653.712 9.0329 654.071 8.73971ZM652.018 8.01137C650.599 7.70091 650.304 8.78506 651.912 8.40053C651.975 8.38564 652.071 8.02972 652.018 8.01137ZM643.97 7.95116C642.998 7.56433 641.943 8.64563 643.498 8.61032C643.959 8.59797 644.073 7.99585 643.97 7.95116ZM670.535 5.74375C669.117 5.61737 667.383 6.43039 670.346 6.39344C669.273 6.54998 668.32 6.70179 667.345 6.85451C670.99 7.1252 670.86 6.09939 671.928 6.0993C673.479 6.09795 673.386 6.95263 673.089 7.23168C674.362 6.65945 679.572 6.44379 682.5 6.22907C679.896 6.11303 675.648 5.90245 672.927 5.87252C672.157 5.86311 671.414 6.12615 670.748 6.12667C669.679 6.12634 670.614 5.75293 670.541 5.74353C670.539 5.74361 670.537 5.74368 670.535 5.74375ZM633.39 8.36729C630.619 7.99758 632.406 8.96733 633.946 8.71843C634.012 8.70143 633.459 8.37628 633.39 8.36729ZM1.4166 33.0121C5.08923 33.3129 2.43067 33.9887 10.0954 32.8287C6.88022 33.5684 9.93233 33.2813 9.30963 33.5548C8.80934 33.7714 6.90724 33.6775 8.02418 34.0354C6.55175 33.6555 0.304433 34.0053 0.0301266 33.9447C0.032737 33.9446 0.0353474 33.9445 0.0379579 33.9444C-0.130125 33.9088 0.248004 32.9164 1.4166 33.0121ZM653.948 6.01774C653.003 4.7907 652.737 6.80979 650.916 5.83492C648.604 7.45143 657.458 5.57009 658.738 6.80497C648.61 7.06462 665.443 7.80884 658.336 6.17024C664.111 6.6362 660.209 5.85624 661.087 5.57552C662.027 5.27625 665.211 5.43223 665.027 4.96837C665.025 4.96844 665.023 4.96851 665.021 4.96858C663.094 5.07898 661.134 5.19089 659.142 5.30426C661.132 6.24064 657.053 6.10032 655.599 5.33081C655.019 5.56097 654.476 5.78965 653.948 6.01774ZM665.175 6.51939C664.997 6.50318 660.752 6.81651 661.027 7.00955C661.632 7.1152 667.588 6.71978 665.175 6.51939ZM683.903 5.55138C682.226 5.61499 680.028 5.50367 679.206 5.91959C680.69 5.86331 683.001 5.97047 683.903 5.55138ZM604.971 8.68091C603.029 9.07552 609.085 8.91916 607.316 8.61946C607.228 8.60554 605.035 8.66356 604.971 8.68091ZM649.61 6.38491C647.625 6.07878 648.609 7.26966 650.049 6.89047C650.133 6.86818 649.701 6.39884 649.61 6.38491ZM4.37212 32.7539C4.48854 32.4482 9.82571 32.4632 10.7799 32.4252C10.2449 32.7254 4.22869 33.105 4.37212 32.7539ZM686.626 4.31613C683.415 3.35783 679.379 4.77014 678.958 4.75951C678.517 4.74915 679.189 4.2485 679.088 4.23979C678.879 4.22139 674.102 4.45107 673.848 4.49432C673.68 4.52673 674.588 5.15664 673.591 5.4062C675.626 4.94612 684.071 4.84848 684.725 4.74932C685.082 4.67638 682.333 4.08503 686.621 4.31634C686.623 4.31627 686.625 4.3162 686.626 4.31613ZM677.841 4.65872C679.036 4.89047 675.718 5.05718 674.883 4.98747C673.056 4.82962 677.706 4.63089 677.841 4.65872ZM669.626 4.72895C669.16 4.68491 665.872 4.75989 665.57 5.08289C667.181 5.42136 670.483 4.84055 669.626 4.72895ZM631.144 6.33031C630.248 6.40678 627.737 6.27073 627.602 6.5479C628.518 6.47074 631.016 6.60718 631.144 6.33031ZM22.5994 29.7084C21.1127 29.5366 24.5339 29.3162 25.5424 29.3875C25.6025 29.5665 22.7248 29.7233 22.5994 29.7084ZM649.171 3.80549C648.739 3.74012 637.52 4.4029 636.198 4.58434C637.503 4.73618 648.628 4.29915 649.013 4.18357C649.154 4.14785 649.239 3.81573 649.171 3.80549ZM672.69 2.73284C673.693 2.29287 674.367 2.74573 674.494 2.74668C675.748 2.75789 678.269 2.56759 677.729 2.97425C675.602 2.90316 670.693 3.60687 672.69 2.73284ZM630.296 4.55511C626.591 4.85516 633.728 4.98451 632.77 4.60565C632.711 4.58277 630.681 4.52377 630.296 4.55511ZM650.368 3.64041C651.033 3.28986 662.156 3.11902 663.832 3.05255C662.306 3.71007 661.029 3.30868 658.893 3.42523C658.316 3.45742 658.48 3.69881 658.418 3.70171C657.415 3.75369 658.155 3.43738 657.535 3.45808C657.036 3.47609 649.265 4.14039 650.368 3.64041ZM673.259 2.43305C673.912 2.17751 680.622 1.81324 680.847 1.8655C682.875 2.23817 673.876 2.48784 673.259 2.43305ZM649.36 3.15128C650.507 2.41186 655.777 2.66243 652.192 3.153C651.849 3.19831 650.372 2.95786 649.36 3.15128ZM630.664 3.88027C630.488 3.86706 626.592 3.88812 626.524 4.11138C627.109 4.173 632.75 4.01902 630.664 3.88027ZM632.628 3.05445C632.535 3.06354 633.453 3.45056 631.651 3.47046C631.499 3.47162 631.207 3.00584 628.927 3.27401C628.464 3.32897 627.754 3.67405 627.807 3.69152C630.257 4.34077 637.238 2.61973 632.628 3.05445ZM673.371 2.04157C672.99 1.85513 673.866 1.22175 674.679 1.49241C675.028 1.60941 674.404 1.99335 673.371 2.04157ZM618.411 4.18909C620.612 3.7357 613.65 3.95313 613.275 4.06152C613.52 4.27752 618.2 4.23316 618.411 4.18909ZM25.963 26.7815C25.9613 26.7816 25.9595 26.7817 25.9578 26.7817C27.8297 26.794 26.6835 27.1387 26.7712 27.1449C30.7739 27.4387 29.6942 26.7952 30.3149 26.6913C31.6497 26.4668 31.4632 27.3053 33.7185 26.8759C29.9897 27.5249 33.3924 27.1839 33.5102 27.4753C33.9732 28.6652 28.5022 27.0978 26.6604 27.4195C26.4027 27.4642 28.3281 27.7775 27.669 27.9118C25.5219 28.3473 18.7982 26.7344 25.963 26.7815ZM675.295 1.41514C676.199 1.02426 682.642 1.11302 680.946 1.47234C680.717 1.52799 674.053 1.98131 675.295 1.41514ZM365.609 13.6788C367.193 13.3065 363.482 13.0988 362.816 13.3652C362.485 13.4978 364.906 13.8425 365.609 13.6788ZM339.681 13.4338C337.799 13.5735 335.862 14.933 338.201 14.6382C338.449 14.6063 339.904 13.6021 339.681 13.4338ZM463.977 8.94838C461.965 8.57458 462.118 9.41807 463.582 9.34528C464.098 9.31972 464.04 8.96022 463.977 8.94838ZM388.55 12.186C388.353 12.1645 386.083 12.3126 386.174 12.5042C387.019 12.5864 389.83 12.3367 388.55 12.186ZM464.604 8.80135C463.43 9.00333 465.489 9.53245 466.903 8.87297C466.174 8.95253 464.725 8.78067 464.604 8.80135ZM645.203 1.44204C644.232 1.83049 641.401 1.84026 639.752 1.96749C639.564 1.52299 644.071 1.57002 645.203 1.44204ZM347.756 13.6161C345.975 14.0081 349.83 14.1103 349.46 13.7044C349.41 13.6835 347.827 13.5997 347.756 13.6161ZM527.689 6.13232C526.379 6.45647 530.589 6.64418 529.415 6.21894C529.358 6.20199 527.762 6.1143 527.689 6.13232ZM545.767 5.53733C544.794 5.48676 540.618 5.68822 542.254 5.88335C542.511 5.91313 545.706 5.78687 545.767 5.53733ZM30.4136 26.3622C29.8648 25.9184 32.9516 25.9132 33.3983 25.9776C33.5728 26.0048 31.1272 26.9396 30.4136 26.3622ZM451.167 9.40799C450.15 9.50833 447.493 9.50824 447.035 9.77092C448.287 9.6685 451.523 9.87855 451.167 9.40799ZM355.926 13.2775C354.348 12.8379 351.684 12.9974 352.371 13.6285C355.312 13.4631 351.984 13.0518 355.926 13.2775ZM471.194 7.98427C470.372 7.97995 469.768 8.63828 469.862 8.66421C470.764 8.91055 472.019 8.19635 471.194 7.98427ZM409.66 11.0594C409.602 10.7912 406.991 11.0222 407.347 11.1816C407.464 11.2352 409.707 11.2765 409.66 11.0594ZM610.748 2.69862C609.521 2.50211 613.227 2.1081 614.321 2.35153C614.871 2.74438 610.909 2.72035 610.748 2.69862ZM493.94 7.19692C494.048 6.79082 489.938 7.1888 491.575 7.45361C491.986 7.51983 493.903 7.33273 493.94 7.19692ZM533.241 5.08125C530.502 5.67399 542.107 5.53177 539.037 5.06256C538.824 5.02886 533.487 5.03059 533.241 5.08125ZM552.138 4.59542C551.655 4.56273 551.841 3.20545 553.847 3.6426C554.11 3.69917 552.907 4.10586 553.123 4.17848C553.254 4.21952 557.56 4.23034 557.752 4.1909C557.962 4.14639 557.695 3.72496 557.908 3.66761C558.149 3.60337 560.792 3.87366 562.158 3.82118C564.732 3.72152 564.988 3.3509 565.199 3.34096C565.816 3.31301 566.833 3.52647 568.095 3.47381C574.631 3.19996 584.116 2.50217 589.228 3.05417C584.649 2.93696 580.594 3.42997 576.097 3.71626C577.384 2.91146 569.518 4.5678 574.118 3.51014C571.864 3.79141 553.809 4.69068 552.144 4.5952C552.142 4.59527 552.14 4.59535 552.138 4.59542ZM332.216 13.3623C333.359 12.8546 327.404 13.2028 326.918 13.7558C327.709 13.7973 332.075 13.4203 332.216 13.3623ZM359.684 11.1081C360.233 11.006 360.722 10.0852 363.632 10.4219C363.635 10.4218 363.637 10.4217 363.64 10.4216C364.491 10.5199 363.537 10.7787 363.695 10.8504C363.751 10.88 366.41 11.2184 364.221 11.3807C360.886 11.6288 363.879 10.7248 362.097 10.7887C361.88 10.797 358.525 11.4228 358.726 11.5215C358.746 11.5331 359.758 11.3883 359.928 11.4258C360.568 11.5666 360.271 11.8601 360.361 11.8698C360.658 11.8918 365.959 11.1941 366.775 11.5788C367.011 11.7041 358.28 12.3754 357.93 12.3196C357.712 12.2844 357.771 11.5013 357.545 11.4338C357.428 11.4004 353.91 11.8379 353.448 11.7852C353.314 11.7699 353.211 11.7518 353.136 11.7364C353.681 11.9555 350.479 12.07 350.565 11.7939C350.617 11.6847 352.823 11.6558 352.903 11.6713C352.937 11.6778 352.968 11.6874 352.996 11.6938C352.531 11.4187 359.979 11.125 358.353 10.754C360.5 10.4255 358.073 11.4081 359.684 11.1081ZM370.061 10.1985C369.84 10.2897 369.62 10.3809 369.399 10.4721C373.191 10.1147 377.581 10.3287 381.93 10.146C383.034 10.1003 381.744 9.65144 383.195 9.72866C384.358 9.79057 385.658 10.2026 385.033 10.3323C384.881 10.3645 382.511 10.1591 381.331 10.239C377.845 10.4751 378.743 10.8686 378.54 10.8887C378.315 10.9102 376.103 10.6987 374.901 10.7619C371.877 10.9216 370.506 11.2426 366.344 11.0688C368.726 10.6868 367.39 10.1253 370.061 10.1985ZM511.227 5.25968C511.362 4.98304 513.862 5.11953 514.761 5.04234C514.631 5.31945 512.134 5.18215 511.227 5.25968ZM142.037 19.9971C141.296 20.4711 146.983 20.357 145.471 20.0465C145.136 19.9775 142.751 19.9722 142.037 19.9971ZM167.662 19.2538C168.418 19.1008 165.343 18.9027 165.363 19.2461C165.372 19.3562 167.565 19.2737 167.662 19.2538ZM419.019 8.61094C419.164 8.59101 421.274 8.60257 421.341 8.62244C422.757 9.03599 415.808 9.05109 419.019 8.61094ZM198.775 17.4651C196.129 17.8627 204.134 17.6683 201.674 17.3951C201.552 17.382 198.902 17.4459 198.775 17.4651ZM209.9 16.9375C209.262 16.9788 206.423 16.948 206.391 17.085C206.343 17.3059 209.593 17.325 209.9 16.9375ZM471.678 6.28394C471.351 5.79638 475.096 6.02023 476.382 5.90364C476.711 6.39147 472.975 6.16674 471.678 6.28394ZM448.097 6.8942C463.762 5.84849 460.369 7.06017 447.169 7.17685C447.136 6.8567 447.104 6.96031 448.097 6.8942ZM468.248 6.11639C467.688 6.46073 465.888 6.44032 464.67 6.46521C464.88 6.23326 467.377 6.21028 468.248 6.11639ZM135.207 19.5776C136.18 19.1339 140.593 19.4602 139.819 19.6579C139.637 19.7012 134.851 19.8147 135.207 19.5776ZM420.325 8.12794C419.939 7.65658 424.683 7.65867 425.047 7.7518C426.525 8.12587 420.708 8.00451 420.325 8.12794ZM494 4.92702C494.819 4.51118 497.193 4.60881 498.708 4.55087C498.033 4.90539 495.295 4.88002 494 4.92702ZM482.912 5.08896C482.998 5.07072 485.159 5.01535 485.253 5.029C487.024 5.32824 480.963 5.48477 482.912 5.08896ZM23.2407 23.2176C23.3099 23.2027 24.9046 23.1676 24.9611 23.1798C26.3973 23.4927 21.6117 23.5964 23.2407 23.2176Z" fill="#DAC110"/>
</svg>
