<svg width="1733" height="1005" viewBox="0 0 1733 1005" fill="none" xmlns="http://www.w3.org/2000/svg">
<path d="M1264.02 116.582C1264.03 116.593 1264.05 116.603 1264.07 116.614C1313.91 149.686 1354.97 152.292 1404.71 171.12C1431.91 181.465 1461.1 193.467 1489.25 206.85C1524.72 223.946 1557.42 242.315 1580.04 266.41C1600.72 288.079 1602.37 291.935 1607.38 316.554C1609.58 329.219 1607.29 348.532 1601.99 361.628C1598.27 371.299 1593.05 379.705 1586.24 387.007C1560.62 414.217 1498.88 438.086 1440.22 460.83C1429.75 464.973 1419.34 469.209 1408.88 473.631C1404.36 475.542 1402.15 477.905 1400.07 478.805C1380.77 486.988 1347.22 501.553 1328.37 512.426C1323.93 514.925 1319.15 517.666 1314.17 520.598C1276.06 543.119 1225.02 575.557 1193.03 611.164C1192.15 612.172 1191.29 613.174 1190.47 614.145C1177.1 630.328 1167.93 643.758 1166.39 650.909C1162.89 655.872 1158.72 656.776 1157.67 657.934C1157.66 657.95 1157.65 657.966 1157.64 657.982C1154.27 661.744 1148.47 672.882 1146.74 674.975C1146.48 675.287 1146.34 672.066 1142.9 677.697C1142.58 678.205 1144.04 678.589 1140.72 683.022C1139.87 684.198 1127.08 697.424 1123.77 701.363C1118.81 707.381 1111.14 717.379 1102.81 727.755C1092.98 740.09 1082.08 752.632 1074.65 760.115C1072.57 762.227 1070.79 762.851 1068.6 764.991C1067.44 766.118 1066.37 768.382 1066 768.728C1064.44 770.228 1054.95 773.534 1062.74 777.112C1055.22 783.274 1055.62 779.311 1054.32 778.217C1046.49 784.79 1045.06 790.536 1040.64 788.998C1036.59 792.208 1032.57 795.172 1028.87 797.627C1029 799.093 1010.35 803.267 989.167 802.043C967.599 801.407 942.855 798.475 915.05 797.326C909.305 797.084 903.86 797.296 898.754 797.784C898.665 797.146 898.575 796.508 898.485 795.869C869.502 802.188 863.221 801.845 852.733 809.072C845.697 810.755 839.265 812.421 833.327 813.866C820.608 819.147 810.011 823.174 802.794 824.768C798.353 825.886 785.994 827.423 774.684 829.841C763.371 832.19 753.048 834.855 742.964 837.611C693.239 851.563 646.853 865.517 601.948 874.205C566.351 881.019 531.937 883.641 501.875 878.903C478.705 875.335 463.198 868.149 440.469 852.86C438.537 851.553 436.537 850.17 434.523 848.755C429.678 845.327 427.692 845.61 419.318 839.463C410.031 832.646 397.468 821.106 383.733 811.257C371.795 802.671 352.346 790.842 335.272 781.861C335.224 781.836 335.176 781.811 335.128 781.785C331.265 779.733 328.777 777.515 328.331 777.293C325.669 775.995 324.93 777.163 322.322 775.954C319.197 774.51 315.778 771.846 311.975 770.327C297.862 764.489 281.242 759.806 279.321 759.43C269.975 757.337 267.659 758.446 266.9 758.284C256.558 756.65 260.613 756.18 258.028 755.839C244.591 754.409 235.219 756.708 218.235 753.923C218.714 755.04 219.188 756.158 219.657 757.277C206.885 758.146 215.253 755.009 212.624 754.524C212.168 754.451 206.712 754.636 200.736 755.085C192.876 755.644 184.073 756.711 182.938 756.871C176.016 757.837 176.065 759.378 175.464 759.465C174.01 759.635 156.678 760.362 148.467 763.202C138.723 766.506 151.028 767.394 148.642 768.4C148.227 768.552 137.79 770.16 136.611 771.379C135.276 772.671 144.175 770.954 144.13 771.412C144.053 771.688 129.74 776.629 132.855 777.474C135.334 778.356 155.003 772.867 159.508 772.918C160.238 772.914 159.172 774.863 159.812 774.826C161.602 774.64 186.19 771.048 201.711 770.151C207.82 769.723 212.414 769.539 213.062 769.435C210.404 768.717 207.755 768.032 205.099 767.377C208.569 767.105 212.062 766.884 215.613 766.723C210.836 766.226 206.103 765.838 201.412 765.535C201.137 765.517 200.862 765.499 200.586 765.482C200.827 765.234 201.086 765.002 201.364 764.785C208.972 758.575 230.979 764.877 231.701 768.269C231.952 769.756 218.148 773.394 230.872 775.955C228.92 776.28 226.969 776.628 225.058 776.998C221.103 776.315 217.187 775.721 213.264 775.201C215.846 774.717 218.455 774.264 221.1 773.849C220.128 773.396 219.146 772.948 218.164 772.505C212.651 772.04 207.195 771.73 201.801 771.534C199.943 771.465 198.04 771.413 196.193 771.372C192.525 772.013 193.417 773.296 190.931 773.785C160.401 780.531 179.985 773.976 160.161 777.446C157.454 778.611 154.77 779.795 152.126 780.991C152.596 777.871 144.251 781.192 133.719 782C135.135 782.704 136.557 783.411 137.976 784.121C122.836 786.42 94.5476 798.246 101.26 791.15C98.0389 792.389 94.8264 793.642 91.6182 794.908C88.6204 794.749 85.6079 794.604 82.6014 794.467C78.7697 795.547 74.9601 796.638 71.1385 797.748C71.2416 798.211 71.3446 798.674 71.4478 799.136C74.5167 798.331 77.5695 797.54 80.6368 796.756C78.7002 798.743 76.7559 800.739 74.8397 802.733C72.5177 803.093 70.2268 803.45 67.9103 803.818C76.9865 800.001 63.9913 801.13 60.475 800.117C55.7596 800.967 52.2976 802.608 49.702 804C47.8483 804.999 46.4403 805.87 45.3413 806.225C44.1136 806.609 28.2908 806.557 35.3379 809.545C27.6641 811.119 20.0121 812.724 12.3768 814.352C9.55774 815.561 6.745 816.772 3.93469 817.986C10.8856 818.261 -6.65613 826.258 7.08948 823.158C17.3573 820.857 19.2716 818.134 24.0703 816.758C28.4041 815.517 31.0834 816.211 35.8164 814.929C41.202 813.467 46.4404 812.046 51.5454 810.667C76.6954 803.898 99.0192 797.823 124.958 791.694C131.133 790.241 136.943 789.779 141.133 788.874C145.875 787.857 139.578 787.251 145.73 786.533C152.22 785.8 153.869 787.001 155.559 786.738C156.628 786.572 159.759 784.732 162.879 784.245C175.607 782.127 195.013 781.462 196.913 781.389C197.358 781.351 199.428 781.125 202.403 780.844C213.265 779.48 237.985 779.301 239.608 779.525C240.615 779.51 238.921 774.461 247.335 780.417C250.085 780.809 252.849 781.258 255.608 781.766C255.301 780.753 254.987 779.741 254.666 778.73C270.656 785.081 265.315 781.883 280.984 786.294C294.158 790.323 308.974 796.465 323.111 804.194C348.755 818.226 372.076 835.685 390.483 849.571C396.816 854.381 398.543 857.117 405.897 862.632C410.606 866.179 421.349 871.905 425.367 875.212C427.236 876.763 427.737 877.908 425.733 878.355C442.777 884.617 441.613 891.689 451.149 891.725C451.762 892.751 452.369 893.764 453.004 894.78C462.282 896.06 463.676 899.281 472.775 902.602C476.735 903.924 472.857 899.846 480.137 905.173C481.767 905.336 483.402 905.474 485.05 905.589C484.831 904.816 484.618 904.042 484.412 903.269C493.448 905.823 494.298 905.374 492.728 907.841C494.328 907.951 495.935 908.041 497.564 908.116C500.717 908.259 503.873 908.334 507.034 908.344C507.532 909.27 508.048 910.196 508.556 911.118C508.096 911.377 503.84 911.189 497.245 910.28C478.402 908.643 446.598 896.276 423.195 878.426C410.19 869.127 399.448 860.46 395.657 857.396C378.842 847.183 346.894 820.643 330.949 812.222C327.33 810.206 324.499 809.429 320.932 808.195C318.39 807.316 315.505 806.22 311.544 804.382C302.047 799.864 289.902 793.393 284.294 791.641C265.255 780.844 176.763 782.665 236.518 785.607C234.736 786.461 232.976 787.338 231.246 788.233C210.553 784.974 214.829 786.525 202.843 787.639C201.34 787.807 199.536 787.993 197.437 788.2C189.523 788.854 170.773 789.155 172.444 793.371C182.555 792.519 193.077 790.847 202.988 789.874C207.15 789.462 211.196 789.169 215.015 789.087C216.296 788.985 231.664 790.867 239.727 791.087C246.969 791.302 242.578 786.307 257.789 793.309C270.449 790.89 276.391 797.069 279.186 798.334C284.156 800.661 285.417 798.714 290.672 800.337C296.38 802.145 299.51 805.17 300.244 805.492C303.034 806.705 310.183 809.982 317.716 814.1C330.142 820.798 343.238 829.498 344.487 829.646C343.385 828.429 342.281 827.221 341.155 826.008C350.129 831.17 346.992 831.906 349.066 833.636C350.716 834.757 352.357 835.884 353.988 837.016C353.616 836.174 353.242 835.332 352.866 834.49C362.603 841.465 354.256 837.512 367.905 847.34C376.52 853.602 386.264 858.635 387.003 859.345C387.22 859.555 383.847 858.572 387.166 861.249C392.676 865.707 402.383 872.821 404.442 872.237C407.026 874.406 405.852 875.566 406.191 875.857C406.832 876.398 412.345 880.591 418.706 885.071C426.983 890.974 436.894 897.009 439.706 898.559C453.415 906.483 469.22 912.317 485.71 915.848C487.403 916.215 486.52 914.973 488.22 915.335C489.388 915.583 492.636 916.502 496.195 917.392C500.889 918.584 506.099 919.69 507.347 919.872C512.77 920.812 527.325 920.755 529.617 921.166C529.953 921.239 525.103 922.594 530.742 923.1C537.026 923.598 533.636 921.68 533.978 921.666C546.697 920.919 554.849 921.621 563.676 921.08C566.525 920.9 571.62 918.915 575.683 918.826C576.148 918.816 575.403 920.245 575.862 920.253C582.036 920.185 587.388 916.879 589.957 916.31C596.308 914.89 593.109 917.241 593.446 917.202C597.72 916.556 603.311 914.916 609.766 913.714C609.811 913.706 609.856 913.698 609.901 913.689C638.984 908.206 662.803 902.023 693.693 893.372C697.564 892.282 701.837 889.753 702.437 889.583C704.279 889.074 704.153 890.675 709.463 889.14C720.662 885.895 731.094 882.974 742.3 879.802C744.557 879.164 745.152 877.553 746.874 877.044C748.3 876.628 750.626 876.195 753.277 875.737C761.623 874.239 773.663 872.657 773.174 869.277C785.971 870.447 794.119 865.719 803.187 864.382C805.698 863.996 808.183 863.591 810.762 863.082C829.408 859.722 856.328 847.24 877.088 840.464C882.037 838.84 884.209 837.101 887.171 836.332C890.171 835.54 902.176 833.077 913.356 833.847C919.675 834.24 924.911 834.684 925.52 834.646C928.348 834.503 927.148 829.211 941.191 834.835C949.557 835.856 948.722 833.682 950.461 833.715C963.946 834.058 976.244 839.614 974.172 835.153C989.189 837.361 998.731 839.784 1004.49 835.646C1004.4 837.593 1011.34 838.742 1018.96 837.168C1010.62 834.507 1012.08 832.866 991.828 833.161C991.505 833.161 992.079 834.597 991.757 834.598C988.808 834.618 982.678 833.635 977.53 833.379C972.372 833.121 975.169 834.274 973.103 834.115C971.207 833.962 971.362 832.613 968.612 832.388C959.665 831.653 951.586 830.555 946.331 830.09C943.022 829.794 939.19 830.673 936.586 830.465C931.24 830.035 922.654 829.102 913.606 828.454C902.834 827.746 892.94 829.332 886.031 831C882.984 831.779 884.486 832.699 878.139 834.606C877.415 834.838 874.268 834.268 868.888 835.784C863.529 837.305 859.902 839.424 856.698 840.488C854.04 841.379 854.642 839.809 849.35 841.792C846.044 842.947 821.868 853.509 809.312 856.108C803.814 857.382 798.667 858.168 797.818 858.38C793.74 859.289 791.877 861.357 789.217 861.602C788.741 861.638 787.67 860.115 785.998 860.299C776.76 861.286 764.258 863.994 751.084 867.63C725.572 874.729 696.67 884.234 678.526 889.087C654.457 895.602 631.123 901.344 608.174 905.668C576.723 911.51 545.318 914.745 513.775 912.249C512.818 911.885 511.873 911.516 510.938 911.142C516.402 911.601 521.934 911.872 527.488 911.968C527.538 911.178 527.589 910.387 527.639 909.596C535.103 909.57 534.132 911.371 533.92 912.519C536.722 912.028 539.506 911.496 542.3 910.924C544.789 913.72 563.619 910.725 573.403 909.377C579.782 908.609 587.522 908.493 590.907 907.849C598.026 906.497 597.52 904.815 598.083 904.696C598.685 904.564 602.922 904.402 607.817 903.862C610.678 903.551 613.784 903.108 616.465 902.516C627.152 900.112 627.699 897.34 642.926 895.935C661.463 889.996 682.581 884.95 703.141 879.378C698.587 878.158 717.578 875.159 725.941 872.736C733.797 870.47 741.992 868.083 750.559 865.688C768.104 860.401 793.403 855.699 808.664 852.995C832.028 848.054 858.018 831.233 893.317 824.199C901.271 822.78 908.255 821.396 913.932 821.44C914.44 821.434 914.929 821.444 915.397 821.472C917.604 821.608 918.488 823.334 921.522 823.293C922.049 823.287 922.548 821.727 928.153 821.879C942.357 822.26 974.831 827.898 982.645 825.109C1007.37 826.948 1031.92 825.436 1042.34 818.417C1055.57 810.03 1069.11 798.794 1081.89 786.862C1082.22 785.662 1082.56 784.442 1082.87 783.25C1090.91 780.242 1111.21 756.209 1121.61 743.574C1121.85 743.296 1122.08 743.024 1122.3 742.759C1140.93 721.198 1163.74 692.497 1179.19 671.695C1182.56 667.184 1184.58 662.896 1187.86 658.562C1189.25 656.715 1191.98 655.105 1193.49 653.132C1198.94 646.073 1204.91 638.051 1212.73 629.211C1229.92 610.424 1248.27 596.177 1264 584.796C1285.16 569.724 1306.33 556.456 1327.75 543.953C1359.72 525.167 1393.61 509.442 1428.53 495.372C1435.77 492.443 1443.02 489.59 1450.27 486.796C1509.35 463.969 1571.75 443.171 1607.79 407.49C1631.65 383.365 1642.52 344.144 1637.07 311.099C1632.26 282.843 1622.75 266.768 1601.01 245.399C1574.68 218.027 1539.52 198.628 1502.19 180.299C1486.59 172.734 1470.54 165.486 1454.33 158.395C1451.84 157.306 1451.4 158.628 1449.46 157.785C1437.98 152.784 1412.64 140.732 1399.47 135.324C1389 130.99 1371.53 126.087 1368.73 122.638C1407.26 134.979 1446.48 151.641 1484.48 168.208C1487.2 169.402 1488.08 168.36 1488.42 168.493C1494.62 170.899 1490.12 170.766 1498.78 174.99C1499.43 175.307 1501.36 176.009 1503.84 176.915C1512.74 180.117 1528.92 186.518 1524.94 188.133C1532.35 189.483 1574.9 213.993 1580.92 220.568C1583 222.388 1580.7 222.175 1581.09 222.559C1582.76 224.205 1584.66 223.537 1586.33 224.829C1590.85 228.198 1600.24 238.844 1602.27 240.97C1602.72 241.41 1603.27 241.938 1603.89 242.523C1609.86 247.991 1621.24 258.912 1624.64 264.569C1628.22 270.304 1625.99 270.194 1628.59 275.071C1630.46 279.023 1629.84 273.865 1634.31 282.811C1636.72 287.001 1640.44 305.232 1641.09 310.36C1641.09 310.384 1641.09 310.407 1641.1 310.43C1641.81 314.342 1643.46 319.022 1643.56 325.173C1644.07 333.991 1641.14 353.501 1638.1 361.953C1637.94 362.466 1636.25 363.358 1635.91 364.602C1635.17 367.196 1637.04 366.955 1636.56 368.965C1637.22 371.597 1620.51 402.986 1615.38 406.636C1613.87 408.407 1612.37 409.574 1611.04 410.574C1610.02 411.325 1609.11 411.966 1608.4 412.672C1607.13 413.924 1607.99 415.077 1606.63 416.361C1606.2 416.774 1601.78 419.134 1597.8 422.283C1594.36 425.386 1579.17 436.853 1577.06 437.922C1575.81 438.673 1576.69 436.991 1572.96 439.202C1569.57 441.2 1567.89 443.626 1565.9 444.733C1561.25 447.317 1555.43 449.046 1550.3 451.548C1535.47 458.667 1536.75 459.653 1535.9 460.145C1533.43 461.417 1531.8 460.497 1530.96 460.837C1527.4 462.288 1518.57 465.743 1515.34 467.006C1511.33 468.586 1510.17 470.595 1505.89 472.324C1502.7 473.606 1495.72 474.89 1488.32 477.681C1477.14 481.901 1464.33 486.558 1451.99 491.249C1445.91 493.565 1439.99 495.881 1434.47 498.116C1429.49 500.132 1429.18 501.666 1427.69 502.311C1419.72 505.761 1414.69 506.326 1412.4 507.32C1396.09 514.231 1368.09 529.867 1353.58 538.031C1350.37 539.779 1341.12 544.441 1331.23 549.93C1322.84 554.559 1313.89 559.755 1307.45 563.864C1305.85 564.885 1307.89 564.81 1306.02 565.789C1301.55 568.141 1300.81 566.163 1298.7 567.578C1297.66 568.285 1295.92 570.779 1292.94 572.855C1277.55 583.584 1266.48 590.457 1259.53 595.688C1244.99 606.766 1230.85 617.981 1216.91 633.042C1182.32 674.638 1157.91 713.462 1127.73 748.728C1119.78 758.259 1111.68 767.415 1103.47 776.105C1097.98 781.892 1090.27 788.003 1082.4 796.932C1082.57 797.653 1082.74 798.373 1082.91 799.093C1082.17 798.909 1081.45 798.715 1080.71 798.532C1070.54 807.231 1066.22 809.877 1056.19 818.454C1055.34 819.174 1054.22 823.607 1050.41 821.795C1048.87 823.412 1047.69 824.542 1046.81 825.327C1043.77 828.135 1045.08 825.439 1039.83 827.617C1033.26 830.112 1025.37 832.536 1016.6 833.53C1011.94 835.488 1032.35 835.906 1033.29 835.114C1035.24 834.597 1036.62 832.275 1038.22 831.605C1043.03 829.646 1047.59 828.525 1047.57 826.593C1047.59 826.588 1047.61 826.582 1047.62 826.577C1053.14 824.404 1049.98 826.378 1048.47 827.884C1048.07 828.337 1047.84 828.76 1048.24 829.006C1048.45 828.83 1048.65 828.653 1048.85 828.474C1052.81 825.195 1056.74 821.652 1060.58 817.968C1066.32 820.733 1086.1 794.315 1086.98 798.589C1088.31 796.244 1089.63 793.883 1090.92 791.518C1102.51 787.181 1104.82 779.82 1113.94 767.614C1113.7 768.844 1113.41 770.112 1113.14 771.352C1113.59 771.314 1123.33 761.953 1118.08 763.732C1126.63 757.986 1126.42 754.497 1129.88 750.536C1131.24 748.965 1133.12 747.355 1136.31 745.404C1141.46 740.006 1136.71 741.907 1145.11 731.54C1150.08 725.381 1157.17 718.447 1162.64 711.433C1163.91 709.805 1163.28 708.224 1164.38 706.777C1165.49 705.316 1167.16 705.47 1168.52 703.737C1171.34 700.125 1174.09 694.782 1175.88 692.535C1177.48 690.528 1180.69 688.324 1184.55 683.441C1198.06 666.366 1192.77 670.521 1194.33 667.397C1196.07 663.998 1199.52 663.306 1203.92 657.115C1204.36 656.492 1201.98 657.158 1203.55 655.226C1204.8 653.69 1206.65 653.864 1211.08 648.797C1211.76 648.053 1215.63 643.204 1221.31 637.074C1231.32 626.303 1245.26 615.205 1248.43 612.665C1255.91 606.523 1272.31 592.79 1280.51 587.289C1283.64 585.137 1287.75 583.918 1291.07 581.713C1301.99 574.392 1319.69 563.251 1334.09 554.851C1334.28 554.741 1334.46 554.631 1334.65 554.521C1347.66 546.71 1370.32 531.795 1379.02 530.588C1398.45 521.677 1402.36 517.831 1403.82 517.098C1407.75 515.287 1410.2 515.806 1415.23 513.738C1427.71 508.611 1440.96 503.377 1454.66 498.13C1512.17 476.419 1578.33 451.627 1612.27 418.983C1613.54 417.769 1614.8 416.514 1615.98 415.273C1642.33 388.225 1654.09 346.128 1648.02 309.086C1643.35 279.691 1631.08 258.957 1608.87 237.534C1581.18 208.817 1544.81 188.816 1507.09 170.242C1478.39 156.333 1448.64 143.476 1418.81 130.973C1418.69 130.221 1418.56 129.469 1418.44 128.717C1435.19 135.337 1455.04 142.686 1471.32 149.717C1482.4 154.497 1495.87 161.355 1508.41 167.532C1520.53 173.487 1531.79 178.872 1540.17 181.026C1534.28 177.325 1523.4 173.602 1524.63 171.702C1535.75 177.224 1546.83 183.079 1557.51 189.278C1556.65 189.984 1555.79 190.691 1554.94 191.399C1565.82 198.23 1576.82 205.147 1586.71 212.913C1588.43 214.265 1586.63 214.077 1588.12 215.238C1589.76 216.531 1589.24 214.898 1589.55 215.135C1593.76 218.467 1594.33 220.287 1594.84 220.683C1596.11 221.72 1595.77 220.165 1599.56 223.144C1606.56 228.719 1609.43 235.227 1610.8 230.758C1611.6 231.548 1612.42 232.364 1613.23 233.166C1614.55 234.485 1615.83 235.781 1617.11 237.096C1616.83 238.418 1616.56 239.754 1616.27 241.073C1632.08 251.205 1629.87 262.097 1639.85 266.607C1640.54 269.74 1641.05 272.856 1641.41 275.963C1643.12 277.026 1644.83 278.162 1646.51 279.374C1645.74 280.047 1644.97 280.712 1644.19 281.366C1647.76 289.509 1649.95 298.872 1651.49 308.449C1652.63 315.707 1652.9 323.388 1652.84 330.607C1652.57 341.705 1652.58 344.46 1650.84 354.191C1645.69 375.622 1653.05 354.722 1649.83 373.189C1649.02 371.898 1648.19 370.614 1647.35 369.357C1646.04 372.124 1644.65 374.809 1643.17 377.439C1643.31 379.717 1643.39 382.04 1643.41 384.354C1635.09 390.75 1635.49 397.461 1634.8 398.645C1634.16 399.514 1630.21 400.929 1625.48 411.008C1625.14 404.967 1620.19 417.331 1619.3 418.068C1619.26 418.107 1619.2 418.169 1619.12 418.251C1617.78 419.736 1608.79 427.04 1604.85 430.044C1601.72 432.637 1595.04 438.593 1589.69 441.959C1584.96 444.946 1584.7 443.413 1584.35 443.626C1578.42 447.101 1582.68 445.793 1578.4 448.38C1574.11 450.939 1570.1 451.755 1569.2 452.362C1568.75 452.672 1570.98 452.943 1568.83 454.245C1563.07 457.769 1551.57 462.203 1544.5 465.471C1541.99 466.639 1539.26 469.085 1536.44 470.37C1532.11 472.336 1529.49 471.865 1526.97 472.991C1526.1 473.384 1521.32 477.878 1514.07 480.45C1512.69 480.939 1506.96 478.105 1504.13 486.506C1503.37 485.782 1502.61 485.058 1501.85 484.332C1476.93 491.546 1472.82 501.251 1459.5 499.036C1458 499.681 1456.74 500.253 1455.68 500.761C1444.11 506.305 1455.01 504.5 1453.35 505.547C1452.21 506.268 1446.15 507.861 1445.51 508.161C1444.41 508.686 1444.92 509.408 1443.69 509.892C1421.06 518.831 1430.45 513.334 1422.93 515.315C1404.96 520.249 1393.95 530.971 1422.75 516.855C1422.94 517.297 1423.12 517.74 1423.31 518.182C1415.84 520.742 1397.64 529.052 1404.73 528.573C1410.23 527.948 1453.37 508.911 1429.7 521.528C1424.35 524.409 1420.72 523.95 1412.43 531.23C1406.16 534.184 1403.46 530.579 1395.6 536.111C1396.37 534.076 1397.15 532.043 1397.94 530.012C1385.33 533.519 1372.1 542.995 1362.92 546.882C1359.8 548.148 1345.55 547.649 1351.56 552.653C1349.26 553.686 1343.51 557.05 1337.52 560.745C1329.97 565.376 1321.95 570.531 1319.4 571.673C1318.31 572.196 1314.93 569.554 1301.01 580.061C1300.28 581.108 1299.51 582.187 1298.76 583.249C1312.79 575.83 1290.19 592.244 1298.56 591.171C1299.77 588.365 1309.73 580.76 1311.01 579.006C1313.17 575.964 1303.48 579.846 1314.84 573.349C1325.05 574.22 1303.65 584.259 1309.84 587.29C1294.08 594.193 1294.15 597.46 1291.02 599.689C1277.74 609.357 1268.98 614.989 1257.3 625.264C1253.46 626.618 1274.76 607.904 1278.01 606.472C1265.07 610.613 1282.97 597.317 1292.2 594.266C1292.14 592.766 1292.08 591.262 1292.02 589.753C1282.26 597.132 1272.7 604.317 1262.38 610.868C1262.04 611.733 1261.69 612.606 1261.36 613.468C1263.98 612.354 1266.59 611.289 1269.18 610.259C1261.88 617.264 1264.32 610.584 1255.82 621.506C1254.6 620.641 1253.35 619.793 1252.11 618.939C1243.66 626.377 1235.41 634.081 1227.75 642.969C1226.56 644.36 1225.38 645.793 1224.24 647.224C1217.29 650.544 1203.14 671.008 1208.92 669.625C1203.17 677.708 1208.92 666.72 1202.62 673.613C1199.88 676.618 1195.09 682.894 1194.76 685.031C1198.11 686.511 1205.5 677.28 1209.6 675.909C1208.89 678.151 1174.33 720.435 1180.47 719.003C1178.24 722.759 1177.74 719.897 1172.52 725.781C1163.76 735.656 1153.77 750.08 1143.58 762.062C1136.74 770.115 1129.83 776.994 1123.47 780.762C1130.68 770.166 1135.67 765.019 1140.93 759.839C1144.25 756.551 1147.61 753.291 1151.54 748.547C1158.34 740.999 1196.13 691.757 1184.73 700.533C1186.46 699.01 1188.23 697.435 1189.96 695.909C1190.45 693.366 1190.9 690.878 1191.38 688.332C1187.38 693.466 1183.38 698.583 1179.37 703.671C1179.32 705.594 1179.3 707.488 1179.26 709.402C1178.19 709.492 1177.12 709.585 1176.05 709.676C1174.3 711.736 1172.51 713.834 1170.74 715.892C1171.96 715.866 1173.19 715.841 1174.42 715.817C1172.01 719.255 1169.56 722.716 1167.13 726.121C1166.81 724.436 1166.47 722.77 1166.15 721.086C1153.78 736.474 1158.52 731.666 1153.57 741.741C1148.62 748.247 1155.4 736.014 1144 748.98C1140.48 752.956 1138.67 755.3 1137.59 757.027C1134.57 761.755 1137.56 761.585 1124.4 775.428C1123.67 775.275 1122.95 775.12 1122.22 774.964C1118.88 779.606 1115.48 784.201 1112 788.744C1111.94 787.651 1111.89 786.555 1111.83 785.458C1104.01 794.213 1091.36 804.152 1090.61 809.006C1098.23 799.891 1101.88 803.791 1100.34 806.696C1098.69 809.55 1080.41 827.843 1057.82 842.323C1035.48 856.222 1005.67 853.912 996.906 854.095C973.455 853.527 955.467 853.135 934.013 848.781C948.984 847.927 1000.08 853.828 1009.39 850.887C1010.34 850.679 1009.76 845.775 1016.09 850.963C1028.94 849.254 1043.58 847.302 1056.11 839.677C1062.59 835.685 1069.09 831.043 1075.34 825.953C1073.86 825.294 1072.36 824.648 1070.89 823.973C1065.49 830.418 1058.27 833.93 1053.81 836.131C1050.59 837.657 1048.78 838.499 1050.62 840.398C1048.24 841.642 1045.75 842.722 1043.16 843.666C1042.83 842.76 1042.5 841.854 1042.17 840.948C1038.43 842.309 1034.48 843.371 1030.39 844.192C1030.58 845.138 1030.77 846.083 1030.96 847.029C1027.46 847.73 1023.92 848.253 1020.3 848.646C1019.82 847.732 1019.35 846.814 1018.89 845.894C1008.51 849.709 970.387 842.357 986.948 848.87C981.668 848.653 976.375 848.332 971.056 847.953C971.123 847.25 971.191 846.548 971.258 845.846C968.979 845.589 966.711 845.322 964.424 845.046C965.129 845.742 965.833 846.437 966.539 847.132C956.135 845.181 945.818 847.617 939.012 844.848C943.661 844.748 948.298 844.665 952.913 844.573C944.089 844.717 927.877 841.508 926.374 841.435C921.883 841.116 919.417 842.386 914.513 842.207C913.911 842.186 913.403 842.149 912.974 842.1C909.842 841.802 910.246 841.042 909.425 841.066C882.618 844.461 894.865 849.881 881.449 845.678C880.517 846.948 879.626 848.22 878.753 849.499C876.962 849.223 875.186 848.964 873.39 848.728C866.577 851.121 860.025 853.756 853.6 856.355C855.314 854.395 857.045 852.432 858.812 850.468C848.778 853.788 845.322 857.753 844.396 858.16C841.838 859.3 840.119 858.336 839.32 858.636C806.859 870.13 819.588 866.092 812.628 872.055C811.427 872.963 809.655 874.059 806.878 875.347C799.263 874.306 806.316 870.945 806.846 868.543C797.72 871.127 793.962 870.832 783.262 873.088C780.454 873.687 777.741 875.53 776 875.94C774.47 876.294 769.496 876.123 765.912 877.019C762.572 877.847 758.704 879.097 754.548 880.437C751.301 881.487 747.847 882.593 744.309 883.573C737.673 885.39 717.281 890.28 703.283 894.2C697.31 895.875 698.982 896.531 697.436 896.965C696.801 897.142 691.796 897.188 687.955 898.237C662.416 905.218 636.444 912.544 610.591 917.88C604.814 919.066 599.038 920.14 593.272 921.078C571.026 924.701 548.241 925.8 526.175 925.389C521.474 925.285 523.933 926.305 521.879 926.268C521.166 926.231 520.383 924.617 513.132 924.795C510.5 924.839 513.421 926.231 510.839 926.086C509.595 925.993 509.153 924.579 501.958 923.426C499.592 923.034 497.416 922.712 495.449 922.453C486.548 921.263 481.571 921.361 480.63 921.12C478.515 920.517 479.406 919.496 476.622 918.757C463.018 915.052 452.317 910.412 441.09 904.446C438.223 902.996 426.298 896.195 416 889.076C407.395 883.217 399.705 877.526 398.765 876.976C394.199 874.228 396.694 879.194 391.234 875.062C390.076 873.412 388.902 871.747 387.744 870.091C390.482 871.522 393.231 872.954 395.958 874.359C388.747 870.061 381.756 863.391 376.685 859.68C375.75 858.993 366.468 853.531 362.079 850.202C363.691 851.959 365.295 853.719 366.888 855.479C365.986 855.317 365.083 855.156 364.18 854.995C355.708 848.03 346.198 841.257 336.598 835.049C333.127 832.816 333.765 834.395 330.229 832.18C321.141 826.558 317.205 823.586 313.724 821.431C309.248 818.781 305.391 817.124 291.456 815.923C295.333 817.096 303.911 821.005 311.577 825.374C319.107 829.608 325.822 834.059 327.632 835.049C330.167 836.386 343.124 837.221 336.005 840.472C355.022 853.431 340.719 839.025 357.773 852.121C356.951 852.527 356.129 852.935 355.308 853.343C361.067 858.128 365.231 861.724 369.715 863.263C368.618 867.298 390.115 880.626 401.099 888.763C404.386 891.204 407.761 893.693 411.211 896.164C424.423 905.666 438.943 914.824 453.122 920.628C459.284 923.162 463.365 922.798 464.135 923.069C465.269 923.458 468.122 925.761 470.473 926.419C475.087 927.774 484.921 929.446 494.228 930.723C502.531 931.924 510.35 932.974 513.517 934.956C506.962 934.509 500.405 933.814 493.913 932.856C463.383 928.886 435.098 915.837 409.752 898.322C395.205 888.46 381.145 877.693 366.9 867.151C373.789 869.674 328.153 836.613 325.156 835.726C322.852 834.391 324.072 836.672 323.36 836.323C318.091 833.705 314.652 829.59 313 828.67C312.444 828.359 311.554 828.06 310.353 827.622C308.817 827.061 306.799 826.283 304.266 824.988C303.441 824.569 303.613 823.613 302.708 823.163C296.713 820.212 290.618 817.586 284.287 815.273C283.892 815.138 281.85 815.845 280.248 815.305C278.651 814.762 277.461 812.96 277.048 812.827C271.902 811.159 262.719 809.803 257.705 808.939C255.964 808.62 257.349 807.855 255.385 807.522C249.323 806.584 251.055 808.758 243.667 807.406C241.186 806.996 241.477 805.49 236.627 805.344C233.196 805.27 233.432 807.963 232.89 808.029C232.184 808.04 220.486 805.689 216.694 807.597C225.045 812.008 207.673 808.074 208.345 806.207C206.922 806.431 205.518 806.663 204.09 806.906C200.934 807.448 197.756 808.04 194.626 808.669C193.009 808.327 191.403 807.993 189.78 807.671C171.513 811.921 160.21 812.513 142.404 816.665C141.55 816.83 126.733 821.066 127.606 821.612C136.812 820.805 145.762 819.087 151.137 815.864C161.4 818.281 160.941 814.847 176.469 813.156C181.676 812.637 182.176 813.743 182.775 813.678C189.109 813.068 196.657 812.451 204.419 811.997C221.406 810.853 239.385 811.286 249.015 810.445C252.693 811.791 238.988 810.521 244.231 811.788C245.66 812.038 263.716 814.632 277.952 819.483C292.208 824.112 303.154 829.187 293.743 822.626C295.848 823.668 297.935 824.751 299.999 825.87C300.35 828.549 304.63 831.284 307.893 832.14C309.805 832.628 311.405 832.44 311.627 831.035C312.243 832.222 312.824 833.399 313.411 834.587C314.984 836.214 317.01 837.79 319.967 839.839C331.899 846.603 397.899 895.397 401.538 897.909C401.13 898.664 400.725 899.421 400.318 900.178C369.883 880.084 344.109 855.304 309.123 837.915C310.49 837.77 311.871 837.641 313.26 837.524C311.064 836.446 308.862 835.402 306.661 834.402C294.693 828.952 282.345 824.69 269.781 822.111C279.604 825.802 292.625 831.934 304.38 838.591C310.693 842.117 316.756 845.685 322.021 848.564C324.711 850.041 323.429 847.89 324.094 848.158C325.824 848.867 326.441 851.541 331.804 855.403C337.183 859.215 351.563 867.897 352.778 868.866C355.129 870.677 360.256 877.219 364.338 880.227C369.706 884.176 366.943 880.409 368.033 881.185C372.556 884.387 376.145 887.909 379.712 890.418C385.008 894.177 397.335 900.106 399.122 905.598C395.168 903.059 391.27 900.476 387.405 897.872C392.491 901.966 397.601 905.512 402.724 908.724C417.547 917.934 431.984 924.578 448.856 934.133C452.882 940.39 432.691 931.558 449.306 940.245C446.144 938.978 443.024 937.626 439.955 936.199C439.591 935.056 439.244 933.915 438.907 932.774C433.412 930.965 428.02 928.924 422.71 926.7C424.533 926.8 426.33 926.867 428.143 926.923C418.301 921.33 409.117 914.989 401.561 910.446C395.661 906.897 390.72 904.456 387.196 904.25C387.479 903.173 387.763 902.096 388.047 901.02C372.711 891.475 354.272 872.073 354.764 879.701C354.277 878.96 353.792 878.221 353.306 877.481C344.073 872.164 349.131 872.918 346.076 870.358C345.21 869.556 327.826 858.854 334.23 865.44C317.257 855.339 325.218 854.392 320.8 851.178C314.958 848.949 307.923 844.391 302.813 841.468C297.371 838.349 294.227 836.863 297.47 840.922C295.797 840.243 294.103 839.58 292.421 838.954C288.482 833.387 281.514 834.541 275.284 833.705C273.263 833.081 271.24 832.503 269.208 831.971C268.182 830.492 267.124 829.026 266.025 827.57C245.509 828.207 253.752 815.506 243.005 826.299C244.335 827.185 245.652 828.088 246.935 829.006C250.173 829.807 253.361 830.71 256.491 831.717C243.516 829.339 230.092 828.812 216.27 829.496C212.453 830.346 208.992 830.929 205.672 831.352C193.927 832.905 184.052 832.173 168.783 836.739C166.866 836.718 164.938 836.709 163.013 836.709C165.396 839.126 172.536 837.464 159.29 841.031C158.492 843.159 167.588 841.807 171.471 839.698C172.42 839.176 163.683 839.034 173.223 837.481C179.681 836.526 168.336 840.383 187.488 836.992C186.836 837.553 186.183 838.116 185.53 838.681C187.606 838.407 189.691 838.148 191.749 837.911C193.485 836.606 195.2 835.318 196.961 834.04C199.984 834.759 202.236 835.811 205.989 836.251C208.329 836.525 211.209 836.567 215.221 836.259C212.333 835.672 216.169 833.252 221.396 833.266C221.399 834.069 221.402 834.871 221.406 835.674C233.742 836.345 229.654 833.865 239.542 836.464C240.594 835.924 241.661 835.395 242.729 834.877C248.079 837.741 266.184 843.99 263.834 839.444C268.129 844.476 279.193 846.772 284.566 845.933C284.552 846.8 284.535 847.667 284.513 848.533C286.572 849.647 288.621 850.813 290.662 852.027C292.052 852.191 293.465 852.382 294.869 852.585C295.281 852.981 295.694 853.381 296.107 853.783C296.961 854.62 297.824 855.472 298.68 856.332C299.975 856.146 301.287 855.977 302.61 855.823C304.558 858.069 306.501 860.367 308.407 862.688C310.231 863.075 312.05 863.475 313.894 863.906C313.151 865.315 327.623 875.518 332.391 877.676C333.338 878.946 334.285 880.222 335.229 881.5C336.294 881.289 337.36 881.08 338.429 880.874C338.974 882.053 339.517 883.234 340.059 884.416C342.546 885.445 345.041 886.491 347.542 887.548C353.896 897.098 356.232 894.598 358.216 896.102C361.853 898.88 373.236 910.356 375.56 911.859C377.818 913.345 379.716 912.991 381.574 914.16C386.742 917.41 390.752 919.936 393.814 921.912C409.236 931.631 399.773 928.57 404.871 932.399C408.243 934.855 411.482 935.254 414.647 937.218C419.508 941.057 449.679 956.153 451.96 956.015C454.713 956.65 450.386 948.828 458.495 953.052C457.801 956.509 477.451 957.983 467.552 960.282C474.92 961.713 482.215 962.708 489.408 963.39C489.948 963.441 490.49 963.49 491.033 963.538C489.61 967.283 499.48 966.221 509.753 967.163C524.362 969.03 557.004 970.259 555.494 966.117C558.937 966.823 562.432 967.48 565.902 968.098C584.02 965.485 601.58 963.361 618.977 960.26C623.764 959.406 628.544 958.475 633.273 957.449C677.704 947.809 722.999 933.702 765.629 921.403C784.766 915.852 797.36 913.605 820.406 909.456C821.444 909.229 822.474 908.993 823.495 908.748C827.126 907.853 826.278 906.696 828.803 906.008C842.649 902.67 872.224 891.031 885.109 886.36C889.37 884.801 890.942 883.024 892.241 882.579C896.539 881.154 895.903 883.109 897.792 882.589C899.754 882.024 906.82 879.925 911.229 879.739C915.494 879.667 919.493 879.701 921.911 879.808C925.412 879.961 929.483 881.611 933.681 881.536C934.043 881.532 933.491 880.102 933.797 880.103C941.443 880.561 936.754 881.373 939.348 881.526C957.919 882.591 978.408 884.727 1000.83 884.437C1006.4 884.38 1015.09 883.055 1020.1 882.488C1022.02 882.268 1018.63 883.694 1025.32 882.892C1027.63 882.586 1028.22 881.139 1030.84 880.661C1041.95 878.428 1047.34 881.621 1056.5 874.542C1061.4 872.711 1067.28 870.125 1073.38 866.337C1088.15 857.321 1103.55 845.13 1112.17 837.335C1114.87 834.897 1115.64 833.098 1118.16 830.758C1119.96 829.077 1123.91 827.032 1126.66 824.356C1129.38 821.707 1132.79 816.636 1137.84 811.421C1143.18 805.927 1150.05 799.4 1151.19 798.118C1152.59 796.558 1152.09 794.866 1153.48 793.326C1155.89 790.657 1160.93 785.65 1165.69 780.676C1169.19 777.04 1172.54 773.457 1174.73 770.895C1180.26 764.399 1182.88 759.916 1184.69 757.668C1186.4 755.554 1189.31 753.899 1190.09 752.921C1191.29 751.42 1190.4 750.157 1191.89 748.26C1194.36 745.13 1197.57 742.491 1201.19 737.781C1219.99 713.643 1237.95 687.139 1254.91 667.85C1281.35 640.564 1319.83 615.571 1356.59 593.543C1379.81 579.698 1403.66 567.711 1428.59 556.688C1438.72 552.227 1444.87 550.758 1459.97 544.246C1466.07 541.629 1462.96 541.215 1467.87 539.609C1469.33 539.135 1469.78 539.548 1470.71 539.598C1471.18 539.627 1471.79 539.559 1472.73 539.216C1484.94 534.782 1498.99 528.266 1504.38 526.19C1506.51 525.373 1509.46 525.699 1513.85 523.998C1546.61 511.194 1585.95 494.825 1620.34 471.145C1628.82 465.245 1639.31 457.373 1649.41 447.039C1660.83 435.431 1670.72 421.272 1677.22 408.334C1693.64 375.567 1699.97 338.572 1693.61 300.709C1689.26 264.684 1663.82 224.897 1641.52 204.986C1641.5 204.959 1641.47 204.931 1641.44 204.904C1607.98 170.454 1566.67 147.867 1527.5 128.344C1487.85 108.982 1448.01 92.2346 1407.8 76.3303C1443.35 87.7955 1489.15 107.045 1528.67 125.958C1532.14 127.624 1535.41 129.219 1538.74 130.862C1574.26 148.57 1612.74 170.125 1643.99 202.352C1668.1 223.769 1692.82 265.333 1696.76 300.129C1705.36 354.639 1689.33 409.571 1651.69 449.211C1635.87 465.648 1618.54 477.315 1601.38 487.406C1562.99 509.915 1514.38 527.542 1472.48 544.174C1466.8 546.446 1461.23 548.725 1455.79 551.004C1453.75 551.859 1449.05 552.624 1444.65 554.561C1443.68 554.972 1432.78 561.61 1428.92 563.329C1431.26 558.598 1417.23 568.018 1412.62 570.102C1406.76 572.678 1393.9 576.816 1381.17 584.623C1369.66 591.753 1373.61 591.185 1372.99 591.598C1369.07 594.363 1366.59 593.35 1363.29 594.986C1362.15 595.553 1360.64 596.356 1358.81 597.366C1338.27 607.909 1283 646.192 1270.35 658.998C1266.48 662.445 1267.36 663.516 1266.52 664.291C1264.49 666.195 1260.81 668.082 1258.14 670.814C1257.99 670.974 1257.83 671.139 1257.68 671.311C1252.27 677.287 1246.47 686.919 1243.28 691.114C1235.62 701.148 1219.52 720.71 1208.88 734.707C1205.91 738.617 1207.17 739.25 1205.83 741.013C1199.88 748.879 1182.61 768.201 1174.65 777.671C1172.92 779.748 1171.24 781.787 1169.51 783.886C1158.18 797.59 1146.43 811.523 1133.22 824.163C1132.71 825.551 1132.2 826.941 1131.68 828.317C1129.71 829.347 1127.76 830.329 1125.76 831.343C1111.2 845.623 1095.32 859.029 1076.41 871.02C1057.21 882.988 1037.75 886.169 1020.91 887.813C1016.19 888.524 994.705 890.038 991.376 889.769C988.496 889.693 985.745 888.059 981.562 888.083C975.757 888.086 980.993 891.342 971.635 889.916C969.135 889.518 971.647 888.44 966.663 887.691C964.792 887.501 933.838 884.315 932.417 884.32C929.712 884.25 927.125 886.752 926.44 886.76C922.864 886.802 923.159 884.757 920.804 884.41C917.647 883.944 914.062 883.884 911.032 883.978C909.285 884.173 907.596 884.711 907.244 884.722C900.083 884.091 876.544 890.965 862.153 897.871C860.189 898.782 860.979 900.122 860.641 900.307C858.442 901.498 856.354 900.425 854.076 901.237C845.794 904.191 833.775 909.031 820.96 912.122C815.001 913.573 809.681 914.515 805.963 915.187C804.596 915.428 801.754 915.014 799.573 915.469C787.282 918.178 791.581 918.866 790.888 919.024C789.258 919.51 785.984 918.677 781.386 919.676C777.361 920.547 772.055 921.856 766.182 923.447C754.747 926.547 741.138 930.586 732.183 933.202C722.042 936.177 722.624 937.779 721.971 938C720.549 938.464 716.193 938.283 709.385 940.022C696.281 943.346 698.085 944.219 692.693 945.63C692.241 945.751 692.679 944.281 686.661 945.758C675.055 948.656 649.053 956.561 636.139 959.274C631.194 960.341 629.766 959.357 624.674 960.392C623.159 960.697 621.276 961.123 619.242 961.6C610.328 963.727 597.929 966.665 596.7 966.831C596.288 966.894 595.138 965.604 592.694 965.968C590.034 966.363 587.461 967.476 585.452 967.737C573.979 969.387 553.65 968.307 559.617 973.06C555.741 972.057 551.887 970.998 548.057 969.88C528.4 970.933 508.673 969.945 488.909 966.769C483.848 965.956 478.728 964.988 473.567 963.829C467.868 962.545 462.803 962.253 457.965 960.783C452.97 959.623 432.806 950.052 429.738 948.238C423.883 946.013 397.391 930.361 391.199 925.782C390.646 925.415 390.218 925.133 389.94 924.954C382.953 920.466 375.43 917.648 373.042 915.394C371.136 913.586 373.783 914.027 370.007 910.833C363.467 905.298 351.243 898.09 349.251 896.589C348.4 895.949 350.551 896.352 342.562 890.368C338.264 887.156 335.352 886.331 333.798 885.201C333.321 884.865 335.018 883.945 326.414 878.138C320.472 874.166 317.268 873.613 316.659 873.202C315.74 872.598 314.297 869.946 310.594 867.619C306.187 864.852 299.733 861.389 293.53 858.516C287.566 855.732 281.741 853.486 277.82 851.924C276.27 851.336 277.446 849.88 271.152 847.745C266.644 846.303 267.017 847.878 265.341 847.4C262.69 846.682 259.17 843.936 253.085 842.765C248.657 841.598 226.393 839.425 206.344 841.731C192.766 843.009 181.072 845.157 179.729 845.509C177.479 846.122 174.848 846.539 173.814 847.432C174.895 847.967 175.969 848.507 177.031 849.051C186.662 845.214 183.029 848.567 185.671 848.389C189.413 848.093 202.782 846.426 206.672 846.792C206.806 846.802 206.929 846.813 207.041 846.826C208.245 846.984 205.653 848.586 212.034 849.024C218.789 849.549 221.683 846.958 224.247 850.575C233.552 846.679 241.536 851.782 231.389 852.175C229.208 852.295 219.729 852.208 207.101 853.425C186.896 855.139 159.128 860.879 150.973 862.712C140.299 864.963 119.729 868.551 106.326 872.256C98.4938 874.352 78.9895 879.769 80.324 881.412C73.3363 883.565 80.3011 879.69 78.7506 879.838C77.7144 879.937 74.8408 880.733 71.2241 881.835C63.5088 884.178 52.5012 887.943 49.6366 888.734C28.967 894.398 2.22668 900.2 -17.2483 908.665C-16.1605 908.87 -15.0654 909.073 -13.9801 909.279C-9.17297 908.79 11.4175 901.17 14.4835 902.834C-16.1617 911.991 -46.8279 921.542 -78.1394 930.978C-78.1654 930.138 -83.9773 931.38 -91.2675 933.277C-91.484 933.353 -92.1525 933.518 -92.3707 933.588C-103.813 936.262 -118.69 940.5 -119.632 941.356C-118.685 942.152 -117.762 942.954 -116.821 943.752C-101.764 936.823 -97.9258 937.748 -91.6398 936.307C-91.4084 936.232 -90.7001 936.057 -90.4707 935.977C-88.0605 935.362 -85.2516 934.372 -81.3563 932.424C-75.3248 930.575 -76.705 932.738 -73.6328 932.145C-43.4275 926.288 -74.1084 928.71 -51.3453 923.341C-57.3499 927.719 -38.8167 922.983 -30.6162 920.797C-28.7334 920.287 -4.6438 912.3 -1.77393 911.482C14.4436 906.782 42.4414 899.855 57.9508 894.087C64.0398 892.274 68.9153 891.297 73.6102 890.464C78.5636 889.584 83.3268 888.857 89.1558 887.512C97.7961 885.531 95.0448 885.008 99.0544 883.945C107.5 881.726 111.143 884.646 115.29 878.3C121.144 877.528 126.969 876.809 132.759 876.156C132.581 875.373 132.404 874.59 132.226 873.807C135.786 873 139.319 872.22 142.869 871.463C144.073 872.024 145.276 872.588 146.479 873.154C157.406 869.793 152.373 868.87 154.025 866.217C156.403 865.592 158.795 864.978 161.167 864.383C163.351 865.756 165.497 867.145 167.636 868.545C178.197 866.569 188.585 864.943 198.649 863.831C199.227 862.971 199.805 862.114 200.384 861.259C200.477 862.054 200.569 862.849 200.662 863.643C203.044 863.453 205.41 863.292 207.731 863.165C222.171 862.363 234.992 862.858 246.322 865.033C249.782 866.604 227.876 864.953 225.623 865.456C221.703 865.531 215.042 865.512 207.913 865.979C196.827 866.652 185.068 868.515 185.297 870.24C177.825 868.958 155.228 873.527 148.586 877.626C159.352 875.238 169.994 873.13 180.385 871.436C180.19 872.431 179.996 873.427 179.803 874.422C192.071 868.777 194.245 868.7 207.024 871.339C206.947 870.059 206.869 868.779 206.792 867.499C207.2 867.673 207.617 867.821 208.041 867.949C217.167 870.501 229.828 864.163 229.931 869.507C233.965 869.255 237.827 869.161 241.585 869.24C245.5 870.163 244.186 871.225 245.748 872.446C247.354 873.884 251.346 874.396 265.835 879.197C267.864 879.925 267.995 878.432 271.026 879.916C271.653 880.241 273.913 882.354 278.787 885.59C280.807 886.935 283.336 888.518 286.484 890.346C288.173 891.331 288.943 890.376 290.796 891.349C295.077 893.548 302.234 901.286 300.565 895.442C318.308 906.198 309.438 904.111 314.058 908.924C317.187 912.227 317.818 909.822 320.686 912.564C324.311 916.044 319.747 915.524 336.752 926.845C334.991 925.334 333.248 923.838 331.516 922.351C332.813 922.524 334.117 922.702 335.42 922.881C343.931 931.123 344.43 928.716 346.883 934.976C355.018 938.982 361.287 943.503 372.184 951.315C372.593 951.606 372.989 951.889 373.373 952.165C393.914 966.147 380.441 962.926 411.657 973.83C416.267 976.924 421.099 979.93 426.124 982.789C435.473 984.83 429.002 980.466 442.31 984.74C430.618 984.918 459.349 992.757 463.465 996.621C464.15 995.953 464.83 995.283 465.506 994.61C468.496 995.268 471.481 995.867 474.428 996.408C474.321 997.043 474.213 997.678 474.106 998.313C477.532 998.528 480.869 998.663 484.191 998.742C484.796 998.756 485.401 998.767 486.008 998.777C488.801 999.817 491.59 1000.82 494.403 1001.78C499.295 1000.98 504.112 1000.06 508.852 999.037C511.782 999.148 514.7 999.218 517.586 999.25C516.626 1000.17 515.673 1001.08 514.691 1001.99C518.456 1001.87 522.23 1001.67 525.934 1001.42C521.567 1002.87 524.272 1004.94 535.874 1004.84C545.342 1004.6 534.742 1001.79 554.831 1002.27C556.188 1002.22 558.96 1004.72 577.535 1003.21C599.59 1001.04 588.651 1000.56 592.543 1000.03C593.304 999.919 600.092 1000.16 606.246 999.311C609.731 998.839 612.89 997.315 613.343 997.237C615.484 996.9 616.328 998.119 619.274 997.621C621.426 997.253 623.689 996.789 626.099 996.253C632.062 994.927 638.385 993.246 643.395 992.18C646.579 991.503 649.715 991.601 651.124 991.285C653.312 990.79 655.771 988.961 657.955 988.444C666.008 986.566 679.036 987.426 681.268 981.04C690.153 984.095 704.16 973.835 703.9 977.486C723.754 970.783 775.657 960.277 772.116 955.365C773.186 955.544 774.116 955.689 774.932 955.8C783.06 956.922 781.831 954.204 785.493 953.349C789.921 952.347 787.885 953.833 791.302 952.983C799.604 950.966 804.415 949.666 814.702 948.118C812.875 947.593 811.255 947.03 809.76 946.454C818.887 944.795 817.585 946.661 827.84 945.205C829.004 945.021 830.306 944.786 831.766 944.485C858.914 938.024 846.56 939.445 849.866 936.414C850.237 938.674 875.44 929.075 876.791 928.104C877.928 927.486 871.737 927.113 884.501 923.02C884.134 924.021 883.76 925.025 883.378 926.033C889.085 922.535 901.785 919.525 902.784 919.108C903.361 918.781 906.098 911.393 908.658 916.213C908.737 915.392 908.812 914.575 908.889 913.76C909.752 914.143 910.003 914.669 909.587 915.139C912.639 915.756 915.783 916.415 918.997 917.106C920.138 915.738 921.297 914.374 922.471 913.013C924.598 913.165 926.756 913.329 928.94 913.502C927.393 914.663 925.853 915.828 924.343 916.998C937.452 917.409 955.318 921.047 958.82 916.955C961.972 918.006 965.182 919.048 968.455 920.073C970.726 918.789 973.004 917.496 975.293 916.191C991.182 917.369 991.568 918.286 1003.47 919.805C1002.98 918.69 1002.51 917.574 1002.04 916.457C1010.71 918 1027.9 918.883 1043.84 915.899C1051.25 914.749 1064.66 909.02 1066.65 908.275C1068.28 908.351 1091.4 904.108 1090.94 897.598C1091.62 897.241 1092.28 896.88 1092.93 896.514C1111.92 886.394 1116.63 879.017 1122.94 873.994C1127 870.641 1129.62 870.053 1134.1 866.257C1140.51 860.811 1146.06 854.689 1149.5 851.462C1151.47 849.62 1152.69 850.137 1154.03 848.868C1160.36 842.816 1155.88 845.561 1162.33 839.065C1162.91 838.487 1168.67 834.691 1173.58 829.07C1176.37 825.923 1182.23 816.82 1182.84 816.101C1185.58 812.99 1186.05 817.724 1192.3 804.366C1192.52 805.095 1192.74 805.825 1192.97 806.555C1193.52 806.013 1194.05 805.484 1194.55 804.967C1205.3 793.991 1204.81 790.295 1206.77 787.602C1207.04 787.245 1210.5 784.713 1211.94 782.664C1214.33 779.241 1214.21 776.949 1214.72 776.191C1216.56 773.494 1223.83 765.258 1226.95 758.73C1229.49 762.558 1245.68 743.632 1244.86 736.493C1248.21 733.598 1251.49 730.784 1254.77 727.96C1255.25 725.967 1255.75 723.948 1256.21 721.976C1257.54 721.526 1258.86 721.09 1260.17 720.671C1262.33 714.826 1264.44 709.069 1266.44 703.594C1268.05 704.392 1269.66 705.197 1271.27 706.006C1272.06 704.654 1272.8 703.385 1273.57 702.09C1273.18 700.328 1272.79 698.571 1272.39 696.83C1273.71 695.633 1274.99 694.494 1276.23 693.459C1277.25 693.819 1278.26 694.199 1279.28 694.575C1280.48 693.539 1280.98 692.694 1281.17 691.912C1281.89 688.953 1277.63 685.707 1292.44 681.73C1293.95 679.366 1295.63 676.92 1297.33 674.506C1302.27 675.499 1305.67 669.826 1310.05 667.105C1313.12 665.201 1313.87 666.558 1317.91 663.67C1322.01 660.768 1320.99 659.699 1321.31 659.456C1324.63 657.006 1327.92 656.328 1330.31 654.388C1330.68 654.092 1330.6 652.011 1333.82 649.731C1337.01 647.479 1340.02 647.722 1344.75 644.264C1347.23 642.468 1347.12 640.786 1349.35 639.225C1357.71 633.373 1368.92 632.038 1375.17 625.49C1376.74 623.818 1377.98 621.796 1378.77 619.238C1381.21 619.098 1396.47 615.193 1402.15 612.088C1411.02 607.167 1406.77 607.391 1410.27 605.292C1410.77 605.002 1413.81 604.117 1421.59 600.351C1422.99 599.676 1423.08 600.721 1423.29 600.638C1432.36 596.331 1450.44 587.669 1461.13 583.212C1462.05 582.82 1468.09 583.308 1475.28 576.505C1477.9 576.031 1480.81 575.119 1483.99 573.911C1497.31 568.86 1515.64 558.57 1531.69 555.78C1534.26 554.856 1536.99 552.709 1538.13 552.284C1548.01 548.557 1545.51 553.047 1566.19 539.324C1564.99 541.508 1570.79 540.496 1578.26 536.914C1589.5 531.435 1580.24 532.704 1589.44 528.502C1589.79 529.22 1590.14 529.938 1590.5 530.655C1610.61 518.004 1616.45 519.025 1638.38 504.682C1646.29 499.462 1656.93 488.751 1658.76 487.079C1659.49 486.567 1669.42 480.257 1670.26 479.357C1672.85 476.916 1674.63 474.739 1676.32 472.616C1677.68 470.91 1678.98 469.234 1680.63 467.374C1693.11 453.768 1706.47 435.809 1700.48 436.93C1703.9 433.123 1707.17 429.181 1710.31 425.112C1714.43 406.144 1724.51 395.151 1721.18 389.952C1723.07 387.064 1724.87 384.151 1726.63 381.134C1733.19 352.982 1735.11 325.689 1729.52 294.11C1725.55 255.992 1692.48 201 1666.66 179.644C1663.29 176.33 1659.44 172.631 1655.45 169.008C1654.7 165.69 1630.35 146.568 1628.94 146.274C1622.66 143.082 1626.67 149.88 1615.66 141.356C1615.17 139.268 1614.77 137.254 1614.27 135.183C1600.05 125.405 1606.22 131.156 1600.03 128.441C1597.7 126.814 1599.13 126.354 1595.93 124.34C1583.47 116.412 1561.66 104.517 1543.44 95.6374C1536.51 92.2279 1530.04 89.155 1524.95 86.7554C1521.19 84.9859 1521.35 86.2257 1520.19 85.6917C1517.03 84.2184 1511.3 80.1348 1504.96 77.2898C1465.71 59.5942 1410.32 37.5697 1370.88 22.8353C1368.2 21.8362 1367.43 22.8781 1365.6 22.2046C1363.08 21.2738 1357.93 18.1014 1355.3 17.1536C1352.86 16.2744 1350.86 16.4962 1348.23 15.5551C1337.24 11.6331 1323.38 4.67649 1310.86 1.59349C1309.54 1.26072 1308.26 0.978724 1307.02 0.753063C1305.86 0.547352 1290.84 -0.161987 1290.48 0.0339413C1288.05 1.14642 1298.3 8.80065 1278.33 3.55817C1294.28 12.9249 1287.01 14.8841 1264.65 7.61684C1275 12.7567 1286.08 17.9279 1297.1 23.0399C1296.92 23.534 1296.73 24.0281 1296.55 24.5223C1285.35 22.7421 1274.64 19.3662 1259.8 13.1065C1260.05 13.75 1260.32 14.404 1260.6 15.0579C1271.91 22.5315 1287.25 29.3818 1296.75 36.2705C1297.37 36.7244 1297.97 37.1826 1298.55 37.6443C1297.83 37.4683 1297.11 37.2953 1296.41 37.1255C1280.74 33.2639 1265.02 29.4209 1250.05 25.2292C1250.62 25.9124 1251.19 26.5912 1251.76 27.2722C1258.38 31.3803 1274.32 38.6707 1280.08 42.0356C1302.27 55 1258.5 35.9969 1264.96 40.9703C1273.43 44.5068 1281.95 47.974 1290.58 51.4549C1306.88 58.0267 1323.34 64.5696 1339.76 71.1516C1339.88 72.0687 1314.08 63.398 1288.99 55.3562C1265.15 47.7678 1242.24 40.1882 1241.68 42.382C1249.36 46.2532 1256.97 49.8066 1264.73 53.4047C1260.73 53.0597 1256.79 52.7278 1252.82 52.3612C1253.66 53.1402 1254.41 53.8807 1255.25 54.661C1264.74 59.4378 1274.04 64.0057 1283.58 68.6434C1286.97 70.2966 1290.44 71.9752 1293.95 73.6695C1290.19 72.0558 1286.66 70.545 1283.38 69.1496C1266.86 62.1408 1254.57 57.2432 1244.65 54.3975C1239.74 52.9918 1235.36 52.0797 1231.22 51.5401C1229.11 51.2457 1227.06 51.0649 1224.6 50.6078C1223.31 50.3326 1221.94 50.0463 1219.93 49.0787C1218.96 48.6123 1217.7 47.8483 1216.38 46.7837C1215.07 45.7569 1213.72 44.2674 1213.35 44.2005C1213.44 44.4588 1214.5 46.1008 1215.56 47.3365C1216.64 48.6238 1217.64 49.5978 1218.45 50.3517C1220.07 51.8263 1221.15 52.6456 1222.04 53.359C1234.87 55.6579 1258.91 65.324 1280.88 75.2871C1287.07 78.0703 1292.8 80.717 1297.67 82.9726C1294.6 82.8527 1286.99 79.7366 1280.19 76.9745C1275.34 75.0014 1271.13 73.3018 1269.22 72.992C1267.92 72.7867 1271.59 75.6197 1268.6 75.0699C1261.05 73.8529 1229.89 62.7335 1233.35 66.3147C1235.18 68.2419 1258.81 79.5275 1276.08 87.0872C1283.75 90.4745 1290.14 93.1968 1293.08 94.34C1287.15 92.5902 1281.27 90.7372 1275.37 88.8161C1258.01 83.0364 1242.09 77.783 1222.45 70.8078C1236.57 81.7015 1246.16 90.5461 1270.43 100.979C1271.1 101.265 1271.79 101.556 1272.5 101.85C1273.95 102.902 1272.7 102.89 1269.91 102.26C1258.98 99.8581 1223.64 87.1243 1221.28 86.7575C1231.36 92.677 1240.19 97.641 1249.29 102.729C1241.33 99.0792 1233.52 95.4641 1225.03 91.349C1224.84 91.7046 1224.65 92.0602 1224.46 92.4158C1238.91 100.168 1251.05 107.231 1265.08 114.121C1271.76 117.395 1278.72 120.538 1286.3 123.513C1284.74 125.17 1270.93 119.381 1264.07 116.603C1264.05 116.596 1264.03 116.589 1264.02 116.582ZM49.772 901.494C49.7892 903.32 58.342 900.556 63.191 899.154C62.5499 899.668 61.908 900.184 61.2653 900.699C65.1459 899.466 70.3102 897.831 75.2726 896.476C83.4523 894.239 91.1444 892.754 92.1316 894.688C99.5516 893.161 95.5681 891.145 97.844 890.197C98.7325 889.821 108.694 889.013 115.785 885.11C117.599 884.672 119.388 884.244 121.201 883.816C121.812 884.822 122.421 885.827 123.029 886.834C125.203 884.914 127.398 882.998 129.595 881.093C111.526 885.112 93.2106 889.727 74.7684 894.653C66.4827 896.867 58.1572 899.151 49.812 901.483C49.7987 901.487 49.7854 901.491 49.772 901.494ZM281.234 883.526C288.314 886.612 300.433 893.395 296.425 894.447C291.822 891.243 287.323 888.267 283.021 885.624C282.427 884.919 281.826 884.216 281.234 883.526ZM1263.5 702.714C1265.52 695.831 1270.88 691.543 1275.47 686.687C1276.05 686.082 1276.77 685.301 1277.55 684.405C1278 684.862 1278.44 685.319 1278.89 685.776C1278.07 686.092 1277.12 686.761 1276.31 687.455C1273.18 690.171 1268.03 697.346 1263.5 702.714ZM-199.216 962.09C-200.831 962.854 -202.438 963.624 -204.042 964.402C-196.156 965.439 -195.708 962.762 -187.648 960.654C-187.167 960.53 -187.105 961.332 -186.937 961.286C-184.979 960.751 -183.439 959.306 -181.645 958.792C-178.209 957.811 -175.127 957.906 -168.959 956.115C-164.173 954.728 -164.518 953.265 -162.823 952.829C-161.357 952.447 -145.922 952.472 -136.989 948.207C-120.241 940.044 -195.186 959.849 -199.216 962.09ZM-246.305 983.903C-244.294 983.112 -242.309 982.308 -240.368 981.503C-247.18 981.859 -234.831 977.059 -227.63 973.837C-228.366 971.725 -245.089 980.318 -254.256 982.909C-251.614 983.272 -248.957 983.601 -246.305 983.903ZM-29.6635 911.203C-36.6127 913.09 -34.6467 915.387 -34.1226 916.09C-31.941 915.422 -29.7356 914.748 -27.5579 914.083C-28.2601 913.123 -28.9619 912.163 -29.6635 911.203ZM-82.0001 926.131C-79.2637 927.284 -63.9125 923.499 -56.7543 921.469C-56.4497 921.377 -58.6823 920.978 -53.6418 919.54C-52.1041 919.103 -36.184 918.164 -40.6976 915.084C-54.3708 918.761 -68.095 922.463 -81.9796 926.125C-81.9865 926.127 -81.9933 926.129 -82.0001 926.131ZM-98.0726 931.918C-96.3706 931.811 -94.65 931.698 -92.9105 931.58C-92.7019 931.513 -92.0629 931.355 -91.856 931.283C-90.5663 931.166 -89.2611 931.043 -87.9408 930.915C-86.7019 929.625 -85.4917 928.343 -84.2399 927.046C-87.0212 927.685 -89.7986 928.317 -92.5487 928.936C-92.7444 929.004 -93.3486 929.153 -93.5459 929.217C-94.1133 929.33 -94.6785 929.443 -95.2415 929.555C-96.1934 930.345 -97.1371 931.133 -98.0726 931.918ZM1611.63 161.917C1612.82 161.607 1614.02 161.299 1615.21 160.993C1618.1 162.24 1627.45 174.753 1623.18 172.437C1619.38 168.803 1615.52 165.298 1611.63 161.917ZM1559.73 132.544C1556.97 131.605 1554.27 130.718 1551.52 129.822C1549.36 126.891 1547.19 123.978 1545.02 121.085C1558.14 126.452 1572.21 132.868 1567.72 135.785C1570.65 137.405 1573.48 139.001 1576.36 140.662C1574.94 137.605 1575.51 137.13 1583.73 140.519C1584.01 143.848 1592.53 147.254 1601.08 153.606C1594.52 149.476 1587.98 145.628 1581.41 141.947C1581.17 142.36 1580.92 142.773 1580.68 143.186C1595.13 151.655 1575.79 143.428 1567.29 136.656C1566.26 136.812 1565.22 136.968 1564.17 137.124C1562.7 135.591 1561.19 134.05 1559.73 132.544ZM991.339 898.09C993.495 897.662 995.665 897.216 997.837 896.748C1006.35 903.042 988.914 897.158 977.205 901.35C981.178 897.829 963.731 896.875 962.874 896.505C964.923 895.387 966.989 894.265 969.05 893.134C976.226 894.916 983.612 896.614 991.339 898.09ZM1058.24 885.249C1053.63 888.475 1065.95 886.413 1080.55 877.405C1088.86 872.301 1097.02 865.926 1101.08 862.313C1103.36 860.304 1106.35 855.63 1108.1 854.429C1109.49 854.091 1110.91 853.725 1112.29 853.38C1112.15 850.791 1131.1 836.999 1138.25 831.313C1138.3 830.137 1138.34 828.967 1138.37 827.805C1140.92 825.693 1143.46 823.555 1145.95 821.421C1145.09 821.165 1144.23 820.907 1143.38 820.647C1145.78 819.541 1148.19 818.403 1150.59 817.255C1158.01 810.871 1150.74 812.318 1156.66 807.866C1163.19 802.905 1156.2 814.457 1157.58 815.408C1152.8 820.02 1141.59 830.217 1136.65 834.91C1133.79 837.603 1139.23 836.804 1124.42 845.856C1122.19 848.993 1119.94 852.087 1117.59 855.196C1111.48 858.809 1105.24 862.294 1098.81 865.635C1098.45 867.325 1098.03 869.045 1097.64 870.74C1097.26 871.409 1081.67 879.209 1081.85 877.93C1081.67 878.137 1081.49 878.347 1081.3 878.56C1073.85 886.054 1056.09 894.212 1039.72 897.142C1037.96 896.862 1036.21 896.551 1034.54 896.204C1051.07 894.462 1039.6 894.621 1044.22 892.486C1046.85 891.276 1055.36 887.477 1058.24 885.249ZM1680.43 234.323C1667.25 211.027 1674.95 224.6 1657.61 204.984C1659.88 205.289 1662.16 205.625 1664.47 206.021C1671.4 216.794 1686.44 236.058 1680.45 234.346C1680.44 234.339 1680.44 234.331 1680.43 234.323ZM1489.19 93.8158C1499.8 99.515 1493.37 99.0611 1506.95 106.041C1506.95 106.044 1506.96 106.047 1506.97 106.05C1499.74 102.911 1492.47 99.8176 1485.26 96.8017C1486.57 95.8059 1487.88 94.8106 1489.19 93.8158ZM1396.08 589.443C1387.02 594.762 1388.32 592.826 1381.02 599.289C1367.31 603.728 1377.98 598.281 1376.81 596.11C1380.01 595.18 1383.21 594.286 1386.42 593.416C1392.33 587.726 1385.17 590.145 1385.06 589.956C1385.07 589.953 1385.07 589.95 1385.08 589.947C1384.74 589.291 1384.43 589.269 1386.92 587.465C1389.99 588.103 1393.04 588.759 1396.08 589.443ZM1354.95 608.648C1359 608.158 1361.42 609.142 1353.68 614.994C1353.68 614.998 1353.67 615.001 1353.67 615.005C1351.08 612.269 1344.74 619.582 1341.03 621.628C1339.89 621.868 1338.74 622.118 1337.59 622.375C1343.28 617.742 1349.07 613.168 1354.95 608.648ZM1235.67 705.299C1238.91 707.743 1244.2 701.255 1240.17 712.955C1238.72 714.781 1237.31 716.571 1235.85 718.419C1234.24 719.104 1232.6 719.813 1230.97 720.524C1218.95 748.922 1203.85 748.407 1237.46 710.948C1237.47 710.944 1237.47 710.94 1237.48 710.936C1236.88 709.058 1236.27 707.187 1235.67 705.299ZM1265.06 669.494C1266.76 670.802 1268.46 672.116 1270.15 673.436C1270.29 666.168 1278.86 664.944 1285.52 654.99C1286.76 654.83 1287.95 654.708 1289.18 654.568C1291.2 650.526 1327.15 625.109 1321.19 633.287C1318.53 636.764 1310 640.313 1309.41 640.801C1307.34 642.453 1305.65 645.891 1302.05 648.399C1299.98 649.836 1294.44 651.273 1290.42 654.414C1283.38 659.867 1273.94 672.433 1266.67 678.63C1264.63 680.395 1262.18 682.262 1259.46 683.799C1259.29 685.013 1259.16 686.187 1259 687.415C1251.87 695.792 1252.54 691.661 1247.91 701.772C1238 701.719 1260.31 680.112 1263.14 675.395C1263.91 673.958 1263.63 672.959 1261.14 673.027C1261.14 673.023 1261.15 673.02 1261.15 673.016C1262.35 671.886 1263.66 670.71 1265.06 669.494ZM1550.53 522.026C1550.51 520.1 1565.38 516.558 1560.37 514.023C1565.46 513.389 1570.59 512.681 1575.75 511.878C1575.89 512.259 1576.03 512.64 1576.17 513.021C1571.54 514.892 1566.93 516.682 1562.32 518.408C1562.57 519.001 1562.81 519.593 1563.06 520.185C1555.39 521.271 1528.2 533.573 1529.89 535.257C1528.06 534.957 1526.24 534.65 1524.42 534.342C1512.27 541.964 1500.02 543.628 1487.11 551.289C1485.74 550.96 1484.39 550.628 1483.04 550.293C1482.57 551.158 1482.12 552.02 1481.66 552.882C1479.96 553.564 1478.28 554.239 1476.63 554.907C1473.36 556.231 1470.13 557.552 1466.93 558.873C1455.25 561.604 1465.78 555.059 1474.9 550.429C1478.94 548.374 1482.73 546.669 1483.97 546.32C1484.51 546.172 1485.02 547.751 1488.32 546.77C1494.11 545.072 1526.2 531.022 1536.94 527.671C1536.61 526.616 1536.28 525.561 1535.95 524.507C1540.78 523.732 1545.64 522.909 1550.53 522.026ZM1198.85 761.289C1199.24 762.609 1199.62 763.932 1200 765.258C1190.48 775.51 1185.61 782.88 1185.02 777.773C1185.03 777.767 1185.03 777.761 1185.04 777.756C1189.71 772.297 1194.31 766.807 1198.85 761.289ZM253.604 853.744C254.309 851.628 259.357 851.831 264.853 855.294C264.365 855.816 263.883 856.341 263.406 856.868C260.844 854.134 256.216 855.966 246.626 853.871C246.807 852.765 246.989 851.66 247.17 850.554C249.376 851.562 251.521 852.626 253.604 853.744ZM1205.8 751.562C1207.34 747.427 1217.64 740.489 1213.11 746.768C1209.63 751.589 1204.97 753.793 1205.8 751.562ZM1445.29 77.1536C1448.22 78.1384 1451.12 79.1201 1454.05 80.115C1455.15 81.6216 1456.24 83.128 1457.34 84.634C1457.33 84.6312 1457.32 84.6284 1457.32 84.6255C1453.32 82.1261 1449.31 79.636 1445.29 77.1536ZM1428.96 574.222C1419.93 578.036 1411.06 581.968 1402.35 586.074C1401.99 585.558 1401.63 585.041 1401.27 584.525C1410.96 582.325 1413.49 578.515 1415.49 577.419C1415.48 577.423 1415.47 577.427 1415.46 577.431C1421.92 573.918 1428.15 570.767 1434.32 567.312C1432.5 569.617 1430.72 571.921 1428.96 574.222ZM1458.74 557.508C1458.82 562.224 1456.94 563.442 1441.72 566.45C1442.06 565.719 1442.41 564.986 1442.77 564.252C1450.18 561.504 1454.85 560.728 1452.7 559.125C1454.71 558.583 1456.73 558.041 1458.74 557.508ZM1323.67 629.048C1324.37 626.87 1337.17 620.328 1336.9 621.363C1336.75 621.726 1322.25 633.223 1323.67 629.048ZM156.552 856.934C159.68 856.016 162.836 855.119 165.969 854.255C161.633 854.517 157.299 854.83 152.919 855.196C154.129 855.772 155.343 856.351 156.552 856.934ZM119.678 858.459C117.488 859.564 125.921 861.577 112.307 865.919C122.413 863.529 132.518 861.282 142.533 859.261C137.713 859.622 132.865 860.035 127.99 860.493C128.562 859.199 129.143 857.904 129.72 856.611C126.366 857.21 123.026 857.825 119.678 858.459ZM109.479 863.903C114.25 859.577 85.3542 866.685 82.7588 867.844C82.1874 868.086 79.9205 871.052 79.0048 871.807C83.37 870.628 87.7054 869.476 92.0616 868.339C90.7863 869.413 89.5116 870.489 88.2468 871.565C93.3955 870.456 98.5212 869.379 103.659 868.332C101.317 868.183 98.967 868.042 96.6154 867.907C100.889 866.552 105.208 865.209 109.479 863.903ZM221.448 846.996C218.183 847.083 214.877 847.249 211.52 847.482C212.141 846.331 212.756 845.183 213.394 844.037C215.427 843.957 217.439 843.904 219.425 843.877C220.114 844.913 220.788 845.953 221.448 846.996ZM150.373 853.982C156.598 858.23 168.691 844.034 152.813 851.434C151.221 852.194 149.773 853.57 150.373 853.982ZM72.1072 871.399C70.6226 871.317 69.3794 871.359 68.3622 871.485C62.6398 872.192 64.2281 875.542 69.2914 874.845C70.7999 874.637 72.6052 874.08 74.6119 873.002C75.1141 872.724 73.0344 871.446 72.1072 871.399ZM-13.3147 896.23C-14.2367 896.541 -15.028 899.716 -24.6479 899.854C-26.0188 900.607 -27.3754 901.356 -28.7441 902.109C-24.9336 902.298 4.45642 894.2 -0.380127 892.762C-4.85632 894.066 -8.7229 894.745 -13.3147 896.23ZM11.9492 877.761C16.3528 876.53 20.757 875.307 25.1606 874.092C23.9646 875.362 22.7689 876.633 21.5751 877.904C23.796 877.498 26.0192 877.093 28.2383 876.692C31.4917 874.154 34.7496 871.621 38.0093 869.096C28.4192 871.62 18.8217 874.199 9.2218 876.812C10.131 877.128 11.0411 877.444 11.9492 877.761ZM127.874 844.231C119.692 847.201 109.096 848.486 95.4373 852.177C95.4313 852.181 95.4253 852.186 95.4192 852.19C94.7413 852.377 93.8383 853.857 91.6437 854.476C90.5002 854.784 75.7603 858.141 65.4927 861.107C59.194 862.915 54.5851 864.525 55.8953 864.966C59.963 864.344 63.2617 863.587 65.9857 862.89C73.2113 861.043 76.5529 859.567 79.9036 862.09C80.3491 860.975 80.7942 859.86 81.239 858.746C94.5721 853.48 99.317 855.742 107.302 855.01C107.098 854.314 106.893 853.618 106.689 852.922C111.823 851.578 116.954 850.271 122.077 849.009C121.458 849.642 120.837 850.276 120.227 850.908C122.037 850.485 123.87 850.061 125.673 849.65C129.627 846.544 135.157 844.819 127.874 844.231ZM-7.58887 884.876C-13.2311 880.809 -51.6486 896.502 -70.166 900.941C-59.6461 901.201 -45.6149 894.516 -35.2742 891.322C-15.2898 885.158 -28.5253 891.315 -24.8739 891.129C-23.0752 891.038 -12.7629 884.219 -7.58887 884.876ZM158.797 838.919C148.974 841.157 143.166 841.059 134.994 844.872C135.8 845.109 136.603 845.347 137.402 845.587C140.251 844.488 163.94 838.812 158.797 838.919ZM-96.4707 910.359C-77.5372 902.655 -85.7103 910.281 -76.6904 903.665C-83.3983 905.45 -90.1282 907.229 -96.8788 908.98C-96.7427 909.439 -96.6067 909.899 -96.4707 910.359ZM1203.54 720.335C1208.57 713.413 1213.44 705.137 1218.12 702.3C1214.95 707.127 1211.76 711.978 1208.53 716.837C1206.88 717.994 1205.2 719.184 1203.54 720.335ZM1007.33 856.192C1009.25 855.677 1016.9 856.678 1017.74 856.565C1019.24 856.433 1018.76 855.747 1018.76 855.558C1028.48 854.617 1019.76 857.92 1027.09 857.43C1028.4 857.559 1045.13 852.933 1051.37 849.647C1054.3 848.365 1057.14 846.836 1059.68 845.191C1065.66 841.329 1070.52 837.599 1072.79 835.924C1078.22 831.94 1089.04 825.262 1097.33 817.767C1100.74 814.691 1101 812.6 1104.35 809.455C1115.71 798.815 1132.3 782.157 1147.12 765.048C1160.51 749.705 1172.72 734.369 1179.93 724.252C1183.69 718.983 1186 712.982 1188.17 710.333C1190.29 708.569 1192.44 706.771 1194.55 705.013C1194.86 694.888 1200.63 695.749 1206.39 688.87C1210.04 684.519 1210.26 681.367 1210.72 680.755C1213.77 676.726 1215.92 675.228 1218.43 672.154C1221.23 668.704 1224.56 663.199 1225.66 662.063C1226.38 661.46 1226.01 664.902 1237.1 652.134C1237.2 652.024 1237.3 651.915 1237.39 651.806C1248.92 639.392 1262.28 628.42 1276.33 617.797C1275.7 626.853 1268.85 626.136 1263.06 630.471C1261.5 631.647 1263.15 631.722 1261.81 632.746C1258.05 635.613 1250.5 640.73 1247.82 643.624C1244.95 646.706 1247.71 647.537 1243.35 650.556C1243.13 650.709 1242.97 649.383 1241.99 650.128C1240.71 651.112 1239.6 652.052 1238.63 652.939C1231.81 659.344 1229.75 664.138 1221.19 675.393C1214.77 683.911 1174.62 736.294 1173.45 738.297C1169.26 750.09 1211.42 694.425 1215.76 687.768C1217.37 685.436 1214.67 687.127 1216.04 684.921C1216.61 684.021 1224.23 677.413 1230.26 670.038C1233.28 666.349 1237.34 660.917 1241.7 655.753C1247.77 648.579 1255.48 641.22 1260.39 637.149C1287.4 614.971 1317.15 595.818 1347.49 577.895C1384.41 555.969 1423.75 538.614 1464.2 522.775C1479.78 516.678 1495.6 510.728 1511.39 504.471C1513.31 503.706 1516.33 503.944 1522.6 501.401C1561.99 484.863 1603.3 467.489 1636.03 434.322C1668.54 400.018 1682.23 350.698 1674.55 304.211C1670.09 271.886 1651.01 239.993 1627.81 218.559C1621.66 212.354 1615.1 206.166 1608.27 200.489C1586.24 182.201 1562.55 167.061 1537.05 154.861C1534.44 152.42 1531.69 149.937 1529.02 147.52C1536.71 152.167 1552.25 158.024 1553.6 158.782C1554.05 159.025 1556.56 161.628 1561.39 164.33C1568.17 168.136 1571.59 169.15 1572.13 169.468C1573.81 170.482 1572.19 170.673 1573.83 171.666C1585.93 179.079 1594.9 185.512 1605.36 193.671C1617.03 202.928 1623.96 207.084 1630.08 216.019C1630.15 216.034 1630.23 216.048 1630.3 216.062C1631.66 216.346 1633.01 216.628 1634.35 216.912C1638.08 223.568 1670.36 263.811 1673.18 284.9C1674.91 290.99 1675.93 289.586 1676.45 291.653C1676.68 292.828 1675.45 292.89 1677.42 303.684C1677.69 305.217 1678 307.033 1678.32 309.044C1679.57 317.489 1680.88 319.636 1681.02 323.912C1681.05 326.217 1679.73 325.879 1679.73 329.163C1679.51 348.154 1677.34 363.662 1671.68 381.51C1670.02 386.509 1670.97 386.928 1670.54 388.043C1668.89 392.104 1664.36 398.433 1658.93 407.969C1654.55 415.749 1646.97 426.771 1638.04 436.234C1628.83 446.118 1618.72 454.011 1613 458.641C1611.33 459.993 1610.66 462.068 1609.34 462.938C1607.34 464.246 1605.82 463.58 1605.47 463.801C1598.85 468.041 1603.52 466.582 1598.9 469.097C1596.37 470.436 1593.06 470.615 1587.33 473.646C1579.73 477.596 1582.07 478.406 1578.83 479.924C1578.48 480.072 1577.78 478.977 1574.64 480.546C1562.79 486.541 1545.26 494.121 1533.84 498.884C1530.56 500.263 1528.46 502.091 1523.88 503.977C1516.53 507.148 1481.31 520.208 1465.59 526.371C1461.56 527.961 1458.81 529.105 1457.98 529.541C1457.56 529.766 1462.85 529.752 1455.52 532.58C1453.08 532.682 1450.69 532.77 1448.25 532.885C1445.2 535.492 1442.12 538.133 1439.1 540.766C1437.51 536.562 1416.57 544.703 1418.62 548.828C1416.46 549.977 1414.32 551.127 1412.15 552.3C1406.24 551.531 1403.61 553.958 1393.96 556.514C1392.99 558.048 1392.05 559.569 1391.09 561.107C1390.46 560.699 1389.83 560.291 1389.21 559.884C1386.05 565.278 1376.87 566.061 1375.94 566.537C1372.34 568.318 1370.11 570.51 1368.44 571.377C1364.12 573.618 1356.1 577.364 1349.35 581.099C1346.35 582.76 1343.68 584.341 1341.58 585.789C1341.26 586.012 1342.34 587.096 1340.43 588.447C1336.97 590.911 1335.52 589.238 1332.01 594.374C1330.71 594.424 1329.43 594.457 1328.11 594.52C1327.25 595.444 1326.4 596.364 1325.56 597.28C1319.43 600.908 1313.36 604.61 1307.35 608.396C1314.13 606.94 1308.69 612.162 1301.82 614.461C1299.48 615.245 1300.35 612.794 1299.57 613.049C1298.34 613.255 1273.15 632.511 1272.34 634.754C1270.9 635.269 1269.39 635.859 1267.96 636.393C1267.98 637.613 1268 638.846 1268.03 640.06C1267.19 640.31 1266.36 640.556 1265.51 640.825C1261.51 645.765 1249.82 653.448 1244.42 658.245C1242.8 659.654 1241.56 660.861 1241.06 661.548C1239.88 663.214 1244.16 664.333 1237.75 671.593C1236.66 671.148 1235.57 670.707 1234.47 670.271C1232.94 671.946 1231.41 673.635 1229.9 675.334C1227.36 678.778 1225.12 685.008 1226.08 685.957C1224.64 686.538 1223.16 687.18 1221.72 687.762C1221.65 692.204 1209.28 707.39 1203.2 712.771C1202.46 715.092 1201.69 717.431 1200.94 719.758C1198.29 721.686 1195.64 723.613 1193.01 725.504C1188.39 731.109 1194.3 725.966 1193.47 727.278C1191.74 730.058 1179.43 741.601 1182.73 742.783C1181.35 744.572 1179.93 746.393 1178.54 748.172C1177.06 748.496 1175.58 748.824 1174.1 749.148C1174.26 754.242 1169.17 758.844 1161.2 770.321C1159.87 770.728 1158.54 771.135 1157.2 771.542C1156.98 772.011 1156.75 772.482 1156.52 772.953C1154.77 776.505 1153.02 780.019 1151.23 783.534C1149.69 783.385 1148.16 783.227 1146.63 783.061C1145.27 784.332 1143.86 785.655 1142.49 786.921C1142.04 791.676 1135.16 794.682 1133.61 798.031C1131.34 802.911 1135.56 801.479 1142.3 794.673C1143.46 796.669 1123.1 816.751 1118.06 821.102C1118.09 820.513 1118.13 819.923 1118.16 819.332C1123.22 814.859 1128.19 810.283 1133.07 805.63C1133.2 798.013 1121.69 812.113 1115.13 817.399C1114.52 817.883 1110.11 819.502 1104.02 825.316C1101.72 827.587 1093.91 838.145 1092.04 839.818C1077.13 853.318 1086.55 841.094 1072.53 855.599C1073.56 853.01 1071.51 854.535 1067.58 857.381C1063.98 859.966 1058.77 863.087 1053.17 864.999C1050.9 866.271 1032.47 868.651 1031.37 868.43C1023.96 869.189 1032.31 870.555 1021.54 871.2C1020.2 870.694 1018.87 870.172 1017.55 869.636C1015.13 869.828 1012.67 869.973 1010.27 870.074C995.7 876.227 992.293 871.646 987.257 870.99C985.218 870.689 987.803 872.296 982.486 871.736C980.503 871.519 978.344 870.182 973.04 869.747C956.496 868.324 950.521 872.977 936.117 866.281C933.771 866.89 931.443 867.504 929.119 868.128C927.665 867.059 926.213 865.994 924.751 864.933C912.935 866.934 917.328 864.397 913.131 864.199C912.751 864.183 912.357 864.168 911.951 864.153C902.874 863.184 883.631 869.63 882.625 872.467C872.213 870.387 863.448 880.326 859.783 881.522C857.406 881.77 855.011 882.021 852.601 882.267C850.269 883.854 847.9 885.439 845.481 887.008C845.055 881.736 832.935 891.334 831.389 891.76C830.596 892.029 824.589 893.546 817.333 894.68C809.995 895.832 802.531 896.38 798.792 897.038C791.292 898.177 778.622 902.484 777.48 902.797C776.493 903.026 769.238 903.998 761.387 905.722C758.574 906.333 755.574 907.06 752.901 907.809C744.087 910.278 691.453 927.283 694.135 924.045C697.471 922.469 702.276 920.565 706.491 919.074C713.161 916.774 736.689 909.37 760.478 902.36C782.842 895.427 804.66 892.343 816.331 889.864C816.588 889.806 816.837 889.749 817.078 889.693C851.872 881.631 882.473 860.636 912.095 861.048C920.036 861.356 928.009 861.869 935.967 862.418C938.396 862.588 938.874 861.286 940.963 861.431C944.131 861.657 952.074 863.685 955.226 863.918C966.958 864.823 981.438 865.553 987.858 865.708C1002.21 866.134 1012.22 865.084 1023.26 863.711C1026.59 863.401 1044.95 862.399 1056.42 855.64C1058.37 854.267 1060.24 852.812 1062.03 851.261C1056.24 854.906 1039.94 859.475 1032.5 860.367C1021.4 862.189 1015.73 863.375 1011.61 863.625C1008.13 863.942 990.792 862.724 983.008 862.176C980.592 862.046 980.018 863.418 977.933 863.292C966.666 862.612 951.981 861.255 942.479 859.075C946.353 859.825 921.802 858.708 920.554 858.712C918.483 858.584 916.301 857.267 912.285 856.953C912.078 856.936 911.864 856.924 911.645 856.917C903.53 856.987 905.056 859.502 894.485 858.652C892.136 859.971 889.858 861.373 887.608 862.84C886.365 858.734 856.705 875.228 845.905 874.758C845.623 874.386 886.064 856.909 889.77 856.954C896.398 855.14 904.271 853.701 912.417 854.114C930.265 855.029 949.758 857.302 964.237 857.965C970.654 858.371 990.874 857.215 992.371 857.174C994.814 857.294 992.574 858.514 993.634 858.583C1015.38 859.616 1004.46 856.908 1007.33 856.192ZM105.342 847.079C111.584 845.381 117.831 843.736 124.081 842.157C123.448 841.478 122.815 840.799 122.179 840.121C119.362 841.088 116.557 842.066 113.74 843.06C111.424 843.119 109.078 843.194 106.755 843.27C106.284 844.539 105.813 845.809 105.342 847.079ZM89.0229 847.753C83.4698 848.783 83.6309 850.5 82.3976 850.91C78.6964 852.151 75.2745 852.363 71.6484 853.373C76.8951 856.107 85.3191 851.953 89.0229 847.753ZM201.642 824.967C200.4 825.252 192.742 830.184 182.926 827.396C176.109 829.558 169.302 831.894 162.566 834.35C174.097 830.307 190.743 830.29 196.432 829.756C198.598 829.527 198.908 828.169 200.65 828.005C202.25 827.86 203.89 827.805 205.443 827.805C213.673 827.782 220.48 829.285 221.328 825.59C215.038 826.471 209.058 825.721 205.277 825.25C203.456 825.018 202.152 824.851 201.642 824.967ZM140.433 835.74C138.996 836.976 137.539 838.222 136.118 839.465C141.989 838.214 147.858 837.03 153.722 835.932C151.969 835.313 150.193 834.705 148.43 834.1C145.755 834.633 143.098 835.178 140.433 835.74ZM576.901 948.666C573.034 949.139 569.138 949.564 565.244 949.931C565.407 949.248 569.848 948.823 571.434 948.191C571.427 948.192 571.42 948.192 571.413 948.193C573.168 947.487 572.31 946.72 575.553 945.963C576 946.864 576.449 947.766 576.901 948.666ZM1523.57 148.019C1522.81 147.651 1521.23 146.875 1519 145.79C1504.78 138.643 1464.9 120.589 1469.71 120.454C1472.54 120.339 1490.53 129.548 1495.94 132.051C1501.32 134.483 1514.09 138.881 1520.18 143.37C1522.4 144.981 1523.7 146.556 1523.57 148.019ZM1428.15 105.671C1428.16 102.985 1462.15 117.11 1465.25 119.005C1464.41 119.016 1463.01 119.247 1462.02 119.004C1457.14 117.761 1435.72 108.118 1428.15 105.671ZM782.683 891.924C780.106 893.742 777.57 895.59 775.054 897.462C775.433 895.723 775.758 893.998 776.169 892.255C778.324 892.13 780.538 892.009 782.683 891.924ZM1064.58 850.505C1098.26 827.673 1125.64 798.655 1151.21 768.49C1157.75 760.699 1164.13 752.833 1170.42 744.874C1167.2 747.87 1163.95 750.85 1160.69 753.818C1157.1 758.284 1153.46 762.755 1149.74 767.246C1125.74 796.087 1098.63 824.719 1068.46 845.03C1067.19 846.876 1065.93 848.683 1064.58 850.505ZM214.611 817.037C226.916 816.691 236.908 818.13 250.171 818.152C237.865 814.625 231.446 817.16 219.057 814.539C219.05 814.539 219.043 814.539 219.036 814.539C217.557 815.359 216.066 816.192 214.611 817.037ZM461.353 935.298C457.892 933.018 454.546 930.63 451.322 928.148C455.696 929.881 460.144 931.435 464.647 932.803C463.561 933.644 462.464 934.476 461.353 935.298ZM1372.01 556.179C1384.66 552.13 1413.41 534.137 1424.53 532.799C1425.23 532.716 1419.88 536.313 1430.26 534.551C1422.92 537.088 1417.73 538.809 1416.45 537.306C1414.58 538.816 1412.74 540.325 1410.9 541.842C1407.22 542.949 1403.56 544.07 1399.88 545.232C1401.05 546.774 1400.73 546.786 1394.89 548.103C1392.67 549.678 1390.47 551.255 1388.29 552.843C1386.92 552.621 1385.56 552.399 1384.2 552.18C1382.6 554.206 1381.04 556.231 1379.5 558.26C1370.95 561.253 1374.83 556.857 1372.01 556.179ZM1332.08 579.141C1332.6 578.686 1337.7 575.651 1344.15 572.151C1359 563.974 1380.83 554.4 1365.04 565.677C1358.74 568.937 1352.48 572.315 1346.27 575.79C1346.23 575.811 1346.19 575.832 1346.15 575.852C1346.17 575.791 1346.18 575.731 1346.2 575.672C1346.66 573.585 1346.05 573.033 1344.86 573.376C1341.46 574.362 1333.76 582.445 1332.78 583.165C1326.51 587.644 1317.43 591.577 1312.77 594.663C1308.8 597.297 1307.03 599.79 1304.18 601.638C1294.52 607.828 1279.84 618.325 1276.33 617.797C1283.47 612.439 1290.9 607.186 1298.64 602.059C1306.87 596.645 1312.8 589.794 1330.33 583.01C1334.05 580.345 1331.67 579.516 1332.08 579.141ZM440.421 923.694C439.614 926.515 418.769 914.512 419.357 913.355C419.624 912.845 426.259 916.767 427.355 917.083C427.361 917.087 427.367 917.09 427.373 917.094C427.822 917.229 426.275 915.24 429.567 916.753C433.1 919.166 436.715 921.488 440.421 923.694ZM1599.65 200.448C1597.22 197.986 1535.42 160.299 1533.31 159.678C1532.89 159.245 1533.89 159.046 1533.86 158.616C1547.96 168.112 1570.03 177.895 1583.53 186.935C1587.33 189.458 1585.59 189.53 1585.8 189.693C1585.81 189.699 1585.82 189.705 1585.83 189.711C1587.94 191.1 1598.85 195.925 1599.65 200.448ZM1446.26 525.134C1443.58 526.643 1440.89 528.168 1438.23 529.692C1437.2 529.247 1436.18 528.802 1435.16 528.356C1435.17 528.354 1435.17 528.351 1435.18 528.348C1438.89 527.25 1442.57 526.186 1446.26 525.134ZM1543.94 483.416C1543.49 484.234 1543.03 485.052 1542.57 485.87C1535.52 489.072 1528.41 492.151 1521.28 495.147C1522.12 495.147 1522.97 495.145 1523.81 495.142C1513.28 500.368 1508.05 500.264 1502.34 502.803C1502.35 502.8 1502.36 502.798 1502.36 502.795C1501.75 503.069 1501.43 504.455 1499.11 505.396C1493.81 507.558 1478.69 513.789 1476.42 513.391C1471.63 512.526 1502.8 501.922 1508.45 499.5C1511.02 498.431 1513.74 496.24 1515.29 495.588C1517 494.874 1519.85 495.224 1524.02 493.465C1525.24 492.97 1538.1 485.805 1543.94 483.416ZM1651.9 402.29C1651.84 405.047 1648.14 408.776 1647.28 410.433C1647.07 410.842 1649.87 408.488 1647.82 412.206C1646.56 412.803 1645.28 413.382 1644.01 413.939C1646.84 410.188 1649.47 406.311 1651.9 402.29ZM406.757 902.686C406.768 902.688 406.781 902.692 406.796 902.698C407.763 903.105 417.978 909.838 418.43 910.248C422.757 915.191 408.414 906.45 406.276 903.467C405.812 902.856 405.879 902.53 406.757 902.686ZM118.626 823.882C122.628 819.931 78.0389 832.585 59.2803 838.64C55.4213 839.834 52.6075 840.698 51.5161 840.973C51.9952 842.03 56.6691 840.616 59.6378 839.933C62.1549 839.353 63.4698 839.275 60.092 841.576C60.0833 841.582 60.0743 841.588 60.0654 841.594C60.0747 841.59 60.084 841.585 60.0933 841.58C67.5278 837.833 89.4034 832.919 94.4128 831.221C97.4429 830.167 97.8031 828.197 98.2559 828.023C100.058 827.33 116.897 825.46 118.626 823.882ZM-2.32861 858.169C3.77966 855.918 9.89453 853.679 16.014 851.456C8.59082 853.395 1.17285 855.357 -6.24097 857.335C-4.93762 857.613 -3.63342 857.891 -2.32861 858.169ZM-10.4321 859.601C-10.8289 857.57 -31.4928 865.466 -37.1714 866.713C-29.9032 868.143 -20.4261 861.818 -10.4321 859.601ZM342.484 849.514C351.639 854.267 351.539 861.904 343.028 852.543C342.773 852.253 342.095 849.33 342.484 849.514ZM1370.79 546.914C1372.28 546.008 1391.03 534.647 1392.64 535.097C1397.6 536.312 1384.11 541.193 1380.38 544.421C1374.36 549.623 1385.15 545.914 1367.94 553.401C1368.92 553.612 1369.89 553.833 1370.86 554.052C1361.27 559.294 1362.37 553.743 1360.35 554.16C1359.72 554.287 1353.85 557.904 1352.63 558.268C1337.27 562.669 1369.26 547.466 1370.79 546.914ZM568.29 933.211C587.979 929.006 579.787 932.93 600.154 929.464C601.111 930.934 571.012 934.446 568.29 933.211ZM1213.67 667.302C1219.76 659.767 1225.09 652.59 1231 645.948C1238.04 638.146 1245.66 631.527 1254.73 625.761C1255.45 627.668 1243.44 637.107 1232.87 647.656C1222.06 658.665 1212.44 669.886 1213.67 667.302ZM1378.87 103.943C1422.37 117.777 1468.49 135.849 1513.34 157.409C1548.45 174.592 1583.13 194.045 1610.52 219.691C1615.66 224.527 1617.82 225.537 1619.59 226.795C1620.15 227.204 1620.67 227.643 1621.22 228.249C1622.69 229.89 1621.58 230.487 1623.6 232.589C1644.45 253.015 1657.38 278.42 1661.6 306.591C1668.27 348.972 1654.89 394.234 1625.66 424.47C1604.54 446.147 1576.73 461.046 1548.83 474.348C1543.14 477.249 1515.14 491.87 1507.37 490.565C1501.57 489.677 1523.35 483.46 1526.77 481.914C1529.35 480.801 1528.91 479.459 1530.63 478.718C1532.46 477.93 1531.33 479.462 1533.45 478.56C1542.47 474.744 1551.98 469.958 1559.88 466.125C1583.65 454.536 1606.66 441.158 1624.17 423.055C1653.24 392.991 1665.66 348.02 1658.83 307.099C1656.05 292.017 1651.84 277.522 1644.49 264.667C1639.45 256.178 1639.37 258.657 1639.15 258.211C1639.15 258.204 1639.15 258.197 1639.15 258.19C1632.78 248.73 1624.63 239.667 1615.78 230.605C1588.07 201.059 1549.92 178.609 1511.93 160.301C1507.57 158.214 1503.14 156.158 1498.69 154.153C1460.35 137.057 1421.19 121.454 1381.94 106.107C1380.91 105.384 1379.89 104.663 1378.87 103.943ZM1333.34 572.235C1334.75 568.523 1336.37 568.048 1340.62 566.08C1343.65 564.686 1347.98 562.544 1354.6 558.07C1356.31 557.958 1358.01 557.855 1359.71 557.758C1353.59 560.944 1347.52 564.231 1341.51 567.605C1338.73 569.161 1336.06 570.673 1333.31 572.251C1333.32 572.246 1333.33 572.24 1333.34 572.235ZM1445.44 516.296C1445.72 514.019 1450.99 511.043 1458.44 507.897C1472.22 502.079 1493.41 495.654 1504.56 490.455C1508.89 491.892 1482.69 500.668 1476.68 503.241C1474.79 504.068 1467.93 507.987 1459.87 511.6C1455.21 513.689 1450.22 515.663 1445.49 516.906C1445.47 516.703 1445.45 516.499 1445.44 516.296ZM188.14 803.02C191.296 802.846 194.425 802.712 197.581 802.618C189.784 803.904 182.076 805.443 174.462 807.155C184.166 805.463 193.949 804.057 203.843 803.09C206.455 802.835 209.057 802.612 211.665 802.424C209.283 801.327 206.864 800.26 204.429 799.219C204.154 799.276 203.879 799.333 203.604 799.391C198.391 800.487 193.239 801.706 188.14 803.02ZM229.041 801.739C206.847 801.154 229.949 804.237 235.508 803.347C238.875 802.698 231.326 801.815 229.041 801.739ZM286.979 810.552C277.825 804.49 256.349 799.876 263.06 805.595C274.617 806.238 281.438 809.7 297.013 815.14C295.124 813.435 293.187 811.759 291.203 810.117C291.193 810.113 291.182 810.109 291.172 810.104C289.767 810.237 288.364 810.384 286.979 810.552ZM218.855 799.138C204.279 801.435 246.604 801.238 233.362 799.379C232.731 799.179 219.424 798.951 218.855 799.138ZM1459.83 142.888C1458.83 140.955 1468.66 145.326 1471.98 146.723C1483.58 151.556 1497.51 158.316 1509.93 164.415C1512.93 165.887 1515.68 167.238 1518.47 168.599C1517.2 168.464 1515.87 168.3 1514.62 168.185C1512.9 167.332 1511.14 166.471 1509.35 165.602C1493.09 157.717 1476.53 150.226 1459.83 142.888ZM1562.05 192.619C1571.28 198.31 1580.26 204.341 1588.69 210.818C1589.52 211.442 1592.4 215.2 1589.53 213.312C1580.9 205.942 1571.68 199.123 1562.05 192.619ZM1269.36 604.404C1275.96 598.549 1253.3 610.548 1256.84 613.284C1260.98 610.246 1265.15 607.294 1269.36 604.404ZM1208.42 660.328C1212.07 656.23 1215.8 652.141 1219.69 648.099C1219.33 647.784 1218.96 647.469 1218.6 647.154C1215.05 651.534 1211.7 655.93 1208.42 660.328ZM1419.35 126.499C1425.21 127.178 1437.53 132.699 1445.27 136.021C1439.4 135.014 1426.97 128.938 1419.35 126.499ZM1380.04 535.732C1379.84 536.88 1411.14 522.269 1399.44 525.422C1392.95 528.755 1386.45 532.201 1380.04 535.732ZM1443.67 506.256C1436.72 508.746 1431.57 511.274 1433.65 512.335C1437.25 510.789 1440.86 509.259 1444.44 507.759C1444.18 507.258 1443.92 506.757 1443.67 506.256ZM324.589 825.233C335.516 831.975 345.854 839.235 355.93 846.626C355.834 845.964 355.736 845.302 355.638 844.64C345.887 837.511 335.874 830.507 325.29 823.977C325.056 824.395 324.823 824.814 324.589 825.233ZM1411.29 127.801C1403.66 124.254 1396.01 120.725 1388.35 117.218C1396.26 120.138 1404.16 123.081 1412.05 126.043C1411.8 126.634 1411.55 127.225 1411.3 127.816C1411.3 127.811 1411.29 127.806 1411.29 127.801ZM151.377 797.248C189.445 788.657 139.788 794.249 130.65 799.949C130.639 799.949 130.628 799.948 130.616 799.948C129.803 800.417 131.939 801.412 130.604 802.274C134.308 800.843 138.004 799.442 141.762 798.061C145.432 798.157 149.123 798.276 152.782 798.432C153.898 797.917 155.013 797.405 156.125 796.897C154.551 797.006 152.943 797.128 151.377 797.248ZM2.04675 833.973C-30.6466 844.036 3.85193 837.329 19.3567 829.918C19.0555 829.326 5.05933 833.045 2.04675 833.973ZM89.049 810.489C94.416 809.462 99.7736 808.472 105.167 807.513C105.745 806.96 106.339 806.403 106.927 805.849C102.749 806.426 98.5811 807.025 94.4099 807.646C92.6292 808.588 90.817 809.542 89.049 810.489ZM274.78 789.598C284.64 792.065 295.494 799.154 265.036 790.263C265.15 789.794 265.264 789.325 265.378 788.856C266.617 789.181 270.166 790.453 270.37 790.472C270.968 790.499 270.665 788.735 274.78 789.598ZM-62.2028 840.159C-63.1758 840.265 -65.1863 835.562 -73.2754 843.537C-76.2917 844.124 -79.2816 844.702 -82.2892 845.283C-82.7136 846.584 -83.1212 847.88 -83.5582 849.184C-72.5635 844.924 -70.6967 846.719 -69.8677 846.517C-66.0428 845.569 -69.1628 845.304 -66.7559 844.551C-60.5265 842.604 -46.0724 839.005 -53.4877 837.792C-56.174 837.366 -61.2206 840.051 -62.2028 840.159ZM-40.9308 830.638C-42.1836 831.463 -37.3148 831.536 -38.2321 832.255C-39.0491 832.885 -52.2328 838.495 -47.8103 839.773C-45.6071 838.99 -43.3942 838.204 -41.1857 837.42C-40.6292 836.531 -40.0712 835.641 -39.5115 834.751C-37.147 834.695 -34.804 834.647 -32.441 834.594C-29.2805 831.858 -22.1045 827.386 -31.7753 828.869C-28.3304 827.975 -24.8833 827.084 -21.4272 826.193C-19.4293 826.44 -17.4263 826.687 -15.4231 826.935C-16.7064 826.025 -17.9922 825.117 -19.2759 824.208C-26.5077 826.342 -33.7255 828.488 -40.9308 830.638ZM-144.986 861.667C-144.405 862.174 -143.822 862.681 -143.239 863.188C-156.117 865.408 -175.964 870.364 -163.697 871.182C-146.601 866.873 -129.594 862.673 -112.575 858.44L-113.294 858.642C-113.208 858.619 -113.122 858.595 -113.036 858.572C-112.083 857.788 -111.115 856.998 -110.133 856.203C-111.47 856.816 -112.616 857.244 -113.621 857.533L-112.875 857.323C-121.258 859.518 -120.786 853.152 -130.084 857.738C-131.831 858.606 -125.738 859.831 -137.904 861.268C-137.654 860.534 -137.402 859.8 -137.15 859.065C-139.769 859.934 -142.38 860.8 -144.986 861.667ZM-256.454 897.151C-234.283 886.728 -260.45 895.207 -262.99 898.6C-262.984 898.598 -262.977 898.595 -262.971 898.592C-271.096 908.037 -249.881 895.742 -247.791 895.038C-247.039 894.746 -245.735 894.778 -243.921 894.463C-243.702 894.388 -243.063 894.121 -242.842 894.053C-239.844 893.674 -235.45 892.349 -229.773 886.78C-234.396 888.349 -239.038 889.985 -243.688 891.704C-243.925 891.776 -244.614 892.064 -244.849 892.145C-248.851 893.785 -252.753 895.488 -256.454 897.151ZM-183.01 872.051C-184.881 872.443 -183.604 873.091 -184.398 873.298C-184.405 873.3 -184.412 873.302 -184.418 873.304C-196.058 876.234 -224.544 883.919 -226.716 888.049C-217.657 885.128 -178.708 874.72 -177.001 872.135C-179.014 872.107 -180.99 872.072 -183.01 872.051ZM-102.167 852.234C-96.171 848.435 -109.865 852.199 -114.556 854.364L-113.733 854.132C-114.02 854.254 -114.274 854.372 -114.492 854.484C-114.689 854.593 -114.315 854.77 -113.528 854.896L-114.332 855.123C-112.246 855.448 -106.982 855.289 -102.167 852.234ZM448.662 880.034C459.793 887.417 443.796 880.18 448.241 884.747C446.03 883.36 443.835 881.92 441.623 880.417C444.003 880.341 446.36 880.219 448.662 880.034ZM1092.93 758.494C1095.14 755.783 1094.87 757.778 1095.09 757.569C1096.6 755.886 1097.38 753.614 1098.03 753.047C1110.33 742.147 1103.83 750.887 1103.89 751.178C1104.51 752.203 1108.4 749.865 1105.39 755.207C1102.64 757.668 1099.92 760.052 1097.14 762.439C1096.39 764.179 1095.61 765.942 1094.84 767.676C1088.89 771.927 1095.11 764.884 1094.51 762.84C1094.25 762.069 1089.05 766.357 1092.93 758.494ZM470.764 886.14C471.839 888.711 475.774 892.721 470.475 893.044C470.469 893.043 470.464 893.041 470.459 893.039C469.475 893.099 465.911 891.972 464.646 892.007C458.04 886.258 462.314 885.257 470.764 886.14ZM1045.27 797.868C1041.75 801.106 1038.21 804.159 1034.85 806.857C1034.78 806.948 1034.7 807.04 1034.62 807.133C1035.27 808.15 1035.93 809.164 1036.6 810.175C1036.68 810.083 1036.75 809.992 1036.82 809.902C1038.57 808.425 1040.35 806.858 1042.14 805.227C1043.26 805.112 1044.33 805.014 1045.46 804.868C1043.5 808.02 1041.49 811.097 1039.49 814.028C1039.49 814.033 1039.49 814.038 1039.49 814.044C1037.65 814.657 1035.5 815.191 1032.93 815.614C1033.82 814.611 1034.55 813.61 1035.11 812.634C1029.9 814.05 1031.99 816.437 1026.08 819.024C1023.64 818.396 1021.09 817.677 1018.5 816.869C1015.07 818.43 1011.22 819.845 1007.13 821.118C1000.09 820.787 999.411 819.866 1004.17 818.533C1000.67 817.137 996.76 819.429 992.282 818.702C991.916 818.644 992.648 817.282 992.324 817.256C968.944 815.335 969.261 818.563 965.394 818.509C962.59 818.401 951.237 814.974 951.091 814.123C950.864 812.985 975.911 810.625 937.313 807.28C958.13 805.946 978.702 810.743 964.582 814.132C970.93 814.34 995.944 816.79 997.159 816.443C999.344 816.258 998.615 814.551 1001.28 814.498C1002.66 814.398 1007.75 818.584 1018.14 813.998C1019.53 814.472 1020.93 814.915 1022.28 815.338C1023.37 814.618 1024.37 813.887 1025.31 813.143C1022.76 811.778 1020.16 810.306 1017.52 808.742C1027.76 809.482 1030.57 803.867 1033.57 805.823C1033.71 805.689 1033.83 805.565 1033.94 805.448C1037.51 802.699 1039.01 801.017 1036.27 801.147C1037.74 800.131 1039.2 799.083 1040.71 797.975C1042.2 797.97 1043.73 797.931 1045.27 797.868ZM506.319 897.114C512.897 895.949 514.929 900.074 513.898 900.243C508.013 901.062 502.854 897.679 506.319 897.114ZM1085.61 769.277C1080.91 775.565 1076.06 781.743 1071.11 787.688C1070.24 786.745 1069.38 785.801 1068.52 784.858C1074.27 779.909 1080 774.67 1085.61 769.277ZM448.376 876.571C447.336 877.081 446.304 877.593 445.25 878.089C441.044 872.2 433.608 871.143 429.625 868.91C428.939 868.528 428.36 868.11 427.932 867.629C427.371 866.997 429.335 866.65 430.884 867.047C431.054 867.093 431.22 867.147 431.378 867.21C432.443 867.799 447.422 875.836 448.376 876.571ZM63.1819 795.345C66.7607 795.053 70.3413 794.772 73.9326 794.5C73.4712 793.506 73.0093 792.512 72.547 791.518C70.803 791.766 69.0499 792.02 67.3156 792.271C65.9393 793.293 64.5437 794.322 63.1819 795.345ZM102.8 787.08C108.989 785.528 115.216 784.023 121.49 782.579C97.3613 786.945 116.865 782.052 102.079 784.028C102.319 785.046 102.56 786.063 102.8 787.08ZM166.965 772.271C166.063 771.751 165.161 771.234 164.253 770.719C157.644 771.713 151.116 772.816 144.653 774.003C148.332 771.055 152.087 768.131 155.911 765.241C158.348 764.837 160.765 764.451 163.231 764.075C164.49 766.803 165.733 769.535 166.965 772.271ZM1190.73 627.263C1192.21 625.416 1196.48 621.25 1200.42 617.935C1203.7 615.139 1206.19 613.46 1206.2 613.892C1204.86 615.655 1203.45 617.537 1202.08 619.455C1199.33 623.353 1196.98 627.038 1194.8 630.638C1193.79 629.846 1192.78 629.054 1191.77 628.262C1191.69 629.359 1191.65 630.426 1191.61 631.493C1189.04 633.906 1186.61 636.207 1184.19 638.551C1184.08 640.523 1183.93 642.561 1183.85 644.503C1181.85 645.02 1179.84 645.556 1177.85 646.066C1185.45 632.302 1187.24 633.91 1189.3 631.256C1190.41 629.866 1190.49 628.518 1190.6 627.75C1190.64 627.588 1190.69 627.425 1190.73 627.263ZM1076.07 767.315C1087.03 755.845 1095.8 751.113 1101.46 740.373C1101.21 750.539 1063.21 781.34 1053.85 794.442C1051.94 794.757 1050.06 795.039 1048.18 795.297C1055.42 790.643 1058.79 784.981 1061.81 781.888C1064.21 779.412 1064.64 780.373 1064.82 780.191C1064.83 780.183 1064.84 780.174 1064.85 780.166C1070.56 774.322 1071.71 771.812 1076.07 767.315ZM441.403 866.85C445.65 867.78 451.334 871.271 450.304 873.224C446.732 871.928 443.091 870.469 439.388 868.869C440.378 868.824 440.684 866.702 441.403 866.85ZM173.888 765.044C177.844 763.769 187.65 763.351 183.663 765.716C182.944 766.115 173.221 765.935 179.234 768.698C169.98 769.795 171.64 765.77 173.888 765.044ZM817.558 833.601C815.171 834.318 812.889 834.945 810.728 835.469C809.992 834.74 809.277 834.001 808.579 833.254C811.321 833.541 814.34 833.647 817.558 833.601ZM412.312 844.569C406.458 845.703 403.423 838.105 394.963 836.311C392.62 834.604 390.255 832.884 387.871 831.16C387.865 831.156 387.86 831.152 387.854 831.148C388.501 830.136 389.148 829.124 389.795 828.112C397.517 833.717 405.004 839.249 412.312 844.569ZM1016.16 810.592C1014.91 811.288 1013.58 811.968 1012.2 812.626C1009.62 812.162 1006.95 811.63 1004.22 811.038C1005.67 810.542 1007.11 810.028 1008.48 809.497C1011.14 809.93 1013.72 810.296 1016.16 810.592ZM370.903 813.746C379.984 819.489 380.95 824.892 369.874 817.029C365.157 813.719 361.247 807.743 370.903 813.746ZM1363.37 507.189C1360.21 509.099 1357.07 511.029 1353.93 512.994C1352.46 512.846 1350.97 512.706 1349.48 512.571C1354.1 510.72 1358.73 508.927 1363.37 507.189ZM123.412 774.292C123.992 774.99 124.577 775.687 125.16 776.384C128.298 775.56 131.446 774.751 134.604 773.962C133.637 773.341 132.69 772.717 131.728 772.097C128.938 772.817 126.18 773.546 123.412 774.292ZM1341.53 518.926C1339 520.454 1336.5 521.993 1333.99 523.553C1332.08 524.165 1330.16 524.79 1328.25 525.419C1330.45 523.731 1332.67 522.054 1334.91 520.384C1337.11 519.889 1339.32 519.401 1341.53 518.926ZM267.137 765.664C272.345 765.504 290.877 773.425 273.353 769.842C262.193 767.942 266.357 765.705 267.137 765.664ZM240.939 761.278C259.628 761.33 244.677 768.338 223.876 762.079C245.264 763.393 239.923 761.454 240.939 761.278ZM97.2408 773.79C96.8654 773.885 96.8733 775.26 93.8757 776.035C83.11 778.805 69.1803 782.967 61.6378 785.077C57.7581 786.157 52.1144 787.6 45.6311 789.278C21.8447 795.385 -12.9633 804.903 -17.0419 809.323C-18.1261 810.499 -14.3916 811.924 -14.8921 812.205C-16.368 813.01 -25.7456 814.598 -23.5553 815.813C-14.6989 813.128 -5.81384 810.458 3.09937 807.815C0.552368 807.246 -1.99475 806.681 -4.5426 806.117C17.8796 800.198 10.5189 802.31 17.6965 803.083C21.1757 800.962 24.6667 798.847 28.171 796.736C34.4041 795.77 40.6503 794.823 46.9098 793.902C49.2664 793.554 51.5848 793.219 53.9417 792.879C51.8259 792.627 49.7506 792.367 47.6396 792.12C59.8116 787.245 56.5931 789.143 63.9856 789.167C63.7939 788.39 63.6022 787.614 63.4104 786.837C76.1328 785.481 77.9302 782.587 80.6292 781.863C86.2156 780.435 95.2662 787.752 114.664 773.741C124.734 776.169 122.642 767.219 129.009 770.686C143.702 762.533 114.098 770.284 100.511 773.814C100.503 773.816 100.496 773.817 100.489 773.819C99.454 774.079 100.904 772.85 97.2408 773.79ZM179.48 763.213C168.681 760.056 209.387 755.802 196.346 763.014C194.367 763.364 192.373 763.731 190.419 764.108C186.74 763.767 183.11 763.469 179.457 763.215C179.464 763.214 179.472 763.214 179.48 763.213ZM496.951 883.649C498.422 884.007 499.779 884.326 501.032 884.619C519.52 888.426 508.87 889.103 500.76 886.458C500.143 886.249 499.551 886.021 498.997 885.775C497.344 885.044 496.546 884.253 496.951 883.649ZM1089.55 748.582C1090.21 748.591 1090.88 748.597 1091.55 748.601C1084.42 755.933 1072.08 771.004 1069.91 768.331C1076.55 762.048 1083.13 755.407 1089.55 748.582ZM1032.34 797.607C1033.64 796.533 1039.45 791.677 1039.49 793.189C1037.34 795.92 1035.19 798.55 1033.11 801.005C1032.5 801.145 1031.89 801.274 1031.3 801.385C1031.01 801.182 1030.7 800.978 1030.39 800.775C1030.49 800.634 1030.5 800.345 1030.44 800.057C1031.33 798.958 1032.11 797.799 1032.34 797.607Z" fill="#F3E582" fill-opacity="0.7"/>
</svg>
